<?xml version="1.0" encoding="UTF-8" standalone="no"?><svg xmlns="http://www.w3.org/2000/svg" xmlns:xlink="http://www.w3.org/1999/xlink" contentScriptType="application/ecmascript" contentStyleType="text/css" height="1053px" preserveAspectRatio="none" style="width:1303px;height:1053px;" version="1.1" viewBox="0 0 1303 1053" width="1303px" zoomAndPan="magnify"><defs><filter height="300%" id="ffxgjqy" width="300%" x="-1" y="-1"><feGaussianBlur result="blurOut" stdDeviation="2.0"/><feColorMatrix in="blurOut" result="blurOut2" type="matrix" values="0 0 0 0 0 0 0 0 0 0 0 0 0 0 0 0 0 0 .4 0"/><feOffset dx="4.0" dy="4.0" in="blurOut2" result="blurOut3"/><feBlend in="SourceGraphic" in2="blurOut3" mode="normal"/></filter></defs><g><!--class agents--><rect fill="#FEFECE" filter="url(#ffxgjqy)" height="48" style="stroke: #A80036; stroke-width: 1.5;" width="76" x="1218" y="657"/><ellipse cx="1233" cy="673" fill="#ADD1B2" rx="11" ry="11" style="stroke: #A80036; stroke-width: 1.0;"/><path d="M1235.9688,678.6406 Q1235.3906,678.9375 1234.75,679.0859 Q1234.1094,679.2344 1233.4063,679.2344 Q1230.9063,679.2344 1229.5859,677.5859 Q1228.2656,675.9375 1228.2656,672.8125 Q1228.2656,669.6875 1229.5859,668.0313 Q1230.9063,666.375 1233.4063,666.375 Q1234.1094,666.375 1234.7578,666.5313 Q1235.4063,666.6875 1235.9688,666.9844 L1235.9688,669.7031 Q1235.3438,669.125 1234.75,668.8516 Q1234.1563,668.5781 1233.5313,668.5781 Q1232.1875,668.5781 1231.5,669.6484 Q1230.8125,670.7188 1230.8125,672.8125 Q1230.8125,674.9063 1231.5,675.9766 Q1232.1875,677.0469 1233.5313,677.0469 Q1234.1563,677.0469 1234.75,676.7734 Q1235.3438,676.5 1235.9688,675.9219 L1235.9688,678.6406 Z "/><text fill="#000000" font-family="sans-serif" font-size="12" lengthAdjust="spacingAndGlyphs" textLength="44" x="1247" y="677.1543">agents</text><line style="stroke: #A80036; stroke-width: 1.5;" x1="1219" x2="1293" y1="689" y2="689"/><line style="stroke: #A80036; stroke-width: 1.5;" x1="1219" x2="1293" y1="697" y2="697"/><!--class agent--><rect fill="#FEFECE" filter="url(#ffxgjqy)" height="60.8047" style="stroke: #A80036; stroke-width: 1.5;" width="87" x="1028.5" y="839.5"/><ellipse cx="1051.6" cy="855.5" fill="#ADD1B2" rx="11" ry="11" style="stroke: #A80036; stroke-width: 1.0;"/><path d="M1054.5688,861.1406 Q1053.9906,861.4375 1053.35,861.5859 Q1052.7094,861.7344 1052.0063,861.7344 Q1049.5063,861.7344 1048.1859,860.0859 Q1046.8656,858.4375 1046.8656,855.3125 Q1046.8656,852.1875 1048.1859,850.5313 Q1049.5063,848.875 1052.0063,848.875 Q1052.7094,848.875 1053.3578,849.0313 Q1054.0063,849.1875 1054.5688,849.4844 L1054.5688,852.2031 Q1053.9438,851.625 1053.35,851.3516 Q1052.7563,851.0781 1052.1313,851.0781 Q1050.7875,851.0781 1050.1,852.1484 Q1049.4125,853.2188 1049.4125,855.3125 Q1049.4125,857.4063 1050.1,858.4766 Q1050.7875,859.5469 1052.1313,859.5469 Q1052.7563,859.5469 1053.35,859.2734 Q1053.9438,859 1054.5688,858.4219 L1054.5688,861.1406 Z "/><text fill="#000000" font-family="sans-serif" font-size="12" lengthAdjust="spacingAndGlyphs" textLength="37" x="1067.4" y="859.6543">agent</text><line style="stroke: #A80036; stroke-width: 1.5;" x1="1029.5" x2="1114.5" y1="871.5" y2="871.5"/><text fill="#000000" font-family="sans-serif" font-size="11" lengthAdjust="spacingAndGlyphs" textLength="75" x="1034.5" y="885.7104">value : string</text><line style="stroke: #A80036; stroke-width: 1.5;" x1="1029.5" x2="1114.5" y1="892.3047" y2="892.3047"/><!--class craftTypes--><rect fill="#FEFECE" filter="url(#ffxgjqy)" height="48" style="stroke: #A80036; stroke-width: 1.5;" width="97" x="108.5" y="478"/><ellipse cx="123.5" cy="494" fill="#ADD1B2" rx="11" ry="11" style="stroke: #A80036; stroke-width: 1.0;"/><path d="M126.4688,499.6406 Q125.8906,499.9375 125.25,500.0859 Q124.6094,500.2344 123.9063,500.2344 Q121.4063,500.2344 120.0859,498.5859 Q118.7656,496.9375 118.7656,493.8125 Q118.7656,490.6875 120.0859,489.0313 Q121.4063,487.375 123.9063,487.375 Q124.6094,487.375 125.2578,487.5313 Q125.9063,487.6875 126.4688,487.9844 L126.4688,490.7031 Q125.8438,490.125 125.25,489.8516 Q124.6563,489.5781 124.0313,489.5781 Q122.6875,489.5781 122,490.6484 Q121.3125,491.7188 121.3125,493.8125 Q121.3125,495.9063 122,496.9766 Q122.6875,498.0469 124.0313,498.0469 Q124.6563,498.0469 125.25,497.7734 Q125.8438,497.5 126.4688,496.9219 L126.4688,499.6406 Z "/><text fill="#000000" font-family="sans-serif" font-size="12" lengthAdjust="spacingAndGlyphs" textLength="65" x="137.5" y="498.1543">craftTypes</text><line style="stroke: #A80036; stroke-width: 1.5;" x1="109.5" x2="204.5" y1="510" y2="510"/><line style="stroke: #A80036; stroke-width: 1.5;" x1="109.5" x2="204.5" y1="518" y2="518"/><!--class craftType--><rect fill="#FEFECE" filter="url(#ffxgjqy)" height="60.8047" style="stroke: #A80036; stroke-width: 1.5;" width="90" x="297" y="650.5"/><ellipse cx="312" cy="666.5" fill="#ADD1B2" rx="11" ry="11" style="stroke: #A80036; stroke-width: 1.0;"/><path d="M314.9688,672.1406 Q314.3906,672.4375 313.75,672.5859 Q313.1094,672.7344 312.4063,672.7344 Q309.9063,672.7344 308.5859,671.0859 Q307.2656,669.4375 307.2656,666.3125 Q307.2656,663.1875 308.5859,661.5313 Q309.9063,659.875 312.4063,659.875 Q313.1094,659.875 313.7578,660.0313 Q314.4063,660.1875 314.9688,660.4844 L314.9688,663.2031 Q314.3438,662.625 313.75,662.3516 Q313.1563,662.0781 312.5313,662.0781 Q311.1875,662.0781 310.5,663.1484 Q309.8125,664.2188 309.8125,666.3125 Q309.8125,668.4063 310.5,669.4766 Q311.1875,670.5469 312.5313,670.5469 Q313.1563,670.5469 313.75,670.2734 Q314.3438,670 314.9688,669.4219 L314.9688,672.1406 Z "/><text fill="#000000" font-family="sans-serif" font-size="12" lengthAdjust="spacingAndGlyphs" textLength="58" x="326" y="670.6543">craftType</text><line style="stroke: #A80036; stroke-width: 1.5;" x1="298" x2="386" y1="682.5" y2="682.5"/><text fill="#000000" font-family="sans-serif" font-size="11" lengthAdjust="spacingAndGlyphs" textLength="75" x="303" y="696.7104">value : string</text><line style="stroke: #A80036; stroke-width: 1.5;" x1="298" x2="386" y1="703.3047" y2="703.3047"/><!--class tracks--><rect fill="#FEFECE" filter="url(#ffxgjqy)" height="48" style="stroke: #A80036; stroke-width: 1.5;" width="71" x="421.5" y="347"/><ellipse cx="436.5" cy="363" fill="#ADD1B2" rx="11" ry="11" style="stroke: #A80036; stroke-width: 1.0;"/><path d="M439.4688,368.6406 Q438.8906,368.9375 438.25,369.0859 Q437.6094,369.2344 436.9063,369.2344 Q434.4063,369.2344 433.0859,367.5859 Q431.7656,365.9375 431.7656,362.8125 Q431.7656,359.6875 433.0859,358.0313 Q434.4063,356.375 436.9063,356.375 Q437.6094,356.375 438.2578,356.5313 Q438.9063,356.6875 439.4688,356.9844 L439.4688,359.7031 Q438.8438,359.125 438.25,358.8516 Q437.6563,358.5781 437.0313,358.5781 Q435.6875,358.5781 435,359.6484 Q434.3125,360.7188 434.3125,362.8125 Q434.3125,364.9063 435,365.9766 Q435.6875,367.0469 437.0313,367.0469 Q437.6563,367.0469 438.25,366.7734 Q438.8438,366.5 439.4688,365.9219 L439.4688,368.6406 Z "/><text fill="#000000" font-family="sans-serif" font-size="12" lengthAdjust="spacingAndGlyphs" textLength="39" x="450.5" y="367.1543">tracks</text><line style="stroke: #A80036; stroke-width: 1.5;" x1="422.5" x2="491.5" y1="379" y2="379"/><line style="stroke: #A80036; stroke-width: 1.5;" x1="422.5" x2="491.5" y1="387" y2="387"/><!--class craftFixes--><rect fill="#FEFECE" filter="url(#ffxgjqy)" height="48" style="stroke: #A80036; stroke-width: 1.5;" width="92" x="411" y="478"/><ellipse cx="426" cy="494" fill="#ADD1B2" rx="11" ry="11" style="stroke: #A80036; stroke-width: 1.0;"/><path d="M428.9688,499.6406 Q428.3906,499.9375 427.75,500.0859 Q427.1094,500.2344 426.4063,500.2344 Q423.9063,500.2344 422.5859,498.5859 Q421.2656,496.9375 421.2656,493.8125 Q421.2656,490.6875 422.5859,489.0313 Q423.9063,487.375 426.4063,487.375 Q427.1094,487.375 427.7578,487.5313 Q428.4063,487.6875 428.9688,487.9844 L428.9688,490.7031 Q428.3438,490.125 427.75,489.8516 Q427.1563,489.5781 426.5313,489.5781 Q425.1875,489.5781 424.5,490.6484 Q423.8125,491.7188 423.8125,493.8125 Q423.8125,495.9063 424.5,496.9766 Q425.1875,498.0469 426.5313,498.0469 Q427.1563,498.0469 427.75,497.7734 Q428.3438,497.5 428.9688,496.9219 L428.9688,499.6406 Z "/><text fill="#000000" font-family="sans-serif" font-size="12" lengthAdjust="spacingAndGlyphs" textLength="60" x="440" y="498.1543">craftFixes</text><line style="stroke: #A80036; stroke-width: 1.5;" x1="412" x2="502" y1="510" y2="510"/><line style="stroke: #A80036; stroke-width: 1.5;" x1="412" x2="502" y1="518" y2="518"/><!--class craftpic--><rect fill="#FEFECE" filter="url(#ffxgjqy)" height="48" style="stroke: #A80036; stroke-width: 1.5;" width="79" x="677.5" y="347"/><ellipse cx="692.5" cy="363" fill="#ADD1B2" rx="11" ry="11" style="stroke: #A80036; stroke-width: 1.0;"/><path d="M695.4688,368.6406 Q694.8906,368.9375 694.25,369.0859 Q693.6094,369.2344 692.9063,369.2344 Q690.4063,369.2344 689.0859,367.5859 Q687.7656,365.9375 687.7656,362.8125 Q687.7656,359.6875 689.0859,358.0313 Q690.4063,356.375 692.9063,356.375 Q693.6094,356.375 694.2578,356.5313 Q694.9063,356.6875 695.4688,356.9844 L695.4688,359.7031 Q694.8438,359.125 694.25,358.8516 Q693.6563,358.5781 693.0313,358.5781 Q691.6875,358.5781 691,359.6484 Q690.3125,360.7188 690.3125,362.8125 Q690.3125,364.9063 691,365.9766 Q691.6875,367.0469 693.0313,367.0469 Q693.6563,367.0469 694.25,366.7734 Q694.8438,366.5 695.4688,365.9219 L695.4688,368.6406 Z "/><text fill="#000000" font-family="sans-serif" font-size="12" lengthAdjust="spacingAndGlyphs" textLength="47" x="706.5" y="367.1543">craftpic</text><line style="stroke: #A80036; stroke-width: 1.5;" x1="678.5" x2="755.5" y1="379" y2="379"/><line style="stroke: #A80036; stroke-width: 1.5;" x1="678.5" x2="755.5" y1="387" y2="387"/><!--class craftFix--><rect fill="#FEFECE" filter="url(#ffxgjqy)" height="48" style="stroke: #A80036; stroke-width: 1.5;" width="77" x="678.5" y="478"/><ellipse cx="693.5" cy="494" fill="#ADD1B2" rx="11" ry="11" style="stroke: #A80036; stroke-width: 1.0;"/><path d="M696.4688,499.6406 Q695.8906,499.9375 695.25,500.0859 Q694.6094,500.2344 693.9063,500.2344 Q691.4063,500.2344 690.0859,498.5859 Q688.7656,496.9375 688.7656,493.8125 Q688.7656,490.6875 690.0859,489.0313 Q691.4063,487.375 693.9063,487.375 Q694.6094,487.375 695.2578,487.5313 Q695.9063,487.6875 696.4688,487.9844 L696.4688,490.7031 Q695.8438,490.125 695.25,489.8516 Q694.6563,489.5781 694.0313,489.5781 Q692.6875,489.5781 692,490.6484 Q691.3125,491.7188 691.3125,493.8125 Q691.3125,495.9063 692,496.9766 Q692.6875,498.0469 694.0313,498.0469 Q694.6563,498.0469 695.25,497.7734 Q695.8438,497.5 696.4688,496.9219 L696.4688,499.6406 Z "/><text fill="#000000" font-family="sans-serif" font-size="12" lengthAdjust="spacingAndGlyphs" textLength="45" x="707.5" y="498.1543">craftFix</text><line style="stroke: #A80036; stroke-width: 1.5;" x1="679.5" x2="754.5" y1="510" y2="510"/><line style="stroke: #A80036; stroke-width: 1.5;" x1="679.5" x2="754.5" y1="518" y2="518"/><!--class craftId--><rect fill="#FEFECE" filter="url(#ffxgjqy)" height="60.8047" style="stroke: #A80036; stroke-width: 1.5;" width="87" x="559.5" y="650.5"/><ellipse cx="581.25" cy="666.5" fill="#ADD1B2" rx="11" ry="11" style="stroke: #A80036; stroke-width: 1.0;"/><path d="M584.2188,672.1406 Q583.6406,672.4375 583,672.5859 Q582.3594,672.7344 581.6563,672.7344 Q579.1563,672.7344 577.8359,671.0859 Q576.5156,669.4375 576.5156,666.3125 Q576.5156,663.1875 577.8359,661.5313 Q579.1563,659.875 581.6563,659.875 Q582.3594,659.875 583.0078,660.0313 Q583.6563,660.1875 584.2188,660.4844 L584.2188,663.2031 Q583.5938,662.625 583,662.3516 Q582.4063,662.0781 581.7813,662.0781 Q580.4375,662.0781 579.75,663.1484 Q579.0625,664.2188 579.0625,666.3125 Q579.0625,668.4063 579.75,669.4766 Q580.4375,670.5469 581.7813,670.5469 Q582.4063,670.5469 583,670.2734 Q583.5938,670 584.2188,669.4219 L584.2188,672.1406 Z "/><text fill="#000000" font-family="sans-serif" font-size="12" lengthAdjust="spacingAndGlyphs" textLength="40" x="596.75" y="670.6543">craftId</text><line style="stroke: #A80036; stroke-width: 1.5;" x1="560.5" x2="645.5" y1="682.5" y2="682.5"/><text fill="#000000" font-family="sans-serif" font-size="11" lengthAdjust="spacingAndGlyphs" textLength="75" x="565.5" y="696.7104">value : string</text><line style="stroke: #A80036; stroke-width: 1.5;" x1="560.5" x2="645.5" y1="703.3047" y2="703.3047"/><!--class identifierTypes--><rect fill="#FEFECE" filter="url(#ffxgjqy)" height="48" style="stroke: #A80036; stroke-width: 1.5;" width="123" x="158.5" y="846"/><ellipse cx="173.5" cy="862" fill="#ADD1B2" rx="11" ry="11" style="stroke: #A80036; stroke-width: 1.0;"/><path d="M176.4688,867.6406 Q175.8906,867.9375 175.25,868.0859 Q174.6094,868.2344 173.9063,868.2344 Q171.4063,868.2344 170.0859,866.5859 Q168.7656,864.9375 168.7656,861.8125 Q168.7656,858.6875 170.0859,857.0313 Q171.4063,855.375 173.9063,855.375 Q174.6094,855.375 175.2578,855.5313 Q175.9063,855.6875 176.4688,855.9844 L176.4688,858.7031 Q175.8438,858.125 175.25,857.8516 Q174.6563,857.5781 174.0313,857.5781 Q172.6875,857.5781 172,858.6484 Q171.3125,859.7188 171.3125,861.8125 Q171.3125,863.9063 172,864.9766 Q172.6875,866.0469 174.0313,866.0469 Q174.6563,866.0469 175.25,865.7734 Q175.8438,865.5 176.4688,864.9219 L176.4688,867.6406 Z "/><text fill="#000000" font-family="sans-serif" font-size="12" lengthAdjust="spacingAndGlyphs" textLength="91" x="187.5" y="866.1543">identifierTypes</text><line style="stroke: #A80036; stroke-width: 1.5;" x1="159.5" x2="280.5" y1="878" y2="878"/><line style="stroke: #A80036; stroke-width: 1.5;" x1="159.5" x2="280.5" y1="886" y2="886"/><!--class identifierType--><rect fill="#FEFECE" filter="url(#ffxgjqy)" height="60.8047" style="stroke: #A80036; stroke-width: 1.5;" width="116" x="290" y="984"/><ellipse cx="305" cy="1000" fill="#ADD1B2" rx="11" ry="11" style="stroke: #A80036; stroke-width: 1.0;"/><path d="M307.9688,1005.6406 Q307.3906,1005.9375 306.75,1006.0859 Q306.1094,1006.2344 305.4063,1006.2344 Q302.9063,1006.2344 301.5859,1004.5859 Q300.2656,1002.9375 300.2656,999.8125 Q300.2656,996.6875 301.5859,995.0313 Q302.9063,993.375 305.4063,993.375 Q306.1094,993.375 306.7578,993.5313 Q307.4063,993.6875 307.9688,993.9844 L307.9688,996.7031 Q307.3438,996.125 306.75,995.8516 Q306.1563,995.5781 305.5313,995.5781 Q304.1875,995.5781 303.5,996.6484 Q302.8125,997.7188 302.8125,999.8125 Q302.8125,1001.9063 303.5,1002.9766 Q304.1875,1004.0469 305.5313,1004.0469 Q306.1563,1004.0469 306.75,1003.7734 Q307.3438,1003.5 307.9688,1002.9219 L307.9688,1005.6406 Z "/><text fill="#000000" font-family="sans-serif" font-size="12" lengthAdjust="spacingAndGlyphs" textLength="84" x="319" y="1004.1543">identifierType</text><line style="stroke: #A80036; stroke-width: 1.5;" x1="291" x2="405" y1="1016" y2="1016"/><text fill="#000000" font-family="sans-serif" font-size="11" lengthAdjust="spacingAndGlyphs" textLength="75" x="296" y="1030.2104">value : string</text><line style="stroke: #A80036; stroke-width: 1.5;" x1="291" x2="405" y1="1036.8047" y2="1036.8047"/><!--class identifier--><rect fill="#FEFECE" filter="url(#ffxgjqy)" height="60.8047" style="stroke: #A80036; stroke-width: 1.5;" width="87" x="393.5" y="839.5"/><ellipse cx="408.5" cy="855.5" fill="#ADD1B2" rx="11" ry="11" style="stroke: #A80036; stroke-width: 1.0;"/><path d="M411.4688,861.1406 Q410.8906,861.4375 410.25,861.5859 Q409.6094,861.7344 408.9063,861.7344 Q406.4063,861.7344 405.0859,860.0859 Q403.7656,858.4375 403.7656,855.3125 Q403.7656,852.1875 405.0859,850.5313 Q406.4063,848.875 408.9063,848.875 Q409.6094,848.875 410.2578,849.0313 Q410.9063,849.1875 411.4688,849.4844 L411.4688,852.2031 Q410.8438,851.625 410.25,851.3516 Q409.6563,851.0781 409.0313,851.0781 Q407.6875,851.0781 407,852.1484 Q406.3125,853.2188 406.3125,855.3125 Q406.3125,857.4063 407,858.4766 Q407.6875,859.5469 409.0313,859.5469 Q409.6563,859.5469 410.25,859.2734 Q410.8438,859 411.4688,858.4219 L411.4688,861.1406 Z "/><text fill="#000000" font-family="sans-serif" font-size="12" lengthAdjust="spacingAndGlyphs" textLength="55" x="422.5" y="859.6543">identifier</text><line style="stroke: #A80036; stroke-width: 1.5;" x1="394.5" x2="479.5" y1="871.5" y2="871.5"/><text fill="#000000" font-family="sans-serif" font-size="11" lengthAdjust="spacingAndGlyphs" textLength="75" x="399.5" y="885.7104">value : string</text><line style="stroke: #A80036; stroke-width: 1.5;" x1="394.5" x2="479.5" y1="892.3047" y2="892.3047"/><!--class property--><rect fill="#FEFECE" filter="url(#ffxgjqy)" height="73.6094" style="stroke: #A80036; stroke-width: 1.5;" width="87" x="887.5" y="833"/><ellipse cx="903.4" cy="849" fill="#ADD1B2" rx="11" ry="11" style="stroke: #A80036; stroke-width: 1.0;"/><path d="M906.3688,854.6406 Q905.7906,854.9375 905.15,855.0859 Q904.5094,855.2344 903.8063,855.2344 Q901.3063,855.2344 899.9859,853.5859 Q898.6656,851.9375 898.6656,848.8125 Q898.6656,845.6875 899.9859,844.0313 Q901.3063,842.375 903.8063,842.375 Q904.5094,842.375 905.1578,842.5313 Q905.8063,842.6875 906.3688,842.9844 L906.3688,845.7031 Q905.7438,845.125 905.15,844.8516 Q904.5563,844.5781 903.9313,844.5781 Q902.5875,844.5781 901.9,845.6484 Q901.2125,846.7188 901.2125,848.8125 Q901.2125,850.9063 901.9,851.9766 Q902.5875,853.0469 903.9313,853.0469 Q904.5563,853.0469 905.15,852.7734 Q905.7438,852.5 906.3688,851.9219 L906.3688,854.6406 Z "/><text fill="#000000" font-family="sans-serif" font-size="12" lengthAdjust="spacingAndGlyphs" textLength="53" x="917.6" y="853.1543">property</text><line style="stroke: #A80036; stroke-width: 1.5;" x1="888.5" x2="973.5" y1="865" y2="865"/><text fill="#000000" font-family="sans-serif" font-size="11" lengthAdjust="spacingAndGlyphs" textLength="64" x="893.5" y="879.2104">key : string</text><text fill="#000000" font-family="sans-serif" font-size="11" lengthAdjust="spacingAndGlyphs" textLength="75" x="893.5" y="892.0151">value : string</text><line style="stroke: #A80036; stroke-width: 1.5;" x1="888.5" x2="973.5" y1="898.6094" y2="898.6094"/><!--class fix--><rect fill="#FEFECE" filter="url(#ffxgjqy)" height="150.4375" style="stroke: #A80036; stroke-width: 1.5;" width="230" x="816" y="606"/><ellipse cx="920.25" cy="622" fill="#ADD1B2" rx="11" ry="11" style="stroke: #A80036; stroke-width: 1.0;"/><path d="M923.2188,627.6406 Q922.6406,627.9375 922,628.0859 Q921.3594,628.2344 920.6563,628.2344 Q918.1563,628.2344 916.8359,626.5859 Q915.5156,624.9375 915.5156,621.8125 Q915.5156,618.6875 916.8359,617.0313 Q918.1563,615.375 920.6563,615.375 Q921.3594,615.375 922.0078,615.5313 Q922.6563,615.6875 923.2188,615.9844 L923.2188,618.7031 Q922.5938,618.125 922,617.8516 Q921.4063,617.5781 920.7813,617.5781 Q919.4375,617.5781 918.75,618.6484 Q918.0625,619.7188 918.0625,621.8125 Q918.0625,623.9063 918.75,624.9766 Q919.4375,626.0469 920.7813,626.0469 Q921.4063,626.0469 922,625.7734 Q922.5938,625.5 923.2188,624.9219 L923.2188,627.6406 Z "/><text fill="#000000" font-family="sans-serif" font-size="12" lengthAdjust="spacingAndGlyphs" textLength="13" x="940.75" y="626.1543">fix</text><line style="stroke: #A80036; stroke-width: 1.5;" x1="817" x2="1045" y1="638" y2="638"/><text fill="#000000" font-family="sans-serif" font-size="11" lengthAdjust="spacingAndGlyphs" textLength="68" x="822" y="652.2104">fixId : string</text><text fill="#000000" font-family="sans-serif" font-size="11" lengthAdjust="spacingAndGlyphs" textLength="98" x="822" y="665.0151">time : timestamp</text><text fill="#000000" font-family="sans-serif" font-size="11" lengthAdjust="spacingAndGlyphs" textLength="70" x="822" y="677.8198">lat : decimal</text><text fill="#000000" font-family="sans-serif" font-size="11" lengthAdjust="spacingAndGlyphs" textLength="73" x="822" y="690.6245">lon : decimal</text><text fill="#000000" font-family="sans-serif" font-size="11" lengthAdjust="spacingAndGlyphs" textLength="164" x="822" y="703.4292">altitudeMetres : decimal {O}</text><text fill="#000000" font-family="sans-serif" font-size="11" lengthAdjust="spacingAndGlyphs" textLength="103" x="822" y="716.2339">cog : decimal {O}</text><text fill="#000000" font-family="sans-serif" font-size="11" lengthAdjust="spacingAndGlyphs" textLength="150" x="822" y="729.0386">speedKnots : decimal {O}</text><text fill="#000000" font-family="sans-serif" font-size="11" lengthAdjust="spacingAndGlyphs" textLength="218" x="822" y="741.8433">closestActualFixTime : timestamp {O}</text><line style="stroke: #A80036; stroke-width: 1.5;" x1="817" x2="1045" y1="748.4375" y2="748.4375"/><!--class GET /agent--><rect fill="#FEFECE" filter="url(#ffxgjqy)" height="53.9375" style="stroke: #A80036; stroke-width: 1.5;" width="75" x="1218.5" y="475"/><text fill="#000000" font-family="sans-serif" font-size="12" font-style="italic" lengthAdjust="spacingAndGlyphs" textLength="61" x="1225.5" y="491.1387">«Method»</text><text fill="#000000" font-family="sans-serif" font-size="12" lengthAdjust="spacingAndGlyphs" textLength="69" x="1221.5" y="505.1074">GET /agent</text><line style="stroke: #A80036; stroke-width: 1.5;" x1="1219.5" x2="1292.5" y1="512.9375" y2="512.9375"/><line style="stroke: #A80036; stroke-width: 1.5;" x1="1219.5" x2="1292.5" y1="520.9375" y2="520.9375"/><!--class GET /craftType--><rect fill="#FEFECE" filter="url(#ffxgjqy)" height="53.9375" style="stroke: #A80036; stroke-width: 1.5;" width="96" x="109" y="344"/><text fill="#000000" font-family="sans-serif" font-size="12" font-style="italic" lengthAdjust="spacingAndGlyphs" textLength="61" x="126.5" y="360.1387">«Method»</text><text fill="#000000" font-family="sans-serif" font-size="12" lengthAdjust="spacingAndGlyphs" textLength="90" x="112" y="374.1074">GET /craftType</text><line style="stroke: #A80036; stroke-width: 1.5;" x1="110" x2="204" y1="381.9375" y2="381.9375"/><line style="stroke: #A80036; stroke-width: 1.5;" x1="110" x2="204" y1="389.9375" y2="389.9375"/><!--class GET /identifierType--><rect fill="#FEFECE" filter="url(#ffxgjqy)" height="53.9375" style="stroke: #A80036; stroke-width: 1.5;" width="122" x="6" y="654"/><text fill="#000000" font-family="sans-serif" font-size="12" font-style="italic" lengthAdjust="spacingAndGlyphs" textLength="61" x="36.5" y="670.1387">«Method»</text><text fill="#000000" font-family="sans-serif" font-size="12" lengthAdjust="spacingAndGlyphs" textLength="116" x="9" y="684.1074">GET /identifierType</text><line style="stroke: #A80036; stroke-width: 1.5;" x1="7" x2="127" y1="691.9375" y2="691.9375"/><line style="stroke: #A80036; stroke-width: 1.5;" x1="7" x2="127" y1="699.9375" y2="699.9375"/><!--class GET /track/rect--><rect fill="#FEFECE" filter="url(#ffxgjqy)" height="207.5938" style="stroke: #A80036; stroke-width: 1.5;" width="210" x="109" y="33.5"/><text fill="#000000" font-family="sans-serif" font-size="12" font-style="italic" lengthAdjust="spacingAndGlyphs" textLength="61" x="183.5" y="49.6387">«Method»</text><text fill="#000000" font-family="sans-serif" font-size="12" lengthAdjust="spacingAndGlyphs" textLength="93" x="167.5" y="63.6074">GET /track/rect</text><line style="stroke: #A80036; stroke-width: 1.5;" x1="110" x2="318" y1="71.4375" y2="71.4375"/><text fill="#000000" font-family="sans-serif" font-size="11" lengthAdjust="spacingAndGlyphs" textLength="177" x="115" y="85.6479">startTimeInclusive : timestamp</text><text fill="#000000" font-family="sans-serif" font-size="11" lengthAdjust="spacingAndGlyphs" textLength="184" x="115" y="98.4526">finishTimeExclusive : timestamp</text><text fill="#000000" font-family="sans-serif" font-size="11" lengthAdjust="spacingAndGlyphs" textLength="161" x="115" y="111.2573">identifierValue : string[] {O}</text><text fill="#000000" font-family="sans-serif" font-size="11" lengthAdjust="spacingAndGlyphs" textLength="116" x="115" y="124.062">craftId : string[] {O}</text><text fill="#000000" font-family="sans-serif" font-size="11" lengthAdjust="spacingAndGlyphs" textLength="133" x="115" y="136.8667">craftType : string[] {O}</text><text fill="#000000" font-family="sans-serif" font-size="11" lengthAdjust="spacingAndGlyphs" textLength="112" x="115" y="149.6714">agent : string[] {O}</text><text fill="#000000" font-family="sans-serif" font-size="11" lengthAdjust="spacingAndGlyphs" textLength="94" x="115" y="162.4761">minLat : decimal</text><text fill="#000000" font-family="sans-serif" font-size="11" lengthAdjust="spacingAndGlyphs" textLength="97" x="115" y="175.2808">maxLat : decimal</text><text fill="#000000" font-family="sans-serif" font-size="11" lengthAdjust="spacingAndGlyphs" textLength="94" x="115" y="188.0854">leftLon : decimal</text><text fill="#000000" font-family="sans-serif" font-size="11" lengthAdjust="spacingAndGlyphs" textLength="102" x="115" y="200.8901">rightLon : decimal</text><text fill="#000000" font-family="sans-serif" font-size="11" lengthAdjust="spacingAndGlyphs" textLength="198" x="115" y="213.6948">includeFixProperties : boolean {O}</text><text fill="#000000" font-family="sans-serif" font-size="11" lengthAdjust="spacingAndGlyphs" textLength="193" x="115" y="226.4995">includeFixIdentifers : boolean {O}</text><line style="stroke: #A80036; stroke-width: 1.5;" x1="110" x2="318" y1="233.0938" y2="233.0938"/><!--class GET /track/circle--><rect fill="#FEFECE" filter="url(#ffxgjqy)" height="194.7891" style="stroke: #A80036; stroke-width: 1.5;" width="210" x="354" y="40"/><text fill="#000000" font-family="sans-serif" font-size="12" font-style="italic" lengthAdjust="spacingAndGlyphs" textLength="61" x="428.5" y="56.1387">«Method»</text><text fill="#000000" font-family="sans-serif" font-size="12" lengthAdjust="spacingAndGlyphs" textLength="101" x="408.5" y="70.1074">GET /track/circle</text><line style="stroke: #A80036; stroke-width: 1.5;" x1="355" x2="563" y1="77.9375" y2="77.9375"/><text fill="#000000" font-family="sans-serif" font-size="11" lengthAdjust="spacingAndGlyphs" textLength="177" x="360" y="92.1479">startTimeInclusive : timestamp</text><text fill="#000000" font-family="sans-serif" font-size="11" lengthAdjust="spacingAndGlyphs" textLength="184" x="360" y="104.9526">finishTimeExclusive : timestamp</text><text fill="#000000" font-family="sans-serif" font-size="11" lengthAdjust="spacingAndGlyphs" textLength="161" x="360" y="117.7573">identifierValue : string[] {O}</text><text fill="#000000" font-family="sans-serif" font-size="11" lengthAdjust="spacingAndGlyphs" textLength="116" x="360" y="130.562">craftId : string[] {O}</text><text fill="#000000" font-family="sans-serif" font-size="11" lengthAdjust="spacingAndGlyphs" textLength="133" x="360" y="143.3667">craftType : string[] {O}</text><text fill="#000000" font-family="sans-serif" font-size="11" lengthAdjust="spacingAndGlyphs" textLength="112" x="360" y="156.1714">agent : string[] {O}</text><text fill="#000000" font-family="sans-serif" font-size="11" lengthAdjust="spacingAndGlyphs" textLength="109" x="360" y="168.9761">centreLat : decimal</text><text fill="#000000" font-family="sans-serif" font-size="11" lengthAdjust="spacingAndGlyphs" textLength="112" x="360" y="181.7808">centreLon : decimal</text><text fill="#000000" font-family="sans-serif" font-size="11" lengthAdjust="spacingAndGlyphs" textLength="111" x="360" y="194.5854">radiusNm : decimal</text><text fill="#000000" font-family="sans-serif" font-size="11" lengthAdjust="spacingAndGlyphs" textLength="198" x="360" y="207.3901">includeFixProperties : boolean {O}</text><text fill="#000000" font-family="sans-serif" font-size="11" lengthAdjust="spacingAndGlyphs" textLength="193" x="360" y="220.1948">includeFixIdentifers : boolean {O}</text><line style="stroke: #A80036; stroke-width: 1.5;" x1="355" x2="563" y1="226.7891" y2="226.7891"/><!--class GET /craftpic/rect--><rect fill="#FEFECE" filter="url(#ffxgjqy)" height="258.8125" style="stroke: #A80036; stroke-width: 1.5;" width="223" x="603.5" y="8"/><text fill="#000000" font-family="sans-serif" font-size="12" font-style="italic" lengthAdjust="spacingAndGlyphs" textLength="61" x="684.5" y="24.1387">«Method»</text><text fill="#000000" font-family="sans-serif" font-size="12" lengthAdjust="spacingAndGlyphs" textLength="108" x="661" y="38.1074">GET /craftpic/rect</text><line style="stroke: #A80036; stroke-width: 1.5;" x1="604.5" x2="825.5" y1="45.9375" y2="45.9375"/><text fill="#000000" font-family="sans-serif" font-size="11" lengthAdjust="spacingAndGlyphs" textLength="98" x="609.5" y="60.1479">time : timestamp</text><text fill="#000000" font-family="sans-serif" font-size="11" lengthAdjust="spacingAndGlyphs" textLength="127" x="609.5" y="72.9526">beforeHours : decimal</text><text fill="#000000" font-family="sans-serif" font-size="11" lengthAdjust="spacingAndGlyphs" textLength="117" x="609.5" y="85.7573">afterHours : decimal</text><text fill="#000000" font-family="sans-serif" font-size="11" lengthAdjust="spacingAndGlyphs" textLength="161" x="609.5" y="98.562">identifierValue : string[] {O}</text><text fill="#000000" font-family="sans-serif" font-size="11" lengthAdjust="spacingAndGlyphs" textLength="116" x="609.5" y="111.3667">craftId : string[] {O}</text><text fill="#000000" font-family="sans-serif" font-size="11" lengthAdjust="spacingAndGlyphs" textLength="133" x="609.5" y="124.1714">craftType : string[] {O}</text><text fill="#000000" font-family="sans-serif" font-size="11" lengthAdjust="spacingAndGlyphs" textLength="112" x="609.5" y="136.9761">agent : string[] {O}</text><text fill="#000000" font-family="sans-serif" font-size="11" lengthAdjust="spacingAndGlyphs" textLength="94" x="609.5" y="149.7808">minLat : decimal</text><text fill="#000000" font-family="sans-serif" font-size="11" lengthAdjust="spacingAndGlyphs" textLength="97" x="609.5" y="162.5854">maxLat : decimal</text><text fill="#000000" font-family="sans-serif" font-size="11" lengthAdjust="spacingAndGlyphs" textLength="94" x="609.5" y="175.3901">leftLon : decimal</text><text fill="#000000" font-family="sans-serif" font-size="11" lengthAdjust="spacingAndGlyphs" textLength="102" x="609.5" y="188.1948">rightLon : decimal</text><text fill="#000000" font-family="sans-serif" font-size="11" lengthAdjust="spacingAndGlyphs" textLength="198" x="609.5" y="200.9995">includeFixProperties : boolean {O}</text><text fill="#000000" font-family="sans-serif" font-size="11" lengthAdjust="spacingAndGlyphs" textLength="211" x="609.5" y="213.8042">includeCraftProperties : boolean {O}</text><text fill="#000000" font-family="sans-serif" font-size="11" lengthAdjust="spacingAndGlyphs" textLength="193" x="609.5" y="226.6089">includeFixIdentifers : boolean {O}</text><text fill="#000000" font-family="sans-serif" font-size="11" lengthAdjust="spacingAndGlyphs" textLength="137" x="609.5" y="239.4136">predicted : boolean {O}</text><text fill="#000000" font-family="sans-serif" font-size="11" lengthAdjust="spacingAndGlyphs" textLength="206" x="609.5" y="252.2183">speedForMarginKnots : decimal {O}</text><line style="stroke: #A80036; stroke-width: 1.5;" x1="604.5" x2="825.5" y1="258.8125" y2="258.8125"/><!--class GET /craftpic/circle--><rect fill="#FEFECE" filter="url(#ffxgjqy)" height="246.0078" style="stroke: #A80036; stroke-width: 1.5;" width="223" x="861.5" y="14.5"/><text fill="#000000" font-family="sans-serif" font-size="12" font-style="italic" lengthAdjust="spacingAndGlyphs" textLength="61" x="942.5" y="30.6387">«Method»</text><text fill="#000000" font-family="sans-serif" font-size="12" lengthAdjust="spacingAndGlyphs" textLength="116" x="915" y="44.6074">GET /craftpic/circle</text><line style="stroke: #A80036; stroke-width: 1.5;" x1="862.5" x2="1083.5" y1="52.4375" y2="52.4375"/><text fill="#000000" font-family="sans-serif" font-size="11" lengthAdjust="spacingAndGlyphs" textLength="98" x="867.5" y="66.6479">time : timestamp</text><text fill="#000000" font-family="sans-serif" font-size="11" lengthAdjust="spacingAndGlyphs" textLength="127" x="867.5" y="79.4526">beforeHours : decimal</text><text fill="#000000" font-family="sans-serif" font-size="11" lengthAdjust="spacingAndGlyphs" textLength="117" x="867.5" y="92.2573">afterHours : decimal</text><text fill="#000000" font-family="sans-serif" font-size="11" lengthAdjust="spacingAndGlyphs" textLength="161" x="867.5" y="105.062">identifierValue : string[] {O}</text><text fill="#000000" font-family="sans-serif" font-size="11" lengthAdjust="spacingAndGlyphs" textLength="116" x="867.5" y="117.8667">craftId : string[] {O}</text><text fill="#000000" font-family="sans-serif" font-size="11" lengthAdjust="spacingAndGlyphs" textLength="133" x="867.5" y="130.6714">craftType : string[] {O}</text><text fill="#000000" font-family="sans-serif" font-size="11" lengthAdjust="spacingAndGlyphs" textLength="112" x="867.5" y="143.4761">agent : string[] {O}</text><text fill="#000000" font-family="sans-serif" font-size="11" lengthAdjust="spacingAndGlyphs" textLength="109" x="867.5" y="156.2808">centreLat : decimal</text><text fill="#000000" font-family="sans-serif" font-size="11" lengthAdjust="spacingAndGlyphs" textLength="112" x="867.5" y="169.0854">centreLon : decimal</text><text fill="#000000" font-family="sans-serif" font-size="11" lengthAdjust="spacingAndGlyphs" textLength="111" x="867.5" y="181.8901">radiusNm : decimal</text><text fill="#000000" font-family="sans-serif" font-size="11" lengthAdjust="spacingAndGlyphs" textLength="211" x="867.5" y="194.6948">includeCraftProperties : boolean {O}</text><text fill="#000000" font-family="sans-serif" font-size="11" lengthAdjust="spacingAndGlyphs" textLength="198" x="867.5" y="207.4995">includeFixProperties : boolean {O}</text><text fill="#000000" font-family="sans-serif" font-size="11" lengthAdjust="spacingAndGlyphs" textLength="193" x="867.5" y="220.3042">includeFixIdentifers : boolean {O}</text><text fill="#000000" font-family="sans-serif" font-size="11" lengthAdjust="spacingAndGlyphs" textLength="137" x="867.5" y="233.1089">predicted : boolean {O}</text><text fill="#000000" font-family="sans-serif" font-size="11" lengthAdjust="spacingAndGlyphs" textLength="206" x="867.5" y="245.9136">speedForMarginKnots : decimal {O}</text><line style="stroke: #A80036; stroke-width: 1.5;" x1="862.5" x2="1083.5" y1="252.5078" y2="252.5078"/><path d="M1236.58,705.122 C1223.91,719.948 1206.84,739.447 1191,756 C1170.13,777.8 1163.87,782.205 1142,803 C1130.69,813.755 1118.31,825.451 1107.15,835.969 " fill="none" style="stroke: #A80036; stroke-width: 1.0;"/><polygon fill="#A80036" points="1103.42,839.488,1112.7133,836.2271,1107.059,836.059,1107.227,830.4047,1103.42,839.488" style="stroke: #A80036; stroke-width: 1.0;"/><text fill="#000000" font-family="sans-serif" font-size="13" lengthAdjust="spacingAndGlyphs" textLength="7" x="1102.5275" y="828.2757">*</text><path d="M183.442,526.291 C206.608,546.888 241.009,577.938 270,606 C283.423,618.993 297.85,633.671 310.238,646.509 " fill="none" style="stroke: #A80036; stroke-width: 1.0;"/><polygon fill="#A80036" points="314.014,650.43,310.6537,641.1721,310.5463,646.8279,304.8904,646.7205,314.014,650.43" style="stroke: #A80036; stroke-width: 1.0;"/><text fill="#000000" font-family="sans-serif" font-size="13" lengthAdjust="spacingAndGlyphs" textLength="7" x="300.1264" y="639.205">*</text><path d="M457,395.063 C457,416.757 457,449.298 457,472.586 " fill="none" style="stroke: #A80036; stroke-width: 1.0;"/><polygon fill="#A80036" points="457,477.702,461,468.702,457,472.702,453,468.702,457,477.702" style="stroke: #A80036; stroke-width: 1.0;"/><text fill="#000000" font-family="sans-serif" font-size="13" lengthAdjust="spacingAndGlyphs" textLength="7" x="449.1469" y="467.0343">*</text><path d="M717,395.063 C717,416.757 717,449.298 717,472.586 " fill="none" style="stroke: #A80036; stroke-width: 1.0;"/><polygon fill="#A80036" points="717,477.702,721,468.702,717,472.702,713,468.702,717,477.702" style="stroke: #A80036; stroke-width: 1.0;"/><text fill="#000000" font-family="sans-serif" font-size="13" lengthAdjust="spacingAndGlyphs" textLength="7" x="709.1469" y="467.0343">*</text><path d="M240.85,894.212 C261.781,917.514 294.238,953.6483 317.948,980.0434 " fill="none" style="stroke: #A80036; stroke-width: 1.0;"/><polygon fill="#A80036" points="321.38,983.8644,318.3418,974.4959,318.0389,980.1446,312.3902,979.8416,321.38,983.8644" style="stroke: #A80036; stroke-width: 1.0;"/><text fill="#000000" font-family="sans-serif" font-size="13" lengthAdjust="spacingAndGlyphs" textLength="7" x="308.1678" y="973.0997">*</text><path d="M702.096,526.14 C682.458,556.631 647.756,610.51 625.07,645.734 " fill="none" style="stroke: #A80036; stroke-width: 1.0;"/><polygon fill="#A80036" points="622.089,650.362,630.3245,644.9605,624.7959,646.1581,623.5983,640.6295,622.089,650.362" style="stroke: #A80036; stroke-width: 1.0;"/><text fill="#000000" font-family="sans-serif" font-size="13" lengthAdjust="spacingAndGlyphs" textLength="8" x="617.2011" y="639.5968">1</text><path d="M678.107,510.103 C617.859,522.399 499.962,551.7 414,606 C396.962,616.763 381.002,632.345 368.46,646.437 " fill="none" style="stroke: #A80036; stroke-width: 1.0;"/><polygon fill="#A80036" points="365.015,650.367,373.9554,646.2355,368.3108,646.6069,367.9393,640.9623,365.015,650.367" style="stroke: #A80036; stroke-width: 1.0;"/><text fill="#000000" font-family="sans-serif" font-size="13" lengthAdjust="spacingAndGlyphs" textLength="8" x="360.9368" y="639.6028">1</text><path d="M718.478,526.338 C720.285,574.498 717.907,686.212 664,756 C619.55,813.545 537.962,843.874 485.662,858.151 " fill="none" style="stroke: #A80036; stroke-width: 1.0;"/><polygon fill="#A80036" points="480.695,859.483,490.4236,861.0172,485.5246,858.1888,488.3529,853.2898,480.695,859.483" style="stroke: #A80036; stroke-width: 1.0;"/><text fill="#000000" font-family="sans-serif" font-size="13" lengthAdjust="spacingAndGlyphs" textLength="62" x="717" y="685.5669">identifiers</text><text fill="#000000" font-family="sans-serif" font-size="13" lengthAdjust="spacingAndGlyphs" textLength="7" x="488.5117" y="853.593">*</text><path d="M755.587,508.658 C837.797,521.585 1025.77,556.07 1063,606 C1102.85,659.444 1090.88,695.441 1063,756 C1045.75,793.48 1009.25,823.167 978.998,842.689 " fill="none" style="stroke: #A80036; stroke-width: 1.0;"/><polygon fill="#A80036" points="974.583,845.495,984.3241,844.042,978.8025,842.8125,980.032,837.2909,974.583,845.495" style="stroke: #A80036; stroke-width: 1.0;"/><text fill="#000000" font-family="sans-serif" font-size="13" lengthAdjust="spacingAndGlyphs" textLength="65" x="1090" y="685.5669">properties</text><text fill="#000000" font-family="sans-serif" font-size="13" lengthAdjust="spacingAndGlyphs" textLength="7" x="982.3811" y="837.3044">*</text><path d="M755.777,515.004 C781.473,524.25 814.937,538.873 840,559 C854.986,571.035 868.836,586.067 880.976,601.403 " fill="none" style="stroke: #A80036; stroke-width: 1.0;"/><polygon fill="#A80036" points="884.354,605.734,881.9744,596.1769,881.2796,601.7909,875.6655,601.096,884.354,605.734" style="stroke: #A80036; stroke-width: 1.0;"/><text fill="#000000" font-family="sans-serif" font-size="13" lengthAdjust="spacingAndGlyphs" textLength="8" x="871.5268" y="594.8977">1</text><path d="M476.087,526.14 C501.341,556.755 546.044,610.95 575.09,646.164 " fill="none" style="stroke: #A80036; stroke-width: 1.0;"/><polygon fill="#A80036" points="578.553,650.362,575.9121,640.8738,575.3715,646.5048,569.7405,645.9642,578.553,650.362" style="stroke: #A80036; stroke-width: 1.0;"/><text fill="#000000" font-family="sans-serif" font-size="13" lengthAdjust="spacingAndGlyphs" textLength="8" x="564.6858" y="639.5968">1</text><path d="M416.807,526.173 C404.214,535.074 391.214,546.211 382,559 C363.448,584.748 353.128,619.63 347.639,645.326 " fill="none" style="stroke: #A80036; stroke-width: 1.0;"/><polygon fill="#A80036" points="346.605,650.337,352.3405,642.3305,347.615,645.4401,344.5054,640.7145,346.605,650.337" style="stroke: #A80036; stroke-width: 1.0;"/><text fill="#000000" font-family="sans-serif" font-size="13" lengthAdjust="spacingAndGlyphs" textLength="8" x="338.7298" y="639.5666">1</text><path d="M410.919,507.681 C353.767,516.235 258.568,540.107 215,606 C178.231,661.61 180.155,699.164 215,756 C252.555,817.256 334.867,846.597 388.026,859.648 " fill="none" style="stroke: #A80036; stroke-width: 1.0;"/><polygon fill="#A80036" points="393.077,860.86,385.2591,854.87,388.2151,859.6931,383.392,862.6491,393.077,860.86" style="stroke: #A80036; stroke-width: 1.0;"/><text fill="#000000" font-family="sans-serif" font-size="13" lengthAdjust="spacingAndGlyphs" textLength="62" x="216" y="685.5669">identifiers</text><text fill="#000000" font-family="sans-serif" font-size="13" lengthAdjust="spacingAndGlyphs" textLength="7" x="378.519" y="855.301">*</text><path d="M450.406,526.065 C437.905,575.197 416.898,690.992 475,756 C523.796,810.596 565.69,769.368 637,786 C724.414,806.387 824.744,836.094 882.707,853.888 " fill="none" style="stroke: #A80036; stroke-width: 1.0;"/><polygon fill="#A80036" points="887.493,855.36,880.0664,848.8912,882.7139,853.8903,877.7148,856.5378,887.493,855.36" style="stroke: #A80036; stroke-width: 1.0;"/><text fill="#000000" font-family="sans-serif" font-size="13" lengthAdjust="spacingAndGlyphs" textLength="65" x="476" y="685.5669">properties</text><text fill="#000000" font-family="sans-serif" font-size="13" lengthAdjust="spacingAndGlyphs" textLength="7" x="872.4137" y="848.6666">*</text><path d="M503.018,514.468 C567.962,531.279 689.67,565.099 789,606 C796.344,609.024 803.818,612.295 811.3,615.72 " fill="none" style="stroke: #A80036; stroke-width: 1.0;"/><polygon fill="#A80036" points="815.959,617.871,809.466,610.4656,811.4199,615.7743,806.1112,617.7282,815.959,617.871" style="stroke: #A80036; stroke-width: 1.0;"/><text fill="#000000" font-family="sans-serif" font-size="13" lengthAdjust="spacingAndGlyphs" textLength="29" x="710" y="572.0669">fixes</text><text fill="#000000" font-family="sans-serif" font-size="13" lengthAdjust="spacingAndGlyphs" textLength="7" x="800.9945" y="610.1823">*</text><path d="M418.559,900.526 C404.275,923.396 384.461,955.1215 369.465,979.1319 " fill="none" style="stroke: #A80036; stroke-width: 1.0;"/><polygon fill="#A80036" points="366.723,983.5215,374.8838,978.0077,369.3721,979.2809,368.0989,973.7692,366.723,983.5215" style="stroke: #A80036; stroke-width: 1.0;"/><text fill="#000000" font-family="sans-serif" font-size="13" lengthAdjust="spacingAndGlyphs" textLength="22" x="397" y="950.0669">key</text><text fill="#000000" font-family="sans-serif" font-size="13" lengthAdjust="spacingAndGlyphs" textLength="8" x="361.6216" y="973.0452">1</text><path d="M986.929,756.176 C1007.49,783.439 1029.77,812.994 1046.37,835.013 " fill="none" style="stroke: #A80036; stroke-width: 1.0;"/><polygon fill="#A80036" points="1049.41,839.035,1047.1782,829.4424,1046.3967,835.045,1040.7941,834.2636,1049.41,839.035" style="stroke: #A80036; stroke-width: 1.0;"/><text fill="#000000" font-family="sans-serif" font-size="13" lengthAdjust="spacingAndGlyphs" textLength="8" x="1035.9258" y="828.2023">1</text><path d="M931,756.176 C931,780.523 931,806.698 931,827.702 " fill="none" style="stroke: #A80036; stroke-width: 1.0;"/><polygon fill="#A80036" points="931,832.926,935,823.926,931,827.926,927,823.926,931,832.926" style="stroke: #A80036; stroke-width: 1.0;"/><text fill="#000000" font-family="sans-serif" font-size="13" lengthAdjust="spacingAndGlyphs" textLength="65" x="932" y="799.0669">properties</text><text fill="#000000" font-family="sans-serif" font-size="13" lengthAdjust="spacingAndGlyphs" textLength="7" x="923.3547" y="821.8228">*</text><path d="M815.919,744.031 C806.894,748.262 797.85,752.305 789,756 C683.443,800.072 554.256,837.548 485.501,856.251 " fill="none" style="stroke: #A80036; stroke-width: 1.0;"/><polygon fill="#A80036" points="480.656,857.565,490.3892,859.0701,485.4817,856.2564,488.2954,851.349,480.656,857.565" style="stroke: #A80036; stroke-width: 1.0;"/><text fill="#000000" font-family="sans-serif" font-size="13" lengthAdjust="spacingAndGlyphs" textLength="62" x="705" y="799.0669">identifiers</text><text fill="#000000" font-family="sans-serif" font-size="13" lengthAdjust="spacingAndGlyphs" textLength="7" x="488.4662" y="868.8417">*</text><path d="M1256,529.117 C1256,561.886 1256,617.873 1256,651.656 " fill="none" style="stroke: #A80036; stroke-width: 1.0;"/><polygon fill="#A80036" points="1256,656.88,1260,647.88,1256,651.88,1252,647.88,1256,656.88" style="stroke: #A80036; stroke-width: 1.0;"/><text fill="#000000" font-family="sans-serif" font-size="13" lengthAdjust="spacingAndGlyphs" textLength="24" x="1257" y="572.0669">200</text><path d="M157,398.105 C157,419.779 157,450.547 157,472.786 " fill="none" style="stroke: #A80036; stroke-width: 1.0;"/><polygon fill="#A80036" points="157,477.961,161,468.961,157,472.961,153,468.961,157,477.961" style="stroke: #A80036; stroke-width: 1.0;"/><text fill="#000000" font-family="sans-serif" font-size="13" lengthAdjust="spacingAndGlyphs" textLength="24" x="158" y="441.0669">200</text><path d="M81.5024,708.409 C96.115,733.902 120.149,772.951 146,803 C158.107,817.074 173.146,831.002 186.498,842.411 " fill="none" style="stroke: #A80036; stroke-width: 1.0;"/><polygon fill="#A80036" points="190.583,845.868,186.2981,837.0001,186.7667,842.6375,181.1293,843.1062,190.583,845.868" style="stroke: #A80036; stroke-width: 1.0;"/><text fill="#000000" font-family="sans-serif" font-size="13" lengthAdjust="spacingAndGlyphs" textLength="24" x="147" y="799.0669">200</text><path d="M309.932,241.518 C318.63,250.255 327.401,258.856 336,267 C364.708,294.191 399.2,323.223 424,343.51 " fill="none" style="stroke: #A80036; stroke-width: 1.0;"/><polygon fill="#A80036" points="427.895,346.689,423.4508,337.8998,424.0211,343.5279,418.393,344.0981,427.895,346.689" style="stroke: #A80036; stroke-width: 1.0;"/><text fill="#000000" font-family="sans-serif" font-size="13" lengthAdjust="spacingAndGlyphs" textLength="24" x="390" y="310.0669">200</text><path d="M458.166,235.001 C457.833,273.616 457.474,315.171 457.243,341.822 " fill="none" style="stroke: #A80036; stroke-width: 1.0;"/><polygon fill="#A80036" points="457.199,346.948,461.2786,337.9838,457.2433,341.9482,453.2789,337.9129,457.199,346.948" style="stroke: #A80036; stroke-width: 1.0;"/><text fill="#000000" font-family="sans-serif" font-size="13" lengthAdjust="spacingAndGlyphs" textLength="24" x="459" y="310.0669">200</text><path d="M716.111,267.113 C716.354,295.27 716.589,322.4 716.756,341.725 " fill="none" style="stroke: #A80036; stroke-width: 1.0;"/><polygon fill="#A80036" points="716.801,346.963,720.7211,337.9279,716.7567,341.9632,712.7214,337.9988,716.801,346.963" style="stroke: #A80036; stroke-width: 1.0;"/><text fill="#000000" font-family="sans-serif" font-size="13" lengthAdjust="spacingAndGlyphs" textLength="24" x="718" y="310.0669">200</text><path d="M861.446,250.989 C855.596,256.457 849.759,261.821 844,267 C813.645,294.299 777.318,323.43 751.307,343.721 " fill="none" style="stroke: #A80036; stroke-width: 1.0;"/><polygon fill="#A80036" points="747.223,346.9,756.782,344.5281,751.1685,343.8287,751.8679,338.2153,747.223,346.9" style="stroke: #A80036; stroke-width: 1.0;"/><text fill="#000000" font-family="sans-serif" font-size="13" lengthAdjust="spacingAndGlyphs" textLength="24" x="808" y="310.0669">200</text></g></svg>