<?xml version="1.0" encoding="us-ascii" standalone="no"?><svg xmlns="http://www.w3.org/2000/svg" xmlns:xlink="http://www.w3.org/1999/xlink" contentStyleType="text/css" height="1087px" preserveAspectRatio="none" style="width:1391px;height:1087px;background:#FFFFFF;" version="1.1" viewBox="0 0 1391 1087" width="1391px" zoomAndPan="magnify"><defs/><g><!--class agents--><g id="elem_agents"><rect codeLine="8" fill="#F1F1F1" height="32" id="agents" rx="2.5" ry="2.5" style="stroke:#181818;stroke-width:0.5;" width="80" x="1302.5" y="696"/><ellipse cx="1317.5" cy="712" fill="#ADD1B2" rx="11" ry="11" style="stroke:#181818;stroke-width:1.0;"/><path d="M1320.4688,717.6406 Q1319.8906,717.9375 1319.25,718.0781 Q1318.6094,718.2344 1317.9063,718.2344 Q1315.4063,718.2344 1314.0781,716.5938 Q1312.7656,714.9375 1312.7656,711.8125 Q1312.7656,708.6875 1314.0781,707.0313 Q1315.4063,705.375 1317.9063,705.375 Q1318.6094,705.375 1319.25,705.5313 Q1319.9063,705.6875 1320.4688,705.9844 L1320.4688,708.7031 Q1319.8438,708.125 1319.25,707.8594 Q1318.6563,707.5781 1318.0313,707.5781 Q1316.6875,707.5781 1316,708.6563 Q1315.3125,709.7188 1315.3125,711.8125 Q1315.3125,713.9063 1316,714.9844 Q1316.6875,716.0469 1318.0313,716.0469 Q1318.6563,716.0469 1319.25,715.7813 Q1319.8438,715.5 1320.4688,714.9219 L1320.4688,717.6406 Z " fill="#000000"/><text fill="#000000" font-family="sans-serif" font-size="14" lengthAdjust="spacing" textLength="48" x="1331.5" y="716.8467">agents</text></g><!--class agent--><g id="elem_agent"><rect codeLine="11" fill="#F1F1F1" height="56.2969" id="agent" rx="2.5" ry="2.5" style="stroke:#181818;stroke-width:0.5;" width="100" x="1167.5" y="882.5"/><ellipse cx="1195.1" cy="898.5" fill="#ADD1B2" rx="11" ry="11" style="stroke:#181818;stroke-width:1.0;"/><path d="M1198.0688,904.1406 Q1197.4906,904.4375 1196.85,904.5781 Q1196.2094,904.7344 1195.5063,904.7344 Q1193.0063,904.7344 1191.6781,903.0938 Q1190.3656,901.4375 1190.3656,898.3125 Q1190.3656,895.1875 1191.6781,893.5313 Q1193.0063,891.875 1195.5063,891.875 Q1196.2094,891.875 1196.85,892.0313 Q1197.5063,892.1875 1198.0688,892.4844 L1198.0688,895.2031 Q1197.4438,894.625 1196.85,894.3594 Q1196.2563,894.0781 1195.6313,894.0781 Q1194.2875,894.0781 1193.6,895.1563 Q1192.9125,896.2188 1192.9125,898.3125 Q1192.9125,900.4063 1193.6,901.4844 Q1194.2875,902.5469 1195.6313,902.5469 Q1196.2563,902.5469 1196.85,902.2813 Q1197.4438,902 1198.0688,901.4219 L1198.0688,904.1406 Z " fill="#000000"/><text fill="#000000" font-family="sans-serif" font-size="14" lengthAdjust="spacing" textLength="40" x="1211.9" y="903.3467">agent</text><line style="stroke:#181818;stroke-width:0.5;" x1="1168.5" x2="1266.5" y1="914.5" y2="914.5"/><text fill="#000000" font-family="sans-serif" font-size="14" lengthAdjust="spacing" textLength="88" x="1173.5" y="931.4951">value : string</text></g><!--class craftTypes--><g id="elem_craftTypes"><rect codeLine="15" fill="#F1F1F1" height="32" id="craftTypes" rx="2.5" ry="2.5" style="stroke:#181818;stroke-width:0.5;" width="104" x="121.5" y="514"/><ellipse cx="136.5" cy="530" fill="#ADD1B2" rx="11" ry="11" style="stroke:#181818;stroke-width:1.0;"/><path d="M139.4688,535.6406 Q138.8906,535.9375 138.25,536.0781 Q137.6094,536.2344 136.9063,536.2344 Q134.4063,536.2344 133.0781,534.5938 Q131.7656,532.9375 131.7656,529.8125 Q131.7656,526.6875 133.0781,525.0313 Q134.4063,523.375 136.9063,523.375 Q137.6094,523.375 138.25,523.5313 Q138.9063,523.6875 139.4688,523.9844 L139.4688,526.7031 Q138.8438,526.125 138.25,525.8594 Q137.6563,525.5781 137.0313,525.5781 Q135.6875,525.5781 135,526.6563 Q134.3125,527.7188 134.3125,529.8125 Q134.3125,531.9063 135,532.9844 Q135.6875,534.0469 137.0313,534.0469 Q137.6563,534.0469 138.25,533.7813 Q138.8438,533.5 139.4688,532.9219 L139.4688,535.6406 Z " fill="#000000"/><text fill="#000000" font-family="sans-serif" font-size="14" lengthAdjust="spacing" textLength="72" x="150.5" y="534.8467">craftTypes</text></g><!--class tracks--><g id="elem_tracks"><rect codeLine="18" fill="#F1F1F1" height="32" id="tracks" rx="2.5" ry="2.5" style="stroke:#181818;stroke-width:0.5;" width="74" x="731.5" y="397"/><ellipse cx="746.5" cy="413" fill="#ADD1B2" rx="11" ry="11" style="stroke:#181818;stroke-width:1.0;"/><path d="M749.4688,418.6406 Q748.8906,418.9375 748.25,419.0781 Q747.6094,419.2344 746.9063,419.2344 Q744.4063,419.2344 743.0781,417.5938 Q741.7656,415.9375 741.7656,412.8125 Q741.7656,409.6875 743.0781,408.0313 Q744.4063,406.375 746.9063,406.375 Q747.6094,406.375 748.25,406.5313 Q748.9063,406.6875 749.4688,406.9844 L749.4688,409.7031 Q748.8438,409.125 748.25,408.8594 Q747.6563,408.5781 747.0313,408.5781 Q745.6875,408.5781 745,409.6563 Q744.3125,410.7188 744.3125,412.8125 Q744.3125,414.9063 745,415.9844 Q745.6875,417.0469 747.0313,417.0469 Q747.6563,417.0469 748.25,416.7813 Q748.8438,416.5 749.4688,415.9219 L749.4688,418.6406 Z " fill="#000000"/><text fill="#000000" font-family="sans-serif" font-size="14" lengthAdjust="spacing" textLength="42" x="760.5" y="417.8467">tracks</text></g><!--class craftpic--><g id="elem_craftpic"><rect codeLine="21" fill="#F1F1F1" height="32" id="craftpic" rx="2.5" ry="2.5" style="stroke:#181818;stroke-width:0.5;" width="82" x="425.5" y="397"/><ellipse cx="440.5" cy="413" fill="#ADD1B2" rx="11" ry="11" style="stroke:#181818;stroke-width:1.0;"/><path d="M443.4688,418.6406 Q442.8906,418.9375 442.25,419.0781 Q441.6094,419.2344 440.9063,419.2344 Q438.4063,419.2344 437.0781,417.5938 Q435.7656,415.9375 435.7656,412.8125 Q435.7656,409.6875 437.0781,408.0313 Q438.4063,406.375 440.9063,406.375 Q441.6094,406.375 442.25,406.5313 Q442.9063,406.6875 443.4688,406.9844 L443.4688,409.7031 Q442.8438,409.125 442.25,408.8594 Q441.6563,408.5781 441.0313,408.5781 Q439.6875,408.5781 439,409.6563 Q438.3125,410.7188 438.3125,412.8125 Q438.3125,414.9063 439,415.9844 Q439.6875,417.0469 441.0313,417.0469 Q441.6563,417.0469 442.25,416.7813 Q442.8438,416.5 443.4688,415.9219 L443.4688,418.6406 Z " fill="#000000"/><text fill="#000000" font-family="sans-serif" font-size="14" lengthAdjust="spacing" textLength="50" x="454.5" y="417.8467">craftpic</text></g><!--class craftId--><g id="elem_craftId"><rect codeLine="24" fill="#F1F1F1" height="56.2969" id="craftId" rx="2.5" ry="2.5" style="stroke:#181818;stroke-width:0.5;" width="100" x="585.5" y="684"/><ellipse cx="612.2" cy="700" fill="#ADD1B2" rx="11" ry="11" style="stroke:#181818;stroke-width:1.0;"/><path d="M615.1688,705.6406 Q614.5906,705.9375 613.95,706.0781 Q613.3094,706.2344 612.6063,706.2344 Q610.1063,706.2344 608.7781,704.5938 Q607.4656,702.9375 607.4656,699.8125 Q607.4656,696.6875 608.7781,695.0313 Q610.1063,693.375 612.6063,693.375 Q613.3094,693.375 613.95,693.5313 Q614.6063,693.6875 615.1688,693.9844 L615.1688,696.7031 Q614.5438,696.125 613.95,695.8594 Q613.3563,695.5781 612.7313,695.5781 Q611.3875,695.5781 610.7,696.6563 Q610.0125,697.7188 610.0125,699.8125 Q610.0125,701.9063 610.7,702.9844 Q611.3875,704.0469 612.7313,704.0469 Q613.3563,704.0469 613.95,703.7813 Q614.5438,703.5 615.1688,702.9219 L615.1688,705.6406 Z " fill="#000000"/><text fill="#000000" font-family="sans-serif" font-size="14" lengthAdjust="spacing" textLength="42" x="628.8" y="704.8467">craftId</text><line style="stroke:#181818;stroke-width:0.5;" x1="586.5" x2="684.5" y1="716" y2="716"/><text fill="#000000" font-family="sans-serif" font-size="14" lengthAdjust="spacing" textLength="88" x="591.5" y="732.9951">value : string</text></g><!--class craftType--><g id="elem_craftType"><rect codeLine="28" fill="#F1F1F1" height="56.2969" id="craftType" rx="2.5" ry="2.5" style="stroke:#181818;stroke-width:0.5;" width="100" x="313.5" y="684"/><ellipse cx="330.3" cy="700" fill="#ADD1B2" rx="11" ry="11" style="stroke:#181818;stroke-width:1.0;"/><path d="M333.2688,705.6406 Q332.6906,705.9375 332.05,706.0781 Q331.4094,706.2344 330.7063,706.2344 Q328.2063,706.2344 326.8781,704.5938 Q325.5656,702.9375 325.5656,699.8125 Q325.5656,696.6875 326.8781,695.0313 Q328.2063,693.375 330.7063,693.375 Q331.4094,693.375 332.05,693.5313 Q332.7063,693.6875 333.2688,693.9844 L333.2688,696.7031 Q332.6438,696.125 332.05,695.8594 Q331.4563,695.5781 330.8313,695.5781 Q329.4875,695.5781 328.8,696.6563 Q328.1125,697.7188 328.1125,699.8125 Q328.1125,701.9063 328.8,702.9844 Q329.4875,704.0469 330.8313,704.0469 Q331.4563,704.0469 332.05,703.7813 Q332.6438,703.5 333.2688,702.9219 L333.2688,705.6406 Z " fill="#000000"/><text fill="#000000" font-family="sans-serif" font-size="14" lengthAdjust="spacing" textLength="64" x="344.7" y="704.8467">craftType</text><line style="stroke:#181818;stroke-width:0.5;" x1="314.5" x2="412.5" y1="716" y2="716"/><text fill="#000000" font-family="sans-serif" font-size="14" lengthAdjust="spacing" textLength="88" x="319.5" y="732.9951">value : string</text></g><!--class identifierTypes--><g id="elem_identifierTypes"><rect codeLine="32" fill="#F1F1F1" height="32" id="identifierTypes" rx="2.5" ry="2.5" style="stroke:#181818;stroke-width:0.5;" width="133" x="245" y="894.5"/><ellipse cx="260" cy="910.5" fill="#ADD1B2" rx="11" ry="11" style="stroke:#181818;stroke-width:1.0;"/><path d="M262.9688,916.1406 Q262.3906,916.4375 261.75,916.5781 Q261.1094,916.7344 260.4063,916.7344 Q257.9063,916.7344 256.5781,915.0938 Q255.2656,913.4375 255.2656,910.3125 Q255.2656,907.1875 256.5781,905.5313 Q257.9063,903.875 260.4063,903.875 Q261.1094,903.875 261.75,904.0313 Q262.4063,904.1875 262.9688,904.4844 L262.9688,907.2031 Q262.3438,906.625 261.75,906.3594 Q261.1563,906.0781 260.5313,906.0781 Q259.1875,906.0781 258.5,907.1563 Q257.8125,908.2188 257.8125,910.3125 Q257.8125,912.4063 258.5,913.4844 Q259.1875,914.5469 260.5313,914.5469 Q261.1563,914.5469 261.75,914.2813 Q262.3438,914 262.9688,913.4219 L262.9688,916.1406 Z " fill="#000000"/><text fill="#000000" font-family="sans-serif" font-size="14" lengthAdjust="spacing" textLength="101" x="274" y="915.3467">identifierTypes</text></g><!--class identifierType--><g id="elem_identifierType"><rect codeLine="35" fill="#F1F1F1" height="56.2969" id="identifierType" rx="2.5" ry="2.5" style="stroke:#181818;stroke-width:0.5;" width="125" x="325" y="1024"/><ellipse cx="340" cy="1040" fill="#ADD1B2" rx="11" ry="11" style="stroke:#181818;stroke-width:1.0;"/><path d="M342.9688,1045.6406 Q342.3906,1045.9375 341.75,1046.0781 Q341.1094,1046.2344 340.4063,1046.2344 Q337.9063,1046.2344 336.5781,1044.5938 Q335.2656,1042.9375 335.2656,1039.8125 Q335.2656,1036.6875 336.5781,1035.0313 Q337.9063,1033.375 340.4063,1033.375 Q341.1094,1033.375 341.75,1033.5313 Q342.4063,1033.6875 342.9688,1033.9844 L342.9688,1036.7031 Q342.3438,1036.125 341.75,1035.8594 Q341.1563,1035.5781 340.5313,1035.5781 Q339.1875,1035.5781 338.5,1036.6563 Q337.8125,1037.7188 337.8125,1039.8125 Q337.8125,1041.9063 338.5,1042.9844 Q339.1875,1044.0469 340.5313,1044.0469 Q341.1563,1044.0469 341.75,1043.7813 Q342.3438,1043.5 342.9688,1042.9219 L342.9688,1045.6406 Z " fill="#000000"/><text fill="#000000" font-family="sans-serif" font-size="14" lengthAdjust="spacing" textLength="93" x="354" y="1044.8467">identifierType</text><line style="stroke:#181818;stroke-width:0.5;" x1="326" x2="449" y1="1056" y2="1056"/><text fill="#000000" font-family="sans-serif" font-size="14" lengthAdjust="spacing" textLength="88" x="331" y="1072.9951">value : string</text></g><!--class craftFix--><g id="elem_craftFix"><rect codeLine="39" fill="#F1F1F1" height="32" id="craftFix" rx="2.5" ry="2.5" style="stroke:#181818;stroke-width:0.5;" width="80" x="442.5" y="514"/><ellipse cx="457.5" cy="530" fill="#ADD1B2" rx="11" ry="11" style="stroke:#181818;stroke-width:1.0;"/><path d="M460.4688,535.6406 Q459.8906,535.9375 459.25,536.0781 Q458.6094,536.2344 457.9063,536.2344 Q455.4063,536.2344 454.0781,534.5938 Q452.7656,532.9375 452.7656,529.8125 Q452.7656,526.6875 454.0781,525.0313 Q455.4063,523.375 457.9063,523.375 Q458.6094,523.375 459.25,523.5313 Q459.9063,523.6875 460.4688,523.9844 L460.4688,526.7031 Q459.8438,526.125 459.25,525.8594 Q458.6563,525.5781 458.0313,525.5781 Q456.6875,525.5781 456,526.6563 Q455.3125,527.7188 455.3125,529.8125 Q455.3125,531.9063 456,532.9844 Q456.6875,534.0469 458.0313,534.0469 Q458.6563,534.0469 459.25,533.7813 Q459.8438,533.5 460.4688,532.9219 L460.4688,535.6406 Z " fill="#000000"/><text fill="#000000" font-family="sans-serif" font-size="14" lengthAdjust="spacing" textLength="48" x="471.5" y="534.8467">craftFix</text></g><!--class craftFixes--><g id="elem_craftFixes"><rect codeLine="42" fill="#F1F1F1" height="32" id="craftFixes" rx="2.5" ry="2.5" style="stroke:#181818;stroke-width:0.5;" width="97" x="711" y="514"/><ellipse cx="726" cy="530" fill="#ADD1B2" rx="11" ry="11" style="stroke:#181818;stroke-width:1.0;"/><path d="M728.9688,535.6406 Q728.3906,535.9375 727.75,536.0781 Q727.1094,536.2344 726.4063,536.2344 Q723.9063,536.2344 722.5781,534.5938 Q721.2656,532.9375 721.2656,529.8125 Q721.2656,526.6875 722.5781,525.0313 Q723.9063,523.375 726.4063,523.375 Q727.1094,523.375 727.75,523.5313 Q728.4063,523.6875 728.9688,523.9844 L728.9688,526.7031 Q728.3438,526.125 727.75,525.8594 Q727.1563,525.5781 726.5313,525.5781 Q725.1875,525.5781 724.5,526.6563 Q723.8125,527.7188 723.8125,529.8125 Q723.8125,531.9063 724.5,532.9844 Q725.1875,534.0469 726.5313,534.0469 Q727.1563,534.0469 727.75,533.7813 Q728.3438,533.5 728.9688,532.9219 L728.9688,535.6406 Z " fill="#000000"/><text fill="#000000" font-family="sans-serif" font-size="14" lengthAdjust="spacing" textLength="65" x="740" y="534.8467">craftFixes</text></g><!--class identifier--><g id="elem_identifier"><rect codeLine="45" fill="#F1F1F1" height="56.2969" id="identifier" rx="2.5" ry="2.5" style="stroke:#181818;stroke-width:0.5;" width="100" x="468.5" y="882.5"/><ellipse cx="487.55" cy="898.5" fill="#ADD1B2" rx="11" ry="11" style="stroke:#181818;stroke-width:1.0;"/><path d="M490.5188,904.1406 Q489.9406,904.4375 489.3,904.5781 Q488.6594,904.7344 487.9563,904.7344 Q485.4563,904.7344 484.1281,903.0938 Q482.8156,901.4375 482.8156,898.3125 Q482.8156,895.1875 484.1281,893.5313 Q485.4563,891.875 487.9563,891.875 Q488.6594,891.875 489.3,892.0313 Q489.9563,892.1875 490.5188,892.4844 L490.5188,895.2031 Q489.8938,894.625 489.3,894.3594 Q488.7063,894.0781 488.0813,894.0781 Q486.7375,894.0781 486.05,895.1563 Q485.3625,896.2188 485.3625,898.3125 Q485.3625,900.4063 486.05,901.4844 Q486.7375,902.5469 488.0813,902.5469 Q488.7063,902.5469 489.3,902.2813 Q489.8938,902 490.5188,901.4219 L490.5188,904.1406 Z " fill="#000000"/><text fill="#000000" font-family="sans-serif" font-size="14" lengthAdjust="spacing" textLength="59" x="502.45" y="903.3467">identifier</text><line style="stroke:#181818;stroke-width:0.5;" x1="469.5" x2="567.5" y1="914.5" y2="914.5"/><text fill="#000000" font-family="sans-serif" font-size="14" lengthAdjust="spacing" textLength="88" x="474.5" y="931.4951">value : string</text></g><!--class property--><g id="elem_property"><rect codeLine="49" fill="#F1F1F1" height="72.5938" id="property" rx="2.5" ry="2.5" style="stroke:#181818;stroke-width:0.5;" width="100" x="942.5" y="874"/><ellipse cx="962" cy="890" fill="#ADD1B2" rx="11" ry="11" style="stroke:#181818;stroke-width:1.0;"/><path d="M964.9688,895.6406 Q964.3906,895.9375 963.75,896.0781 Q963.1094,896.2344 962.4063,896.2344 Q959.9063,896.2344 958.5781,894.5938 Q957.2656,892.9375 957.2656,889.8125 Q957.2656,886.6875 958.5781,885.0313 Q959.9063,883.375 962.4063,883.375 Q963.1094,883.375 963.75,883.5313 Q964.4063,883.6875 964.9688,883.9844 L964.9688,886.7031 Q964.3438,886.125 963.75,885.8594 Q963.1563,885.5781 962.5313,885.5781 Q961.1875,885.5781 960.5,886.6563 Q959.8125,887.7188 959.8125,889.8125 Q959.8125,891.9063 960.5,892.9844 Q961.1875,894.0469 962.5313,894.0469 Q963.1563,894.0469 963.75,893.7813 Q964.3438,893.5 964.9688,892.9219 L964.9688,895.6406 Z " fill="#000000"/><text fill="#000000" font-family="sans-serif" font-size="14" lengthAdjust="spacing" textLength="58" x="977" y="894.8467">property</text><line style="stroke:#181818;stroke-width:0.5;" x1="943.5" x2="1041.5" y1="906" y2="906"/><text fill="#000000" font-family="sans-serif" font-size="14" lengthAdjust="spacing" textLength="76" x="948.5" y="922.9951">key : string</text><text fill="#000000" font-family="sans-serif" font-size="14" lengthAdjust="spacing" textLength="88" x="948.5" y="939.292">value : string</text></g><!--class fix--><g id="elem_fix"><rect codeLine="54" fill="#F1F1F1" height="170.375" id="fix" rx="2.5" ry="2.5" style="stroke:#181818;stroke-width:0.5;" width="275" x="855" y="627"/><ellipse cx="981.25" cy="643" fill="#ADD1B2" rx="11" ry="11" style="stroke:#181818;stroke-width:1.0;"/><path d="M984.2188,648.6406 Q983.6406,648.9375 983,649.0781 Q982.3594,649.2344 981.6563,649.2344 Q979.1563,649.2344 977.8281,647.5938 Q976.5156,645.9375 976.5156,642.8125 Q976.5156,639.6875 977.8281,638.0313 Q979.1563,636.375 981.6563,636.375 Q982.3594,636.375 983,636.5313 Q983.6563,636.6875 984.2188,636.9844 L984.2188,639.7031 Q983.5938,639.125 983,638.8594 Q982.4063,638.5781 981.7813,638.5781 Q980.4375,638.5781 979.75,639.6563 Q979.0625,640.7188 979.0625,642.8125 Q979.0625,644.9063 979.75,645.9844 Q980.4375,647.0469 981.7813,647.0469 Q982.4063,647.0469 983,646.7813 Q983.5938,646.5 984.2188,645.9219 L984.2188,648.6406 Z " fill="#000000"/><text fill="#000000" font-family="sans-serif" font-size="14" lengthAdjust="spacing" textLength="14" x="1001.75" y="647.8467">fix</text><line style="stroke:#181818;stroke-width:0.5;" x1="856" x2="1129" y1="659" y2="659"/><text fill="#000000" font-family="sans-serif" font-size="14" lengthAdjust="spacing" textLength="78" x="861" y="675.9951">fixId : string</text><text fill="#000000" font-family="sans-serif" font-size="14" lengthAdjust="spacing" textLength="116" x="861" y="692.292">time : timestamp</text><text fill="#000000" font-family="sans-serif" font-size="14" lengthAdjust="spacing" textLength="82" x="861" y="708.5889">lat : decimal</text><text fill="#000000" font-family="sans-serif" font-size="14" lengthAdjust="spacing" textLength="87" x="861" y="724.8857">lon : decimal</text><text fill="#000000" font-family="sans-serif" font-size="14" lengthAdjust="spacing" textLength="198" x="861" y="741.1826">altitudeMetres : decimal {O}</text><text fill="#000000" font-family="sans-serif" font-size="14" lengthAdjust="spacing" textLength="125" x="861" y="757.4795">cog : decimal {O}</text><text fill="#000000" font-family="sans-serif" font-size="14" lengthAdjust="spacing" textLength="183" x="861" y="773.7764">speedKnots : decimal {O}</text><text fill="#000000" font-family="sans-serif" font-size="14" lengthAdjust="spacing" textLength="263" x="861" y="790.0732">closestActualFixTime : timestamp {O}</text></g><!--class GET /agent--><g id="elem_GET /agent"><rect codeLine="65" fill="#F1F1F1" height="40.2656" id="GET /agent" rx="2.5" ry="2.5" style="stroke:#181818;stroke-width:0.5;" width="84" x="1300.5" y="510"/><text fill="#000000" font-family="sans-serif" font-size="12" font-style="italic" lengthAdjust="spacing" textLength="42" x="1321.5" y="526.1387">&#171;Path&#187;</text><text fill="#000000" font-family="sans-serif" font-size="14" lengthAdjust="spacing" textLength="78" x="1303.5" y="541.9639">GET /agent</text></g><!--class GET /craftType--><g id="elem_GET /craftType"><rect codeLine="68" fill="#F1F1F1" height="40.2656" id="GET /craftType" rx="2.5" ry="2.5" style="stroke:#181818;stroke-width:0.5;" width="108" x="119.5" y="393"/><text fill="#000000" font-family="sans-serif" font-size="12" font-style="italic" lengthAdjust="spacing" textLength="42" x="152.5" y="409.1387">&#171;Path&#187;</text><text fill="#000000" font-family="sans-serif" font-size="14" lengthAdjust="spacing" textLength="102" x="122.5" y="424.9639">GET /craftType</text></g><!--class GET /identifierType--><g id="elem_GET /identifierType"><rect codeLine="71" fill="#F1F1F1" height="40.2656" id="GET /identifierType" rx="2.5" ry="2.5" style="stroke:#181818;stroke-width:0.5;" width="137" x="7" y="692"/><text fill="#000000" font-family="sans-serif" font-size="12" font-style="italic" lengthAdjust="spacing" textLength="42" x="54.5" y="708.1387">&#171;Path&#187;</text><text fill="#000000" font-family="sans-serif" font-size="14" lengthAdjust="spacing" textLength="131" x="10" y="723.9639">GET /identifierType</text></g><!--class GET /track/rect--><g id="elem_GET /track/rect"><rect codeLine="74" fill="#F1F1F1" height="260.125" id="GET /track/rect" rx="2.5" ry="2.5" style="stroke:#181818;stroke-width:0.5;" width="267" x="635" y="31.5"/><text fill="#000000" font-family="sans-serif" font-size="12" font-style="italic" lengthAdjust="spacing" textLength="42" x="747.5" y="47.6387">&#171;Path&#187;</text><text fill="#000000" font-family="sans-serif" font-size="14" lengthAdjust="spacing" textLength="104" x="716.5" y="63.4639">GET /track/rect</text><line style="stroke:#181818;stroke-width:0.5;" x1="636" x2="901" y1="71.7656" y2="71.7656"/><text fill="#000000" font-family="sans-serif" font-size="14" lengthAdjust="spacing" textLength="210" x="641" y="88.7607">startTimeInclusive : timestamp</text><text fill="#000000" font-family="sans-serif" font-size="14" lengthAdjust="spacing" textLength="219" x="641" y="105.0576">finishTimeExclusive : timestamp</text><text fill="#000000" font-family="sans-serif" font-size="14" lengthAdjust="spacing" textLength="192" x="641" y="121.3545">identifierValue : string[] {O}</text><text fill="#000000" font-family="sans-serif" font-size="14" lengthAdjust="spacing" textLength="137" x="641" y="137.6514">craftId : string[] {O}</text><text fill="#000000" font-family="sans-serif" font-size="14" lengthAdjust="spacing" textLength="159" x="641" y="153.9482">craftType : string[] {O}</text><text fill="#000000" font-family="sans-serif" font-size="14" lengthAdjust="spacing" textLength="135" x="641" y="170.2451">agent : string[] {O}</text><text fill="#000000" font-family="sans-serif" font-size="14" lengthAdjust="spacing" textLength="111" x="641" y="186.542">minLat : decimal</text><text fill="#000000" font-family="sans-serif" font-size="14" lengthAdjust="spacing" textLength="114" x="641" y="202.8389">maxLat : decimal</text><text fill="#000000" font-family="sans-serif" font-size="14" lengthAdjust="spacing" textLength="112" x="641" y="219.1357">leftLon : decimal</text><text fill="#000000" font-family="sans-serif" font-size="14" lengthAdjust="spacing" textLength="122" x="641" y="235.4326">rightLon : decimal</text><text fill="#000000" font-family="sans-serif" font-size="14" lengthAdjust="spacing" textLength="255" x="641" y="251.7295">includeCraftProperties : boolean {O}</text><text fill="#000000" font-family="sans-serif" font-size="14" lengthAdjust="spacing" textLength="241" x="641" y="268.0264">includeFixProperties : boolean {O}</text><text fill="#000000" font-family="sans-serif" font-size="14" lengthAdjust="spacing" textLength="234" x="641" y="284.3232">includeFixIdentifers : boolean {O}</text></g><!--class GET /track/circle--><g id="elem_GET /track/circle"><rect codeLine="90" fill="#F1F1F1" height="243.8281" id="GET /track/circle" rx="2.5" ry="2.5" style="stroke:#181818;stroke-width:0.5;" width="267" x="937" y="39.5"/><text fill="#000000" font-family="sans-serif" font-size="12" font-style="italic" lengthAdjust="spacing" textLength="42" x="1049.5" y="55.6387">&#171;Path&#187;</text><text fill="#000000" font-family="sans-serif" font-size="14" lengthAdjust="spacing" textLength="113" x="1014" y="71.4639">GET /track/circle</text><line style="stroke:#181818;stroke-width:0.5;" x1="938" x2="1203" y1="79.7656" y2="79.7656"/><text fill="#000000" font-family="sans-serif" font-size="14" lengthAdjust="spacing" textLength="210" x="943" y="96.7607">startTimeInclusive : timestamp</text><text fill="#000000" font-family="sans-serif" font-size="14" lengthAdjust="spacing" textLength="219" x="943" y="113.0576">finishTimeExclusive : timestamp</text><text fill="#000000" font-family="sans-serif" font-size="14" lengthAdjust="spacing" textLength="192" x="943" y="129.3545">identifierValue : string[] {O}</text><text fill="#000000" font-family="sans-serif" font-size="14" lengthAdjust="spacing" textLength="137" x="943" y="145.6514">craftId : string[] {O}</text><text fill="#000000" font-family="sans-serif" font-size="14" lengthAdjust="spacing" textLength="159" x="943" y="161.9482">craftType : string[] {O}</text><text fill="#000000" font-family="sans-serif" font-size="14" lengthAdjust="spacing" textLength="135" x="943" y="178.2451">agent : string[] {O}</text><text fill="#000000" font-family="sans-serif" font-size="14" lengthAdjust="spacing" textLength="131" x="943" y="194.542">centreLat : decimal</text><text fill="#000000" font-family="sans-serif" font-size="14" lengthAdjust="spacing" textLength="136" x="943" y="210.8389">centreLon : decimal</text><text fill="#000000" font-family="sans-serif" font-size="14" lengthAdjust="spacing" textLength="131" x="943" y="227.1357">radiusNm : decimal</text><text fill="#000000" font-family="sans-serif" font-size="14" lengthAdjust="spacing" textLength="255" x="943" y="243.4326">includeCraftProperties : boolean {O}</text><text fill="#000000" font-family="sans-serif" font-size="14" lengthAdjust="spacing" textLength="241" x="943" y="259.7295">includeFixProperties : boolean {O}</text><text fill="#000000" font-family="sans-serif" font-size="14" lengthAdjust="spacing" textLength="234" x="943" y="276.0264">includeFixIdentifers : boolean {O}</text></g><!--class GET /craftpic/rect--><g id="elem_GET /craftpic/rect"><rect codeLine="105" fill="#F1F1F1" height="309.0156" id="GET /craftpic/rect" rx="2.5" ry="2.5" style="stroke:#181818;stroke-width:0.5;" width="267" x="31" y="7"/><text fill="#000000" font-family="sans-serif" font-size="12" font-style="italic" lengthAdjust="spacing" textLength="42" x="143.5" y="23.1387">&#171;Path&#187;</text><text fill="#000000" font-family="sans-serif" font-size="14" lengthAdjust="spacing" textLength="120" x="104.5" y="38.9639">GET /craftpic/rect</text><line style="stroke:#181818;stroke-width:0.5;" x1="32" x2="297" y1="47.2656" y2="47.2656"/><text fill="#000000" font-family="sans-serif" font-size="14" lengthAdjust="spacing" textLength="116" x="37" y="64.2607">time : timestamp</text><text fill="#000000" font-family="sans-serif" font-size="14" lengthAdjust="spacing" textLength="152" x="37" y="80.5576">beforeHours : decimal</text><text fill="#000000" font-family="sans-serif" font-size="14" lengthAdjust="spacing" textLength="138" x="37" y="96.8545">afterHours : decimal</text><text fill="#000000" font-family="sans-serif" font-size="14" lengthAdjust="spacing" textLength="192" x="37" y="113.1514">identifierValue : string[] {O}</text><text fill="#000000" font-family="sans-serif" font-size="14" lengthAdjust="spacing" textLength="137" x="37" y="129.4482">craftId : string[] {O}</text><text fill="#000000" font-family="sans-serif" font-size="14" lengthAdjust="spacing" textLength="159" x="37" y="145.7451">craftType : string[] {O}</text><text fill="#000000" font-family="sans-serif" font-size="14" lengthAdjust="spacing" textLength="135" x="37" y="162.042">agent : string[] {O}</text><text fill="#000000" font-family="sans-serif" font-size="14" lengthAdjust="spacing" textLength="111" x="37" y="178.3389">minLat : decimal</text><text fill="#000000" font-family="sans-serif" font-size="14" lengthAdjust="spacing" textLength="114" x="37" y="194.6357">maxLat : decimal</text><text fill="#000000" font-family="sans-serif" font-size="14" lengthAdjust="spacing" textLength="112" x="37" y="210.9326">leftLon : decimal</text><text fill="#000000" font-family="sans-serif" font-size="14" lengthAdjust="spacing" textLength="122" x="37" y="227.2295">rightLon : decimal</text><text fill="#000000" font-family="sans-serif" font-size="14" lengthAdjust="spacing" textLength="241" x="37" y="243.5264">includeFixProperties : boolean {O}</text><text fill="#000000" font-family="sans-serif" font-size="14" lengthAdjust="spacing" textLength="255" x="37" y="259.8232">includeCraftProperties : boolean {O}</text><text fill="#000000" font-family="sans-serif" font-size="14" lengthAdjust="spacing" textLength="234" x="37" y="276.1201">includeFixIdentifers : boolean {O}</text><text fill="#000000" font-family="sans-serif" font-size="14" lengthAdjust="spacing" textLength="168" x="37" y="292.417">predicted : boolean {O}</text><text fill="#000000" font-family="sans-serif" font-size="14" lengthAdjust="spacing" textLength="251" x="37" y="308.7139">speedForMarginKnots : decimal {O}</text></g><!--class GET /craftpic/circle--><g id="elem_GET /craftpic/circle"><rect codeLine="124" fill="#F1F1F1" height="292.7188" id="GET /craftpic/circle" rx="2.5" ry="2.5" style="stroke:#181818;stroke-width:0.5;" width="267" x="333" y="15"/><text fill="#000000" font-family="sans-serif" font-size="12" font-style="italic" lengthAdjust="spacing" textLength="42" x="445.5" y="31.1387">&#171;Path&#187;</text><text fill="#000000" font-family="sans-serif" font-size="14" lengthAdjust="spacing" textLength="129" x="402" y="46.9639">GET /craftpic/circle</text><line style="stroke:#181818;stroke-width:0.5;" x1="334" x2="599" y1="55.2656" y2="55.2656"/><text fill="#000000" font-family="sans-serif" font-size="14" lengthAdjust="spacing" textLength="116" x="339" y="72.2607">time : timestamp</text><text fill="#000000" font-family="sans-serif" font-size="14" lengthAdjust="spacing" textLength="152" x="339" y="88.5576">beforeHours : decimal</text><text fill="#000000" font-family="sans-serif" font-size="14" lengthAdjust="spacing" textLength="138" x="339" y="104.8545">afterHours : decimal</text><text fill="#000000" font-family="sans-serif" font-size="14" lengthAdjust="spacing" textLength="192" x="339" y="121.1514">identifierValue : string[] {O}</text><text fill="#000000" font-family="sans-serif" font-size="14" lengthAdjust="spacing" textLength="137" x="339" y="137.4482">craftId : string[] {O}</text><text fill="#000000" font-family="sans-serif" font-size="14" lengthAdjust="spacing" textLength="159" x="339" y="153.7451">craftType : string[] {O}</text><text fill="#000000" font-family="sans-serif" font-size="14" lengthAdjust="spacing" textLength="135" x="339" y="170.042">agent : string[] {O}</text><text fill="#000000" font-family="sans-serif" font-size="14" lengthAdjust="spacing" textLength="131" x="339" y="186.3389">centreLat : decimal</text><text fill="#000000" font-family="sans-serif" font-size="14" lengthAdjust="spacing" textLength="136" x="339" y="202.6357">centreLon : decimal</text><text fill="#000000" font-family="sans-serif" font-size="14" lengthAdjust="spacing" textLength="131" x="339" y="218.9326">radiusNm : decimal</text><text fill="#000000" font-family="sans-serif" font-size="14" lengthAdjust="spacing" textLength="255" x="339" y="235.2295">includeCraftProperties : boolean {O}</text><text fill="#000000" font-family="sans-serif" font-size="14" lengthAdjust="spacing" textLength="241" x="339" y="251.5264">includeFixProperties : boolean {O}</text><text fill="#000000" font-family="sans-serif" font-size="14" lengthAdjust="spacing" textLength="234" x="339" y="267.8232">includeFixIdentifers : boolean {O}</text><text fill="#000000" font-family="sans-serif" font-size="14" lengthAdjust="spacing" textLength="168" x="339" y="284.1201">predicted : boolean {O}</text><text fill="#000000" font-family="sans-serif" font-size="14" lengthAdjust="spacing" textLength="251" x="339" y="300.417">speedForMarginKnots : decimal {O}</text></g><!--link agents to agent--><g id="link_agents_agent"><path codeLine="142" d="M1332.9,728.09 C1311.86,761.16 1264.6702,835.3474 1237.9802,877.3074 " fill="none" id="agents-to-agent" style="stroke:#181818;stroke-width:1.0;"/><polygon fill="#181818" points="1234.76,882.37,1242.9654,876.9229,1237.4435,878.1512,1236.2153,872.6293,1234.76,882.37" style="stroke:#181818;stroke-width:1.0;"/><text fill="#000000" font-family="sans-serif" font-size="13" lengthAdjust="spacing" textLength="7" x="1230.77" y="871.6249">*</text></g><!--link craftTypes to craftType--><g id="link_craftTypes_craftType"><path codeLine="144" d="M192.92,546.27 C215.95,564.65 255.16,596.82 286.5,627 C305.31,645.11 321.2216,662.3798 336.0716,679.2198 " fill="none" id="craftTypes-to-craftType" style="stroke:#181818;stroke-width:1.0;"/><polygon fill="#181818" points="340.04,683.72,337.0875,674.3241,336.733,679.9698,331.0873,679.6153,340.04,683.72" style="stroke:#181818;stroke-width:1.0;"/><text fill="#000000" font-family="sans-serif" font-size="13" lengthAdjust="spacing" textLength="7" x="327.1425" y="672.9421">*</text></g><!--link tracks to craftFixes--><g id="link_tracks_craftFixes"><path codeLine="146" d="M767.32,429.03 C765.6,451.07 762.8668,485.9382 761.1468,507.9782 " fill="none" id="tracks-to-craftFixes" style="stroke:#181818;stroke-width:1.0;"/><polygon fill="#181818" points="760.68,513.96,765.3681,505.2985,761.069,508.9752,757.3924,504.6761,760.68,513.96" style="stroke:#181818;stroke-width:1.0;"/><text fill="#000000" font-family="sans-serif" font-size="13" lengthAdjust="spacing" textLength="7" x="752.8825" y="502.9578">*</text></g><!--link craftpic to craftFix--><g id="link_craftpic_craftFix"><path codeLine="148" d="M468.59,429.03 C471.66,451.07 476.5122,485.9774 479.5822,508.0174 " fill="none" id="craftpic-to-craftFix" style="stroke:#181818;stroke-width:1.0;"/><polygon fill="#181818" points="480.41,513.96,483.1301,504.4942,479.7202,509.0078,475.2066,505.5979,480.41,513.96" style="stroke:#181818;stroke-width:1.0;"/><text fill="#000000" font-family="sans-serif" font-size="13" lengthAdjust="spacing" textLength="7" x="471.4884" y="502.9578">*</text></g><!--link identifierTypes to identifierType--><g id="link_identifierTypes_identifierType"><path codeLine="150" d="M319.78,926.69 C332.47,950 354.0707,989.6305 369.8507,1018.6105 " fill="none" id="identifierTypes-to-identifierType" style="stroke:#181818;stroke-width:1.0;"/><polygon fill="#181818" points="372.72,1023.88,371.929,1014.063,370.3289,1019.4888,364.9031,1017.8887,372.72,1023.88" style="stroke:#181818;stroke-width:1.0;"/><text fill="#000000" font-family="sans-serif" font-size="13" lengthAdjust="spacing" textLength="7" x="361.7213" y="1013.1371">*</text></g><!--link craftFix to craftId--><g id="link_craftFix_craftId"><path codeLine="152" d="M495.28,546.04 C521.07,576.37 575.7441,640.6984 608.4441,679.1684 " fill="none" id="craftFix-to-craftId" style="stroke:#181818;stroke-width:1.0;"/><polygon fill="#181818" points="612.33,683.74,609.5489,674.292,609.0917,679.9303,603.4534,679.4732,612.33,683.74" style="stroke:#181818;stroke-width:1.0;"/><text fill="#000000" font-family="sans-serif" font-size="13" lengthAdjust="spacing" textLength="8" x="598.3866" y="672.9665">1</text></g><!--link craftFix to craftType--><g id="link_craftFix_craftType"><path codeLine="154" d="M449.64,546.13 C434.97,554.33 418.53,565.73 407.5,580 C383.58,610.94 373.3319,649.6829 368.2819,678.0429 " fill="none" id="craftFix-to-craftType" style="stroke:#181818;stroke-width:1.0;"/><polygon fill="#181818" points="367.23,683.95,372.7458,675.7906,368.1066,679.0274,364.8697,674.3881,367.23,683.95" style="stroke:#181818;stroke-width:1.0;"/><text fill="#000000" font-family="sans-serif" font-size="13" lengthAdjust="spacing" textLength="8" x="359.1676" y="672.777">1</text></g><!--link craftFix to identifier--><g id="link_craftFix_identifier"><path codeLine="156" d="M442.34,533.02 C384.44,538.36 279.24,557.63 231.5,627 C188.67,689.24 188.92,734.58 231.5,797 C245.49,817.5 384.1925,865.479 462.6725,891.389 " fill="none" id="craftFix-to-identifier" style="stroke:#181818;stroke-width:1.0;"/><polygon fill="#181818" points="468.37,893.27,461.0777,886.6501,463.6221,891.7025,458.5697,894.2468,468.37,893.27" style="stroke:#181818;stroke-width:1.0;"/><text fill="#000000" font-family="sans-serif" font-size="13" lengthAdjust="spacing" textLength="62" x="232.5" y="716.5669">identifiers</text><text fill="#000000" font-family="sans-serif" font-size="13" lengthAdjust="spacing" textLength="7" x="453.4931" y="886.6926">*</text></g><!--link craftFix to property--><g id="link_craftFix_property"><path codeLine="158" d="M477.93,546.03 C465.34,590.74 435.27,724.31 500.5,797 C525.97,825.39 632.22,818.94 669.5,827 C766.8,848.03 873.3758,876.4454 936.6358,893.8854 " fill="none" id="craftFix-to-property" style="stroke:#181818;stroke-width:1.0;"/><polygon fill="#181818" points="942.42,895.48,934.8068,889.2319,937.5998,894.1511,932.6806,896.9442,942.42,895.48" style="stroke:#181818;stroke-width:1.0;"/><text fill="#000000" font-family="sans-serif" font-size="13" lengthAdjust="spacing" textLength="65" x="501.5" y="716.5669">properties</text><text fill="#000000" font-family="sans-serif" font-size="13" lengthAdjust="spacing" textLength="7" x="927.5504" y="889.2789">*</text></g><!--link craftFix to fix--><g id="link_craftFix_fix"><path codeLine="160" d="M522.66,539.43 C587.88,553.73 720.31,585.29 827.5,627 C836.49,630.5 840.1412,631.9065 849.2912,635.9465 " fill="none" id="craftFix-to-fix" style="stroke:#181818;stroke-width:1.0;"/><polygon fill="#181818" points="854.78,638.37,848.1625,631.0756,850.206,636.3504,844.9312,638.394,854.78,638.37" style="stroke:#181818;stroke-width:1.0;"/><text fill="#000000" font-family="sans-serif" font-size="13" lengthAdjust="spacing" textLength="8" x="839.0297" y="630.9935">1</text></g><!--link craftFixes to craftId--><g id="link_craftFixes_craftId"><path codeLine="162" d="M749.14,546.04 C728.24,576.37 684.1837,640.3289 657.6837,678.7989 " fill="none" id="craftFixes-to-craftId" style="stroke:#181818;stroke-width:1.0;"/><polygon fill="#181818" points="654.28,683.74,662.6796,678.5974,657.1164,679.6224,656.0915,674.0592,654.28,683.74" style="stroke:#181818;stroke-width:1.0;"/><text fill="#000000" font-family="sans-serif" font-size="13" lengthAdjust="spacing" textLength="8" x="649.5131" y="672.9665">1</text></g><!--link craftFixes to craftType--><g id="link_craftFixes_craftType"><path codeLine="164" d="M710.77,537.41 C645.16,547.8 526.71,572.88 440.5,627 C417.04,641.73 399.8417,660.694 385.7817,679.184 " fill="none" id="craftFixes-to-craftType" style="stroke:#181818;stroke-width:1.0;"/><polygon fill="#181818" points="382.15,683.96,390.7816,679.2171,385.1765,679.98,384.4136,674.3748,382.15,683.96" style="stroke:#181818;stroke-width:1.0;"/><text fill="#000000" font-family="sans-serif" font-size="13" lengthAdjust="spacing" textLength="8" x="377.5378" y="672.7893">1</text></g><!--link craftFixes to identifier--><g id="link_craftFixes_identifier"><path codeLine="166" d="M760.2,546.15 C761.46,589.53 759.71,716.27 702.5,797 C669.59,843.43 616.4344,872.0967 574.1744,889.5767 " fill="none" id="craftFixes-to-identifier" style="stroke:#181818;stroke-width:1.0;"/><polygon fill="#181818" points="568.63,891.87,578.4755,892.1263,573.2504,889.9589,575.4177,884.7337,568.63,891.87" style="stroke:#181818;stroke-width:1.0;"/><text fill="#000000" font-family="sans-serif" font-size="13" lengthAdjust="spacing" textLength="62" x="758.5" y="716.5669">identifiers</text><text fill="#000000" font-family="sans-serif" font-size="13" lengthAdjust="spacing" textLength="7" x="576.5069" y="885.087">*</text></g><!--link craftFixes to property--><g id="link_craftFixes_property"><path codeLine="168" d="M808.35,535.72 C903.02,545.98 1105.85,573.79 1147.5,627 C1194.07,686.5 1181.82,729.69 1147.5,797 C1125.68,839.81 1084.4715,867.4367 1048.0415,885.7367 " fill="none" id="craftFixes-to-property" style="stroke:#181818;stroke-width:1.0;"/><polygon fill="#181818" points="1042.68,888.43,1052.5178,887.9644,1047.148,886.1856,1048.9268,880.8157,1042.68,888.43" style="stroke:#181818;stroke-width:1.0;"/><text fill="#000000" font-family="sans-serif" font-size="13" lengthAdjust="spacing" textLength="65" x="1179.5" y="716.5669">properties</text><text fill="#000000" font-family="sans-serif" font-size="13" lengthAdjust="spacing" textLength="7" x="1050.5643" y="881.1934">*</text></g><!--link craftFixes to fix--><g id="link_craftFixes_fix"><path codeLine="170" d="M796.38,546.18 C815.43,554.81 838.57,566.57 857.5,580 C876.81,593.7 891.6366,606.0423 909.2466,622.5823 " fill="none" id="craftFixes-to-fix" style="stroke:#181818;stroke-width:1.0;"/><polygon fill="#181818" points="913.62,626.69,909.7983,617.6128,909.9755,623.2669,904.3214,623.4441,913.62,626.69" style="stroke:#181818;stroke-width:1.0;"/><text fill="#000000" font-family="sans-serif" font-size="13" lengthAdjust="spacing" textLength="29" x="879.5" y="593.0669">fixes</text><text fill="#000000" font-family="sans-serif" font-size="13" lengthAdjust="spacing" textLength="7" x="899.7979" y="616.061">*</text></g><!--link identifier to identifierType--><g id="link_identifier_identifierType"><path codeLine="172" d="M492.93,938.73 C469.85,963.31 440.1779,994.9068 417.1079,1019.4668 " fill="none" id="identifier-to-identifierType" style="stroke:#181818;stroke-width:1.0;"/><polygon fill="#181818" points="413,1023.84,422.0773,1020.0188,416.4233,1020.1956,416.2464,1014.5416,413,1023.84" style="stroke:#181818;stroke-width:1.0;"/><text fill="#000000" font-family="sans-serif" font-size="13" lengthAdjust="spacing" textLength="22" x="458.5" y="990.0669">key</text><text fill="#000000" font-family="sans-serif" font-size="13" lengthAdjust="spacing" textLength="8" x="409.7031" y="1013.0883">1</text></g><!--link fix to agent--><g id="link_fix_agent"><path codeLine="174" d="M1088.9,797.19 C1123.97,827.81 1156.6406,856.3535 1181.9606,878.4635 " fill="none" id="fix-to-agent" style="stroke:#181818;stroke-width:1.0;"/><polygon fill="#181818" points="1186.48,882.41,1182.3318,873.4773,1182.7138,879.1213,1177.0699,879.5032,1186.48,882.41" style="stroke:#181818;stroke-width:1.0;"/><text fill="#000000" font-family="sans-serif" font-size="13" lengthAdjust="spacing" textLength="8" x="1170.3816" y="871.2277">1</text></g><!--link fix to property--><g id="link_fix_property"><path codeLine="176" d="M992.5,797.19 C992.5,824.06 992.5,846.37 992.5,867.85 " fill="none" id="fix-to-property" style="stroke:#181818;stroke-width:1.0;"/><polygon fill="#181818" points="992.5,873.85,996.5,864.85,992.5,868.85,988.5,864.85,992.5,873.85" style="stroke:#181818;stroke-width:1.0;"/><text fill="#000000" font-family="sans-serif" font-size="13" lengthAdjust="spacing" textLength="65" x="993.5" y="840.0669">properties</text><text fill="#000000" font-family="sans-serif" font-size="13" lengthAdjust="spacing" textLength="7" x="984.8547" y="862.8264">*</text></g><!--link fix to identifier--><g id="link_fix_identifier"><path codeLine="178" d="M854.9,784.61 C845.68,788.92 836.49,793.09 827.5,797 C738.1,835.86 636.1878,871.0498 574.4278,891.4298 " fill="none" id="fix-to-identifier" style="stroke:#181818;stroke-width:1.0;"/><polygon fill="#181818" points="568.73,893.31,578.5302,894.2882,573.4782,891.7432,576.0232,886.6912,568.73,893.31" style="stroke:#181818;stroke-width:1.0;"/><text fill="#000000" font-family="sans-serif" font-size="13" lengthAdjust="spacing" textLength="62" x="753.5" y="840.0669">identifiers</text><text fill="#000000" font-family="sans-serif" font-size="13" lengthAdjust="spacing" textLength="7" x="576.6216" y="903.9416">*</text></g><!--link GET /agent to agents--><g id="link_GET /agent_agents"><path codeLine="180" d="M1342.5,550.26 C1342.5,586.18 1342.5,656.69 1342.5,689.52 " fill="none" id="GET /agent-to-agents" style="stroke:#181818;stroke-width:1.0;stroke-dasharray:7.0,7.0;"/><polygon fill="#181818" points="1342.5,695.52,1346.5,686.52,1342.5,690.52,1338.5,686.52,1342.5,695.52" style="stroke:#181818;stroke-width:1.0;"/><text fill="#000000" font-family="sans-serif" font-size="13" lengthAdjust="spacing" textLength="24" x="1343.5" y="593.0669">200</text><text fill="#000000" font-family="sans-serif" font-size="13" lengthAdjust="spacing" textLength="8" x="1333.225" y="684.9644">1</text></g><!--link GET /craftType to craftTypes--><g id="link_GET /craftType_craftTypes"><path codeLine="182" d="M173.5,433.25 C173.5,455.88 173.5,486.99 173.5,507.74 " fill="none" id="GET /craftType-to-craftTypes" style="stroke:#181818;stroke-width:1.0;stroke-dasharray:7.0,7.0;"/><polygon fill="#181818" points="173.5,513.74,177.5,504.74,173.5,508.74,169.5,504.74,173.5,513.74" style="stroke:#181818;stroke-width:1.0;"/><text fill="#000000" font-family="sans-serif" font-size="13" lengthAdjust="spacing" textLength="24" x="174.5" y="476.0669">200</text><text fill="#000000" font-family="sans-serif" font-size="13" lengthAdjust="spacing" textLength="8" x="164.175" y="502.9584">1</text></g><!--link GET /identifierType to identifierTypes--><g id="link_GET /identifierType_identifierTypes"><path codeLine="184" d="M84.01,732.42 C97.16,760.45 124.89,812.37 162.5,844 C190.39,867.47 222.3404,881.9463 252.8004,892.4963 " fill="none" id="GET /identifierType-to-identifierTypes" style="stroke:#181818;stroke-width:1.0;stroke-dasharray:7.0,7.0;"/><polygon fill="#181818" points="258.47,894.46,251.2748,887.7348,253.7454,892.8236,248.6565,895.2942,258.47,894.46" style="stroke:#181818;stroke-width:1.0;"/><text fill="#000000" font-family="sans-serif" font-size="13" lengthAdjust="spacing" textLength="24" x="163.5" y="840.0669">200</text><text fill="#000000" font-family="sans-serif" font-size="13" lengthAdjust="spacing" textLength="8" x="230.8659" y="883.4578">1</text></g><!--link GET /track/rect to tracks--><g id="link_GET /track/rect_tracks"><path codeLine="186" d="M768.5,291.63 C768.5,333.73 768.5,369.15 768.5,390.71 " fill="none" id="GET /track/rect-to-tracks" style="stroke:#181818;stroke-width:1.0;stroke-dasharray:7.0,7.0;"/><polygon fill="#181818" points="768.5,396.71,772.5,387.71,768.5,391.71,764.5,387.71,768.5,396.71" style="stroke:#181818;stroke-width:1.0;"/><text fill="#000000" font-family="sans-serif" font-size="13" lengthAdjust="spacing" textLength="24" x="769.5" y="359.0669">200</text><text fill="#000000" font-family="sans-serif" font-size="13" lengthAdjust="spacing" textLength="8" x="759.175" y="385.9185">1</text></g><!--link GET /track/circle to tracks--><g id="link_GET /track/circle_tracks"><path codeLine="188" d="M956.38,283.87 C944.27,295.11 931.85,306.01 919.5,316 C879.28,348.52 832.7305,376.4103 801.4505,393.9903 " fill="none" id="GET /track/circle-to-tracks" style="stroke:#181818;stroke-width:1.0;stroke-dasharray:7.0,7.0;"/><polygon fill="#181818" points="796.22,396.93,806.0256,396.0075,800.5788,394.4803,802.106,389.0335,796.22,396.93" style="stroke:#181818;stroke-width:1.0;"/><text fill="#000000" font-family="sans-serif" font-size="13" lengthAdjust="spacing" textLength="24" x="877.5" y="359.0669">200</text><text fill="#000000" font-family="sans-serif" font-size="13" lengthAdjust="spacing" textLength="8" x="796.3738" y="385.9175">1</text></g><!--link GET /craftpic/rect to craftpic--><g id="link_GET /craftpic/rect_craftpic"><path codeLine="190" d="M298.06,301.35 C303.86,306.4 309.69,311.3 315.5,316 C355.72,348.52 402.2695,376.4103 433.5495,393.9903 " fill="none" id="GET /craftpic/rect-to-craftpic" style="stroke:#181818;stroke-width:1.0;stroke-dasharray:7.0,7.0;"/><polygon fill="#181818" points="438.78,396.93,432.894,389.0335,434.4212,394.4803,428.9744,396.0075,438.78,396.93" style="stroke:#181818;stroke-width:1.0;"/><text fill="#000000" font-family="sans-serif" font-size="13" lengthAdjust="spacing" textLength="24" x="380.5" y="359.0669">200</text><text fill="#000000" font-family="sans-serif" font-size="13" lengthAdjust="spacing" textLength="8" x="419.8762" y="385.9175">1</text></g><!--link GET /craftpic/circle to craftpic--><g id="link_GET /craftpic/circle_craftpic"><path codeLine="192" d="M466.5,308.36 C466.5,344.4 466.5,372.02 466.5,390.71 " fill="none" id="GET /craftpic/circle-to-craftpic" style="stroke:#181818;stroke-width:1.0;stroke-dasharray:7.0,7.0;"/><polygon fill="#181818" points="466.5,396.71,470.5,387.71,466.5,391.71,462.5,387.71,466.5,396.71" style="stroke:#181818;stroke-width:1.0;"/><text fill="#000000" font-family="sans-serif" font-size="13" lengthAdjust="spacing" textLength="24" x="467.5" y="359.0669">200</text><text fill="#000000" font-family="sans-serif" font-size="13" lengthAdjust="spacing" textLength="8" x="457.175" y="385.9185">1</text></g><!--SRC=[xLTTQzim57tFhn1-7FHZUnmbC4QxXRLRsCfUHXzK-IeMbIKZoIKXvBzFbcDRbYqtXhritLFWddElxfVaauobWAwkrjXaooKYJ14EYwmsVWTTIA5X0AonmZaOK042UM5so2APJBLleWoujMWmI5XFNM02Fw2mOOnKI4W1YmNXM6kKu0q8enEqNnpwjig4qDw5Eg1dp4j0xv4sYecDnoKAKtE_Ao28OHGcJu7DSGj6HgohTEvv9_9jKuHXbgL6ako3SpAuOTkHAgmrViI9uGib2r1crwS_mQuZdn25rlbrJ6jOfMCX3Ckh2DMFDZWlF8XZOv4K2Cinz-rIZDenDyoKATo1KQ0x2jf_EtWq8ZTHJ1S0wHSXpOGxbzgc-e6O4dFRyVkW04VlEl7f-XvT73UwlNZxaE2jLPmKhakSwRR_GW7f7-hLQR0oLUOhGNYfsNDi1fG9fhEAURsTPdRP_UnjnQ-7i87rXNk1K9KOfxY6nk6SYTl8ykHu6uCuK7CRsIt5DbaKP5KJK_XOvRskxmzp2_We9GSiWkoETBixiyYhki6WGlBeyEk7-dMEdrXKGMpCHpGsQ9ooKd_D_u91Dz-pgOi-yRm-0fKAFijIwV7dbDfFVXp-VzzdpNN-paJNe2CN2b963AHHXlkWtKXrXzM6YR4lMsof9X-Grx5M_-exyiSNg9NnPsTBbBn96Wrl4L-WjsWdTooZaUfzjDQoJG2dsWU42Xu8x9OLoAKcb9FEZlGswTJ_11hnxX-H8DiLtw0ZBfs-TWv5Ez182hGkqzVtKyaFyJ3zI8-c2-WvdLH2pyFz7N1asepLFxbDE5IupiN-zwWSQAyjxNxHqxjBPytE5-xdv_wn-kZmxlAo9Ne2lYNxgpzm24jjlGOBFN3rrNthrjoY2BjvpL_c1wgYNusxXt6NmIbZJhy1]--></g></svg>