<?xml version="1.0" encoding="UTF-8" standalone="no"?><svg xmlns="http://www.w3.org/2000/svg" xmlns:xlink="http://www.w3.org/1999/xlink" contentScriptType="application/ecmascript" contentStyleType="text/css" height="622px" preserveAspectRatio="none" style="width:1072px;height:622px;" version="1.1" viewBox="0 0 1072 622" width="1072px" zoomAndPan="magnify"><defs><filter height="300%" id="f1p0zam1spwmme" width="300%" x="-1" y="-1"><feGaussianBlur result="blurOut" stdDeviation="2.0"/><feColorMatrix in="blurOut" result="blurOut2" type="matrix" values="0 0 0 0 0 0 0 0 0 0 0 0 0 0 0 0 0 0 .4 0"/><feOffset dx="4.0" dy="4.0" in="blurOut2" result="blurOut3"/><feBlend in="SourceGraphic" in2="blurOut3" mode="normal"/></filter></defs><g><!--MD5=[480b55fe24535af2551deb761fe5417e]
class AccessToken--><rect codeLine="3" fill="#FEFECE" filter="url(#f1p0zam1spwmme)" height="73.6094" id="AccessToken" style="stroke:#A80036;stroke-width:1.5;" width="138" x="7" y="179"/><ellipse cx="32.8" cy="195" fill="#ADD1B2" rx="11" ry="11" style="stroke:#A80036;stroke-width:1.0;"/><path d="M35.7688,200.6406 Q35.1906,200.9375 34.55,201.0859 Q33.9094,201.2344 33.2063,201.2344 Q30.7062,201.2344 29.3859,199.5859 Q28.0656,197.9375 28.0656,194.8125 Q28.0656,191.6875 29.3859,190.0313 Q30.7062,188.375 33.2063,188.375 Q33.9094,188.375 34.5578,188.5313 Q35.2063,188.6875 35.7688,188.9844 L35.7688,191.7031 Q35.1438,191.125 34.55,190.8516 Q33.9563,190.5781 33.3313,190.5781 Q31.9875,190.5781 31.3,191.6484 Q30.6125,192.7188 30.6125,194.8125 Q30.6125,196.9063 31.3,197.9766 Q31.9875,199.0469 33.3313,199.0469 Q33.9563,199.0469 34.55,198.7734 Q35.1438,198.5 35.7688,197.9219 L35.7688,200.6406 Z " fill="#000000"/><text fill="#000000" font-family="sans-serif" font-size="12" lengthAdjust="spacing" textLength="82" x="49.2" y="199.1543">AccessToken</text><line style="stroke:#A80036;stroke-width:1.5;" x1="8" x2="144" y1="211" y2="211"/><text fill="#000000" font-family="sans-serif" font-size="11" lengthAdjust="spacing" textLength="119" x="13" y="225.2104">accessToken : string</text><text fill="#000000" font-family="sans-serif" font-size="11" lengthAdjust="spacing" textLength="126" x="13" y="238.0151">expiresAt : timestamp</text><line style="stroke:#A80036;stroke-width:1.5;" x1="8" x2="144" y1="244.6094" y2="244.6094"/><!--MD5=[b8cfd8c4119a3b0a7a46bfc5fc780f85]
class Error--><rect codeLine="8" fill="#FEFECE" filter="url(#f1p0zam1spwmme)" height="73.6094" id="Error" style="stroke:#A80036;stroke-width:1.5;" width="138" x="373" y="179"/><ellipse cx="422.25" cy="195" fill="#ADD1B2" rx="11" ry="11" style="stroke:#A80036;stroke-width:1.0;"/><path d="M425.2188,200.6406 Q424.6406,200.9375 424,201.0859 Q423.3594,201.2344 422.6563,201.2344 Q420.1563,201.2344 418.8359,199.5859 Q417.5156,197.9375 417.5156,194.8125 Q417.5156,191.6875 418.8359,190.0313 Q420.1563,188.375 422.6563,188.375 Q423.3594,188.375 424.0078,188.5313 Q424.6563,188.6875 425.2188,188.9844 L425.2188,191.7031 Q424.5938,191.125 424,190.8516 Q423.4063,190.5781 422.7813,190.5781 Q421.4375,190.5781 420.75,191.6484 Q420.0625,192.7188 420.0625,194.8125 Q420.0625,196.9063 420.75,197.9766 Q421.4375,199.0469 422.7813,199.0469 Q423.4063,199.0469 424,198.7734 Q424.5938,198.5 425.2188,197.9219 L425.2188,200.6406 Z " fill="#000000"/><text fill="#000000" font-family="sans-serif" font-size="12" lengthAdjust="spacing" textLength="31" x="442.75" y="199.1543">Error</text><line style="stroke:#A80036;stroke-width:1.5;" x1="374" x2="510" y1="211" y2="211"/><text fill="#000000" font-family="sans-serif" font-size="11" lengthAdjust="spacing" textLength="72" x="379" y="225.2104">code : string</text><text fill="#000000" font-family="sans-serif" font-size="11" lengthAdjust="spacing" textLength="126" x="379" y="238.0151">message : timestamp</text><line style="stroke:#A80036;stroke-width:1.5;" x1="374" x2="510" y1="244.6094" y2="244.6094"/><!--MD5=[c3f280b58e8dd0683e81b8ec31306a35]
class Author--><rect codeLine="13" fill="#FEFECE" filter="url(#f1p0zam1spwmme)" height="99.2188" id="Author" style="stroke:#A80036;stroke-width:1.5;" width="128" x="912" y="509"/><ellipse cx="951.3" cy="525" fill="#ADD1B2" rx="11" ry="11" style="stroke:#A80036;stroke-width:1.0;"/><path d="M954.2688,530.6406 Q953.6906,530.9375 953.05,531.0859 Q952.4094,531.2344 951.7063,531.2344 Q949.2063,531.2344 947.8859,529.5859 Q946.5656,527.9375 946.5656,524.8125 Q946.5656,521.6875 947.8859,520.0313 Q949.2063,518.375 951.7063,518.375 Q952.4094,518.375 953.0578,518.5313 Q953.7063,518.6875 954.2688,518.9844 L954.2688,521.7031 Q953.6438,521.125 953.05,520.8516 Q952.4563,520.5781 951.8313,520.5781 Q950.4875,520.5781 949.8,521.6484 Q949.1125,522.7188 949.1125,524.8125 Q949.1125,526.9063 949.8,527.9766 Q950.4875,529.0469 951.8313,529.0469 Q952.4563,529.0469 953.05,528.7734 Q953.6438,528.5 954.2688,527.9219 L954.2688,530.6406 Z " fill="#000000"/><text fill="#000000" font-family="sans-serif" font-size="12" lengthAdjust="spacing" textLength="42" x="970.7" y="529.1543">Author</text><line style="stroke:#A80036;stroke-width:1.5;" x1="913" x2="1039" y1="541" y2="541"/><text fill="#000000" font-family="sans-serif" font-size="11" lengthAdjust="spacing" textLength="94" x="918" y="555.2104">fullname : string</text><text fill="#000000" font-family="sans-serif" font-size="11" lengthAdjust="spacing" textLength="114" x="918" y="568.0151">country : string {O}</text><text fill="#000000" font-family="sans-serif" font-size="11" lengthAdjust="spacing" textLength="116" x="918" y="580.8198">birthYear : date {O}</text><text fill="#000000" font-family="sans-serif" font-size="11" lengthAdjust="spacing" textLength="112" x="918" y="593.6245">gender : string {O}</text><line style="stroke:#A80036;stroke-width:1.5;" x1="913" x2="1039" y1="600.2188" y2="600.2188"/><!--MD5=[838cb3b9b512e84757c00d0249b7cc0a]
class BookGenre--><rect codeLine="20" fill="#FEFECE" filter="url(#f1p0zam1spwmme)" height="60.8047" id="BookGenre" style="stroke:#A80036;stroke-width:1.5;" width="101" x="644.5" y="528"/><ellipse cx="659.5" cy="544" fill="#ADD1B2" rx="11" ry="11" style="stroke:#A80036;stroke-width:1.0;"/><path d="M662.4688,549.6406 Q661.8906,549.9375 661.25,550.0859 Q660.6094,550.2344 659.9063,550.2344 Q657.4063,550.2344 656.0859,548.5859 Q654.7656,546.9375 654.7656,543.8125 Q654.7656,540.6875 656.0859,539.0313 Q657.4063,537.375 659.9063,537.375 Q660.6094,537.375 661.2578,537.5313 Q661.9063,537.6875 662.4688,537.9844 L662.4688,540.7031 Q661.8438,540.125 661.25,539.8516 Q660.6563,539.5781 660.0313,539.5781 Q658.6875,539.5781 658,540.6484 Q657.3125,541.7188 657.3125,543.8125 Q657.3125,545.9063 658,546.9766 Q658.6875,548.0469 660.0313,548.0469 Q660.6563,548.0469 661.25,547.7734 Q661.8438,547.5 662.4688,546.9219 L662.4688,549.6406 Z " fill="#000000"/><text fill="#000000" font-family="sans-serif" font-size="12" lengthAdjust="spacing" textLength="69" x="673.5" y="548.1543">BookGenre</text><line style="stroke:#A80036;stroke-width:1.5;" x1="645.5" x2="744.5" y1="560" y2="560"/><text fill="#000000" font-family="sans-serif" font-size="11" lengthAdjust="spacing" textLength="75" x="650.5" y="574.2104">value : string</text><line style="stroke:#A80036;stroke-width:1.5;" x1="645.5" x2="744.5" y1="580.8047" y2="580.8047"/><!--MD5=[84e3a5e42879fb3231104d3c8e592439]
class Book--><rect codeLine="24" fill="#FEFECE" filter="url(#f1p0zam1spwmme)" height="99.2188" id="Book" style="stroke:#A80036;stroke-width:1.5;" width="151" x="900.5" y="333"/><ellipse cx="956.25" cy="349" fill="#ADD1B2" rx="11" ry="11" style="stroke:#A80036;stroke-width:1.0;"/><path d="M959.2188,354.6406 Q958.6406,354.9375 958,355.0859 Q957.3594,355.2344 956.6563,355.2344 Q954.1563,355.2344 952.8359,353.5859 Q951.5156,351.9375 951.5156,348.8125 Q951.5156,345.6875 952.8359,344.0313 Q954.1563,342.375 956.6563,342.375 Q957.3594,342.375 958.0078,342.5313 Q958.6563,342.6875 959.2188,342.9844 L959.2188,345.7031 Q958.5938,345.125 958,344.8516 Q957.4063,344.5781 956.7813,344.5781 Q955.4375,344.5781 954.75,345.6484 Q954.0625,346.7188 954.0625,348.8125 Q954.0625,350.9063 954.75,351.9766 Q955.4375,353.0469 956.7813,353.0469 Q957.4063,353.0469 958,352.7734 Q958.5938,352.5 959.2188,351.9219 L959.2188,354.6406 Z " fill="#000000"/><text fill="#000000" font-family="sans-serif" font-size="12" lengthAdjust="spacing" textLength="31" x="976.75" y="353.1543">Book</text><line style="stroke:#A80036;stroke-width:1.5;" x1="901.5" x2="1050.5" y1="365" y2="365"/><text fill="#000000" font-family="sans-serif" font-size="11" lengthAdjust="spacing" textLength="62" x="906.5" y="379.2104">id : integer</text><text fill="#000000" font-family="sans-serif" font-size="11" lengthAdjust="spacing" textLength="66" x="906.5" y="392.0151">title : string</text><text fill="#000000" font-family="sans-serif" font-size="11" lengthAdjust="spacing" textLength="112" x="906.5" y="404.8198">totalPages : integer</text><text fill="#000000" font-family="sans-serif" font-size="11" lengthAdjust="spacing" textLength="139" x="906.5" y="417.6245">publishingHouse : string</text><line style="stroke:#A80036;stroke-width:1.5;" x1="901.5" x2="1050.5" y1="424.2188" y2="424.2188"/><!--MD5=[2b9df03c28d9cb9ddfcbffc750f34f92]
class POST /login--><rect codeLine="36" fill="#FEFECE" filter="url(#f1p0zam1spwmme)" height="53.9375" id="POST /login" style="stroke:#A80036;stroke-width:1.5;" width="76" x="221" y="26"/><text fill="#000000" font-family="sans-serif" font-size="12" font-style="italic" lengthAdjust="spacing" textLength="61" x="228.5" y="42.1387">«Method»</text><text fill="#000000" font-family="sans-serif" font-size="12" lengthAdjust="spacing" textLength="70" x="224" y="56.1074">POST /login</text><line style="stroke:#A80036;stroke-width:1.5;" x1="222" x2="296" y1="63.9375" y2="63.9375"/><line style="stroke:#A80036;stroke-width:1.5;" x1="222" x2="296" y1="71.9375" y2="71.9375"/><!--MD5=[7ed6c87dba96c2e22350af2d871c6ccf]
class POST /login Request--><rect codeLine="43" fill="#FEFECE" filter="url(#f1p0zam1spwmme)" height="79.5469" id="POST /login Request" style="stroke:#A80036;stroke-width:1.5;" width="158" x="180" y="176"/><ellipse cx="195" cy="194.9688" fill="#ADD1B2" rx="11" ry="11" style="stroke:#A80036;stroke-width:1.0;"/><path d="M197.9688,200.6094 Q197.3906,200.9063 196.75,201.0547 Q196.1094,201.2031 195.4063,201.2031 Q192.9063,201.2031 191.5859,199.5547 Q190.2656,197.9063 190.2656,194.7813 Q190.2656,191.6563 191.5859,190 Q192.9063,188.3438 195.4063,188.3438 Q196.1094,188.3438 196.7578,188.5 Q197.4063,188.6563 197.9688,188.9531 L197.9688,191.6719 Q197.3438,191.0938 196.75,190.8203 Q196.1563,190.5469 195.5313,190.5469 Q194.1875,190.5469 193.5,191.6172 Q192.8125,192.6875 192.8125,194.7813 Q192.8125,196.875 193.5,197.9453 Q194.1875,199.0156 195.5313,199.0156 Q196.1563,199.0156 196.75,198.7422 Q197.3438,198.4688 197.9688,197.8906 L197.9688,200.6094 Z " fill="#000000"/><text fill="#000000" font-family="sans-serif" font-size="12" font-style="italic" lengthAdjust="spacing" textLength="100" x="222" y="192.1387">«Request Body»</text><text fill="#000000" font-family="sans-serif" font-size="12" lengthAdjust="spacing" textLength="126" x="209" y="206.1074">POST /login Request</text><line style="stroke:#A80036;stroke-width:1.5;" x1="181" x2="337" y1="213.9375" y2="213.9375"/><text fill="#000000" font-family="sans-serif" font-size="11" lengthAdjust="spacing" textLength="103" x="186" y="228.1479">username : string</text><text fill="#000000" font-family="sans-serif" font-size="11" lengthAdjust="spacing" textLength="101" x="186" y="240.9526">password : string</text><line style="stroke:#A80036;stroke-width:1.5;" x1="181" x2="337" y1="247.5469" y2="247.5469"/><!--MD5=[5e99ce8bea90170f1a35f5d25331a19c]
class GET /books--><rect codeLine="50" fill="#FEFECE" filter="url(#f1p0zam1spwmme)" height="92.3516" id="GET /books" style="stroke:#A80036;stroke-width:1.5;" width="123" x="554.5" y="7"/><text fill="#000000" font-family="sans-serif" font-size="12" font-style="italic" lengthAdjust="spacing" textLength="61" x="585.5" y="23.1387">«Method»</text><text fill="#000000" font-family="sans-serif" font-size="12" lengthAdjust="spacing" textLength="70" x="581" y="37.1074">GET /books</text><line style="stroke:#A80036;stroke-width:1.5;" x1="555.5" x2="676.5" y1="44.9375" y2="44.9375"/><text fill="#000000" font-family="sans-serif" font-size="11" lengthAdjust="spacing" textLength="85" x="560.5" y="59.1479">offset : integer</text><text fill="#000000" font-family="sans-serif" font-size="11" lengthAdjust="spacing" textLength="76" x="560.5" y="71.9526">limit : integer</text><text fill="#000000" font-family="sans-serif" font-size="11" lengthAdjust="spacing" textLength="111" x="560.5" y="84.7573">search : string {O}</text><line style="stroke:#A80036;stroke-width:1.5;" x1="555.5" x2="676.5" y1="91.3516" y2="91.3516"/><!--MD5=[e1268eccee0ebb0811aa10f4cd8afac1]
class GET /books 200 Response--><rect codeLine="56" fill="#FEFECE" filter="url(#f1p0zam1spwmme)" height="53.9375" id="GET /books 200 Response" style="stroke:#A80036;stroke-width:1.5;" width="196" x="617" y="189"/><ellipse cx="632" cy="207.9688" fill="#ADD1B2" rx="11" ry="11" style="stroke:#A80036;stroke-width:1.0;"/><path d="M634.9688,213.6094 Q634.3906,213.9063 633.75,214.0547 Q633.1094,214.2031 632.4063,214.2031 Q629.9063,214.2031 628.5859,212.5547 Q627.2656,210.9063 627.2656,207.7813 Q627.2656,204.6563 628.5859,203 Q629.9063,201.3438 632.4063,201.3438 Q633.1094,201.3438 633.7578,201.5 Q634.4063,201.6563 634.9688,201.9531 L634.9688,204.6719 Q634.3438,204.0938 633.75,203.8203 Q633.1563,203.5469 632.5313,203.5469 Q631.1875,203.5469 630.5,204.6172 Q629.8125,205.6875 629.8125,207.7813 Q629.8125,209.875 630.5,210.9453 Q631.1875,212.0156 632.5313,212.0156 Q633.1563,212.0156 633.75,211.7422 Q634.3438,211.4688 634.9688,210.8906 L634.9688,213.6094 Z " fill="#000000"/><text fill="#000000" font-family="sans-serif" font-size="12" font-style="italic" lengthAdjust="spacing" textLength="76" x="690" y="205.1387">«Response»</text><text fill="#000000" font-family="sans-serif" font-size="12" lengthAdjust="spacing" textLength="164" x="646" y="219.1074">GET /books 200 Response</text><line style="stroke:#A80036;stroke-width:1.5;" x1="618" x2="812" y1="226.9375" y2="226.9375"/><line style="stroke:#A80036;stroke-width:1.5;" x1="618" x2="812" y1="234.9375" y2="234.9375"/><!--MD5=[e2b95b101f0494a418d91c87d5c90f1d]
class UnauthorizedError--><rect fill="#FEFECE" filter="url(#f1p0zam1spwmme)" height="48" id="UnauthorizedError" style="stroke:#A80036;stroke-width:1.5;" width="146" x="848" y="192"/><ellipse cx="863" cy="208" fill="#ADD1B2" rx="11" ry="11" style="stroke:#A80036;stroke-width:1.0;"/><path d="M865.9688,213.6406 Q865.3906,213.9375 864.75,214.0859 Q864.1094,214.2344 863.4063,214.2344 Q860.9063,214.2344 859.5859,212.5859 Q858.2656,210.9375 858.2656,207.8125 Q858.2656,204.6875 859.5859,203.0313 Q860.9063,201.375 863.4063,201.375 Q864.1094,201.375 864.7578,201.5313 Q865.4063,201.6875 865.9688,201.9844 L865.9688,204.7031 Q865.3438,204.125 864.75,203.8516 Q864.1563,203.5781 863.5313,203.5781 Q862.1875,203.5781 861.5,204.6484 Q860.8125,205.7188 860.8125,207.8125 Q860.8125,209.9063 861.5,210.9766 Q862.1875,212.0469 863.5313,212.0469 Q864.1563,212.0469 864.75,211.7734 Q865.3438,211.5 865.9688,210.9219 L865.9688,213.6406 Z " fill="#000000"/><text fill="#000000" font-family="sans-serif" font-size="12" lengthAdjust="spacing" textLength="114" x="877" y="212.1543">UnauthorizedError</text><line style="stroke:#A80036;stroke-width:1.5;" x1="849" x2="993" y1="224" y2="224"/><line style="stroke:#A80036;stroke-width:1.5;" x1="849" x2="993" y1="232" y2="232"/><!--MD5=[77bd6de3d50bbd86e1697f981634415e]
class POST /books--><rect codeLine="67" fill="#FEFECE" filter="url(#f1p0zam1spwmme)" height="53.9375" id="POST /books" style="stroke:#A80036;stroke-width:1.5;" width="84" x="974" y="26"/><text fill="#000000" font-family="sans-serif" font-size="12" font-style="italic" lengthAdjust="spacing" textLength="61" x="985.5" y="42.1387">«Method»</text><text fill="#000000" font-family="sans-serif" font-size="12" lengthAdjust="spacing" textLength="78" x="977" y="56.1074">POST /books</text><line style="stroke:#A80036;stroke-width:1.5;" x1="975" x2="1057" y1="63.9375" y2="63.9375"/><line style="stroke:#A80036;stroke-width:1.5;" x1="975" x2="1057" y1="71.9375" y2="71.9375"/><!--MD5=[7efc6e0f254cd69f1fdf08743ee3b607]
link Book to BookGenre--><path codeLine="31" d="M900.328,430.358 C851.923,460.331 790.37,498.445 747.336,525.0927 " fill="none" id="Book-to-BookGenre" style="stroke:#A80036;stroke-width:1.0;"/><polygon fill="#A80036" points="742.969,527.7968,752.7269,526.4611,747.2204,525.1652,748.5163,519.6588,742.969,527.7968" style="stroke:#A80036;stroke-width:1.0;"/><text fill="#000000" font-family="sans-serif" font-size="13" lengthAdjust="spacing" textLength="37" x="844" y="475.0669">genre</text><text fill="#000000" font-family="sans-serif" font-size="13" lengthAdjust="spacing" textLength="24" x="726.3876" y="517.0181">0..1</text><!--MD5=[708ece48ef120737d1cb93104a627dff]
link Book to Author--><path codeLine="33" d="M976,432.432 C976,454.673 976,481.048 976,503.831 " fill="none" id="Book-to-Author" style="stroke:#A80036;stroke-width:1.0;"/><polygon fill="#A80036" points="976,508.9355,980,499.9355,976,503.9355,972,499.9355,976,508.9355" style="stroke:#A80036;stroke-width:1.0;"/><text fill="#000000" font-family="sans-serif" font-size="13" lengthAdjust="spacing" textLength="42" x="977" y="475.0669">author</text><text fill="#000000" font-family="sans-serif" font-size="13" lengthAdjust="spacing" textLength="8" x="967.4375" y="497.9722">1</text><!--MD5=[7ba95e1d098153b54f522cf8b99e6133]
link POST /login to AccessToken--><path codeLine="39" d="M229.191,80.226 C199.896,105.998 154.811,145.664 121.125,175.3 " fill="none" id="POST /login-to-AccessToken" style="stroke:#A80036;stroke-width:1.0;stroke-dasharray:7.0,7.0;"/><polygon fill="#A80036" points="117.075,178.863,126.4743,175.9215,120.829,175.5604,121.1901,169.9151,117.075,178.863" style="stroke:#A80036;stroke-width:1.0;"/><text fill="#000000" font-family="sans-serif" font-size="13" lengthAdjust="spacing" textLength="24" x="174" y="142.0669">200</text><!--MD5=[57665c253550576375cc7673b1742735]
link POST /login to Error--><path codeLine="41" d="M288.809,80.226 C318.104,105.998 363.189,145.664 396.875,175.3 " fill="none" id="POST /login-to-Error" style="stroke:#A80036;stroke-width:1.0;stroke-dasharray:7.0,7.0;"/><polygon fill="#A80036" points="400.925,178.863,396.8099,169.9151,397.171,175.5604,391.5257,175.9215,400.925,178.863" style="stroke:#A80036;stroke-width:1.0;"/><text fill="#000000" font-family="sans-serif" font-size="13" lengthAdjust="spacing" textLength="24" x="363" y="142.0669">400</text><!--MD5=[4c00e1ac54b502d4a11aaf95726f8a2a]
link POST /login to POST /login Request--><path codeLine="48" d="M259,80.226 C259,104.636 259,141.508 259,170.519 " fill="none" id="POST /login-to-POST /login Request" style="stroke:#A80036;stroke-width:1.0;"/><polygon fill="#A80036" points="259,175.839,263,166.839,259,170.839,255,166.839,259,175.839" style="stroke:#A80036;stroke-width:1.0;"/><!--MD5=[7ce4f6434dfa7bc1b0a9df6d13e53d6a]
link GET /books 200 Response to Book--><path codeLine="59" d="M756.356,243.066 C793.744,266.63 849.832,301.98 895.97,331.06 " fill="none" id="GET /books 200 Response-to-Book" style="stroke:#A80036;stroke-width:1.0;"/><polygon fill="#A80036" points="900.403,333.854,894.9215,325.6715,896.1729,331.1882,890.6562,332.4397,900.403,333.854" style="stroke:#A80036;stroke-width:1.0;"/><text fill="#000000" font-family="sans-serif" font-size="13" lengthAdjust="spacing" textLength="7" x="885.6169" y="325.3898">*</text><!--MD5=[eeeef19b3a8e5525f9c68a55b1454b57]
link GET /books to GET /books 200 Response--><path codeLine="61" d="M643.84,99.276 C660.531,126.419 681.314,160.217 696.101,184.265 " fill="none" id="GET /books-to-GET /books 200 Response" style="stroke:#A80036;stroke-width:1.0;stroke-dasharray:7.0,7.0;"/><polygon fill="#A80036" points="698.79,188.638,697.4832,178.8762,696.171,184.3788,690.6685,183.0666,698.79,188.638" style="stroke:#A80036;stroke-width:1.0;"/><text fill="#000000" font-family="sans-serif" font-size="13" lengthAdjust="spacing" textLength="24" x="673" y="142.0669">200</text><!--MD5=[fb0fbcc8eb6e9636ff08105e103cd93c]
link GET /books to UnauthorizedError--><path codeLine="63" d="M677.721,86.581 C735.17,116.906 819.642,161.496 872.427,189.36 " fill="none" id="GET /books-to-UnauthorizedError" style="stroke:#A80036;stroke-width:1.0;stroke-dasharray:7.0,7.0;"/><polygon fill="#A80036" points="877.118,191.836,871.0256,184.0976,872.6961,189.5022,867.2915,191.1727,877.118,191.836" style="stroke:#A80036;stroke-width:1.0;"/><text fill="#000000" font-family="sans-serif" font-size="13" lengthAdjust="spacing" textLength="24" x="787" y="142.0669">401</text><!--MD5=[9d51a88ab644a29f9d5554ed47199a1e]
link GET /books to Error--><path codeLine="65" d="M554.491,94.278 C539.969,104.874 524.955,116.78 512,129 C497.407,142.765 483.096,159.572 471.255,174.666 " fill="none" id="GET /books-to-Error" style="stroke:#A80036;stroke-width:1.0;stroke-dasharray:7.0,7.0;"/><polygon fill="#A80036" points="467.983,178.873,476.6659,174.2246,471.0527,174.9262,470.3511,169.3131,467.983,178.873" style="stroke:#A80036;stroke-width:1.0;"/><text fill="#000000" font-family="sans-serif" font-size="13" lengthAdjust="spacing" textLength="24" x="513" y="142.0669">400</text><!--MD5=[712ae87b5092e0b79371a16ea00ccc41]
link POST /books to Book--><path codeLine="70" d="M1017.62,80.01 C1019.55,118.651 1021.43,193.394 1012,256 C1008.37,280.068 1001.455,306.025 994.645,328.053 " fill="none" id="POST /books-to-Book" style="stroke:#A80036;stroke-width:1.0;stroke-dasharray:7.0,7.0;"/><polygon fill="#A80036" points="993.103,332.981,999.6079,325.586,994.596,328.2091,991.9729,323.1972,993.103,332.981" style="stroke:#A80036;stroke-width:1.0;"/><text fill="#000000" font-family="sans-serif" font-size="13" lengthAdjust="spacing" textLength="24" x="1019" y="220.5669">201</text><!--MD5=[712ae87b5092e0b79371a16ea00ccc41]
link POST /books to Book--><path codeLine="76" d="M1027.8,80.254 C1033.75,94.437 1040.61,112.399 1045,129 C1059.45,183.653 1064.75,200.927 1052,256 C1046.02,281.823 1032.34,307.39 1018.22,328.642 " fill="none" id="POST /books-to-Book-1" style="stroke:#A80036;stroke-width:1.0;"/><polygon fill="#A80036" points="1015.39,332.833,1023.7413,327.6122,1018.1879,328.6891,1017.111,323.1357,1015.39,332.833" style="stroke:#A80036;stroke-width:1.0;"/><!--MD5=[4356fb2a99c7e084864d271c21813bc7]
link POST /books to Error--><path codeLine="72" d="M973.892,78.376 C935.172,99.654 875.522,129.619 820,146 C724.928,174.049 696.354,157.358 599,176 C571.847,181.2 542.362,188.167 516.354,194.774 " fill="none" id="POST /books-to-Error" style="stroke:#A80036;stroke-width:1.0;stroke-dasharray:7.0,7.0;"/><polygon fill="#A80036" points="511.2,196.09,520.9099,197.7386,516.0445,194.8528,518.9304,189.9874,511.2,196.09" style="stroke:#A80036;stroke-width:1.0;"/><text fill="#000000" font-family="sans-serif" font-size="13" lengthAdjust="spacing" textLength="24" x="865" y="142.0669">400</text><!--MD5=[c906920510fbe9ac7ebf7399e2a9341d]
link POST /books to UnauthorizedError--><path codeLine="74" d="M1000.525,80.226 C983.158,109.659 955.098,157.213 937.372,187.254 " fill="none" id="POST /books-to-UnauthorizedError" style="stroke:#A80036;stroke-width:1.0;stroke-dasharray:7.0,7.0;"/><polygon fill="#A80036" points="934.619,191.919,942.6371,186.1997,937.1595,187.6125,935.7466,182.1349,934.619,191.919" style="stroke:#A80036;stroke-width:1.0;"/><text fill="#000000" font-family="sans-serif" font-size="13" lengthAdjust="spacing" textLength="24" x="972" y="142.0669">401</text><!--MD5=[ae0c4da99d5588654efc19478d8a93bf]
link GET /books to BookGenre--><path codeLine="78" d="M608.207,99.036 C604.621,121.993 600.775,150.399 599,176 C596.541,211.47 593.542,220.866 599,256 C614.513,355.851 657.298,467.874 680.153,523.0229 " fill="none" id="GET /books-to-BookGenre" style="stroke:#A80036;stroke-width:1.0;"/><polygon fill="#A80036" points="682.167,527.8589,682.4,518.0128,680.245,523.2431,675.0147,521.0881,682.167,527.8589" style="stroke:#A80036;stroke-width:1.0;"/><text fill="#000000" font-family="sans-serif" font-size="13" lengthAdjust="spacing" textLength="37" x="609" y="299.0669">genre</text><text fill="#000000" font-family="sans-serif" font-size="13" lengthAdjust="spacing" textLength="8" x="670.6952" y="517.093">1</text><!--MD5=[dc60edc72554226a9b36a3b4dcdd2972]
@startuml
set namespaceSeparator none

class "AccessToken" {
  accessToken : string
  expiresAt : timestamp
}

class "Error" {
  code : string
  message : timestamp
}

class "Author" {
  fullname : string
  country : string {O}
  birthYear : date {O}
  gender : string {O}
}

class "BookGenre" {
  value : string
}

class "Book" {
  id : integer
  title : string
  totalPages : integer
  publishingHouse : string
}

"Book" - -> "0..1" "BookGenre" : genre

"Book" - -> "1" "Author" : author
hide <<Method>> circle

class "POST /login" <<Method>> {
}

"POST /login" ..> "AccessToken": 200

"POST /login" ..> "Error": 400

class "POST /login Request" <<Request Body>> {
  username : string
  password : string
}

"POST /login" - -> "POST /login Request"

class "GET /books" <<Method>> {
  offset : integer
  limit : integer
  search : string {O}
}

class "GET /books 200 Response" <<Response>> {
}

"GET /books 200 Response" - -> "*" "Book"

"GET /books" ..> "GET /books 200 Response": 200

"GET /books" ..> "UnauthorizedError": 401

"GET /books" ..> "Error": 400

class "POST /books" <<Method>> {
}

"POST /books" ..> "Book": 201

"POST /books" ..> "Error": 400

"POST /books" ..> "UnauthorizedError": 401

"POST /books" - -> "Book"

"GET /books" - -> "1" "BookGenre" : "genre"

@enduml

PlantUML version 1.2021.2(Sun Mar 07 22:10:27 AEDT 2021)
(GPL source distribution)
Java Runtime: Java(TM) SE Runtime Environment
JVM: Java HotSpot(TM) 64-Bit Server VM
Default Encoding: UTF-8
Language: en
Country: US
--></g></svg>