<?xml version="1.0" encoding="UTF-8" standalone="no"?><svg xmlns="http://www.w3.org/2000/svg" xmlns:xlink="http://www.w3.org/1999/xlink" contentScriptType="application/ecmascript" contentStyleType="text/css" height="590px" preserveAspectRatio="none" style="width:1072px;height:590px;" version="1.1" viewBox="0 0 1072 590" width="1072px" zoomAndPan="magnify"><defs><filter height="300%" id="f10p8qewgbvopx" width="300%" x="-1" y="-1"><feGaussianBlur result="blurOut" stdDeviation="2.0"/><feColorMatrix in="blurOut" result="blurOut2" type="matrix" values="0 0 0 0 0 0 0 0 0 0 0 0 0 0 0 0 0 0 .4 0"/><feOffset dx="4.0" dy="4.0" in="blurOut2" result="blurOut3"/><feBlend in="SourceGraphic" in2="blurOut3" mode="normal"/></filter></defs><g><!--MD5=[480b55fe24535af2551deb761fe5417e]
class AccessToken--><rect codeLine="6" fill="#FEFECE" filter="url(#f10p8qewgbvopx)" height="65.6094" id="AccessToken" style="stroke:#A80036;stroke-width:1.5;" width="138" x="7" y="171"/><ellipse cx="32.8" cy="187" fill="#ADD1B2" rx="11" ry="11" style="stroke:#A80036;stroke-width:1.0;"/><path d="M35.7688,192.6406 Q35.1906,192.9375 34.55,193.0859 Q33.9094,193.2344 33.2063,193.2344 Q30.7062,193.2344 29.3859,191.5859 Q28.0656,189.9375 28.0656,186.8125 Q28.0656,183.6875 29.3859,182.0313 Q30.7062,180.375 33.2063,180.375 Q33.9094,180.375 34.5578,180.5313 Q35.2063,180.6875 35.7688,180.9844 L35.7688,183.7031 Q35.1438,183.125 34.55,182.8516 Q33.9563,182.5781 33.3313,182.5781 Q31.9875,182.5781 31.3,183.6484 Q30.6125,184.7188 30.6125,186.8125 Q30.6125,188.9063 31.3,189.9766 Q31.9875,191.0469 33.3313,191.0469 Q33.9563,191.0469 34.55,190.7734 Q35.1438,190.5 35.7688,189.9219 L35.7688,192.6406 Z " fill="#000000"/><text fill="#000000" font-family="sans-serif" font-size="12" lengthAdjust="spacing" textLength="82" x="49.2" y="191.1543">AccessToken</text><line style="stroke:#A80036;stroke-width:1.5;" x1="8" x2="144" y1="203" y2="203"/><text fill="#000000" font-family="sans-serif" font-size="11" lengthAdjust="spacing" textLength="119" x="13" y="217.2104">accessToken : string</text><text fill="#000000" font-family="sans-serif" font-size="11" lengthAdjust="spacing" textLength="126" x="13" y="230.0151">expiresAt : timestamp</text><!--MD5=[b8cfd8c4119a3b0a7a46bfc5fc780f85]
class Error--><rect codeLine="11" fill="#FEFECE" filter="url(#f10p8qewgbvopx)" height="65.6094" id="Error" style="stroke:#A80036;stroke-width:1.5;" width="138" x="373" y="171"/><ellipse cx="422.25" cy="187" fill="#ADD1B2" rx="11" ry="11" style="stroke:#A80036;stroke-width:1.0;"/><path d="M425.2188,192.6406 Q424.6406,192.9375 424,193.0859 Q423.3594,193.2344 422.6563,193.2344 Q420.1563,193.2344 418.8359,191.5859 Q417.5156,189.9375 417.5156,186.8125 Q417.5156,183.6875 418.8359,182.0313 Q420.1563,180.375 422.6563,180.375 Q423.3594,180.375 424.0078,180.5313 Q424.6563,180.6875 425.2188,180.9844 L425.2188,183.7031 Q424.5938,183.125 424,182.8516 Q423.4063,182.5781 422.7813,182.5781 Q421.4375,182.5781 420.75,183.6484 Q420.0625,184.7188 420.0625,186.8125 Q420.0625,188.9063 420.75,189.9766 Q421.4375,191.0469 422.7813,191.0469 Q423.4063,191.0469 424,190.7734 Q424.5938,190.5 425.2188,189.9219 L425.2188,192.6406 Z " fill="#000000"/><text fill="#000000" font-family="sans-serif" font-size="12" lengthAdjust="spacing" textLength="31" x="442.75" y="191.1543">Error</text><line style="stroke:#A80036;stroke-width:1.5;" x1="374" x2="510" y1="203" y2="203"/><text fill="#000000" font-family="sans-serif" font-size="11" lengthAdjust="spacing" textLength="72" x="379" y="217.2104">code : string</text><text fill="#000000" font-family="sans-serif" font-size="11" lengthAdjust="spacing" textLength="126" x="379" y="230.0151">message : timestamp</text><!--MD5=[c3f280b58e8dd0683e81b8ec31306a35]
class Author--><rect codeLine="16" fill="#FEFECE" filter="url(#f10p8qewgbvopx)" height="91.2188" id="Author" style="stroke:#A80036;stroke-width:1.5;" width="128" x="912" y="485"/><ellipse cx="951.3" cy="501" fill="#ADD1B2" rx="11" ry="11" style="stroke:#A80036;stroke-width:1.0;"/><path d="M954.2688,506.6406 Q953.6906,506.9375 953.05,507.0859 Q952.4094,507.2344 951.7063,507.2344 Q949.2063,507.2344 947.8859,505.5859 Q946.5656,503.9375 946.5656,500.8125 Q946.5656,497.6875 947.8859,496.0313 Q949.2063,494.375 951.7063,494.375 Q952.4094,494.375 953.0578,494.5313 Q953.7063,494.6875 954.2688,494.9844 L954.2688,497.7031 Q953.6438,497.125 953.05,496.8516 Q952.4563,496.5781 951.8313,496.5781 Q950.4875,496.5781 949.8,497.6484 Q949.1125,498.7188 949.1125,500.8125 Q949.1125,502.9063 949.8,503.9766 Q950.4875,505.0469 951.8313,505.0469 Q952.4563,505.0469 953.05,504.7734 Q953.6438,504.5 954.2688,503.9219 L954.2688,506.6406 Z " fill="#000000"/><text fill="#000000" font-family="sans-serif" font-size="12" lengthAdjust="spacing" textLength="42" x="970.7" y="505.1543">Author</text><line style="stroke:#A80036;stroke-width:1.5;" x1="913" x2="1039" y1="517" y2="517"/><text fill="#000000" font-family="sans-serif" font-size="11" lengthAdjust="spacing" textLength="94" x="918" y="531.2104">fullname : string</text><text fill="#000000" font-family="sans-serif" font-size="11" lengthAdjust="spacing" textLength="114" x="918" y="544.0151">country : string {O}</text><text fill="#000000" font-family="sans-serif" font-size="11" lengthAdjust="spacing" textLength="116" x="918" y="556.8198">birthYear : date {O}</text><text fill="#000000" font-family="sans-serif" font-size="11" lengthAdjust="spacing" textLength="112" x="918" y="569.6245">gender : string {O}</text><!--MD5=[838cb3b9b512e84757c00d0249b7cc0a]
class BookGenre--><rect codeLine="23" fill="#FEFECE" filter="url(#f10p8qewgbvopx)" height="52.8047" id="BookGenre" style="stroke:#A80036;stroke-width:1.5;" width="101" x="644.5" y="504"/><ellipse cx="659.5" cy="520" fill="#ADD1B2" rx="11" ry="11" style="stroke:#A80036;stroke-width:1.0;"/><path d="M662.4688,525.6406 Q661.8906,525.9375 661.25,526.0859 Q660.6094,526.2344 659.9063,526.2344 Q657.4063,526.2344 656.0859,524.5859 Q654.7656,522.9375 654.7656,519.8125 Q654.7656,516.6875 656.0859,515.0313 Q657.4063,513.375 659.9063,513.375 Q660.6094,513.375 661.2578,513.5313 Q661.9063,513.6875 662.4688,513.9844 L662.4688,516.7031 Q661.8438,516.125 661.25,515.8516 Q660.6563,515.5781 660.0313,515.5781 Q658.6875,515.5781 658,516.6484 Q657.3125,517.7188 657.3125,519.8125 Q657.3125,521.9063 658,522.9766 Q658.6875,524.0469 660.0313,524.0469 Q660.6563,524.0469 661.25,523.7734 Q661.8438,523.5 662.4688,522.9219 L662.4688,525.6406 Z " fill="#000000"/><text fill="#000000" font-family="sans-serif" font-size="12" lengthAdjust="spacing" textLength="69" x="673.5" y="524.1543">BookGenre</text><line style="stroke:#A80036;stroke-width:1.5;" x1="645.5" x2="744.5" y1="536" y2="536"/><text fill="#000000" font-family="sans-serif" font-size="11" lengthAdjust="spacing" textLength="75" x="650.5" y="550.2104">value : string</text><!--MD5=[84e3a5e42879fb3231104d3c8e592439]
class Book--><rect codeLine="27" fill="#FEFECE" filter="url(#f10p8qewgbvopx)" height="91.2188" id="Book" style="stroke:#A80036;stroke-width:1.5;" width="151" x="900.5" y="317"/><ellipse cx="956.25" cy="333" fill="#ADD1B2" rx="11" ry="11" style="stroke:#A80036;stroke-width:1.0;"/><path d="M959.2188,338.6406 Q958.6406,338.9375 958,339.0859 Q957.3594,339.2344 956.6563,339.2344 Q954.1563,339.2344 952.8359,337.5859 Q951.5156,335.9375 951.5156,332.8125 Q951.5156,329.6875 952.8359,328.0313 Q954.1563,326.375 956.6563,326.375 Q957.3594,326.375 958.0078,326.5313 Q958.6563,326.6875 959.2188,326.9844 L959.2188,329.7031 Q958.5938,329.125 958,328.8516 Q957.4063,328.5781 956.7813,328.5781 Q955.4375,328.5781 954.75,329.6484 Q954.0625,330.7188 954.0625,332.8125 Q954.0625,334.9063 954.75,335.9766 Q955.4375,337.0469 956.7813,337.0469 Q957.4063,337.0469 958,336.7734 Q958.5938,336.5 959.2188,335.9219 L959.2188,338.6406 Z " fill="#000000"/><text fill="#000000" font-family="sans-serif" font-size="12" lengthAdjust="spacing" textLength="31" x="976.75" y="337.1543">Book</text><line style="stroke:#A80036;stroke-width:1.5;" x1="901.5" x2="1050.5" y1="349" y2="349"/><text fill="#000000" font-family="sans-serif" font-size="11" lengthAdjust="spacing" textLength="62" x="906.5" y="363.2104">id : integer</text><text fill="#000000" font-family="sans-serif" font-size="11" lengthAdjust="spacing" textLength="66" x="906.5" y="376.0151">title : string</text><text fill="#000000" font-family="sans-serif" font-size="11" lengthAdjust="spacing" textLength="112" x="906.5" y="388.8198">totalPages : integer</text><text fill="#000000" font-family="sans-serif" font-size="11" lengthAdjust="spacing" textLength="139" x="906.5" y="401.6245">publishingHouse : string</text><!--MD5=[2b9df03c28d9cb9ddfcbffc750f34f92]
class POST /login--><rect codeLine="38" fill="#FEFECE" filter="url(#f10p8qewgbvopx)" height="37.9375" id="POST /login" style="stroke:#A80036;stroke-width:1.5;" width="76" x="221" y="30"/><text fill="#000000" font-family="sans-serif" font-size="12" font-style="italic" lengthAdjust="spacing" textLength="61" x="228.5" y="46.1387">«Method»</text><text fill="#000000" font-family="sans-serif" font-size="12" lengthAdjust="spacing" textLength="70" x="224" y="60.1074">POST /login</text><!--MD5=[7ed6c87dba96c2e22350af2d871c6ccf]
class POST /login Request--><rect codeLine="45" fill="#FEFECE" filter="url(#f10p8qewgbvopx)" height="71.5469" id="POST /login Request" style="stroke:#A80036;stroke-width:1.5;" width="158" x="180" y="168"/><ellipse cx="195" cy="186.9688" fill="#ADD1B2" rx="11" ry="11" style="stroke:#A80036;stroke-width:1.0;"/><path d="M197.9688,192.6094 Q197.3906,192.9063 196.75,193.0547 Q196.1094,193.2031 195.4063,193.2031 Q192.9063,193.2031 191.5859,191.5547 Q190.2656,189.9063 190.2656,186.7813 Q190.2656,183.6563 191.5859,182 Q192.9063,180.3438 195.4063,180.3438 Q196.1094,180.3438 196.7578,180.5 Q197.4063,180.6563 197.9688,180.9531 L197.9688,183.6719 Q197.3438,183.0938 196.75,182.8203 Q196.1563,182.5469 195.5313,182.5469 Q194.1875,182.5469 193.5,183.6172 Q192.8125,184.6875 192.8125,186.7813 Q192.8125,188.875 193.5,189.9453 Q194.1875,191.0156 195.5313,191.0156 Q196.1563,191.0156 196.75,190.7422 Q197.3438,190.4688 197.9688,189.8906 L197.9688,192.6094 Z " fill="#000000"/><text fill="#000000" font-family="sans-serif" font-size="12" font-style="italic" lengthAdjust="spacing" textLength="100" x="222" y="184.1387">«Request Body»</text><text fill="#000000" font-family="sans-serif" font-size="12" lengthAdjust="spacing" textLength="126" x="209" y="198.1074">POST /login Request</text><line style="stroke:#A80036;stroke-width:1.5;" x1="181" x2="337" y1="205.9375" y2="205.9375"/><text fill="#000000" font-family="sans-serif" font-size="11" lengthAdjust="spacing" textLength="103" x="186" y="220.1479">username : string</text><text fill="#000000" font-family="sans-serif" font-size="11" lengthAdjust="spacing" textLength="101" x="186" y="232.9526">password : string</text><!--MD5=[5e99ce8bea90170f1a35f5d25331a19c]
class GET /books--><rect codeLine="52" fill="#FEFECE" filter="url(#f10p8qewgbvopx)" height="84.3516" id="GET /books" style="stroke:#A80036;stroke-width:1.5;" width="123" x="554.5" y="7"/><text fill="#000000" font-family="sans-serif" font-size="12" font-style="italic" lengthAdjust="spacing" textLength="61" x="585.5" y="23.1387">«Method»</text><text fill="#000000" font-family="sans-serif" font-size="12" lengthAdjust="spacing" textLength="70" x="581" y="37.1074">GET /books</text><line style="stroke:#A80036;stroke-width:1.5;" x1="555.5" x2="676.5" y1="44.9375" y2="44.9375"/><text fill="#000000" font-family="sans-serif" font-size="11" lengthAdjust="spacing" textLength="85" x="560.5" y="59.1479">offset : integer</text><text fill="#000000" font-family="sans-serif" font-size="11" lengthAdjust="spacing" textLength="76" x="560.5" y="71.9526">limit : integer</text><text fill="#000000" font-family="sans-serif" font-size="11" lengthAdjust="spacing" textLength="111" x="560.5" y="84.7573">search : string {O}</text><!--MD5=[e1268eccee0ebb0811aa10f4cd8afac1]
class GET /books 200 Response--><rect codeLine="58" fill="#FEFECE" filter="url(#f10p8qewgbvopx)" height="37.9375" id="GET /books 200 Response" style="stroke:#A80036;stroke-width:1.5;" width="196" x="617" y="185"/><ellipse cx="632" cy="203.9688" fill="#ADD1B2" rx="11" ry="11" style="stroke:#A80036;stroke-width:1.0;"/><path d="M634.9688,209.6094 Q634.3906,209.9063 633.75,210.0547 Q633.1094,210.2031 632.4063,210.2031 Q629.9063,210.2031 628.5859,208.5547 Q627.2656,206.9063 627.2656,203.7813 Q627.2656,200.6563 628.5859,199 Q629.9063,197.3438 632.4063,197.3438 Q633.1094,197.3438 633.7578,197.5 Q634.4063,197.6563 634.9688,197.9531 L634.9688,200.6719 Q634.3438,200.0938 633.75,199.8203 Q633.1563,199.5469 632.5313,199.5469 Q631.1875,199.5469 630.5,200.6172 Q629.8125,201.6875 629.8125,203.7813 Q629.8125,205.875 630.5,206.9453 Q631.1875,208.0156 632.5313,208.0156 Q633.1563,208.0156 633.75,207.7422 Q634.3438,207.4688 634.9688,206.8906 L634.9688,209.6094 Z " fill="#000000"/><text fill="#000000" font-family="sans-serif" font-size="12" font-style="italic" lengthAdjust="spacing" textLength="76" x="690" y="201.1387">«Response»</text><text fill="#000000" font-family="sans-serif" font-size="12" lengthAdjust="spacing" textLength="164" x="646" y="215.1074">GET /books 200 Response</text><!--MD5=[e2b95b101f0494a418d91c87d5c90f1d]
class UnauthorizedError--><rect fill="#FEFECE" filter="url(#f10p8qewgbvopx)" height="32" id="UnauthorizedError" style="stroke:#A80036;stroke-width:1.5;" width="146" x="848" y="188"/><ellipse cx="863" cy="204" fill="#ADD1B2" rx="11" ry="11" style="stroke:#A80036;stroke-width:1.0;"/><path d="M865.9688,209.6406 Q865.3906,209.9375 864.75,210.0859 Q864.1094,210.2344 863.4063,210.2344 Q860.9063,210.2344 859.5859,208.5859 Q858.2656,206.9375 858.2656,203.8125 Q858.2656,200.6875 859.5859,199.0313 Q860.9063,197.375 863.4063,197.375 Q864.1094,197.375 864.7578,197.5313 Q865.4063,197.6875 865.9688,197.9844 L865.9688,200.7031 Q865.3438,200.125 864.75,199.8516 Q864.1563,199.5781 863.5313,199.5781 Q862.1875,199.5781 861.5,200.6484 Q860.8125,201.7188 860.8125,203.8125 Q860.8125,205.9063 861.5,206.9766 Q862.1875,208.0469 863.5313,208.0469 Q864.1563,208.0469 864.75,207.7734 Q865.3438,207.5 865.9688,206.9219 L865.9688,209.6406 Z " fill="#000000"/><text fill="#000000" font-family="sans-serif" font-size="12" lengthAdjust="spacing" textLength="114" x="877" y="208.1543">UnauthorizedError</text><!--MD5=[77bd6de3d50bbd86e1697f981634415e]
class POST /books--><rect codeLine="69" fill="#FEFECE" filter="url(#f10p8qewgbvopx)" height="37.9375" id="POST /books" style="stroke:#A80036;stroke-width:1.5;" width="84" x="974" y="30"/><text fill="#000000" font-family="sans-serif" font-size="12" font-style="italic" lengthAdjust="spacing" textLength="61" x="985.5" y="46.1387">«Method»</text><text fill="#000000" font-family="sans-serif" font-size="12" lengthAdjust="spacing" textLength="78" x="977" y="60.1074">POST /books</text><!--MD5=[7efc6e0f254cd69f1fdf08743ee3b607]
link Book to BookGenre--><path codeLine="34" d="M900.328,408.203 C850.194,437.819 785.957,475.767 742.797,501.2638 " fill="none" id="Book-to-BookGenre" style="stroke:#A80036;stroke-width:1.0;"/><polygon fill="#A80036" points="738.427,503.8458,748.2105,502.7126,742.7321,501.3029,744.1418,495.8245,738.427,503.8458" style="stroke:#A80036;stroke-width:1.0;"/><text fill="#000000" font-family="sans-serif" font-size="13" lengthAdjust="spacing" textLength="37" x="844" y="451.0669">genre</text><text fill="#000000" font-family="sans-serif" font-size="13" lengthAdjust="spacing" textLength="24" x="721.6945" y="493.0525">0..1</text><!--MD5=[708ece48ef120737d1cb93104a627dff]
link Book to Author--><path codeLine="36" d="M976,408.422 C976,430.471 976,457.097 976,479.7598 " fill="none" id="Book-to-Author" style="stroke:#A80036;stroke-width:1.0;"/><polygon fill="#A80036" points="976,484.83,980,475.83,976,479.83,972,475.83,976,484.83" style="stroke:#A80036;stroke-width:1.0;"/><text fill="#000000" font-family="sans-serif" font-size="13" lengthAdjust="spacing" textLength="42" x="977" y="451.0669">author</text><text fill="#000000" font-family="sans-serif" font-size="13" lengthAdjust="spacing" textLength="8" x="967.4125" y="474.0812">1</text><!--MD5=[7ba95e1d098153b54f522cf8b99e6133]
link POST /login to AccessToken--><path codeLine="41" d="M237.289,68.152 C208.149,92.515 155.758,136.317 118.601,167.383 " fill="none" id="POST /login-to-AccessToken" style="stroke:#A80036;stroke-width:1.0;stroke-dasharray:7.0,7.0;"/><polygon fill="#A80036" points="114.602,170.726,124.0723,168.0216,118.4378,167.5188,118.9407,161.8843,114.602,170.726" style="stroke:#A80036;stroke-width:1.0;"/><text fill="#000000" font-family="sans-serif" font-size="13" lengthAdjust="spacing" textLength="24" x="174" y="134.0669">200</text><!--MD5=[57665c253550576375cc7673b1742735]
link POST /login to Error--><path codeLine="43" d="M280.711,68.152 C309.851,92.515 362.242,136.317 399.399,167.383 " fill="none" id="POST /login-to-Error" style="stroke:#A80036;stroke-width:1.0;stroke-dasharray:7.0,7.0;"/><polygon fill="#A80036" points="403.398,170.726,399.0593,161.8843,399.5622,167.5188,393.9277,168.0216,403.398,170.726" style="stroke:#A80036;stroke-width:1.0;"/><text fill="#000000" font-family="sans-serif" font-size="13" lengthAdjust="spacing" textLength="24" x="363" y="134.0669">400</text><!--MD5=[4c00e1ac54b502d4a11aaf95726f8a2a]
link POST /login to POST /login Request--><path codeLine="50" d="M259,68.152 C259,91.274 259,131.904 259,162.539 " fill="none" id="POST /login-to-POST /login Request" style="stroke:#A80036;stroke-width:1.0;"/><polygon fill="#A80036" points="259,167.75,263,158.75,259,162.75,255,158.75,259,167.75" style="stroke:#A80036;stroke-width:1.0;"/><!--MD5=[7ce4f6434dfa7bc1b0a9df6d13e53d6a]
link GET /books 200 Response to Book--><path codeLine="61" d="M745.195,223.105 C782.131,245.253 846.063,283.588 897.288,314.303 " fill="none" id="GET /books 200 Response-to-Book" style="stroke:#A80036;stroke-width:1.0;"/><polygon fill="#A80036" points="901.577,316.875,895.9152,308.8162,897.2888,314.3038,891.8012,315.6774,901.577,316.875" style="stroke:#A80036;stroke-width:1.0;"/><text fill="#000000" font-family="sans-serif" font-size="13" lengthAdjust="spacing" textLength="7" x="885.5672" y="307.7943">*</text><!--MD5=[eeeef19b3a8e5525f9c68a55b1454b57]
link GET /books to GET /books 200 Response--><path codeLine="63" d="M642.53,91.001 C661.186,119.833 685.436,157.31 700.611,180.762 " fill="none" id="GET /books-to-GET /books 200 Response" style="stroke:#A80036;stroke-width:1.0;stroke-dasharray:7.0,7.0;"/><polygon fill="#A80036" points="703.336,184.973,701.8067,175.2436,700.6205,180.7747,695.0894,179.5885,703.336,184.973" style="stroke:#A80036;stroke-width:1.0;"/><text fill="#000000" font-family="sans-serif" font-size="13" lengthAdjust="spacing" textLength="24" x="673" y="134.0669">200</text><!--MD5=[fb0fbcc8eb6e9636ff08105e103cd93c]
link GET /books to UnauthorizedError--><path codeLine="65" d="M677.721,80.962 C740.45,112.429 835.399,160.059 886.134,185.51 " fill="none" id="GET /books-to-UnauthorizedError" style="stroke:#A80036;stroke-width:1.0;stroke-dasharray:7.0,7.0;"/><polygon fill="#A80036" points="890.903,187.902,884.6527,180.2906,886.434,185.6596,881.0649,187.441,890.903,187.902" style="stroke:#A80036;stroke-width:1.0;"/><text fill="#000000" font-family="sans-serif" font-size="13" lengthAdjust="spacing" textLength="24" x="787" y="134.0669">401</text><!--MD5=[9d51a88ab644a29f9d5554ed47199a1e]
link GET /books to Error--><path codeLine="67" d="M554.302,88.153 C539.863,98.142 524.933,109.389 512,121 C496.723,134.716 481.686,151.732 469.489,166.702 " fill="none" id="GET /books-to-Error" style="stroke:#A80036;stroke-width:1.0;stroke-dasharray:7.0,7.0;"/><polygon fill="#A80036" points="466.126,170.866,474.8925,166.3772,469.2674,166.9761,468.6685,161.351,466.126,170.866" style="stroke:#A80036;stroke-width:1.0;"/><text fill="#000000" font-family="sans-serif" font-size="13" lengthAdjust="spacing" textLength="24" x="513" y="134.0669">400</text><!--MD5=[712ae87b5092e0b79371a16ea00ccc41]
link POST /books to Book--><path codeLine="72" d="M1017.22,68.217 C1019.14,102.222 1021.73,177.571 1012,240 C1008.24,264.15 1000.961,290.222 993.928,311.999 " fill="none" id="POST /books-to-Book" style="stroke:#A80036;stroke-width:1.0;stroke-dasharray:7.0,7.0;"/><polygon fill="#A80036" points="992.339,316.864,998.9383,309.5531,993.8931,312.1117,991.3345,307.0665,992.339,316.864" style="stroke:#A80036;stroke-width:1.0;"/><text fill="#000000" font-family="sans-serif" font-size="13" lengthAdjust="spacing" textLength="24" x="1019" y="208.5669">201</text><!--MD5=[712ae87b5092e0b79371a16ea00ccc41]
link POST /books to Book--><path codeLine="78" d="M1024.88,68.261 C1031.38,82.356 1039.93,102.51 1045,121 C1059.02,172.092 1063.95,188.385 1052,240 C1045.95,266.133 1031.51,291.804 1016.83,312.767 " fill="none" id="POST /books-to-Book-1" style="stroke:#A80036;stroke-width:1.0;"/><polygon fill="#A80036" points="1013.89,316.895,1022.3683,311.8831,1016.7898,312.8218,1015.8511,307.2434,1013.89,316.895" style="stroke:#A80036;stroke-width:1.0;"/><!--MD5=[4356fb2a99c7e084864d271c21813bc7]
link POST /books to Error--><path codeLine="74" d="M983.461,68.122 C945.442,88.453 880.071,120.826 820,138 C724.695,165.247 696.572,150.534 599,168 C571.94,172.844 542.477,179.138 516.46,185.05 " fill="none" id="POST /books-to-Error" style="stroke:#A80036;stroke-width:1.0;stroke-dasharray:7.0,7.0;"/><polygon fill="#A80036" points="511.304,186.227,520.9686,188.1234,516.1786,185.1141,519.1879,180.3241,511.304,186.227" style="stroke:#A80036;stroke-width:1.0;"/><text fill="#000000" font-family="sans-serif" font-size="13" lengthAdjust="spacing" textLength="24" x="865" y="134.0669">400</text><!--MD5=[c906920510fbe9ac7ebf7399e2a9341d]
link POST /books to UnauthorizedError--><path codeLine="76" d="M1004.729,68.152 C986.814,97.004 951.971,153.12 933.383,183.057 " fill="none" id="POST /books-to-UnauthorizedError" style="stroke:#A80036;stroke-width:1.0;stroke-dasharray:7.0,7.0;"/><polygon fill="#A80036" points="930.544,187.629,938.6911,182.095,933.1826,183.3819,931.8957,177.8733,930.544,187.629" style="stroke:#A80036;stroke-width:1.0;"/><text fill="#000000" font-family="sans-serif" font-size="13" lengthAdjust="spacing" textLength="24" x="972" y="134.0669">401</text><!--MD5=[ae0c4da99d5588654efc19478d8a93bf]
link GET /books to BookGenre--><path codeLine="80" d="M608.609,91.074 C604.913,113.686 600.842,142.297 599,168 C596.713,199.918 593.899,208.409 599,240 C614.783,337.737 658.719,447.131 681.266,499.0217 " fill="none" id="GET /books-to-BookGenre" style="stroke:#A80036;stroke-width:1.0;"/><polygon fill="#A80036" points="683.38,503.8615,683.4431,494.0128,681.3786,499.2795,676.1119,497.2151,683.38,503.8615" style="stroke:#A80036;stroke-width:1.0;"/><text fill="#000000" font-family="sans-serif" font-size="13" lengthAdjust="spacing" textLength="37" x="610" y="283.0669">genre</text><text fill="#000000" font-family="sans-serif" font-size="13" lengthAdjust="spacing" textLength="8" x="671.7679" y="493.0718">1</text><!--MD5=[a1cfec92d00c4c6481dacfec375e97f6]
@startuml
hide <<Method>> circle
hide empty methods
hide empty fields
set namespaceSeparator none

class "AccessToken" {
  accessToken : string
  expiresAt : timestamp
}

class "Error" {
  code : string
  message : timestamp
}

class "Author" {
  fullname : string
  country : string {O}
  birthYear : date {O}
  gender : string {O}
}

class "BookGenre" {
  value : string
}

class "Book" {
  id : integer
  title : string
  totalPages : integer
  publishingHouse : string
}

"Book" - -> "0..1" "BookGenre" : genre

"Book" - -> "1" "Author" : author

class "POST /login" <<Method>> {
}

"POST /login" ..> "AccessToken": 200

"POST /login" ..> "Error": 400

class "POST /login Request" <<Request Body>> {
  username : string
  password : string
}

"POST /login" - -> "POST /login Request"

class "GET /books" <<Method>> {
  offset : integer
  limit : integer
  search : string {O}
}

class "GET /books 200 Response" <<Response>> {
}

"GET /books 200 Response" - -> "*" "Book"

"GET /books" ..> "GET /books 200 Response": 200

"GET /books" ..> "UnauthorizedError": 401

"GET /books" ..> "Error": 400

class "POST /books" <<Method>> {
}

"POST /books" ..> "Book": 201

"POST /books" ..> "Error": 400

"POST /books" ..> "UnauthorizedError": 401

"POST /books" - -> "Book"

"GET /books" - -> "1" "BookGenre" : "genre"

@enduml

PlantUML version 1.2021.2(Sun Mar 07 22:10:27 AEDT 2021)
(GPL source distribution)
Java Runtime: Java(TM) SE Runtime Environment
JVM: Java HotSpot(TM) 64-Bit Server VM
Default Encoding: UTF-8
Language: en
Country: US
--></g></svg>