<?xml version="1.0" encoding="us-ascii" standalone="no"?><svg xmlns="http://www.w3.org/2000/svg" xmlns:xlink="http://www.w3.org/1999/xlink" contentStyleType="text/css" height="672px" preserveAspectRatio="none" style="width:1284px;height:672px;background:#FFFFFF;" version="1.1" viewBox="0 0 1284 672" width="1284px" zoomAndPan="magnify"><defs/><g><!--class AccessToken--><g id="elem_AccessToken"><rect codeLine="8" fill="#F1F1F1" height="72.5938" id="AccessToken" rx="2.5" ry="2.5" style="stroke:#181818;stroke-width:0.5;" width="162" x="7" y="185"/><ellipse cx="38.2" cy="201" fill="#ADD1B2" rx="11" ry="11" style="stroke:#181818;stroke-width:1.0;"/><path d="M41.1688,206.6406 Q40.5906,206.9375 39.95,207.0781 Q39.3094,207.2344 38.6063,207.2344 Q36.1063,207.2344 34.7781,205.5938 Q33.4656,203.9375 33.4656,200.8125 Q33.4656,197.6875 34.7781,196.0313 Q36.1063,194.375 38.6063,194.375 Q39.3094,194.375 39.95,194.5313 Q40.6063,194.6875 41.1688,194.9844 L41.1688,197.7031 Q40.5438,197.125 39.95,196.8594 Q39.3563,196.5781 38.7313,196.5781 Q37.3875,196.5781 36.7,197.6563 Q36.0125,198.7188 36.0125,200.8125 Q36.0125,202.9063 36.7,203.9844 Q37.3875,205.0469 38.7313,205.0469 Q39.3563,205.0469 39.95,204.7813 Q40.5438,204.5 41.1688,203.9219 L41.1688,206.6406 Z " fill="#000000"/><text fill="#000000" font-family="sans-serif" font-size="14" lengthAdjust="spacing" textLength="94" x="55.8" y="205.8467">AccessToken</text><line style="stroke:#181818;stroke-width:0.5;" x1="8" x2="168" y1="217" y2="217"/><text fill="#000000" font-family="sans-serif" font-size="14" lengthAdjust="spacing" textLength="145" x="13" y="233.9951">accessToken : string</text><text fill="#000000" font-family="sans-serif" font-size="14" lengthAdjust="spacing" textLength="150" x="13" y="250.292">expiresAt : timestamp</text></g><!--class Error--><g id="elem_Error"><rect codeLine="13" fill="#F1F1F1" height="72.5938" id="Error" rx="2.5" ry="2.5" style="stroke:#181818;stroke-width:0.5;" width="162" x="373" y="185"/><ellipse cx="433.25" cy="201" fill="#ADD1B2" rx="11" ry="11" style="stroke:#181818;stroke-width:1.0;"/><path d="M436.2188,206.6406 Q435.6406,206.9375 435,207.0781 Q434.3594,207.2344 433.6563,207.2344 Q431.1563,207.2344 429.8281,205.5938 Q428.5156,203.9375 428.5156,200.8125 Q428.5156,197.6875 429.8281,196.0313 Q431.1563,194.375 433.6563,194.375 Q434.3594,194.375 435,194.5313 Q435.6563,194.6875 436.2188,194.9844 L436.2188,197.7031 Q435.5938,197.125 435,196.8594 Q434.4063,196.5781 433.7813,196.5781 Q432.4375,196.5781 431.75,197.6563 Q431.0625,198.7188 431.0625,200.8125 Q431.0625,202.9063 431.75,203.9844 Q432.4375,205.0469 433.7813,205.0469 Q434.4063,205.0469 435,204.7813 Q435.5938,204.5 436.2188,203.9219 L436.2188,206.6406 Z " fill="#000000"/><text fill="#000000" font-family="sans-serif" font-size="14" lengthAdjust="spacing" textLength="33" x="453.75" y="205.8467">Error</text><line style="stroke:#181818;stroke-width:0.5;" x1="374" x2="534" y1="217" y2="217"/><text fill="#000000" font-family="sans-serif" font-size="14" lengthAdjust="spacing" textLength="87" x="379" y="233.9951">code : string</text><text fill="#000000" font-family="sans-serif" font-size="14" lengthAdjust="spacing" textLength="150" x="379" y="250.292">message : timestamp</text></g><!--class Author--><g id="elem_Author"><rect codeLine="18" fill="#F1F1F1" height="105.1875" id="Author" rx="2.5" ry="2.5" style="stroke:#181818;stroke-width:0.5;" width="151" x="804.5" y="552"/><ellipse cx="852.75" cy="568" fill="#ADD1B2" rx="11" ry="11" style="stroke:#181818;stroke-width:1.0;"/><path d="M855.7188,573.6406 Q855.1406,573.9375 854.5,574.0781 Q853.8594,574.2344 853.1563,574.2344 Q850.6563,574.2344 849.3281,572.5938 Q848.0156,570.9375 848.0156,567.8125 Q848.0156,564.6875 849.3281,563.0313 Q850.6563,561.375 853.1563,561.375 Q853.8594,561.375 854.5,561.5313 Q855.1563,561.6875 855.7188,561.9844 L855.7188,564.7031 Q855.0938,564.125 854.5,563.8594 Q853.9063,563.5781 853.2813,563.5781 Q851.9375,563.5781 851.25,564.6563 Q850.5625,565.7188 850.5625,567.8125 Q850.5625,569.9063 851.25,570.9844 Q851.9375,572.0469 853.2813,572.0469 Q853.9063,572.0469 854.5,571.7813 Q855.0938,571.5 855.7188,570.9219 L855.7188,573.6406 Z " fill="#000000"/><text fill="#000000" font-family="sans-serif" font-size="14" lengthAdjust="spacing" textLength="46" x="873.25" y="572.8467">Author</text><line style="stroke:#181818;stroke-width:0.5;" x1="805.5" x2="954.5" y1="584" y2="584"/><text fill="#000000" font-family="sans-serif" font-size="14" lengthAdjust="spacing" textLength="110" x="810.5" y="600.9951">fullname : string</text><text fill="#000000" font-family="sans-serif" font-size="14" lengthAdjust="spacing" textLength="137" x="810.5" y="617.292">country : string {O}</text><text fill="#000000" font-family="sans-serif" font-size="14" lengthAdjust="spacing" textLength="139" x="810.5" y="633.5889">birthYear : date {O}</text><text fill="#000000" font-family="sans-serif" font-size="14" lengthAdjust="spacing" textLength="135" x="810.5" y="649.8857">gender : string {O}</text></g><!--class BookGenre--><g id="elem_BookGenre"><rect codeLine="25" fill="#F1F1F1" height="121.4844" id="BookGenre" rx="2.5" ry="2.5" style="stroke:#181818;stroke-width:0.5;" width="111" x="1014.5" y="544"/><ellipse cx="1029.5" cy="560" fill="#EB937F" rx="11" ry="11" style="stroke:#181818;stroke-width:1.0;"/><path d="M1033.6094,566 L1025.8906,566 L1025.8906,553.6094 L1033.6094,553.6094 L1033.6094,555.7656 L1028.3438,555.7656 L1028.3438,558.4375 L1033.1094,558.4375 L1033.1094,560.5938 L1028.3438,560.5938 L1028.3438,563.8438 L1033.6094,563.8438 L1033.6094,566 Z " fill="#000000"/><text fill="#000000" font-family="sans-serif" font-size="14" lengthAdjust="spacing" textLength="79" x="1043.5" y="564.8467">BookGenre</text><line style="stroke:#181818;stroke-width:0.5;" x1="1015.5" x2="1124.5" y1="576" y2="576"/><text fill="#000000" font-family="sans-serif" font-size="14" lengthAdjust="spacing" textLength="63" x="1020.5" y="592.9951">FANTASY</text><text fill="#000000" font-family="sans-serif" font-size="14" lengthAdjust="spacing" textLength="62" x="1020.5" y="609.292">HORROR</text><text fill="#000000" font-family="sans-serif" font-size="14" lengthAdjust="spacing" textLength="57" x="1020.5" y="625.5889">CLASSIC</text><text fill="#000000" font-family="sans-serif" font-size="14" lengthAdjust="spacing" textLength="54" x="1020.5" y="641.8857">HOMOR</text><text fill="#000000" font-family="sans-serif" font-size="14" lengthAdjust="spacing" textLength="49" x="1020.5" y="658.1826">OTHER</text></g><!--class Book--><g id="elem_Book"><rect codeLine="33" fill="#F1F1F1" height="105.1875" id="Book" rx="2.5" ry="2.5" style="stroke:#181818;stroke-width:0.5;" width="180" x="790" y="362"/><ellipse cx="857.75" cy="378" fill="#ADD1B2" rx="11" ry="11" style="stroke:#181818;stroke-width:1.0;"/><path d="M860.7188,383.6406 Q860.1406,383.9375 859.5,384.0781 Q858.8594,384.2344 858.1563,384.2344 Q855.6563,384.2344 854.3281,382.5938 Q853.0156,380.9375 853.0156,377.8125 Q853.0156,374.6875 854.3281,373.0313 Q855.6563,371.375 858.1563,371.375 Q858.8594,371.375 859.5,371.5313 Q860.1563,371.6875 860.7188,371.9844 L860.7188,374.7031 Q860.0938,374.125 859.5,373.8594 Q858.9063,373.5781 858.2813,373.5781 Q856.9375,373.5781 856.25,374.6563 Q855.5625,375.7188 855.5625,377.8125 Q855.5625,379.9063 856.25,380.9844 Q856.9375,382.0469 858.2813,382.0469 Q858.9063,382.0469 859.5,381.7813 Q860.0938,381.5 860.7188,380.9219 L860.7188,383.6406 Z " fill="#000000"/><text fill="#000000" font-family="sans-serif" font-size="14" lengthAdjust="spacing" textLength="36" x="878.25" y="382.8467">Book</text><line style="stroke:#181818;stroke-width:0.5;" x1="791" x2="969" y1="394" y2="394"/><text fill="#000000" font-family="sans-serif" font-size="14" lengthAdjust="spacing" textLength="74" x="796" y="410.9951">id : integer</text><text fill="#000000" font-family="sans-serif" font-size="14" lengthAdjust="spacing" textLength="77" x="796" y="427.292">title : string</text><text fill="#000000" font-family="sans-serif" font-size="14" lengthAdjust="spacing" textLength="135" x="796" y="443.5889">totalPages : integer</text><text fill="#000000" font-family="sans-serif" font-size="14" lengthAdjust="spacing" textLength="168" x="796" y="459.8857">publishingHouse : string</text></g><!--class UnauthorizedError--><g id="elem_UnauthorizedError"><rect codeLine="40" fill="#F1F1F1" height="40.2656" id="UnauthorizedError" rx="2.5" ry="2.5" style="stroke:#181818;stroke-width:0.5;" width="132" x="933" y="201.5"/><text fill="#000000" font-family="sans-serif" font-size="12" font-style="italic" lengthAdjust="spacing" textLength="74" x="962" y="217.6387">&#171;Response&#187;</text><text fill="#000000" font-family="sans-serif" font-size="14" lengthAdjust="spacing" textLength="126" x="936" y="233.4639">UnauthorizedError</text></g><!--class login--><g id="elem_login"><rect codeLine="43" fill="#F1F1F1" height="40.2656" id="login" rx="2.5" ry="2.5" style="stroke:#181818;stroke-width:0.5;" width="44" x="249" y="35.5"/><text fill="#000000" font-family="sans-serif" font-size="12" font-style="italic" lengthAdjust="spacing" textLength="42" x="250" y="51.6387">&#171;Path&#187;</text><text fill="#000000" font-family="sans-serif" font-size="14" lengthAdjust="spacing" textLength="33" x="254.5" y="67.4639">login</text></g><!--class login Request--><g id="elem_login Request"><rect codeLine="46" fill="#F1F1F1" height="80.8594" id="login Request" rx="2.5" ry="2.5" style="stroke:#181818;stroke-width:0.5;" width="134" x="204" y="181"/><ellipse cx="221.7" cy="201.1328" fill="#ADD1B2" rx="11" ry="11" style="stroke:#181818;stroke-width:1.0;"/><path d="M224.6688,206.7734 Q224.0906,207.0703 223.45,207.2109 Q222.8094,207.3672 222.1063,207.3672 Q219.6063,207.3672 218.2781,205.7266 Q216.9656,204.0703 216.9656,200.9453 Q216.9656,197.8203 218.2781,196.1641 Q219.6063,194.5078 222.1063,194.5078 Q222.8094,194.5078 223.45,194.6641 Q224.1063,194.8203 224.6688,195.1172 L224.6688,197.8359 Q224.0438,197.2578 223.45,196.9922 Q222.8563,196.7109 222.2313,196.7109 Q220.8875,196.7109 220.2,197.7891 Q219.5125,198.8516 219.5125,200.9453 Q219.5125,203.0391 220.2,204.1172 Q220.8875,205.1797 222.2313,205.1797 Q222.8563,205.1797 223.45,204.9141 Q224.0438,204.6328 224.6688,204.0547 L224.6688,206.7734 Z " fill="#000000"/><text fill="#000000" font-family="sans-serif" font-size="12" font-style="italic" lengthAdjust="spacing" textLength="96" x="236.3" y="197.1387">&#171;RequestBody&#187;</text><text fill="#000000" font-family="sans-serif" font-size="14" lengthAdjust="spacing" textLength="96" x="236.3" y="212.9639">login Request</text><line style="stroke:#181818;stroke-width:0.5;" x1="205" x2="337" y1="221.2656" y2="221.2656"/><text fill="#000000" font-family="sans-serif" font-size="14" lengthAdjust="spacing" textLength="122" x="210" y="238.2607">username : string</text><text fill="#000000" font-family="sans-serif" font-size="14" lengthAdjust="spacing" textLength="119" x="210" y="254.5576">password : string</text></g><!--class findBooks--><g id="elem_findBooks"><rect codeLine="63" fill="#F1F1F1" height="97.1563" id="findBooks" rx="2.5" ry="2.5" style="stroke:#181818;stroke-width:0.5;" width="144" x="808" y="7"/><text fill="#000000" font-family="sans-serif" font-size="12" font-style="italic" lengthAdjust="spacing" textLength="42" x="859" y="23.1387">&#171;Path&#187;</text><text fill="#000000" font-family="sans-serif" font-size="14" lengthAdjust="spacing" textLength="69" x="845.5" y="38.9639">findBooks</text><line style="stroke:#181818;stroke-width:0.5;" x1="809" x2="951" y1="47.2656" y2="47.2656"/><text fill="#000000" font-family="sans-serif" font-size="14" lengthAdjust="spacing" textLength="101" x="814" y="64.2607">offset : integer</text><text fill="#000000" font-family="sans-serif" font-size="14" lengthAdjust="spacing" textLength="89" x="814" y="80.5576">limit : integer</text><text fill="#000000" font-family="sans-serif" font-size="14" lengthAdjust="spacing" textLength="132" x="814" y="96.8545">search : string {O}</text></g><!--class findBooks.genre--><g id="elem_findBooks.genre"><rect codeLine="57" fill="#F1F1F1" height="40.2656" id="findBooks.genre" rx="2.5" ry="2.5" style="stroke:#181818;stroke-width:0.5;" width="120" x="1028" y="292"/><text fill="#000000" font-family="sans-serif" font-size="12" font-style="italic" lengthAdjust="spacing" textLength="79" x="1048.5" y="308.1387">&#171;Parameter&#187;</text><text fill="#000000" font-family="sans-serif" font-size="14" lengthAdjust="spacing" textLength="114" x="1031" y="323.9639">findBooks.genre</text></g><!--class findBooks 200--><g id="elem_findBooks 200"><rect codeLine="60" fill="#F1F1F1" height="40.2656" id="findBooks 200" rx="2.5" ry="2.5" style="stroke:#181818;stroke-width:0.5;" width="106" x="1171" y="201.5"/><text fill="#000000" font-family="sans-serif" font-size="12" font-style="italic" lengthAdjust="spacing" textLength="74" x="1187" y="217.6387">&#171;Response&#187;</text><text fill="#000000" font-family="sans-serif" font-size="14" lengthAdjust="spacing" textLength="100" x="1174" y="233.4639">findBooks 200</text></g><!--link Book to BookGenre--><g id="link_Book_BookGenre"><path codeLine="66" d="M932.17,467.12 C957.66,492.34 984.0852,518.4896 1010.0252,544.1596 " fill="none" id="Book-to-BookGenre" style="stroke:#181818;stroke-width:1.0;"/><polygon fill="#181818" points="1014.29,548.38,1010.7064,539.2062,1010.736,544.863,1005.0792,544.8926,1014.29,548.38" style="stroke:#181818;stroke-width:1.0;"/><text fill="#000000" font-family="sans-serif" font-size="13" lengthAdjust="spacing" textLength="37" x="976" y="510.0669">genre</text><text fill="#000000" font-family="sans-serif" font-size="13" lengthAdjust="spacing" textLength="24" x="982.461" y="538.0705">0..1</text></g><!--link Book to Author--><g id="link_Book_Author"><path codeLine="68" d="M880,467.37 C880,493.67 880,519.52 880,545.8 " fill="none" id="Book-to-Author" style="stroke:#181818;stroke-width:1.0;"/><polygon fill="#181818" points="880,551.8,884,542.8,880,546.8,876,542.8,880,551.8" style="stroke:#181818;stroke-width:1.0;"/><text fill="#000000" font-family="sans-serif" font-size="13" lengthAdjust="spacing" textLength="8" x="871.4625" y="540.7738">1</text></g><!--link login to AccessToken--><g id="link_login_AccessToken"><path codeLine="70" d="M249.65,75.63 C219.86,102.33 169.7285,147.2559 132.2985,180.7959 " fill="none" id="login-to-AccessToken" style="stroke:#181818;stroke-width:1.0;stroke-dasharray:7.0,7.0;"/><polygon fill="#181818" points="127.83,184.8,137.2021,181.7729,131.5537,181.4633,131.8633,175.8149,127.83,184.8" style="stroke:#181818;stroke-width:1.0;"/><text fill="#000000" font-family="sans-serif" font-size="13" lengthAdjust="spacing" textLength="24" x="181" y="147.0669">200</text><text fill="#000000" font-family="sans-serif" font-size="13" lengthAdjust="spacing" textLength="8" x="126.2122" y="174.0418">1</text></g><!--link login to Error--><g id="link_login_Error"><path codeLine="72" d="M292.35,75.63 C322.14,102.33 372.2715,147.2559 409.7015,180.7959 " fill="none" id="login-to-Error" style="stroke:#181818;stroke-width:1.0;stroke-dasharray:7.0,7.0;"/><polygon fill="#181818" points="414.17,184.8,410.1367,175.8149,410.4463,181.4633,404.7979,181.7729,414.17,184.8" style="stroke:#181818;stroke-width:1.0;"/><text fill="#000000" font-family="sans-serif" font-size="13" lengthAdjust="spacing" textLength="24" x="375" y="147.0669">400</text><text fill="#000000" font-family="sans-serif" font-size="13" lengthAdjust="spacing" textLength="8" x="398.3628" y="174.0418">1</text></g><!--link login to login Request--><g id="link_login_login Request"><path codeLine="74" d="M271,75.63 C271,101.32 271,141.58 271,174.92 " fill="none" id="login-to-login Request" style="stroke:#181818;stroke-width:1.0;"/><polygon fill="#181818" points="271,180.92,275,171.92,271,175.92,267,171.92,271,180.92" style="stroke:#181818;stroke-width:1.0;"/><text fill="#000000" font-family="sans-serif" font-size="13" lengthAdjust="spacing" textLength="8" x="262.3375" y="170.0463">1</text></g><!--link findBooks.genre to BookGenre--><g id="link_findBooks.genre_BookGenre"><path codeLine="76" d="M1086.82,332.06 C1084.2,374.35 1078.1814,471.5115 1074.0714,537.7815 " fill="none" id="findBooks.genre-to-BookGenre" style="stroke:#181818;stroke-width:1.0;"/><polygon fill="#181818" points="1073.7,543.77,1078.2494,535.0349,1074.0095,538.7796,1070.2648,534.5397,1073.7,543.77" style="stroke:#181818;stroke-width:1.0;"/><text fill="#000000" font-family="sans-serif" font-size="13" lengthAdjust="spacing" textLength="8" x="1065.6653" y="532.9275">1</text></g><!--link findBooks to findBooks.genre--><g id="link_findBooks_findBooks.genre"><path codeLine="78" d="M952.17,80.31 C998.28,99.65 1054.57,131.89 1083,181 C1103.14,215.79 1098.8312,259.1595 1093.6412,285.9495 " fill="none" id="findBooks-to-findBooks.genre" style="stroke:#181818;stroke-width:1.0;"/><polygon fill="#181818" points="1092.5,291.84,1098.1387,283.7651,1093.451,286.9313,1090.2847,282.2435,1092.5,291.84" style="stroke:#181818;stroke-width:1.0;"/><text fill="#000000" font-family="sans-serif" font-size="13" lengthAdjust="spacing" textLength="37" x="1059" y="147.0669">genre</text><text fill="#000000" font-family="sans-serif" font-size="13" lengthAdjust="spacing" textLength="24" x="1066.2969" y="280.7623">0..1</text></g><!--link findBooks 200 to Book--><g id="link_findBooks 200_Book"><path codeLine="80" d="M1218.91,241.76 C1211.43,266.32 1195.09,308.44 1166,332 C1110.43,377 1037.2052,396.2807 976.2552,405.3107 " fill="none" id="findBooks 200-to-Book" style="stroke:#181818;stroke-width:1.0;"/><polygon fill="#181818" points="970.32,406.19,979.809,408.8278,975.266,405.4572,978.6366,400.9142,970.32,406.19" style="stroke:#181818;stroke-width:1.0;"/><text fill="#000000" font-family="sans-serif" font-size="13" lengthAdjust="spacing" textLength="7" x="978.0895" y="401.9454">*</text></g><!--link findBooks to findBooks 200--><g id="link_findBooks_findBooks 200"><path codeLine="82" d="M952.07,62.17 C1013.53,70.07 1101.72,88.94 1165,134 C1189.14,151.19 1203.8757,176.1403 1213.2757,195.9303 " fill="none" id="findBooks-to-findBooks 200" style="stroke:#181818;stroke-width:1.0;stroke-dasharray:7.0,7.0;"/><polygon fill="#181818" points="1215.85,201.35,1215.6017,191.5043,1213.7048,196.8336,1208.3754,194.9367,1215.85,201.35" style="stroke:#181818;stroke-width:1.0;"/><text fill="#000000" font-family="sans-serif" font-size="13" lengthAdjust="spacing" textLength="24" x="1182" y="147.0669">200</text><text fill="#000000" font-family="sans-serif" font-size="13" lengthAdjust="spacing" textLength="8" x="1204.2809" y="190.2752">1</text></g><!--link findBooks to UnauthorizedError--><g id="link_findBooks_UnauthorizedError"><path codeLine="84" d="M905.2,104.4 C913.96,119.73 924.29,136.49 935,151 C948.44,169.21 961.7648,183.7299 975.0848,197.1599 " fill="none" id="findBooks-to-UnauthorizedError" style="stroke:#181818;stroke-width:1.0;stroke-dasharray:7.0,7.0;"/><polygon fill="#181818" points="979.31,201.42,975.8123,192.2132,975.789,197.87,970.1322,197.8467,979.31,201.42" style="stroke:#181818;stroke-width:1.0;"/><text fill="#000000" font-family="sans-serif" font-size="13" lengthAdjust="spacing" textLength="24" x="936" y="147.0669">401</text><text fill="#000000" font-family="sans-serif" font-size="13" lengthAdjust="spacing" textLength="8" x="964.3511" y="190.3658">1</text></g><!--link findBooks to UnauthorizedError--><g id="link_findBooks_UnauthorizedError"><path codeLine="94" d="M939.49,104.13 C948.81,113.37 957.75,123.47 965,134 C979.46,155 987.3866,177.2566 992.5866,195.6366 " fill="none" id="findBooks-to-UnauthorizedError-1" style="stroke:#181818;stroke-width:1.0;stroke-dasharray:7.0,7.0;"/><polygon fill="#181818" points="994.22,201.41,995.6188,191.661,992.8588,196.5988,987.921,193.8388,994.22,201.41" style="stroke:#181818;stroke-width:1.0;"/><text fill="#000000" font-family="sans-serif" font-size="13" lengthAdjust="spacing" textLength="24" x="975" y="147.0669">401</text><text fill="#000000" font-family="sans-serif" font-size="13" lengthAdjust="spacing" textLength="8" x="983.6409" y="190.3528">1</text></g><!--link findBooks to Error--><g id="link_findBooks_Error"><path codeLine="86" d="M807.6,61.43 C705.15,69.87 525.08,90.56 478,134 C464.03,146.89 458.7803,161.202 456.2203,178.872 " fill="none" id="findBooks-to-Error" style="stroke:#181818;stroke-width:1.0;stroke-dasharray:7.0,7.0;"/><polygon fill="#181818" points="455.36,184.81,460.6091,176.4765,456.0769,179.8617,452.6918,175.3295,455.36,184.81" style="stroke:#181818;stroke-width:1.0;"/><text fill="#000000" font-family="sans-serif" font-size="13" lengthAdjust="spacing" textLength="24" x="479" y="147.0669">400</text><text fill="#000000" font-family="sans-serif" font-size="13" lengthAdjust="spacing" textLength="8" x="446.8898" y="174.0536">1</text></g><!--link findBooks to Error--><g id="link_findBooks_Error"><path codeLine="92" d="M807.98,63.45 C739.31,72.36 634.57,92.01 553,134 C528.24,146.74 508.8746,162.7796 490.9046,180.4796 " fill="none" id="findBooks-to-Error-1" style="stroke:#181818;stroke-width:1.0;stroke-dasharray:7.0,7.0;"/><polygon fill="#181818" points="486.63,184.69,495.8489,181.2241,490.1922,181.1813,490.235,175.5246,486.63,184.69" style="stroke:#181818;stroke-width:1.0;"/><text fill="#000000" font-family="sans-serif" font-size="13" lengthAdjust="spacing" textLength="24" x="554" y="147.0669">400</text><text fill="#000000" font-family="sans-serif" font-size="13" lengthAdjust="spacing" textLength="8" x="483.7297" y="173.9122">1</text></g><!--link findBooks to Book--><g id="link_findBooks_Book"><path codeLine="88" d="M807.89,66.71 C744.8,80.24 659.12,111.17 632,181 C606.73,246.04 621.59,287.09 675,332 C707.9,359.67 745.673,376.8573 784.103,389.5573 " fill="none" id="findBooks-to-Book" style="stroke:#181818;stroke-width:1.0;stroke-dasharray:7.0,7.0;"/><polygon fill="#181818" points="789.8,391.44,782.5097,384.818,785.0525,389.8711,779.9994,392.414,789.8,391.44" style="stroke:#181818;stroke-width:1.0;"/><text fill="#000000" font-family="sans-serif" font-size="13" lengthAdjust="spacing" textLength="24" x="633" y="226.0669">201</text><text fill="#000000" font-family="sans-serif" font-size="13" lengthAdjust="spacing" textLength="8" x="773.9991" y="385.9739">1</text></g><!--link findBooks to Book--><g id="link_findBooks_Book"><path codeLine="90" d="M807.74,95.94 C777.17,116.82 744.79,145.55 728,181 C712.59,213.54 714.2,228.75 728,262 C744.36,301.4 771.9271,331.9639 802.4471,358.0239 " fill="none" id="findBooks-to-Book-1" style="stroke:#181818;stroke-width:1.0;stroke-dasharray:7.0,7.0;"/><polygon fill="#181818" points="807.01,361.92,802.763,353.0339,803.2076,358.6732,797.5682,359.1178,807.01,361.92" style="stroke:#181818;stroke-width:1.0;"/><text fill="#000000" font-family="sans-serif" font-size="13" lengthAdjust="spacing" textLength="124" x="729" y="226.0669">201 application/xml</text><text fill="#000000" font-family="sans-serif" font-size="13" lengthAdjust="spacing" textLength="8" x="788.6645" y="350.91">1</text></g><!--link findBooks to Book--><g id="link_findBooks_Book"><path codeLine="96" d="M880,104.28 C880,171.35 880,286.92 880,355.96 " fill="none" id="findBooks-to-Book-2" style="stroke:#181818;stroke-width:1.0;"/><polygon fill="#181818" points="880,361.96,884,352.96,880,356.96,876,352.96,880,361.96" style="stroke:#181818;stroke-width:1.0;"/><text fill="#000000" font-family="sans-serif" font-size="13" lengthAdjust="spacing" textLength="8" x="871.4625" y="350.9553">1</text></g><!--SRC=[fLFBRjim4BphAmWT2qIrYvwAm80If7M1jZPazv0Z8wqa8XIfaXGQr_2_T_M8H4fq4Q0tOcTsEBDBbYm3SdkxfwRSR4ZALCeXAFjY0hgMGiC2s5D5Ap2WPWXKjJaHH4gPQRkKC-1OqM28m4vTqnGEKAECaOe8AI08Kawr9c6Sfg3rKJw32Cav8EJSDLy8dG3oYMYZc2Wi65vgfa371a73y0v3gpguZBeFIadbAgOI3Ngai5dJ0gu8nGt6codb3UTjC9zQAXjXr6c4o7btiU0dfapv25GX8QC6Pd018WFbDgCN44r5mZifdx-0KD2x-Hp_ECQ7HpnjTqcoI_1m_oq-7BxUTwNlNMLtt3uaLfnMmmt3ChoE2GC5AAjicE7UW4OQolSuCEtjgvidpdI9FLlPQ4jXyl1Jq6wex0zamvwSrtUsk5mMJ8JJarrW985V3Mwjr-YETp8xTTJ95JfHrpPMezXlgJAVrPo9h1sPTYnClJBFsrVk6mHd5VCZ6jUVbeibpw-CYdxNxWSy-wZamshrZo7wKo0-F8URcmq9Lr6q3fr7XWv9s9jmgIrl-1S832kAebV4_jATHklEGnnstr4-EfJn5dV5I5XCPwHEncsQ6sxHxKQSpRFhV3T8prJ74BCUEw-FxddxG_xrjHRFc7oqVZ_3_UktiGYjQyvIQfWKxryg_fyMtXxEsLeO_0K0]--></g></svg>