<?xml version="1.0" encoding="UTF-8" standalone="no"?><svg xmlns="http://www.w3.org/2000/svg" xmlns:xlink="http://www.w3.org/1999/xlink" contentScriptType="application/ecmascript" contentStyleType="text/css" height="577px" preserveAspectRatio="none" style="width:1157px;height:577px;" version="1.1" viewBox="0 0 1157 577" width="1157px" zoomAndPan="magnify"><defs><filter height="300%" id="f1dvrowbddvipe" width="300%" x="-1" y="-1"><feGaussianBlur result="blurOut" stdDeviation="2.0"/><feColorMatrix in="blurOut" result="blurOut2" type="matrix" values="0 0 0 0 0 0 0 0 0 0 0 0 0 0 0 0 0 0 .4 0"/><feOffset dx="4.0" dy="4.0" in="blurOut2" result="blurOut3"/><feBlend in="SourceGraphic" in2="blurOut3" mode="normal"/></filter></defs><g><!--MD5=[480b55fe24535af2551deb761fe5417e]
class AccessToken--><rect codeLine="8" fill="#FEFECE" filter="url(#f1dvrowbddvipe)" height="65.6094" id="AccessToken" style="stroke:#A80036;stroke-width:1.5;" width="138" x="200" y="316.5"/><ellipse cx="225.8" cy="332.5" fill="#ADD1B2" rx="11" ry="11" style="stroke:#A80036;stroke-width:1.0;"/><path d="M228.7688,338.1406 Q228.1906,338.4375 227.55,338.5781 Q226.9094,338.7344 226.2063,338.7344 Q223.7063,338.7344 222.3781,337.0938 Q221.0656,335.4375 221.0656,332.3125 Q221.0656,329.1875 222.3781,327.5313 Q223.7063,325.875 226.2063,325.875 Q226.9094,325.875 227.55,326.0313 Q228.2063,326.1875 228.7688,326.4844 L228.7688,329.2031 Q228.1438,328.625 227.55,328.3594 Q226.9563,328.0781 226.3313,328.0781 Q224.9875,328.0781 224.3,329.1563 Q223.6125,330.2188 223.6125,332.3125 Q223.6125,334.4063 224.3,335.4844 Q224.9875,336.5469 226.3313,336.5469 Q226.9563,336.5469 227.55,336.2813 Q228.1438,336 228.7688,335.4219 L228.7688,338.1406 Z " fill="#000000"/><text fill="#000000" font-family="sans-serif" font-size="12" lengthAdjust="spacing" textLength="82" x="242.2" y="336.6543">AccessToken</text><line style="stroke:#A80036;stroke-width:1.5;" x1="201" x2="337" y1="348.5" y2="348.5"/><text fill="#000000" font-family="sans-serif" font-size="11" lengthAdjust="spacing" textLength="119" x="206" y="362.7104">accessToken : string</text><text fill="#000000" font-family="sans-serif" font-size="11" lengthAdjust="spacing" textLength="126" x="206" y="375.5151">expiresAt : timestamp</text><!--MD5=[b8cfd8c4119a3b0a7a46bfc5fc780f85]
class Error--><rect codeLine="13" fill="#FEFECE" filter="url(#f1dvrowbddvipe)" height="65.6094" id="Error" style="stroke:#A80036;stroke-width:1.5;" width="138" x="373" y="316.5"/><ellipse cx="422.25" cy="332.5" fill="#ADD1B2" rx="11" ry="11" style="stroke:#A80036;stroke-width:1.0;"/><path d="M425.2188,338.1406 Q424.6406,338.4375 424,338.5781 Q423.3594,338.7344 422.6563,338.7344 Q420.1563,338.7344 418.8281,337.0938 Q417.5156,335.4375 417.5156,332.3125 Q417.5156,329.1875 418.8281,327.5313 Q420.1563,325.875 422.6563,325.875 Q423.3594,325.875 424,326.0313 Q424.6563,326.1875 425.2188,326.4844 L425.2188,329.2031 Q424.5938,328.625 424,328.3594 Q423.4063,328.0781 422.7813,328.0781 Q421.4375,328.0781 420.75,329.1563 Q420.0625,330.2188 420.0625,332.3125 Q420.0625,334.4063 420.75,335.4844 Q421.4375,336.5469 422.7813,336.5469 Q423.4063,336.5469 424,336.2813 Q424.5938,336 425.2188,335.4219 L425.2188,338.1406 Z " fill="#000000"/><text fill="#000000" font-family="sans-serif" font-size="12" lengthAdjust="spacing" textLength="31" x="442.75" y="336.6543">Error</text><line style="stroke:#A80036;stroke-width:1.5;" x1="374" x2="510" y1="348.5" y2="348.5"/><text fill="#000000" font-family="sans-serif" font-size="11" lengthAdjust="spacing" textLength="72" x="379" y="362.7104">code : string</text><text fill="#000000" font-family="sans-serif" font-size="11" lengthAdjust="spacing" textLength="126" x="379" y="375.5151">message : timestamp</text><!--MD5=[c3f280b58e8dd0683e81b8ec31306a35]
class Author--><rect codeLine="18" fill="#FEFECE" filter="url(#f1dvrowbddvipe)" height="91.2188" id="Author" style="stroke:#A80036;stroke-width:1.5;" width="128" x="583" y="472"/><ellipse cx="622.3" cy="488" fill="#ADD1B2" rx="11" ry="11" style="stroke:#A80036;stroke-width:1.0;"/><path d="M625.2688,493.6406 Q624.6906,493.9375 624.05,494.0781 Q623.4094,494.2344 622.7063,494.2344 Q620.2063,494.2344 618.8781,492.5938 Q617.5656,490.9375 617.5656,487.8125 Q617.5656,484.6875 618.8781,483.0313 Q620.2063,481.375 622.7063,481.375 Q623.4094,481.375 624.05,481.5313 Q624.7063,481.6875 625.2688,481.9844 L625.2688,484.7031 Q624.6438,484.125 624.05,483.8594 Q623.4563,483.5781 622.8313,483.5781 Q621.4875,483.5781 620.8,484.6563 Q620.1125,485.7188 620.1125,487.8125 Q620.1125,489.9063 620.8,490.9844 Q621.4875,492.0469 622.8313,492.0469 Q623.4563,492.0469 624.05,491.7813 Q624.6438,491.5 625.2688,490.9219 L625.2688,493.6406 Z " fill="#000000"/><text fill="#000000" font-family="sans-serif" font-size="12" lengthAdjust="spacing" textLength="42" x="641.7" y="492.1543">Author</text><line style="stroke:#A80036;stroke-width:1.5;" x1="584" x2="710" y1="504" y2="504"/><text fill="#000000" font-family="sans-serif" font-size="11" lengthAdjust="spacing" textLength="94" x="589" y="518.2104">fullname : string</text><text fill="#000000" font-family="sans-serif" font-size="11" lengthAdjust="spacing" textLength="114" x="589" y="531.0151">country : string {O}</text><text fill="#000000" font-family="sans-serif" font-size="11" lengthAdjust="spacing" textLength="116" x="589" y="543.8198">birthYear : date {O}</text><text fill="#000000" font-family="sans-serif" font-size="11" lengthAdjust="spacing" textLength="112" x="589" y="556.6245">gender : string {O}</text><!--MD5=[838cb3b9b512e84757c00d0249b7cc0a]
class BookGenre--><rect codeLine="25" fill="#FEFECE" filter="url(#f1dvrowbddvipe)" height="52.8047" id="BookGenre" style="stroke:#A80036;stroke-width:1.5;" width="101" x="931.5" y="491"/><ellipse cx="946.5" cy="507" fill="#ADD1B2" rx="11" ry="11" style="stroke:#A80036;stroke-width:1.0;"/><path d="M949.4688,512.6406 Q948.8906,512.9375 948.25,513.0781 Q947.6094,513.2344 946.9063,513.2344 Q944.4063,513.2344 943.0781,511.5938 Q941.7656,509.9375 941.7656,506.8125 Q941.7656,503.6875 943.0781,502.0313 Q944.4063,500.375 946.9063,500.375 Q947.6094,500.375 948.25,500.5313 Q948.9063,500.6875 949.4688,500.9844 L949.4688,503.7031 Q948.8438,503.125 948.25,502.8594 Q947.6563,502.5781 947.0313,502.5781 Q945.6875,502.5781 945,503.6563 Q944.3125,504.7188 944.3125,506.8125 Q944.3125,508.9063 945,509.9844 Q945.6875,511.0469 947.0313,511.0469 Q947.6563,511.0469 948.25,510.7813 Q948.8438,510.5 949.4688,509.9219 L949.4688,512.6406 Z " fill="#000000"/><text fill="#000000" font-family="sans-serif" font-size="12" lengthAdjust="spacing" textLength="69" x="960.5" y="511.1543">BookGenre</text><line style="stroke:#A80036;stroke-width:1.5;" x1="932.5" x2="1031.5" y1="523" y2="523"/><text fill="#000000" font-family="sans-serif" font-size="11" lengthAdjust="spacing" textLength="75" x="937.5" y="537.2104">value : string</text><!--MD5=[84e3a5e42879fb3231104d3c8e592439]
class Book--><rect codeLine="29" fill="#FEFECE" filter="url(#f1dvrowbddvipe)" height="91.2188" id="Book" style="stroke:#A80036;stroke-width:1.5;" width="151" x="571.5" y="304"/><ellipse cx="627.25" cy="320" fill="#ADD1B2" rx="11" ry="11" style="stroke:#A80036;stroke-width:1.0;"/><path d="M630.2188,325.6406 Q629.6406,325.9375 629,326.0781 Q628.3594,326.2344 627.6563,326.2344 Q625.1563,326.2344 623.8281,324.5938 Q622.5156,322.9375 622.5156,319.8125 Q622.5156,316.6875 623.8281,315.0313 Q625.1563,313.375 627.6563,313.375 Q628.3594,313.375 629,313.5313 Q629.6563,313.6875 630.2188,313.9844 L630.2188,316.7031 Q629.5938,316.125 629,315.8594 Q628.4063,315.5781 627.7813,315.5781 Q626.4375,315.5781 625.75,316.6563 Q625.0625,317.7188 625.0625,319.8125 Q625.0625,321.9063 625.75,322.9844 Q626.4375,324.0469 627.7813,324.0469 Q628.4063,324.0469 629,323.7813 Q629.5938,323.5 630.2188,322.9219 L630.2188,325.6406 Z " fill="#000000"/><text fill="#000000" font-family="sans-serif" font-size="12" lengthAdjust="spacing" textLength="31" x="647.75" y="324.1543">Book</text><line style="stroke:#A80036;stroke-width:1.5;" x1="572.5" x2="721.5" y1="336" y2="336"/><text fill="#000000" font-family="sans-serif" font-size="11" lengthAdjust="spacing" textLength="62" x="577.5" y="350.2104">id : integer</text><text fill="#000000" font-family="sans-serif" font-size="11" lengthAdjust="spacing" textLength="66" x="577.5" y="363.0151">title : string</text><text fill="#000000" font-family="sans-serif" font-size="11" lengthAdjust="spacing" textLength="112" x="577.5" y="375.8198">totalPages : integer</text><text fill="#000000" font-family="sans-serif" font-size="11" lengthAdjust="spacing" textLength="139" x="577.5" y="388.6245">publishingHouse : string</text><!--MD5=[e2b95b101f0494a418d91c87d5c90f1d]
class UnauthorizedError--><rect codeLine="36" fill="#FEFECE" filter="url(#f1dvrowbddvipe)" height="37.9375" id="UnauthorizedError" style="stroke:#A80036;stroke-width:1.5;" width="120" x="801" y="330.5"/><text fill="#000000" font-family="sans-serif" font-size="12" font-style="italic" lengthAdjust="spacing" textLength="74" x="824" y="346.6387">«Response»</text><text fill="#000000" font-family="sans-serif" font-size="12" lengthAdjust="spacing" textLength="114" x="804" y="360.6074">UnauthorizedError</text><!--MD5=[2b9df03c28d9cb9ddfcbffc750f34f92]
class POST /login--><rect codeLine="39" fill="#FEFECE" filter="url(#f1dvrowbddvipe)" height="37.9375" id="POST /login" style="stroke:#A80036;stroke-width:1.5;" width="76" x="231" y="168"/><text fill="#000000" font-family="sans-serif" font-size="12" font-style="italic" lengthAdjust="spacing" textLength="61" x="238.5" y="184.1387">«Method»</text><text fill="#000000" font-family="sans-serif" font-size="12" lengthAdjust="spacing" textLength="70" x="234" y="198.1074">POST /login</text><!--MD5=[7ed6c87dba96c2e22350af2d871c6ccf]
class POST /login Request--><rect codeLine="42" fill="#FEFECE" filter="url(#f1dvrowbddvipe)" height="71.5469" id="POST /login Request" style="stroke:#A80036;stroke-width:1.5;" width="158" x="7" y="313.5"/><ellipse cx="22" cy="332.4688" fill="#ADD1B2" rx="11" ry="11" style="stroke:#A80036;stroke-width:1.0;"/><path d="M24.9688,338.1094 Q24.3906,338.4063 23.75,338.5469 Q23.1094,338.7031 22.4063,338.7031 Q19.9063,338.7031 18.5781,337.0625 Q17.2656,335.4063 17.2656,332.2813 Q17.2656,329.1563 18.5781,327.5 Q19.9063,325.8438 22.4063,325.8438 Q23.1094,325.8438 23.75,326 Q24.4063,326.1563 24.9688,326.4531 L24.9688,329.1719 Q24.3438,328.5938 23.75,328.3281 Q23.1563,328.0469 22.5313,328.0469 Q21.1875,328.0469 20.5,329.125 Q19.8125,330.1875 19.8125,332.2813 Q19.8125,334.375 20.5,335.4531 Q21.1875,336.5156 22.5313,336.5156 Q23.1563,336.5156 23.75,336.25 Q24.3438,335.9688 24.9688,335.3906 L24.9688,338.1094 Z " fill="#000000"/><text fill="#000000" font-family="sans-serif" font-size="12" font-style="italic" lengthAdjust="spacing" textLength="96" x="51" y="329.6387">«RequestBody»</text><text fill="#000000" font-family="sans-serif" font-size="12" lengthAdjust="spacing" textLength="126" x="36" y="343.6074">POST /login Request</text><line style="stroke:#A80036;stroke-width:1.5;" x1="8" x2="164" y1="351.4375" y2="351.4375"/><text fill="#000000" font-family="sans-serif" font-size="11" lengthAdjust="spacing" textLength="103" x="13" y="365.6479">username : string</text><text fill="#000000" font-family="sans-serif" font-size="11" lengthAdjust="spacing" textLength="101" x="13" y="378.4526">password : string</text><!--MD5=[5e99ce8bea90170f1a35f5d25331a19c]
class GET /books--><rect codeLine="47" fill="#FEFECE" filter="url(#f1dvrowbddvipe)" height="84.3516" id="GET /books" style="stroke:#A80036;stroke-width:1.5;" width="123" x="841.5" y="7"/><text fill="#000000" font-family="sans-serif" font-size="12" font-style="italic" lengthAdjust="spacing" textLength="61" x="872.5" y="23.1387">«Method»</text><text fill="#000000" font-family="sans-serif" font-size="12" lengthAdjust="spacing" textLength="70" x="868" y="37.1074">GET /books</text><line style="stroke:#A80036;stroke-width:1.5;" x1="842.5" x2="963.5" y1="44.9375" y2="44.9375"/><text fill="#000000" font-family="sans-serif" font-size="11" lengthAdjust="spacing" textLength="85" x="847.5" y="59.1479">offset : integer</text><text fill="#000000" font-family="sans-serif" font-size="11" lengthAdjust="spacing" textLength="76" x="847.5" y="71.9526">limit : integer</text><text fill="#000000" font-family="sans-serif" font-size="11" lengthAdjust="spacing" textLength="111" x="847.5" y="84.7573">search : string {O}</text><!--MD5=[147bda4e0db56c9860fdabfb5ee90c77]
class GET /books.genre--><rect codeLine="53" fill="#FEFECE" filter="url(#f1dvrowbddvipe)" height="37.9375" id="GET /books.genre" style="stroke:#A80036;stroke-width:1.5;" width="117" x="1026.5" y="236"/><text fill="#000000" font-family="sans-serif" font-size="12" font-style="italic" lengthAdjust="spacing" textLength="79" x="1045.5" y="252.1387">«Parameter»</text><text fill="#000000" font-family="sans-serif" font-size="12" lengthAdjust="spacing" textLength="111" x="1029.5" y="266.1074">GET /books.genre</text><!--MD5=[00a71cf55a124dccaa88db7c56f6c340]
class GET /books 200--><rect codeLine="56" fill="#FEFECE" filter="url(#f1dvrowbddvipe)" height="37.9375" id="GET /books 200" style="stroke:#A80036;stroke-width:1.5;" width="104" x="477" y="168"/><text fill="#000000" font-family="sans-serif" font-size="12" font-style="italic" lengthAdjust="spacing" textLength="74" x="492" y="184.1387">«Response»</text><text fill="#000000" font-family="sans-serif" font-size="12" lengthAdjust="spacing" textLength="98" x="480" y="198.1074">GET /books 200</text><!--MD5=[77bd6de3d50bbd86e1697f981634415e]
class POST /books--><rect codeLine="59" fill="#FEFECE" filter="url(#f1dvrowbddvipe)" height="37.9375" id="POST /books" style="stroke:#A80036;stroke-width:1.5;" width="84" x="616" y="168"/><text fill="#000000" font-family="sans-serif" font-size="12" font-style="italic" lengthAdjust="spacing" textLength="61" x="627.5" y="184.1387">«Method»</text><text fill="#000000" font-family="sans-serif" font-size="12" lengthAdjust="spacing" textLength="78" x="619" y="198.1074">POST /books</text><!--MD5=[7efc6e0f254cd69f1fdf08743ee3b607]
link Book to BookGenre--><path codeLine="62" d="M722.6,387.96 C784.63,418.7 871.03,461.51 926.74,489.12 " fill="none" id="Book-to-BookGenre" style="stroke:#A80036;stroke-width:1.0;"/><polygon fill="#A80036" points="931.36,491.41,925.0603,483.8395,926.8765,489.1968,921.5191,491.0131,931.36,491.41" style="stroke:#A80036;stroke-width:1.0;"/><text fill="#000000" font-family="sans-serif" font-size="13" lengthAdjust="spacing" textLength="37" x="825" y="438.0669">genre</text><text fill="#000000" font-family="sans-serif" font-size="13" lengthAdjust="spacing" textLength="24" x="899.3343" y="484.1942">0..1</text><!--MD5=[708ece48ef120737d1cb93104a627dff]
link Book to Author--><path codeLine="64" d="M647,395.42 C647,417.47 647,444.1 647,466.76 " fill="none" id="Book-to-Author" style="stroke:#A80036;stroke-width:1.0;"/><polygon fill="#A80036" points="647,471.83,651,462.83,647,466.83,643,462.83,647,471.83" style="stroke:#A80036;stroke-width:1.0;"/><text fill="#000000" font-family="sans-serif" font-size="13" lengthAdjust="spacing" textLength="42" x="648" y="438.0669">author</text><text fill="#000000" font-family="sans-serif" font-size="13" lengthAdjust="spacing" textLength="8" x="638.4125" y="461.0812">1</text><!--MD5=[7ba95e1d098153b54f522cf8b99e6133]
link POST /login to AccessToken--><path codeLine="66" d="M269,206.1 C269,231.47 269,278.19 269,311.18 " fill="none" id="POST /login-to-AccessToken" style="stroke:#A80036;stroke-width:1.0;stroke-dasharray:7.0,7.0;"/><polygon fill="#A80036" points="269,316.36,273,307.36,269,311.36,265,307.36,269,316.36" style="stroke:#A80036;stroke-width:1.0;"/><text fill="#000000" font-family="sans-serif" font-size="13" lengthAdjust="spacing" textLength="24" x="270" y="259.5669">200</text><text fill="#000000" font-family="sans-serif" font-size="13" lengthAdjust="spacing" textLength="8" x="260.2125" y="305.4774">1</text><!--MD5=[57665c253550576375cc7673b1742735]
link POST /login to Error--><path codeLine="68" d="M288.51,206.1 C316.3,231.89 367.88,279.73 403.52,312.8 " fill="none" id="POST /login-to-Error" style="stroke:#A80036;stroke-width:1.0;stroke-dasharray:7.0,7.0;"/><polygon fill="#A80036" points="407.35,316.36,403.4645,307.31,403.6815,312.9627,398.0288,313.1796,407.35,316.36" style="stroke:#A80036;stroke-width:1.0;"/><text fill="#000000" font-family="sans-serif" font-size="13" lengthAdjust="spacing" textLength="24" x="362" y="259.5669">400</text><text fill="#000000" font-family="sans-serif" font-size="13" lengthAdjust="spacing" textLength="8" x="391.7408" y="305.4774">1</text><!--MD5=[4c00e1ac54b502d4a11aaf95726f8a2a]
link POST /login to POST /login Request--><path codeLine="70" d="M248.36,206.1 C219.86,231.09 167.73,276.82 130.22,309.72 " fill="none" id="POST /login-to-POST /login Request" style="stroke:#A80036;stroke-width:1.0;"/><polygon fill="#A80036" points="126.18,313.26,135.5817,310.3261,129.9367,309.9604,130.3024,304.3154,126.18,313.26" style="stroke:#A80036;stroke-width:1.0;"/><text fill="#000000" font-family="sans-serif" font-size="13" lengthAdjust="spacing" textLength="8" x="124.8507" y="302.3163">1</text><!--MD5=[31fd47019a808f0a2720cd763b03d802]
link GET /books.genre to BookGenre--><path codeLine="72" d="M1077.76,274.32 C1060.29,318.5 1015.69,431.29 994.09,485.93 " fill="none" id="GET /books.genre-to-BookGenre" style="stroke:#A80036;stroke-width:1.0;"/><polygon fill="#A80036" points="992.2,490.71,999.2198,483.8019,994.0322,486.0578,991.7763,480.8703,992.2,490.71" style="stroke:#A80036;stroke-width:1.0;"/><text fill="#000000" font-family="sans-serif" font-size="13" lengthAdjust="spacing" textLength="8" x="985.6338" y="479.8853">1</text><!--MD5=[2565d57ae4bf422b61495a5a173ea889]
link GET /books to GET /books.genre--><path codeLine="74" d="M964.71,84.96 C979.94,95.34 995.47,107.56 1008,121 C1039.31,154.57 1063.31,203.09 1075.69,231.3 " fill="none" id="GET /books-to-GET /books.genre" style="stroke:#A80036;stroke-width:1.0;"/><polygon fill="#A80036" points="1077.72,235.99,1077.7885,226.1414,1075.7212,231.4069,1070.4556,229.3395,1077.72,235.99" style="stroke:#A80036;stroke-width:1.0;"/><text fill="#000000" font-family="sans-serif" font-size="13" lengthAdjust="spacing" textLength="37" x="1022" y="134.0669">genre</text><text fill="#000000" font-family="sans-serif" font-size="13" lengthAdjust="spacing" textLength="24" x="1047.8155" y="224.9681">0..1</text><!--MD5=[ae0c4da99d5588654efc19478d8a93bf]
link GET /books to BookGenre--><path codeLine="76" d="M911.37,91.26 C913.28,101 915.26,111.36 917,121 C941.48,256.48 966.95,418.77 977.25,485.52 " fill="none" id="GET /books-to-BookGenre" style="stroke:#A80036;stroke-width:1.0;"/><polygon fill="#A80036" points="978.03,490.54,980.6212,481.0381,977.2729,485.5976,972.7134,482.2494,978.03,490.54" style="stroke:#A80036;stroke-width:1.0;"/><text fill="#000000" font-family="sans-serif" font-size="13" lengthAdjust="spacing" textLength="37" x="943" y="259.5669">genre</text><text fill="#000000" font-family="sans-serif" font-size="13" lengthAdjust="spacing" textLength="8" x="968.2866" y="480.1047">1</text><!--MD5=[6f734e1596127690a7c17e2e7f6a7baa]
link GET /books 200 to Book--><path codeLine="78" d="M533.82,206.31 C539.2,224.58 549.16,252.9 564,274 C570.53,283.29 578.42,292.22 586.71,300.49 " fill="none" id="GET /books 200-to-Book" style="stroke:#A80036;stroke-width:1.0;"/><polygon fill="#A80036" points="590.28,303.99,586.6518,294.8338,586.7089,300.4904,581.0524,300.5475,590.28,303.99" style="stroke:#A80036;stroke-width:1.0;"/><text fill="#000000" font-family="sans-serif" font-size="13" lengthAdjust="spacing" textLength="7" x="574.0588" y="292.9332">*</text><!--MD5=[4795758fff4ab267321dc22ebe7e8c1b]
link GET /books to GET /books 200--><path codeLine="80" d="M841.24,72.46 C769.42,98.58 651.97,141.28 583.43,166.21 " fill="none" id="GET /books-to-GET /books 200" style="stroke:#A80036;stroke-width:1.0;stroke-dasharray:7.0,7.0;"/><polygon fill="#A80036" points="578.58,167.97,588.4058,168.6439,583.2773,166.2567,585.6645,161.1282,578.58,167.97" style="stroke:#A80036;stroke-width:1.0;"/><text fill="#000000" font-family="sans-serif" font-size="13" lengthAdjust="spacing" textLength="24" x="705" y="134.0669">200</text><text fill="#000000" font-family="sans-serif" font-size="13" lengthAdjust="spacing" textLength="8" x="584.5389" y="156.942">1</text><!--MD5=[fb0fbcc8eb6e9636ff08105e103cd93c]
link GET /books to UnauthorizedError--><path codeLine="82" d="M897.2,91.19 C888.26,154.77 871.38,274.73 864.28,325.19 " fill="none" id="GET /books-to-UnauthorizedError" style="stroke:#A80036;stroke-width:1.0;stroke-dasharray:7.0,7.0;"/><polygon fill="#A80036" points="863.54,330.43,868.7625,322.0798,864.2411,325.4794,860.8415,320.958,863.54,330.43" style="stroke:#A80036;stroke-width:1.0;"/><text fill="#000000" font-family="sans-serif" font-size="13" lengthAdjust="spacing" textLength="24" x="887" y="191.5669">401</text><text fill="#000000" font-family="sans-serif" font-size="13" lengthAdjust="spacing" textLength="8" x="865.5429" y="319.3897">1</text><!--MD5=[9d51a88ab644a29f9d5554ed47199a1e]
link GET /books to Error--><path codeLine="84" d="M841.27,56.26 C725.71,69.39 483.88,104.02 434,168 C402.35,208.6 414.57,271.34 427.42,311.13 " fill="none" id="GET /books-to-Error" style="stroke:#A80036;stroke-width:1.0;stroke-dasharray:7.0,7.0;"/><polygon fill="#A80036" points="429.15,316.35,430.1252,306.5495,427.5817,311.6023,422.5289,309.0588,429.15,316.35" style="stroke:#A80036;stroke-width:1.0;"/><text fill="#000000" font-family="sans-serif" font-size="13" lengthAdjust="spacing" textLength="24" x="435" y="191.5669">400</text><text fill="#000000" font-family="sans-serif" font-size="13" lengthAdjust="spacing" textLength="8" x="417.8327" y="305.4655">1</text><!--MD5=[712ae87b5092e0b79371a16ea00ccc41]
link POST /books to Book--><path codeLine="86" d="M615.66,203.17 C601.06,210.67 586.3,221.34 578,236 C565.99,257.22 575.88,280.23 591.55,299.88 " fill="none" id="POST /books-to-Book" style="stroke:#A80036;stroke-width:1.0;stroke-dasharray:7.0,7.0;"/><polygon fill="#A80036" points="594.75,303.77,592.1028,294.2836,591.566,299.9149,585.9346,299.378,594.75,303.77" style="stroke:#A80036;stroke-width:1.0;"/><text fill="#000000" font-family="sans-serif" font-size="13" lengthAdjust="spacing" textLength="24" x="579" y="259.5669">201</text><text fill="#000000" font-family="sans-serif" font-size="13" lengthAdjust="spacing" textLength="8" x="587.6633" y="293.0124">1</text><!--MD5=[712ae87b5092e0b79371a16ea00ccc41]
link POST /books to Book--><path codeLine="88" d="M651.3,206.42 C648.43,215.24 645.42,226.03 644,236 C641.08,256.42 641.08,279.13 642.09,298.77 " fill="none" id="POST /books-to-Book-1" style="stroke:#A80036;stroke-width:1.0;stroke-dasharray:7.0,7.0;"/><polygon fill="#A80036" points="642.38,303.95,645.86,294.7365,642.0948,298.9581,637.8731,295.1929,642.38,303.95" style="stroke:#A80036;stroke-width:1.0;"/><text fill="#000000" font-family="sans-serif" font-size="13" lengthAdjust="spacing" textLength="124" x="645" y="259.5669">201 application/xml</text><text fill="#000000" font-family="sans-serif" font-size="13" lengthAdjust="spacing" textLength="8" x="633.0601" y="292.887">1</text><!--MD5=[712ae87b5092e0b79371a16ea00ccc41]
link POST /books to Book--><path codeLine="94" d="M700.29,193.64 C726.28,199.53 757.65,211.54 774,236 C783.39,250.04 782.39,259.34 774,274 C763.28,292.71 745.84,307.18 727.27,318.17 " fill="none" id="POST /books-to-Book-2" style="stroke:#A80036;stroke-width:1.0;"/><polygon fill="#A80036" points="722.53,320.89,732.328,319.8908,726.8695,318.4062,728.354,312.9477,722.53,320.89" style="stroke:#A80036;stroke-width:1.0;"/><text fill="#000000" font-family="sans-serif" font-size="13" lengthAdjust="spacing" textLength="8" x="730.7315" y="314.2286">1</text><!--MD5=[4356fb2a99c7e084864d271c21813bc7]
link POST /books to Error--><path codeLine="90" d="M615.81,202.44 C586.7,212.86 550.99,226.68 538,236 C509.11,256.73 483.38,287.96 465.85,312.25 " fill="none" id="POST /books-to-Error" style="stroke:#A80036;stroke-width:1.0;stroke-dasharray:7.0,7.0;"/><polygon fill="#A80036" points="462.89,316.4,471.3694,311.3901,465.7908,312.3275,464.8534,306.7488,462.89,316.4" style="stroke:#A80036;stroke-width:1.0;"/><text fill="#000000" font-family="sans-serif" font-size="13" lengthAdjust="spacing" textLength="24" x="539" y="259.5669">400</text><text fill="#000000" font-family="sans-serif" font-size="13" lengthAdjust="spacing" textLength="8" x="458.2152" y="305.5253">1</text><!--MD5=[c906920510fbe9ac7ebf7399e2a9341d]
link POST /books to UnauthorizedError--><path codeLine="92" d="M700.31,193.28 C731.72,199.1 773.97,211.19 803,236 C830.72,259.69 846.87,299.94 854.81,325.32 " fill="none" id="POST /books-to-UnauthorizedError" style="stroke:#A80036;stroke-width:1.0;stroke-dasharray:7.0,7.0;"/><polygon fill="#A80036" points="856.29,330.19,857.4951,320.4151,854.8336,325.4068,849.842,322.7453,856.29,330.19" style="stroke:#A80036;stroke-width:1.0;"/><text fill="#000000" font-family="sans-serif" font-size="13" lengthAdjust="spacing" textLength="24" x="833" y="259.5669">401</text><text fill="#000000" font-family="sans-serif" font-size="13" lengthAdjust="spacing" textLength="8" x="845.7314" y="319.4101">1</text><!--MD5=[b2607eda3714ce73095ae2a4189b28f7]
@startuml
hide <<Method>> circle
hide <<Response>> circle
hide <<Parameter>> circle
hide empty methods
hide empty fields
set namespaceSeparator none

class "AccessToken" {
  accessToken : string
  expiresAt : timestamp
}

class "Error" {
  code : string
  message : timestamp
}

class "Author" {
  fullname : string
  country : string {O}
  birthYear : date {O}
  gender : string {O}
}

class "BookGenre" {
  value : string
}

class "Book" {
  id : integer
  title : string
  totalPages : integer
  publishingHouse : string
}

class "UnauthorizedError" <<Response>> {
}

class "POST /login" <<Method>> {
}

class "POST /login Request" <<RequestBody>> {
  username : string
  password : string
}

class "GET /books" <<Method>> {
  offset : integer
  limit : integer
  search : string {O}
}

class "GET /books.genre" <<Parameter>> {
}

class "GET /books 200" <<Response>> {
}

class "POST /books" <<Method>> {
}

"Book" - -> "0..1" "BookGenre"  :  "genre"

"Book" - -> "1" "Author"  :  "author"

"POST /login" ..> "1" "AccessToken"  :  "200"

"POST /login" ..> "1" "Error"  :  "400"

"POST /login" - -> "1" "POST /login Request"

"GET /books.genre" - -> "1" "BookGenre"

"GET /books" - -> "0..1" "GET /books.genre"  :  "genre"

"GET /books" - -> "1" "BookGenre"  :  "genre"

"GET /books 200" - -> "*" "Book"

"GET /books" ..> "1" "GET /books 200"  :  "200"

"GET /books" ..> "1" "UnauthorizedError"  :  "401"

"GET /books" ..> "1" "Error"  :  "400"

"POST /books" ..> "1" "Book"  :  "201"

"POST /books" ..> "1" "Book"  :  "201 application/xml"

"POST /books" ..> "1" "Error"  :  "400"

"POST /books" ..> "1" "UnauthorizedError"  :  "401"

"POST /books" - -> "1" "Book"

@enduml

PlantUML version 1.2021.2(Sun Mar 07 22:10:27 AEDT 2021)
(GPL source distribution)
Java Runtime: OpenJDK Runtime Environment
JVM: OpenJDK 64-Bit Server VM
Default Encoding: UTF-8
Language: en
Country: AU
--></g></svg>