<?xml version="1.0" encoding="UTF-8" standalone="no"?><svg xmlns="http://www.w3.org/2000/svg" xmlns:xlink="http://www.w3.org/1999/xlink" contentScriptType="application/ecmascript" contentStyleType="text/css" height="596px" preserveAspectRatio="none" style="width:1260px;height:596px;" version="1.1" viewBox="0 0 1260 596" width="1260px" zoomAndPan="magnify"><defs><filter height="300%" id="ftw6ays16oksc" width="300%" x="-1" y="-1"><feGaussianBlur result="blurOut" stdDeviation="2.0"/><feColorMatrix in="blurOut" result="blurOut2" type="matrix" values="0 0 0 0 0 0 0 0 0 0 0 0 0 0 0 0 0 0 .4 0"/><feOffset dx="4.0" dy="4.0" in="blurOut2" result="blurOut3"/><feBlend in="SourceGraphic" in2="blurOut3" mode="normal"/></filter></defs><g><!--MD5=[480b55fe24535af2551deb761fe5417e]
class AccessToken--><rect codeLine="3" fill="#FEFECE" filter="url(#ftw6ays16oksc)" height="73.6094" id="AccessToken" style="stroke:#A80036;stroke-width:1.5;" width="138" x="200" y="319.5"/><ellipse cx="225.8" cy="335.5" fill="#ADD1B2" rx="11" ry="11" style="stroke:#A80036;stroke-width:1.0;"/><path d="M228.7688,341.1406 Q228.1906,341.4375 227.55,341.5859 Q226.9094,341.7344 226.2063,341.7344 Q223.7063,341.7344 222.3859,340.0859 Q221.0656,338.4375 221.0656,335.3125 Q221.0656,332.1875 222.3859,330.5313 Q223.7063,328.875 226.2063,328.875 Q226.9094,328.875 227.5578,329.0313 Q228.2063,329.1875 228.7688,329.4844 L228.7688,332.2031 Q228.1438,331.625 227.55,331.3516 Q226.9563,331.0781 226.3313,331.0781 Q224.9875,331.0781 224.3,332.1484 Q223.6125,333.2188 223.6125,335.3125 Q223.6125,337.4063 224.3,338.4766 Q224.9875,339.5469 226.3313,339.5469 Q226.9563,339.5469 227.55,339.2734 Q228.1438,339 228.7688,338.4219 L228.7688,341.1406 Z " fill="#000000"/><text fill="#000000" font-family="sans-serif" font-size="12" lengthAdjust="spacing" textLength="82" x="242.2" y="339.6543">AccessToken</text><line style="stroke:#A80036;stroke-width:1.5;" x1="201" x2="337" y1="351.5" y2="351.5"/><text fill="#000000" font-family="sans-serif" font-size="11" lengthAdjust="spacing" textLength="119" x="206" y="365.7104">accessToken : string</text><text fill="#000000" font-family="sans-serif" font-size="11" lengthAdjust="spacing" textLength="126" x="206" y="378.5151">expiresAt : timestamp</text><line style="stroke:#A80036;stroke-width:1.5;" x1="201" x2="337" y1="385.1094" y2="385.1094"/><!--MD5=[b8cfd8c4119a3b0a7a46bfc5fc780f85]
class Error--><rect codeLine="8" fill="#FEFECE" filter="url(#ftw6ays16oksc)" height="73.6094" id="Error" style="stroke:#A80036;stroke-width:1.5;" width="138" x="373" y="319.5"/><ellipse cx="422.25" cy="335.5" fill="#ADD1B2" rx="11" ry="11" style="stroke:#A80036;stroke-width:1.0;"/><path d="M425.2188,341.1406 Q424.6406,341.4375 424,341.5859 Q423.3594,341.7344 422.6563,341.7344 Q420.1563,341.7344 418.8359,340.0859 Q417.5156,338.4375 417.5156,335.3125 Q417.5156,332.1875 418.8359,330.5313 Q420.1563,328.875 422.6563,328.875 Q423.3594,328.875 424.0078,329.0313 Q424.6563,329.1875 425.2188,329.4844 L425.2188,332.2031 Q424.5938,331.625 424,331.3516 Q423.4063,331.0781 422.7813,331.0781 Q421.4375,331.0781 420.75,332.1484 Q420.0625,333.2188 420.0625,335.3125 Q420.0625,337.4063 420.75,338.4766 Q421.4375,339.5469 422.7813,339.5469 Q423.4063,339.5469 424,339.2734 Q424.5938,339 425.2188,338.4219 L425.2188,341.1406 Z " fill="#000000"/><text fill="#000000" font-family="sans-serif" font-size="12" lengthAdjust="spacing" textLength="31" x="442.75" y="339.6543">Error</text><line style="stroke:#A80036;stroke-width:1.5;" x1="374" x2="510" y1="351.5" y2="351.5"/><text fill="#000000" font-family="sans-serif" font-size="11" lengthAdjust="spacing" textLength="72" x="379" y="365.7104">code : string</text><text fill="#000000" font-family="sans-serif" font-size="11" lengthAdjust="spacing" textLength="126" x="379" y="378.5151">message : timestamp</text><line style="stroke:#A80036;stroke-width:1.5;" x1="374" x2="510" y1="385.1094" y2="385.1094"/><!--MD5=[c3f280b58e8dd0683e81b8ec31306a35]
class Author--><rect codeLine="13" fill="#FEFECE" filter="url(#ftw6ays16oksc)" height="99.2188" id="Author" style="stroke:#A80036;stroke-width:1.5;" width="128" x="783" y="483"/><ellipse cx="822.3" cy="499" fill="#ADD1B2" rx="11" ry="11" style="stroke:#A80036;stroke-width:1.0;"/><path d="M825.2688,504.6406 Q824.6906,504.9375 824.05,505.0859 Q823.4094,505.2344 822.7063,505.2344 Q820.2063,505.2344 818.8859,503.5859 Q817.5656,501.9375 817.5656,498.8125 Q817.5656,495.6875 818.8859,494.0313 Q820.2063,492.375 822.7063,492.375 Q823.4094,492.375 824.0578,492.5313 Q824.7063,492.6875 825.2688,492.9844 L825.2688,495.7031 Q824.6438,495.125 824.05,494.8516 Q823.4563,494.5781 822.8313,494.5781 Q821.4875,494.5781 820.8,495.6484 Q820.1125,496.7188 820.1125,498.8125 Q820.1125,500.9063 820.8,501.9766 Q821.4875,503.0469 822.8313,503.0469 Q823.4563,503.0469 824.05,502.7734 Q824.6438,502.5 825.2688,501.9219 L825.2688,504.6406 Z " fill="#000000"/><text fill="#000000" font-family="sans-serif" font-size="12" lengthAdjust="spacing" textLength="42" x="841.7" y="503.1543">Author</text><line style="stroke:#A80036;stroke-width:1.5;" x1="784" x2="910" y1="515" y2="515"/><text fill="#000000" font-family="sans-serif" font-size="11" lengthAdjust="spacing" textLength="94" x="789" y="529.2104">fullname : string</text><text fill="#000000" font-family="sans-serif" font-size="11" lengthAdjust="spacing" textLength="114" x="789" y="542.0151">country : string {O}</text><text fill="#000000" font-family="sans-serif" font-size="11" lengthAdjust="spacing" textLength="116" x="789" y="554.8198">birthYear : date {O}</text><text fill="#000000" font-family="sans-serif" font-size="11" lengthAdjust="spacing" textLength="112" x="789" y="567.6245">gender : string {O}</text><line style="stroke:#A80036;stroke-width:1.5;" x1="784" x2="910" y1="574.2188" y2="574.2188"/><!--MD5=[838cb3b9b512e84757c00d0249b7cc0a]
class BookGenre--><rect codeLine="20" fill="#FEFECE" filter="url(#ftw6ays16oksc)" height="60.8047" id="BookGenre" style="stroke:#A80036;stroke-width:1.5;" width="101" x="946.5" y="502"/><ellipse cx="961.5" cy="518" fill="#ADD1B2" rx="11" ry="11" style="stroke:#A80036;stroke-width:1.0;"/><path d="M964.4688,523.6406 Q963.8906,523.9375 963.25,524.0859 Q962.6094,524.2344 961.9063,524.2344 Q959.4063,524.2344 958.0859,522.5859 Q956.7656,520.9375 956.7656,517.8125 Q956.7656,514.6875 958.0859,513.0313 Q959.4063,511.375 961.9063,511.375 Q962.6094,511.375 963.2578,511.5313 Q963.9063,511.6875 964.4688,511.9844 L964.4688,514.7031 Q963.8438,514.125 963.25,513.8516 Q962.6563,513.5781 962.0313,513.5781 Q960.6875,513.5781 960,514.6484 Q959.3125,515.7188 959.3125,517.8125 Q959.3125,519.9063 960,520.9766 Q960.6875,522.0469 962.0313,522.0469 Q962.6563,522.0469 963.25,521.7734 Q963.8438,521.5 964.4688,520.9219 L964.4688,523.6406 Z " fill="#000000"/><text fill="#000000" font-family="sans-serif" font-size="12" lengthAdjust="spacing" textLength="69" x="975.5" y="522.1543">BookGenre</text><line style="stroke:#A80036;stroke-width:1.5;" x1="947.5" x2="1046.5" y1="534" y2="534"/><text fill="#000000" font-family="sans-serif" font-size="11" lengthAdjust="spacing" textLength="75" x="952.5" y="548.2104">value : string</text><line style="stroke:#A80036;stroke-width:1.5;" x1="947.5" x2="1046.5" y1="554.8047" y2="554.8047"/><!--MD5=[84e3a5e42879fb3231104d3c8e592439]
class Book--><rect codeLine="24" fill="#FEFECE" filter="url(#ftw6ays16oksc)" height="99.2188" id="Book" style="stroke:#A80036;stroke-width:1.5;" width="151" x="785.5" y="307"/><ellipse cx="841.25" cy="323" fill="#ADD1B2" rx="11" ry="11" style="stroke:#A80036;stroke-width:1.0;"/><path d="M844.2188,328.6406 Q843.6406,328.9375 843,329.0859 Q842.3594,329.2344 841.6563,329.2344 Q839.1563,329.2344 837.8359,327.5859 Q836.5156,325.9375 836.5156,322.8125 Q836.5156,319.6875 837.8359,318.0313 Q839.1563,316.375 841.6563,316.375 Q842.3594,316.375 843.0078,316.5313 Q843.6563,316.6875 844.2188,316.9844 L844.2188,319.7031 Q843.5938,319.125 843,318.8516 Q842.4063,318.5781 841.7813,318.5781 Q840.4375,318.5781 839.75,319.6484 Q839.0625,320.7188 839.0625,322.8125 Q839.0625,324.9063 839.75,325.9766 Q840.4375,327.0469 841.7813,327.0469 Q842.4063,327.0469 843,326.7734 Q843.5938,326.5 844.2188,325.9219 L844.2188,328.6406 Z " fill="#000000"/><text fill="#000000" font-family="sans-serif" font-size="12" lengthAdjust="spacing" textLength="31" x="861.75" y="327.1543">Book</text><line style="stroke:#A80036;stroke-width:1.5;" x1="786.5" x2="935.5" y1="339" y2="339"/><text fill="#000000" font-family="sans-serif" font-size="11" lengthAdjust="spacing" textLength="62" x="791.5" y="353.2104">id : integer</text><text fill="#000000" font-family="sans-serif" font-size="11" lengthAdjust="spacing" textLength="66" x="791.5" y="366.0151">title : string</text><text fill="#000000" font-family="sans-serif" font-size="11" lengthAdjust="spacing" textLength="112" x="791.5" y="378.8198">totalPages : integer</text><text fill="#000000" font-family="sans-serif" font-size="11" lengthAdjust="spacing" textLength="139" x="791.5" y="391.6245">publishingHouse : string</text><line style="stroke:#A80036;stroke-width:1.5;" x1="786.5" x2="935.5" y1="398.2188" y2="398.2188"/><!--MD5=[2b9df03c28d9cb9ddfcbffc750f34f92]
class POST /login--><rect codeLine="36" fill="#FEFECE" filter="url(#ftw6ays16oksc)" height="53.9375" id="POST /login" style="stroke:#A80036;stroke-width:1.5;" width="76" x="231" y="176"/><text fill="#000000" font-family="sans-serif" font-size="12" font-style="italic" lengthAdjust="spacing" textLength="61" x="238.5" y="192.1387">«Method»</text><text fill="#000000" font-family="sans-serif" font-size="12" lengthAdjust="spacing" textLength="70" x="234" y="206.1074">POST /login</text><line style="stroke:#A80036;stroke-width:1.5;" x1="232" x2="306" y1="213.9375" y2="213.9375"/><line style="stroke:#A80036;stroke-width:1.5;" x1="232" x2="306" y1="221.9375" y2="221.9375"/><!--MD5=[7ed6c87dba96c2e22350af2d871c6ccf]
class POST /login Request--><rect codeLine="43" fill="#FEFECE" filter="url(#ftw6ays16oksc)" height="79.5469" id="POST /login Request" style="stroke:#A80036;stroke-width:1.5;" width="158" x="7" y="316.5"/><ellipse cx="22" cy="335.4688" fill="#ADD1B2" rx="11" ry="11" style="stroke:#A80036;stroke-width:1.0;"/><path d="M24.9688,341.1094 Q24.3906,341.4063 23.75,341.5547 Q23.1094,341.7031 22.4063,341.7031 Q19.9063,341.7031 18.5859,340.0547 Q17.2656,338.4063 17.2656,335.2813 Q17.2656,332.1563 18.5859,330.5 Q19.9063,328.8438 22.4063,328.8438 Q23.1094,328.8438 23.7578,329 Q24.4063,329.1563 24.9688,329.4531 L24.9688,332.1719 Q24.3438,331.5938 23.75,331.3203 Q23.1563,331.0469 22.5313,331.0469 Q21.1875,331.0469 20.5,332.1172 Q19.8125,333.1875 19.8125,335.2813 Q19.8125,337.375 20.5,338.4453 Q21.1875,339.5156 22.5313,339.5156 Q23.1563,339.5156 23.75,339.2422 Q24.3438,338.9688 24.9688,338.3906 L24.9688,341.1094 Z " fill="#000000"/><text fill="#000000" font-family="sans-serif" font-size="12" font-style="italic" lengthAdjust="spacing" textLength="100" x="49" y="332.6387">«Request Body»</text><text fill="#000000" font-family="sans-serif" font-size="12" lengthAdjust="spacing" textLength="126" x="36" y="346.6074">POST /login Request</text><line style="stroke:#A80036;stroke-width:1.5;" x1="8" x2="164" y1="354.4375" y2="354.4375"/><text fill="#000000" font-family="sans-serif" font-size="11" lengthAdjust="spacing" textLength="103" x="13" y="368.6479">username : string</text><text fill="#000000" font-family="sans-serif" font-size="11" lengthAdjust="spacing" textLength="101" x="13" y="381.4526">password : string</text><line style="stroke:#A80036;stroke-width:1.5;" x1="8" x2="164" y1="388.0469" y2="388.0469"/><!--MD5=[5e99ce8bea90170f1a35f5d25331a19c]
class GET /books--><rect codeLine="50" fill="#FEFECE" filter="url(#ftw6ays16oksc)" height="92.3516" id="GET /books" style="stroke:#A80036;stroke-width:1.5;" width="123" x="885.5" y="7"/><text fill="#000000" font-family="sans-serif" font-size="12" font-style="italic" lengthAdjust="spacing" textLength="61" x="916.5" y="23.1387">«Method»</text><text fill="#000000" font-family="sans-serif" font-size="12" lengthAdjust="spacing" textLength="70" x="912" y="37.1074">GET /books</text><line style="stroke:#A80036;stroke-width:1.5;" x1="886.5" x2="1007.5" y1="44.9375" y2="44.9375"/><text fill="#000000" font-family="sans-serif" font-size="11" lengthAdjust="spacing" textLength="85" x="891.5" y="59.1479">offset : integer</text><text fill="#000000" font-family="sans-serif" font-size="11" lengthAdjust="spacing" textLength="76" x="891.5" y="71.9526">limit : integer</text><text fill="#000000" font-family="sans-serif" font-size="11" lengthAdjust="spacing" textLength="111" x="891.5" y="84.7573">search : string {O}</text><line style="stroke:#A80036;stroke-width:1.5;" x1="886.5" x2="1007.5" y1="91.3516" y2="91.3516"/><!--MD5=[e1268eccee0ebb0811aa10f4cd8afac1]
class GET /books 200 Response--><rect codeLine="56" fill="#FEFECE" filter="url(#ftw6ays16oksc)" height="53.9375" id="GET /books 200 Response" style="stroke:#A80036;stroke-width:1.5;" width="196" x="748" y="176"/><ellipse cx="763" cy="194.9688" fill="#ADD1B2" rx="11" ry="11" style="stroke:#A80036;stroke-width:1.0;"/><path d="M765.9688,200.6094 Q765.3906,200.9063 764.75,201.0547 Q764.1094,201.2031 763.4063,201.2031 Q760.9063,201.2031 759.5859,199.5547 Q758.2656,197.9063 758.2656,194.7813 Q758.2656,191.6563 759.5859,190 Q760.9063,188.3438 763.4063,188.3438 Q764.1094,188.3438 764.7578,188.5 Q765.4063,188.6563 765.9688,188.9531 L765.9688,191.6719 Q765.3438,191.0938 764.75,190.8203 Q764.1563,190.5469 763.5313,190.5469 Q762.1875,190.5469 761.5,191.6172 Q760.8125,192.6875 760.8125,194.7813 Q760.8125,196.875 761.5,197.9453 Q762.1875,199.0156 763.5313,199.0156 Q764.1563,199.0156 764.75,198.7422 Q765.3438,198.4688 765.9688,197.8906 L765.9688,200.6094 Z " fill="#000000"/><text fill="#000000" font-family="sans-serif" font-size="12" font-style="italic" lengthAdjust="spacing" textLength="76" x="821" y="192.1387">«Response»</text><text fill="#000000" font-family="sans-serif" font-size="12" lengthAdjust="spacing" textLength="164" x="777" y="206.1074">GET /books 200 Response</text><line style="stroke:#A80036;stroke-width:1.5;" x1="749" x2="943" y1="213.9375" y2="213.9375"/><line style="stroke:#A80036;stroke-width:1.5;" x1="749" x2="943" y1="221.9375" y2="221.9375"/><!--MD5=[a73bd099fed8b96be4ddc891e4e7aa0b]
class GET /books 401 Response--><rect codeLine="62" fill="#FEFECE" filter="url(#ftw6ays16oksc)" height="48" id="GET /books 401 Response" style="stroke:#A80036;stroke-width:1.5;" width="196" x="1050" y="179"/><ellipse cx="1065" cy="195" fill="#ADD1B2" rx="11" ry="11" style="stroke:#A80036;stroke-width:1.0;"/><path d="M1067.9688,200.6406 Q1067.3906,200.9375 1066.75,201.0859 Q1066.1094,201.2344 1065.4063,201.2344 Q1062.9063,201.2344 1061.5859,199.5859 Q1060.2656,197.9375 1060.2656,194.8125 Q1060.2656,191.6875 1061.5859,190.0313 Q1062.9063,188.375 1065.4063,188.375 Q1066.1094,188.375 1066.7578,188.5313 Q1067.4063,188.6875 1067.9688,188.9844 L1067.9688,191.7031 Q1067.3438,191.125 1066.75,190.8516 Q1066.1563,190.5781 1065.5313,190.5781 Q1064.1875,190.5781 1063.5,191.6484 Q1062.8125,192.7188 1062.8125,194.8125 Q1062.8125,196.9063 1063.5,197.9766 Q1064.1875,199.0469 1065.5313,199.0469 Q1066.1563,199.0469 1066.75,198.7734 Q1067.3438,198.5 1067.9688,197.9219 L1067.9688,200.6406 Z " fill="#000000"/><text fill="#000000" font-family="sans-serif" font-size="12" lengthAdjust="spacing" textLength="164" x="1079" y="199.1543">GET /books 401 Response</text><line style="stroke:#A80036;stroke-width:1.5;" x1="1051" x2="1245" y1="211" y2="211"/><line style="stroke:#A80036;stroke-width:1.5;" x1="1051" x2="1245" y1="219" y2="219"/><!--MD5=[77bd6de3d50bbd86e1697f981634415e]
class POST /books--><rect codeLine="68" fill="#FEFECE" filter="url(#ftw6ays16oksc)" height="53.9375" id="POST /books" style="stroke:#A80036;stroke-width:1.5;" width="84" x="614" y="176"/><text fill="#000000" font-family="sans-serif" font-size="12" font-style="italic" lengthAdjust="spacing" textLength="61" x="625.5" y="192.1387">«Method»</text><text fill="#000000" font-family="sans-serif" font-size="12" lengthAdjust="spacing" textLength="78" x="617" y="206.1074">POST /books</text><line style="stroke:#A80036;stroke-width:1.5;" x1="615" x2="697" y1="213.9375" y2="213.9375"/><line style="stroke:#A80036;stroke-width:1.5;" x1="615" x2="697" y1="221.9375" y2="221.9375"/><!--MD5=[2bb4b3def454d992a3eab52a8423eb19]
class POST /books 401 Response--><rect codeLine="74" fill="#FEFECE" filter="url(#ftw6ays16oksc)" height="48" id="POST /books 401 Response" style="stroke:#A80036;stroke-width:1.5;" width="204" x="546" y="332.5"/><ellipse cx="561" cy="348.5" fill="#ADD1B2" rx="11" ry="11" style="stroke:#A80036;stroke-width:1.0;"/><path d="M563.9688,354.1406 Q563.3906,354.4375 562.75,354.5859 Q562.1094,354.7344 561.4063,354.7344 Q558.9063,354.7344 557.5859,353.0859 Q556.2656,351.4375 556.2656,348.3125 Q556.2656,345.1875 557.5859,343.5313 Q558.9063,341.875 561.4063,341.875 Q562.1094,341.875 562.7578,342.0313 Q563.4063,342.1875 563.9688,342.4844 L563.9688,345.2031 Q563.3438,344.625 562.75,344.3516 Q562.1563,344.0781 561.5313,344.0781 Q560.1875,344.0781 559.5,345.1484 Q558.8125,346.2188 558.8125,348.3125 Q558.8125,350.4063 559.5,351.4766 Q560.1875,352.5469 561.5313,352.5469 Q562.1563,352.5469 562.75,352.2734 Q563.3438,352 563.9688,351.4219 L563.9688,354.1406 Z " fill="#000000"/><text fill="#000000" font-family="sans-serif" font-size="12" lengthAdjust="spacing" textLength="172" x="575" y="352.6543">POST /books 401 Response</text><line style="stroke:#A80036;stroke-width:1.5;" x1="547" x2="749" y1="364.5" y2="364.5"/><line style="stroke:#A80036;stroke-width:1.5;" x1="547" x2="749" y1="372.5" y2="372.5"/><!--MD5=[7efc6e0f254cd69f1fdf08743ee3b607]
link Book to BookGenre--><path codeLine="31" d="M896.633,406.455 C907.795,421.509 920.265,438.048 932,453 C943.682,467.884 956.947,484.0315 968.433,497.789 " fill="none" id="Book-to-BookGenre" style="stroke:#A80036;stroke-width:1.0;"/><polygon fill="#A80036" points="971.937,501.9778,969.2294,492.5084,968.7285,498.143,963.0938,497.6421,971.937,501.9778" style="stroke:#A80036;stroke-width:1.0;"/><text fill="#000000" font-family="sans-serif" font-size="13" lengthAdjust="spacing" textLength="37" x="933" y="449.0669">genre</text><text fill="#000000" font-family="sans-serif" font-size="13" lengthAdjust="spacing" textLength="24" x="939.8295" y="490.7632">0..1</text><!--MD5=[708ece48ef120737d1cb93104a627dff]
link Book to Author--><path codeLine="33" d="M850.201,406.289 C848.452,416.08 846.916,426.331 846,436 C844.731,449.407 844.367,463.919 844.463,477.486 " fill="none" id="Book-to-Author" style="stroke:#A80036;stroke-width:1.0;"/><polygon fill="#A80036" points="844.524,482.8341,848.4183,473.7879,844.4654,477.8344,840.4189,473.8816,844.524,482.8341" style="stroke:#A80036;stroke-width:1.0;"/><text fill="#000000" font-family="sans-serif" font-size="13" lengthAdjust="spacing" textLength="42" x="847" y="449.0669">author</text><text fill="#000000" font-family="sans-serif" font-size="13" lengthAdjust="spacing" textLength="8" x="835.6133" y="471.8559">1</text><!--MD5=[7ba95e1d098153b54f522cf8b99e6133]
link POST /login to AccessToken--><path codeLine="39" d="M269,230.044 C269,253.124 269,287.227 269,314.054 " fill="none" id="POST /login-to-AccessToken" style="stroke:#A80036;stroke-width:1.0;stroke-dasharray:7.0,7.0;"/><polygon fill="#A80036" points="269,319.317,273,310.317,269,314.317,265,310.317,269,319.317" style="stroke:#A80036;stroke-width:1.0;"/><text fill="#000000" font-family="sans-serif" font-size="13" lengthAdjust="spacing" textLength="24" x="270" y="273.0669">200</text><!--MD5=[57665c253550576375cc7673b1742735]
link POST /login to Error--><path codeLine="41" d="M298.74,230.044 C325.645,253.605 365.667,288.653 396.575,315.721 " fill="none" id="POST /login-to-Error" style="stroke:#A80036;stroke-width:1.0;stroke-dasharray:7.0,7.0;"/><polygon fill="#A80036" points="400.682,319.317,396.5469,310.3783,396.9206,316.0228,391.2761,316.3965,400.682,319.317" style="stroke:#A80036;stroke-width:1.0;"/><text fill="#000000" font-family="sans-serif" font-size="13" lengthAdjust="spacing" textLength="24" x="352" y="273.0669">400</text><!--MD5=[4c00e1ac54b502d4a11aaf95726f8a2a]
link POST /login to POST /login Request--><path codeLine="48" d="M237.541,230.044 C209.947,252.888 169.309,286.531 137.06,313.229 " fill="none" id="POST /login-to-POST /login Request" style="stroke:#A80036;stroke-width:1.0;"/><polygon fill="#A80036" points="133.171,316.449,142.6543,313.7907,137.0224,313.2605,137.5527,307.6285,133.171,316.449" style="stroke:#A80036;stroke-width:1.0;"/><!--MD5=[7ce4f6434dfa7bc1b0a9df6d13e53d6a]
link GET /books 200 Response to Book--><path codeLine="59" d="M848.579,230.044 C850.526,249.711 853.265,277.381 855.677,301.733 " fill="none" id="GET /books 200 Response-to-Book" style="stroke:#A80036;stroke-width:1.0;"/><polygon fill="#A80036" points="856.186,306.875,859.2794,297.5245,855.6931,301.8993,851.3183,298.3131,856.186,306.875" style="stroke:#A80036;stroke-width:1.0;"/><text fill="#000000" font-family="sans-serif" font-size="13" lengthAdjust="spacing" textLength="7" x="848.0168" y="295.9026">*</text><!--MD5=[eeeef19b3a8e5525f9c68a55b1454b57]
link GET /books to GET /books 200 Response--><path codeLine="61" d="M916.148,99.209 C900.117,122.7 880.956,150.778 866.713,171.648 " fill="none" id="GET /books-to-GET /books 200 Response" style="stroke:#A80036;stroke-width:1.0;stroke-dasharray:7.0,7.0;"/><polygon fill="#A80036" points="863.752,175.987,872.1292,170.808,866.5705,171.8571,865.5214,166.2984,863.752,175.987" style="stroke:#A80036;stroke-width:1.0;"/><text fill="#000000" font-family="sans-serif" font-size="13" lengthAdjust="spacing" textLength="24" x="895" y="142.0669">200</text><!--MD5=[9e5ce4e22bba7d2582b2c765ce75efde]
link GET /books to GET /books 401 Response--><path codeLine="64" d="M1008.13,99.008 C1042.25,124.135 1083.57,154.561 1112.42,175.801 " fill="none" id="GET /books-to-GET /books 401 Response" style="stroke:#A80036;stroke-width:1.0;stroke-dasharray:7.0,7.0;"/><polygon fill="#A80036" points="1116.58,178.867,1111.6946,170.3152,1112.5503,175.907,1106.9586,176.7627,1116.58,178.867" style="stroke:#A80036;stroke-width:1.0;"/><text fill="#000000" font-family="sans-serif" font-size="13" lengthAdjust="spacing" textLength="24" x="1072" y="142.0669">401</text><!--MD5=[9d51a88ab644a29f9d5554ed47199a1e]
link GET /books to Error--><path codeLine="66" d="M885.463,61.762 C806.029,74.328 666.569,105.271 570,176 C520.447,212.294 482.722,273.621 461.467,314.334 " fill="none" id="GET /books-to-Error" style="stroke:#A80036;stroke-width:1.0;stroke-dasharray:7.0,7.0;"/><polygon fill="#A80036" points="458.957,319.194,466.6421,313.0346,461.2523,314.752,459.5349,309.3621,458.957,319.194" style="stroke:#A80036;stroke-width:1.0;"/><text fill="#000000" font-family="sans-serif" font-size="13" lengthAdjust="spacing" textLength="24" x="571" y="207.5669">400</text><!--MD5=[712ae87b5092e0b79371a16ea00ccc41]
link POST /books to Book--><path codeLine="71" d="M687.559,230.255 C704.869,244.415 726.849,262.011 747,277 C758.953,285.891 771.801,295.079 784.411,303.899 " fill="none" id="POST /books-to-Book" style="stroke:#A80036;stroke-width:1.0;stroke-dasharray:7.0,7.0;"/><polygon fill="#A80036" points="788.677,306.875,783.5845,298.4449,784.5763,304.0141,779.0071,305.0059,788.677,306.875" style="stroke:#A80036;stroke-width:1.0;"/><text fill="#000000" font-family="sans-serif" font-size="13" lengthAdjust="spacing" textLength="24" x="748" y="273.0669">201</text><!--MD5=[712ae87b5092e0b79371a16ea00ccc41]
link POST /books to Book--><path codeLine="78" d="M698.126,218.481 C722.537,228.054 753.074,242.134 777,260 C793.147,272.058 808.457,287.656 821.475,302.738 " fill="none" id="POST /books-to-Book-1" style="stroke:#A80036;stroke-width:1.0;"/><polygon fill="#A80036" points="824.734,306.558,821.9359,297.115,821.4889,302.7542,815.8497,302.3072,824.734,306.558" style="stroke:#A80036;stroke-width:1.0;"/><!--MD5=[4356fb2a99c7e084864d271c21813bc7]
link POST /books to Error--><path codeLine="73" d="M619.212,230.044 C585.659,253.797 535.615,289.226 497.256,316.382 " fill="none" id="POST /books-to-Error" style="stroke:#A80036;stroke-width:1.0;stroke-dasharray:7.0,7.0;"/><polygon fill="#A80036" points="493.111,319.317,502.7676,317.3805,497.1916,316.4276,498.1445,310.8516,493.111,319.317" style="stroke:#A80036;stroke-width:1.0;"/><text fill="#000000" font-family="sans-serif" font-size="13" lengthAdjust="spacing" textLength="24" x="576" y="273.0669">400</text><!--MD5=[c98e1213f0b4bfbdf390fdbfb7606ba7]
link POST /books to POST /books 401 Response--><path codeLine="76" d="M654.589,230.21 C654.085,239.606 653.515,250.277 653,260 C651.804,282.58 650.465,308.165 649.474,327.166 " fill="none" id="POST /books-to-POST /books 401 Response" style="stroke:#A80036;stroke-width:1.0;stroke-dasharray:7.0,7.0;"/><polygon fill="#A80036" points="649.205,332.342,653.6675,323.5621,649.4649,327.3488,645.6783,323.1462,649.205,332.342" style="stroke:#A80036;stroke-width:1.0;"/><text fill="#000000" font-family="sans-serif" font-size="13" lengthAdjust="spacing" textLength="24" x="654" y="273.0669">401</text><!--MD5=[ae0c4da99d5588654efc19478d8a93bf]
link GET /books to BookGenre--><path codeLine="80" d="M952.329,99.176 C955.005,122.168 958.253,150.564 961,176 C973.699,293.579 987.449,433.185 993.642,496.807 " fill="none" id="GET /books-to-BookGenre" style="stroke:#A80036;stroke-width:1.0;"/><polygon fill="#A80036" points="994.146,501.9904,997.2559,492.6454,993.6619,497.0139,989.2934,493.4199,994.146,501.9904" style="stroke:#A80036;stroke-width:1.0;"/><text fill="#000000" font-family="sans-serif" font-size="13" lengthAdjust="spacing" textLength="37" x="973" y="273.0669">genre</text><text fill="#000000" font-family="sans-serif" font-size="13" lengthAdjust="spacing" textLength="8" x="984.6467" y="490.7786">1</text><!--MD5=[fde8d1c22e6552758171b9089a77d144]
@startuml
set namespaceSeparator none

class "AccessToken" {
  accessToken : string
  expiresAt : timestamp
}

class "Error" {
  code : string
  message : timestamp
}

class "Author" {
  fullname : string
  country : string {O}
  birthYear : date {O}
  gender : string {O}
}

class "BookGenre" {
  value : string
}

class "Book" {
  id : integer
  title : string
  totalPages : integer
  publishingHouse : string
}

"Book" - -> "0..1" "BookGenre" : genre

"Book" - -> "1" "Author" : author
hide <<Method>> circle

class "POST /login" <<Method>> {
}

"POST /login" ..> "AccessToken": 200

"POST /login" ..> "Error": 400

class "POST /login Request" <<Request Body>> {
  username : string
  password : string
}

"POST /login" - -> "POST /login Request"

class "GET /books" <<Method>> {
  offset : integer
  limit : integer
  search : string {O}
}

class "GET /books 200 Response" <<Response>> {
}

"GET /books 200 Response" - -> "*" "Book"

"GET /books" ..> "GET /books 200 Response": 200
class "GET /books 401 Response"{}

"GET /books" ..> "GET /books 401 Response": 401

"GET /books" ..> "Error": 400

class "POST /books" <<Method>> {
}

"POST /books" ..> "Book": 201

"POST /books" ..> "Error": 400
class "POST /books 401 Response"{}

"POST /books" ..> "POST /books 401 Response": 401

"POST /books" - -> "Book"

"GET /books" - -> "1" "BookGenre" : "genre"

@enduml

PlantUML version 1.2021.2(Sun Mar 07 22:10:27 AEDT 2021)
(GPL source distribution)
Java Runtime: Java(TM) SE Runtime Environment
JVM: Java HotSpot(TM) 64-Bit Server VM
Default Encoding: UTF-8
Language: en
Country: US
--></g></svg>