<?xml version="1.0" encoding="UTF-8" standalone="no"?><svg xmlns="http://www.w3.org/2000/svg" xmlns:xlink="http://www.w3.org/1999/xlink" contentScriptType="application/ecmascript" contentStyleType="text/css" height="590px" preserveAspectRatio="none" style="width:1084px;height:590px;" version="1.1" viewBox="0 0 1084 590" width="1084px" zoomAndPan="magnify"><defs><filter height="300%" id="f10p8qewgbvopx" width="300%" x="-1" y="-1"><feGaussianBlur result="blurOut" stdDeviation="2.0"/><feColorMatrix in="blurOut" result="blurOut2" type="matrix" values="0 0 0 0 0 0 0 0 0 0 0 0 0 0 0 0 0 0 .4 0"/><feOffset dx="4.0" dy="4.0" in="blurOut2" result="blurOut3"/><feBlend in="SourceGraphic" in2="blurOut3" mode="normal"/></filter></defs><g><!--MD5=[480b55fe24535af2551deb761fe5417e]
class AccessToken--><rect codeLine="6" fill="#FEFECE" filter="url(#f10p8qewgbvopx)" height="65.6094" id="AccessToken" style="stroke:#A80036;stroke-width:1.5;" width="138" x="7" y="171"/><ellipse cx="32.8" cy="187" fill="#ADD1B2" rx="11" ry="11" style="stroke:#A80036;stroke-width:1.0;"/><path d="M35.7688,192.6406 Q35.1906,192.9375 34.55,193.0781 Q33.9094,193.2344 33.2063,193.2344 Q30.7062,193.2344 29.3781,191.5938 Q28.0656,189.9375 28.0656,186.8125 Q28.0656,183.6875 29.3781,182.0313 Q30.7062,180.375 33.2063,180.375 Q33.9094,180.375 34.55,180.5313 Q35.2063,180.6875 35.7688,180.9844 L35.7688,183.7031 Q35.1438,183.125 34.55,182.8594 Q33.9563,182.5781 33.3313,182.5781 Q31.9875,182.5781 31.3,183.6563 Q30.6125,184.7188 30.6125,186.8125 Q30.6125,188.9063 31.3,189.9844 Q31.9875,191.0469 33.3313,191.0469 Q33.9563,191.0469 34.55,190.7813 Q35.1438,190.5 35.7688,189.9219 L35.7688,192.6406 Z " fill="#000000"/><text fill="#000000" font-family="sans-serif" font-size="12" lengthAdjust="spacing" textLength="82" x="49.2" y="191.1543">AccessToken</text><line style="stroke:#A80036;stroke-width:1.5;" x1="8" x2="144" y1="203" y2="203"/><text fill="#000000" font-family="sans-serif" font-size="11" lengthAdjust="spacing" textLength="119" x="13" y="217.2104">accessToken : string</text><text fill="#000000" font-family="sans-serif" font-size="11" lengthAdjust="spacing" textLength="126" x="13" y="230.0151">expiresAt : timestamp</text><!--MD5=[b8cfd8c4119a3b0a7a46bfc5fc780f85]
class Error--><rect codeLine="11" fill="#FEFECE" filter="url(#f10p8qewgbvopx)" height="65.6094" id="Error" style="stroke:#A80036;stroke-width:1.5;" width="138" x="373" y="171"/><ellipse cx="422.25" cy="187" fill="#ADD1B2" rx="11" ry="11" style="stroke:#A80036;stroke-width:1.0;"/><path d="M425.2188,192.6406 Q424.6406,192.9375 424,193.0781 Q423.3594,193.2344 422.6563,193.2344 Q420.1563,193.2344 418.8281,191.5938 Q417.5156,189.9375 417.5156,186.8125 Q417.5156,183.6875 418.8281,182.0313 Q420.1563,180.375 422.6563,180.375 Q423.3594,180.375 424,180.5313 Q424.6563,180.6875 425.2188,180.9844 L425.2188,183.7031 Q424.5938,183.125 424,182.8594 Q423.4063,182.5781 422.7813,182.5781 Q421.4375,182.5781 420.75,183.6563 Q420.0625,184.7188 420.0625,186.8125 Q420.0625,188.9063 420.75,189.9844 Q421.4375,191.0469 422.7813,191.0469 Q423.4063,191.0469 424,190.7813 Q424.5938,190.5 425.2188,189.9219 L425.2188,192.6406 Z " fill="#000000"/><text fill="#000000" font-family="sans-serif" font-size="12" lengthAdjust="spacing" textLength="31" x="442.75" y="191.1543">Error</text><line style="stroke:#A80036;stroke-width:1.5;" x1="374" x2="510" y1="203" y2="203"/><text fill="#000000" font-family="sans-serif" font-size="11" lengthAdjust="spacing" textLength="72" x="379" y="217.2104">code : string</text><text fill="#000000" font-family="sans-serif" font-size="11" lengthAdjust="spacing" textLength="126" x="379" y="230.0151">message : timestamp</text><!--MD5=[c3f280b58e8dd0683e81b8ec31306a35]
class Author--><rect codeLine="16" fill="#FEFECE" filter="url(#f10p8qewgbvopx)" height="91.2188" id="Author" style="stroke:#A80036;stroke-width:1.5;" width="128" x="913" y="485"/><ellipse cx="952.3" cy="501" fill="#ADD1B2" rx="11" ry="11" style="stroke:#A80036;stroke-width:1.0;"/><path d="M955.2688,506.6406 Q954.6906,506.9375 954.05,507.0781 Q953.4094,507.2344 952.7063,507.2344 Q950.2063,507.2344 948.8781,505.5938 Q947.5656,503.9375 947.5656,500.8125 Q947.5656,497.6875 948.8781,496.0313 Q950.2063,494.375 952.7063,494.375 Q953.4094,494.375 954.05,494.5313 Q954.7063,494.6875 955.2688,494.9844 L955.2688,497.7031 Q954.6438,497.125 954.05,496.8594 Q953.4563,496.5781 952.8313,496.5781 Q951.4875,496.5781 950.8,497.6563 Q950.1125,498.7188 950.1125,500.8125 Q950.1125,502.9063 950.8,503.9844 Q951.4875,505.0469 952.8313,505.0469 Q953.4563,505.0469 954.05,504.7813 Q954.6438,504.5 955.2688,503.9219 L955.2688,506.6406 Z " fill="#000000"/><text fill="#000000" font-family="sans-serif" font-size="12" lengthAdjust="spacing" textLength="42" x="971.7" y="505.1543">Author</text><line style="stroke:#A80036;stroke-width:1.5;" x1="914" x2="1040" y1="517" y2="517"/><text fill="#000000" font-family="sans-serif" font-size="11" lengthAdjust="spacing" textLength="94" x="919" y="531.2104">fullname : string</text><text fill="#000000" font-family="sans-serif" font-size="11" lengthAdjust="spacing" textLength="114" x="919" y="544.0151">country : string {O}</text><text fill="#000000" font-family="sans-serif" font-size="11" lengthAdjust="spacing" textLength="116" x="919" y="556.8198">birthYear : date {O}</text><text fill="#000000" font-family="sans-serif" font-size="11" lengthAdjust="spacing" textLength="112" x="919" y="569.6245">gender : string {O}</text><!--MD5=[838cb3b9b512e84757c00d0249b7cc0a]
class BookGenre--><rect codeLine="23" fill="#FEFECE" filter="url(#f10p8qewgbvopx)" height="52.8047" id="BookGenre" style="stroke:#A80036;stroke-width:1.5;" width="101" x="601.5" y="504"/><ellipse cx="616.5" cy="520" fill="#ADD1B2" rx="11" ry="11" style="stroke:#A80036;stroke-width:1.0;"/><path d="M619.4688,525.6406 Q618.8906,525.9375 618.25,526.0781 Q617.6094,526.2344 616.9063,526.2344 Q614.4063,526.2344 613.0781,524.5938 Q611.7656,522.9375 611.7656,519.8125 Q611.7656,516.6875 613.0781,515.0313 Q614.4063,513.375 616.9063,513.375 Q617.6094,513.375 618.25,513.5313 Q618.9063,513.6875 619.4688,513.9844 L619.4688,516.7031 Q618.8438,516.125 618.25,515.8594 Q617.6563,515.5781 617.0313,515.5781 Q615.6875,515.5781 615,516.6563 Q614.3125,517.7188 614.3125,519.8125 Q614.3125,521.9063 615,522.9844 Q615.6875,524.0469 617.0313,524.0469 Q617.6563,524.0469 618.25,523.7813 Q618.8438,523.5 619.4688,522.9219 L619.4688,525.6406 Z " fill="#000000"/><text fill="#000000" font-family="sans-serif" font-size="12" lengthAdjust="spacing" textLength="69" x="630.5" y="524.1543">BookGenre</text><line style="stroke:#A80036;stroke-width:1.5;" x1="602.5" x2="701.5" y1="536" y2="536"/><text fill="#000000" font-family="sans-serif" font-size="11" lengthAdjust="spacing" textLength="75" x="607.5" y="550.2104">value : string</text><!--MD5=[84e3a5e42879fb3231104d3c8e592439]
class Book--><rect codeLine="27" fill="#FEFECE" filter="url(#f10p8qewgbvopx)" height="91.2188" id="Book" style="stroke:#A80036;stroke-width:1.5;" width="151" x="901.5" y="317"/><ellipse cx="957.25" cy="333" fill="#ADD1B2" rx="11" ry="11" style="stroke:#A80036;stroke-width:1.0;"/><path d="M960.2188,338.6406 Q959.6406,338.9375 959,339.0781 Q958.3594,339.2344 957.6563,339.2344 Q955.1563,339.2344 953.8281,337.5938 Q952.5156,335.9375 952.5156,332.8125 Q952.5156,329.6875 953.8281,328.0313 Q955.1563,326.375 957.6563,326.375 Q958.3594,326.375 959,326.5313 Q959.6563,326.6875 960.2188,326.9844 L960.2188,329.7031 Q959.5938,329.125 959,328.8594 Q958.4063,328.5781 957.7813,328.5781 Q956.4375,328.5781 955.75,329.6563 Q955.0625,330.7188 955.0625,332.8125 Q955.0625,334.9063 955.75,335.9844 Q956.4375,337.0469 957.7813,337.0469 Q958.4063,337.0469 959,336.7813 Q959.5938,336.5 960.2188,335.9219 L960.2188,338.6406 Z " fill="#000000"/><text fill="#000000" font-family="sans-serif" font-size="12" lengthAdjust="spacing" textLength="31" x="977.75" y="337.1543">Book</text><line style="stroke:#A80036;stroke-width:1.5;" x1="902.5" x2="1051.5" y1="349" y2="349"/><text fill="#000000" font-family="sans-serif" font-size="11" lengthAdjust="spacing" textLength="62" x="907.5" y="363.2104">id : integer</text><text fill="#000000" font-family="sans-serif" font-size="11" lengthAdjust="spacing" textLength="66" x="907.5" y="376.0151">title : string</text><text fill="#000000" font-family="sans-serif" font-size="11" lengthAdjust="spacing" textLength="112" x="907.5" y="388.8198">totalPages : integer</text><text fill="#000000" font-family="sans-serif" font-size="11" lengthAdjust="spacing" textLength="139" x="907.5" y="401.6245">publishingHouse : string</text><!--MD5=[2b9df03c28d9cb9ddfcbffc750f34f92]
class POST /login--><rect codeLine="38" fill="#FEFECE" filter="url(#f10p8qewgbvopx)" height="37.9375" id="POST /login" style="stroke:#A80036;stroke-width:1.5;" width="76" x="221" y="30"/><text fill="#000000" font-family="sans-serif" font-size="12" font-style="italic" lengthAdjust="spacing" textLength="61" x="228.5" y="46.1387">«Method»</text><text fill="#000000" font-family="sans-serif" font-size="12" lengthAdjust="spacing" textLength="70" x="224" y="60.1074">POST /login</text><!--MD5=[7ed6c87dba96c2e22350af2d871c6ccf]
class POST /login Request--><rect codeLine="45" fill="#FEFECE" filter="url(#f10p8qewgbvopx)" height="71.5469" id="POST /login Request" style="stroke:#A80036;stroke-width:1.5;" width="158" x="180" y="168"/><ellipse cx="195" cy="186.9688" fill="#ADD1B2" rx="11" ry="11" style="stroke:#A80036;stroke-width:1.0;"/><path d="M197.9688,192.6094 Q197.3906,192.9063 196.75,193.0469 Q196.1094,193.2031 195.4063,193.2031 Q192.9063,193.2031 191.5781,191.5625 Q190.2656,189.9063 190.2656,186.7813 Q190.2656,183.6563 191.5781,182 Q192.9063,180.3438 195.4063,180.3438 Q196.1094,180.3438 196.75,180.5 Q197.4063,180.6563 197.9688,180.9531 L197.9688,183.6719 Q197.3438,183.0938 196.75,182.8281 Q196.1563,182.5469 195.5313,182.5469 Q194.1875,182.5469 193.5,183.625 Q192.8125,184.6875 192.8125,186.7813 Q192.8125,188.875 193.5,189.9531 Q194.1875,191.0156 195.5313,191.0156 Q196.1563,191.0156 196.75,190.75 Q197.3438,190.4688 197.9688,189.8906 L197.9688,192.6094 Z " fill="#000000"/><text fill="#000000" font-family="sans-serif" font-size="12" font-style="italic" lengthAdjust="spacing" textLength="100" x="222" y="184.1387">«Request Body»</text><text fill="#000000" font-family="sans-serif" font-size="12" lengthAdjust="spacing" textLength="126" x="209" y="198.1074">POST /login Request</text><line style="stroke:#A80036;stroke-width:1.5;" x1="181" x2="337" y1="205.9375" y2="205.9375"/><text fill="#000000" font-family="sans-serif" font-size="11" lengthAdjust="spacing" textLength="103" x="186" y="220.1479">username : string</text><text fill="#000000" font-family="sans-serif" font-size="11" lengthAdjust="spacing" textLength="101" x="186" y="232.9526">password : string</text><!--MD5=[5e99ce8bea90170f1a35f5d25331a19c]
class GET /books--><rect codeLine="52" fill="#FEFECE" filter="url(#f10p8qewgbvopx)" height="84.3516" id="GET /books" style="stroke:#A80036;stroke-width:1.5;" width="123" x="554.5" y="7"/><text fill="#000000" font-family="sans-serif" font-size="12" font-style="italic" lengthAdjust="spacing" textLength="61" x="585.5" y="23.1387">«Method»</text><text fill="#000000" font-family="sans-serif" font-size="12" lengthAdjust="spacing" textLength="70" x="581" y="37.1074">GET /books</text><line style="stroke:#A80036;stroke-width:1.5;" x1="555.5" x2="676.5" y1="44.9375" y2="44.9375"/><text fill="#000000" font-family="sans-serif" font-size="11" lengthAdjust="spacing" textLength="85" x="560.5" y="59.1479">offset : integer</text><text fill="#000000" font-family="sans-serif" font-size="11" lengthAdjust="spacing" textLength="76" x="560.5" y="71.9526">limit : integer</text><text fill="#000000" font-family="sans-serif" font-size="11" lengthAdjust="spacing" textLength="111" x="560.5" y="84.7573">search : string {O}</text><!--MD5=[e1268eccee0ebb0811aa10f4cd8afac1]
class GET /books 200 Response--><rect codeLine="58" fill="#FEFECE" filter="url(#f10p8qewgbvopx)" height="37.9375" id="GET /books 200 Response" style="stroke:#A80036;stroke-width:1.5;" width="196" x="617" y="185"/><ellipse cx="632" cy="203.9688" fill="#ADD1B2" rx="11" ry="11" style="stroke:#A80036;stroke-width:1.0;"/><path d="M634.9688,209.6094 Q634.3906,209.9063 633.75,210.0469 Q633.1094,210.2031 632.4063,210.2031 Q629.9063,210.2031 628.5781,208.5625 Q627.2656,206.9063 627.2656,203.7813 Q627.2656,200.6563 628.5781,199 Q629.9063,197.3438 632.4063,197.3438 Q633.1094,197.3438 633.75,197.5 Q634.4063,197.6563 634.9688,197.9531 L634.9688,200.6719 Q634.3438,200.0938 633.75,199.8281 Q633.1563,199.5469 632.5313,199.5469 Q631.1875,199.5469 630.5,200.625 Q629.8125,201.6875 629.8125,203.7813 Q629.8125,205.875 630.5,206.9531 Q631.1875,208.0156 632.5313,208.0156 Q633.1563,208.0156 633.75,207.75 Q634.3438,207.4688 634.9688,206.8906 L634.9688,209.6094 Z " fill="#000000"/><text fill="#000000" font-family="sans-serif" font-size="12" font-style="italic" lengthAdjust="spacing" textLength="74" x="691" y="201.1387">«Response»</text><text fill="#000000" font-family="sans-serif" font-size="12" lengthAdjust="spacing" textLength="164" x="646" y="215.1074">GET /books 200 Response</text><!--MD5=[e2b95b101f0494a418d91c87d5c90f1d]
class UnauthorizedError--><rect fill="#FEFECE" filter="url(#f10p8qewgbvopx)" height="32" id="UnauthorizedError" style="stroke:#A80036;stroke-width:1.5;" width="146" x="848" y="188"/><ellipse cx="863" cy="204" fill="#ADD1B2" rx="11" ry="11" style="stroke:#A80036;stroke-width:1.0;"/><path d="M865.9688,209.6406 Q865.3906,209.9375 864.75,210.0781 Q864.1094,210.2344 863.4063,210.2344 Q860.9063,210.2344 859.5781,208.5938 Q858.2656,206.9375 858.2656,203.8125 Q858.2656,200.6875 859.5781,199.0313 Q860.9063,197.375 863.4063,197.375 Q864.1094,197.375 864.75,197.5313 Q865.4063,197.6875 865.9688,197.9844 L865.9688,200.7031 Q865.3438,200.125 864.75,199.8594 Q864.1563,199.5781 863.5313,199.5781 Q862.1875,199.5781 861.5,200.6563 Q860.8125,201.7188 860.8125,203.8125 Q860.8125,205.9063 861.5,206.9844 Q862.1875,208.0469 863.5313,208.0469 Q864.1563,208.0469 864.75,207.7813 Q865.3438,207.5 865.9688,206.9219 L865.9688,209.6406 Z " fill="#000000"/><text fill="#000000" font-family="sans-serif" font-size="12" lengthAdjust="spacing" textLength="114" x="877" y="208.1543">UnauthorizedError</text><!--MD5=[77bd6de3d50bbd86e1697f981634415e]
class POST /books--><rect codeLine="69" fill="#FEFECE" filter="url(#f10p8qewgbvopx)" height="37.9375" id="POST /books" style="stroke:#A80036;stroke-width:1.5;" width="84" x="986" y="30"/><text fill="#000000" font-family="sans-serif" font-size="12" font-style="italic" lengthAdjust="spacing" textLength="61" x="997.5" y="46.1387">«Method»</text><text fill="#000000" font-family="sans-serif" font-size="12" lengthAdjust="spacing" textLength="78" x="989" y="60.1074">POST /books</text><!--MD5=[7efc6e0f254cd69f1fdf08743ee3b607]
link Book to BookGenre--><path codeLine="34" d="M901.21,402.21 C841.67,432.62 760.17,474.25 706.83,501.5 " fill="none" id="Book-to-BookGenre" style="stroke:#A80036;stroke-width:1.0;"/><polygon fill="#A80036" points="702.07,503.92,711.905,503.3974,706.5249,501.6497,708.2726,496.2696,702.07,503.92" style="stroke:#A80036;stroke-width:1.0;"/><text fill="#000000" font-family="sans-serif" font-size="13" lengthAdjust="spacing" textLength="37" x="826" y="451.0669">genre</text><text fill="#000000" font-family="sans-serif" font-size="13" lengthAdjust="spacing" textLength="24" x="686.8737" y="493.1438">0..1</text><!--MD5=[708ece48ef120737d1cb93104a627dff]
link Book to Author--><path codeLine="36" d="M977,408.42 C977,430.47 977,457.1 977,479.76 " fill="none" id="Book-to-Author" style="stroke:#A80036;stroke-width:1.0;"/><polygon fill="#A80036" points="977,484.83,981,475.83,977,479.83,973,475.83,977,484.83" style="stroke:#A80036;stroke-width:1.0;"/><text fill="#000000" font-family="sans-serif" font-size="13" lengthAdjust="spacing" textLength="42" x="978" y="451.0669">author</text><text fill="#000000" font-family="sans-serif" font-size="13" lengthAdjust="spacing" textLength="8" x="968.4125" y="474.0812">1</text><!--MD5=[7ba95e1d098153b54f522cf8b99e6133]
link POST /login to AccessToken--><path codeLine="41" d="M237.29,68.15 C208.15,92.52 155.76,136.32 118.6,167.38 " fill="none" id="POST /login-to-AccessToken" style="stroke:#A80036;stroke-width:1.0;stroke-dasharray:7.0,7.0;"/><polygon fill="#A80036" points="114.6,170.73,124.0708,168.0273,118.4364,167.5234,118.9403,161.8891,114.6,170.73" style="stroke:#A80036;stroke-width:1.0;"/><text fill="#000000" font-family="sans-serif" font-size="13" lengthAdjust="spacing" textLength="24" x="174" y="134.0669">200</text><!--MD5=[57665c253550576375cc7673b1742735]
link POST /login to Error--><path codeLine="43" d="M280.71,68.15 C309.85,92.52 362.24,136.32 399.4,167.38 " fill="none" id="POST /login-to-Error" style="stroke:#A80036;stroke-width:1.0;stroke-dasharray:7.0,7.0;"/><polygon fill="#A80036" points="403.4,170.73,399.0597,161.8891,399.5636,167.5234,393.9292,168.0273,403.4,170.73" style="stroke:#A80036;stroke-width:1.0;"/><text fill="#000000" font-family="sans-serif" font-size="13" lengthAdjust="spacing" textLength="24" x="363" y="134.0669">400</text><!--MD5=[4c00e1ac54b502d4a11aaf95726f8a2a]
link POST /login to POST /login Request--><path codeLine="50" d="M259,68.15 C259,91.27 259,131.9 259,162.54 " fill="none" id="POST /login-to-POST /login Request" style="stroke:#A80036;stroke-width:1.0;"/><polygon fill="#A80036" points="259,167.75,263,158.75,259,162.75,255,158.75,259,167.75" style="stroke:#A80036;stroke-width:1.0;"/><!--MD5=[7ce4f6434dfa7bc1b0a9df6d13e53d6a]
link GET /books 200 Response to Book--><path codeLine="61" d="M745.31,223.11 C782.39,245.25 846.57,283.59 897.99,314.3 " fill="none" id="GET /books 200 Response-to-Book" style="stroke:#A80036;stroke-width:1.0;"/><polygon fill="#A80036" points="902.29,316.87,896.6305,308.8096,898.0025,314.2975,892.5146,315.6695,902.29,316.87" style="stroke:#A80036;stroke-width:1.0;"/><text fill="#000000" font-family="sans-serif" font-size="13" lengthAdjust="spacing" textLength="7" x="886.7358" y="308.1211">*</text><!--MD5=[eeeef19b3a8e5525f9c68a55b1454b57]
link GET /books to GET /books 200 Response--><path codeLine="63" d="M642.53,91 C661.19,119.83 685.44,157.31 700.61,180.76 " fill="none" id="GET /books-to-GET /books 200 Response" style="stroke:#A80036;stroke-width:1.0;stroke-dasharray:7.0,7.0;"/><polygon fill="#A80036" points="703.34,184.97,701.7912,175.2437,700.6161,180.7771,695.0826,179.602,703.34,184.97" style="stroke:#A80036;stroke-width:1.0;"/><text fill="#000000" font-family="sans-serif" font-size="13" lengthAdjust="spacing" textLength="24" x="673" y="134.0669">200</text><!--MD5=[fb0fbcc8eb6e9636ff08105e103cd93c]
link GET /books to UnauthorizedError--><path codeLine="65" d="M677.72,80.96 C740.45,112.43 835.4,160.06 886.13,185.51 " fill="none" id="GET /books-to-UnauthorizedError" style="stroke:#A80036;stroke-width:1.0;stroke-dasharray:7.0,7.0;"/><polygon fill="#A80036" points="890.9,187.9,884.6585,180.2814,886.4336,185.6525,881.0625,187.4276,890.9,187.9" style="stroke:#A80036;stroke-width:1.0;"/><text fill="#000000" font-family="sans-serif" font-size="13" lengthAdjust="spacing" textLength="24" x="788" y="134.0669">401</text><!--MD5=[9d51a88ab644a29f9d5554ed47199a1e]
link GET /books to Error--><path codeLine="67" d="M554.3,88.15 C539.86,98.14 524.93,109.39 512,121 C496.72,134.72 481.69,151.73 469.49,166.7 " fill="none" id="GET /books-to-Error" style="stroke:#A80036;stroke-width:1.0;stroke-dasharray:7.0,7.0;"/><polygon fill="#A80036" points="466.13,170.87,474.8999,166.3879,469.2743,166.9824,468.6798,161.3569,466.13,170.87" style="stroke:#A80036;stroke-width:1.0;"/><text fill="#000000" font-family="sans-serif" font-size="13" lengthAdjust="spacing" textLength="24" x="513" y="134.0669">400</text><!--MD5=[712ae87b5092e0b79371a16ea00ccc41]
link POST /books to Book--><path codeLine="72" d="M1027.65,68.23 C1026.74,102.27 1023.49,177.66 1012,240 C1007.56,264.08 1000.34,290.25 993.61,312.11 " fill="none" id="POST /books-to-Book" style="stroke:#A80036;stroke-width:1.0;stroke-dasharray:7.0,7.0;"/><polygon fill="#A80036" points="992.1,317,998.5948,309.5961,993.5865,312.2261,990.9565,307.2177,992.1,317" style="stroke:#A80036;stroke-width:1.0;"/><text fill="#000000" font-family="sans-serif" font-size="13" lengthAdjust="spacing" textLength="24" x="1022" y="208.5669">201</text><!--MD5=[712ae87b5092e0b79371a16ea00ccc41]
link POST /books to Book--><path codeLine="78" d="M1035.22,68.07 C1047.81,102.16 1070.99,178.06 1055,240 C1048.24,266.17 1033.35,291.84 1018.36,312.8 " fill="none" id="POST /books-to-Book-1" style="stroke:#A80036;stroke-width:1.0;"/><polygon fill="#A80036" points="1015.36,316.93,1023.8823,311.9933,1018.2958,312.8826,1017.4065,307.2961,1015.36,316.93" style="stroke:#A80036;stroke-width:1.0;"/><!--MD5=[4356fb2a99c7e084864d271c21813bc7]
link POST /books to Error--><path codeLine="74" d="M993.5,68.07 C953.23,88.34 884.07,120.67 821,138 C724.99,164.38 697.01,150.49 599,168 C571.94,172.84 542.48,179.13 516.46,185.04 " fill="none" id="POST /books-to-Error" style="stroke:#A80036;stroke-width:1.0;stroke-dasharray:7.0,7.0;"/><polygon fill="#A80036" points="511.3,186.22,520.9653,188.1125,516.1741,185.1051,519.1815,180.3139,511.3,186.22" style="stroke:#A80036;stroke-width:1.0;"/><text fill="#000000" font-family="sans-serif" font-size="13" lengthAdjust="spacing" textLength="24" x="868" y="134.0669">400</text><!--MD5=[c906920510fbe9ac7ebf7399e2a9341d]
link POST /books to UnauthorizedError--><path codeLine="76" d="M1015.31,68.15 C995.04,97.12 955.56,153.58 934.69,183.43 " fill="none" id="POST /books-to-UnauthorizedError" style="stroke:#A80036;stroke-width:1.0;stroke-dasharray:7.0,7.0;"/><polygon fill="#A80036" points="931.75,187.63,940.1774,182.533,934.6087,183.5278,933.6139,177.9591,931.75,187.63" style="stroke:#A80036;stroke-width:1.0;"/><text fill="#000000" font-family="sans-serif" font-size="13" lengthAdjust="spacing" textLength="24" x="978" y="134.0669">401</text><!--MD5=[ae0c4da99d5588654efc19478d8a93bf]
link GET /books to BookGenre--><path codeLine="80" d="M608.61,91.07 C604.91,113.69 600.84,142.3 599,168 C590.16,291.39 625.54,436.57 642.91,498.74 " fill="none" id="GET /books-to-BookGenre" style="stroke:#A80036;stroke-width:1.0;"/><polygon fill="#A80036" points="644.33,503.78,645.7305,494.0312,642.9696,498.9686,638.0322,496.2078,644.33,503.78" style="stroke:#A80036;stroke-width:1.0;"/><text fill="#000000" font-family="sans-serif" font-size="13" lengthAdjust="spacing" textLength="37" x="603" y="283.0669">genre</text><text fill="#000000" font-family="sans-serif" font-size="13" lengthAdjust="spacing" textLength="8" x="633.6313" y="492.9715">1</text><!--MD5=[d15792709c3fcc547671c683aaf2f66c]
@startuml
hide <<Method>> circle
hide empty methods
hide empty fields
set namespaceSeparator none

class "AccessToken" {
  accessToken : string
  expiresAt : timestamp
}

class "Error" {
  code : string
  message : timestamp
}

class "Author" {
  fullname : string
  country : string {O}
  birthYear : date {O}
  gender : string {O}
}

class "BookGenre" {
  value : string
}

class "Book" {
  id : integer
  title : string
  totalPages : integer
  publishingHouse : string
}

"Book" - -> "0..1" "BookGenre" : genre

"Book" - -> "1" "Author" : author

class "POST /login" <<Method>> {
}

"POST /login" ..> "AccessToken": 200

"POST /login" ..> "Error": 400

class "POST /login Request" <<Request Body>> {
  username : string
  password : string
}

"POST /login" - -> "POST /login Request"

class "GET /books" <<Method>> {
  offset : integer
  limit : integer
  search : string {O}
}

class "GET /books 200 Response" <<Response>> {
}

"GET /books 200 Response" - -> "*" "Book"

"GET /books" ..> "GET /books 200 Response": 200

"GET /books" ..> "UnauthorizedError": 401

"GET /books" ..> "Error": 400

class "POST /books" <<Method>> {
}

"POST /books" ..> "Book": 201

"POST /books" ..> "Error": 400

"POST /books" ..> "UnauthorizedError": 401

"POST /books" - -> "Book"

"GET /books" - -> "1" "BookGenre" : "genre"

@enduml

PlantUML version 1.2021.2(Sun Mar 07 22:10:27 AEDT 2021)
(GPL source distribution)
Java Runtime: OpenJDK Runtime Environment
JVM: OpenJDK 64-Bit Server VM
Default Encoding: UTF-8
Language: en
Country: AU
--></g></svg>