<?xml version="1.0" encoding="us-ascii" standalone="no"?><svg xmlns="http://www.w3.org/2000/svg" xmlns:xlink="http://www.w3.org/1999/xlink" contentStyleType="text/css" height="631px" preserveAspectRatio="none" style="width:1115px;height:631px;background:#FFFFFF;" version="1.1" viewBox="0 0 1115 631" width="1115px" zoomAndPan="magnify"><defs/><g><!--class AccessToken--><g id="elem_AccessToken"><rect codeLine="8" fill="#F1F1F1" height="72.5938" id="AccessToken" rx="2.5" ry="2.5" style="stroke:#181818;stroke-width:0.5;" width="162" x="7" y="337"/><ellipse cx="38.2" cy="353" fill="#ADD1B2" rx="11" ry="11" style="stroke:#181818;stroke-width:1.0;"/><path d="M41.1688,358.6406 Q40.5906,358.9375 39.95,359.0781 Q39.3094,359.2344 38.6063,359.2344 Q36.1063,359.2344 34.7781,357.5938 Q33.4656,355.9375 33.4656,352.8125 Q33.4656,349.6875 34.7781,348.0313 Q36.1063,346.375 38.6063,346.375 Q39.3094,346.375 39.95,346.5313 Q40.6063,346.6875 41.1688,346.9844 L41.1688,349.7031 Q40.5438,349.125 39.95,348.8594 Q39.3563,348.5781 38.7313,348.5781 Q37.3875,348.5781 36.7,349.6563 Q36.0125,350.7188 36.0125,352.8125 Q36.0125,354.9063 36.7,355.9844 Q37.3875,357.0469 38.7313,357.0469 Q39.3563,357.0469 39.95,356.7813 Q40.5438,356.5 41.1688,355.9219 L41.1688,358.6406 Z " fill="#000000"/><text fill="#000000" font-family="sans-serif" font-size="14" lengthAdjust="spacing" textLength="94" x="55.8" y="357.8467">AccessToken</text><line style="stroke:#181818;stroke-width:0.5;" x1="8" x2="168" y1="369" y2="369"/><text fill="#000000" font-family="sans-serif" font-size="14" lengthAdjust="spacing" textLength="145" x="13" y="385.9951">accessToken : string</text><text fill="#000000" font-family="sans-serif" font-size="14" lengthAdjust="spacing" textLength="150" x="13" y="402.292">expiresAt : timestamp</text></g><!--class Error--><g id="elem_Error"><rect codeLine="13" fill="#F1F1F1" height="72.5938" id="Error" rx="2.5" ry="2.5" style="stroke:#181818;stroke-width:0.5;" width="162" x="415" y="337"/><ellipse cx="475.25" cy="353" fill="#ADD1B2" rx="11" ry="11" style="stroke:#181818;stroke-width:1.0;"/><path d="M478.2188,358.6406 Q477.6406,358.9375 477,359.0781 Q476.3594,359.2344 475.6563,359.2344 Q473.1563,359.2344 471.8281,357.5938 Q470.5156,355.9375 470.5156,352.8125 Q470.5156,349.6875 471.8281,348.0313 Q473.1563,346.375 475.6563,346.375 Q476.3594,346.375 477,346.5313 Q477.6563,346.6875 478.2188,346.9844 L478.2188,349.7031 Q477.5938,349.125 477,348.8594 Q476.4063,348.5781 475.7813,348.5781 Q474.4375,348.5781 473.75,349.6563 Q473.0625,350.7188 473.0625,352.8125 Q473.0625,354.9063 473.75,355.9844 Q474.4375,357.0469 475.7813,357.0469 Q476.4063,357.0469 477,356.7813 Q477.5938,356.5 478.2188,355.9219 L478.2188,358.6406 Z " fill="#000000"/><text fill="#000000" font-family="sans-serif" font-size="14" lengthAdjust="spacing" textLength="33" x="495.75" y="357.8467">Error</text><line style="stroke:#181818;stroke-width:0.5;" x1="416" x2="576" y1="369" y2="369"/><text fill="#000000" font-family="sans-serif" font-size="14" lengthAdjust="spacing" textLength="87" x="421" y="385.9951">code : string</text><text fill="#000000" font-family="sans-serif" font-size="14" lengthAdjust="spacing" textLength="150" x="421" y="402.292">message : timestamp</text></g><!--class Author--><g id="elem_Author"><rect codeLine="18" fill="#F1F1F1" height="105.1875" id="Author" rx="2.5" ry="2.5" style="stroke:#181818;stroke-width:0.5;" width="151" x="656.5" y="511"/><ellipse cx="704.75" cy="527" fill="#ADD1B2" rx="11" ry="11" style="stroke:#181818;stroke-width:1.0;"/><path d="M707.7188,532.6406 Q707.1406,532.9375 706.5,533.0781 Q705.8594,533.2344 705.1563,533.2344 Q702.6563,533.2344 701.3281,531.5938 Q700.0156,529.9375 700.0156,526.8125 Q700.0156,523.6875 701.3281,522.0313 Q702.6563,520.375 705.1563,520.375 Q705.8594,520.375 706.5,520.5313 Q707.1563,520.6875 707.7188,520.9844 L707.7188,523.7031 Q707.0938,523.125 706.5,522.8594 Q705.9063,522.5781 705.2813,522.5781 Q703.9375,522.5781 703.25,523.6563 Q702.5625,524.7188 702.5625,526.8125 Q702.5625,528.9063 703.25,529.9844 Q703.9375,531.0469 705.2813,531.0469 Q705.9063,531.0469 706.5,530.7813 Q707.0938,530.5 707.7188,529.9219 L707.7188,532.6406 Z " fill="#000000"/><text fill="#000000" font-family="sans-serif" font-size="14" lengthAdjust="spacing" textLength="46" x="725.25" y="531.8467">Author</text><line style="stroke:#181818;stroke-width:0.5;" x1="657.5" x2="806.5" y1="543" y2="543"/><text fill="#000000" font-family="sans-serif" font-size="14" lengthAdjust="spacing" textLength="110" x="662.5" y="559.9951">fullname : string</text><text fill="#000000" font-family="sans-serif" font-size="14" lengthAdjust="spacing" textLength="137" x="662.5" y="576.292">country : string {O}</text><text fill="#000000" font-family="sans-serif" font-size="14" lengthAdjust="spacing" textLength="139" x="662.5" y="592.5889">birthYear : date {O}</text><text fill="#000000" font-family="sans-serif" font-size="14" lengthAdjust="spacing" textLength="135" x="662.5" y="608.8857">gender : string {O}</text></g><!--class BookGenre--><g id="elem_BookGenre"><rect codeLine="25" fill="#F1F1F1" height="121.4844" id="BookGenre" rx="2.5" ry="2.5" style="stroke:#181818;stroke-width:0.5;" width="111" x="914.5" y="503"/><ellipse cx="929.5" cy="519" fill="#EB937F" rx="11" ry="11" style="stroke:#181818;stroke-width:1.0;"/><path d="M933.6094,525 L925.8906,525 L925.8906,512.6094 L933.6094,512.6094 L933.6094,514.7656 L928.3438,514.7656 L928.3438,517.4375 L933.1094,517.4375 L933.1094,519.5938 L928.3438,519.5938 L928.3438,522.8438 L933.6094,522.8438 L933.6094,525 Z " fill="#000000"/><text fill="#000000" font-family="sans-serif" font-size="14" lengthAdjust="spacing" textLength="79" x="943.5" y="523.8467">BookGenre</text><line style="stroke:#181818;stroke-width:0.5;" x1="915.5" x2="1024.5" y1="535" y2="535"/><text fill="#000000" font-family="sans-serif" font-size="14" lengthAdjust="spacing" textLength="63" x="920.5" y="551.9951">FANTASY</text><text fill="#000000" font-family="sans-serif" font-size="14" lengthAdjust="spacing" textLength="62" x="920.5" y="568.292">HORROR</text><text fill="#000000" font-family="sans-serif" font-size="14" lengthAdjust="spacing" textLength="57" x="920.5" y="584.5889">CLASSIC</text><text fill="#000000" font-family="sans-serif" font-size="14" lengthAdjust="spacing" textLength="54" x="920.5" y="600.8857">HOMOR</text><text fill="#000000" font-family="sans-serif" font-size="14" lengthAdjust="spacing" textLength="49" x="920.5" y="617.1826">OTHER</text></g><!--class Book--><g id="elem_Book"><rect codeLine="33" fill="#F1F1F1" height="105.1875" id="Book" rx="2.5" ry="2.5" style="stroke:#181818;stroke-width:0.5;" width="180" x="642" y="321"/><ellipse cx="709.75" cy="337" fill="#ADD1B2" rx="11" ry="11" style="stroke:#181818;stroke-width:1.0;"/><path d="M712.7188,342.6406 Q712.1406,342.9375 711.5,343.0781 Q710.8594,343.2344 710.1563,343.2344 Q707.6563,343.2344 706.3281,341.5938 Q705.0156,339.9375 705.0156,336.8125 Q705.0156,333.6875 706.3281,332.0313 Q707.6563,330.375 710.1563,330.375 Q710.8594,330.375 711.5,330.5313 Q712.1563,330.6875 712.7188,330.9844 L712.7188,333.7031 Q712.0938,333.125 711.5,332.8594 Q710.9063,332.5781 710.2813,332.5781 Q708.9375,332.5781 708.25,333.6563 Q707.5625,334.7188 707.5625,336.8125 Q707.5625,338.9063 708.25,339.9844 Q708.9375,341.0469 710.2813,341.0469 Q710.9063,341.0469 711.5,340.7813 Q712.0938,340.5 712.7188,339.9219 L712.7188,342.6406 Z " fill="#000000"/><text fill="#000000" font-family="sans-serif" font-size="14" lengthAdjust="spacing" textLength="36" x="730.25" y="341.8467">Book</text><line style="stroke:#181818;stroke-width:0.5;" x1="643" x2="821" y1="353" y2="353"/><text fill="#000000" font-family="sans-serif" font-size="14" lengthAdjust="spacing" textLength="74" x="648" y="369.9951">id : integer</text><text fill="#000000" font-family="sans-serif" font-size="14" lengthAdjust="spacing" textLength="77" x="648" y="386.292">title : string</text><text fill="#000000" font-family="sans-serif" font-size="14" lengthAdjust="spacing" textLength="135" x="648" y="402.5889">totalPages : integer</text><text fill="#000000" font-family="sans-serif" font-size="14" lengthAdjust="spacing" textLength="168" x="648" y="418.8857">publishingHouse : string</text></g><!--class UnauthorizedError--><g id="elem_UnauthorizedError"><rect codeLine="40" fill="#F1F1F1" height="40.2656" id="UnauthorizedError" rx="2.5" ry="2.5" style="stroke:#181818;stroke-width:0.5;" width="132" x="857" y="353.5"/><text fill="#000000" font-family="sans-serif" font-size="12" font-style="italic" lengthAdjust="spacing" textLength="74" x="886" y="369.6387">&#171;Response&#187;</text><text fill="#000000" font-family="sans-serif" font-size="14" lengthAdjust="spacing" textLength="126" x="860" y="385.4639">UnauthorizedError</text></g><!--class POST /login--><g id="elem_POST /login"><rect codeLine="43" fill="#F1F1F1" height="40.2656" id="POST /login" rx="2.5" ry="2.5" style="stroke:#181818;stroke-width:0.5;" width="86" x="249" y="181"/><text fill="#000000" font-family="sans-serif" font-size="12" font-style="italic" lengthAdjust="spacing" textLength="42" x="271" y="197.1387">&#171;Path&#187;</text><text fill="#000000" font-family="sans-serif" font-size="14" lengthAdjust="spacing" textLength="80" x="252" y="212.9639">POST /login</text></g><!--class POST /login Request--><g id="elem_POST /login Request"><rect codeLine="46" fill="#F1F1F1" height="80.8594" id="POST /login Request" rx="2.5" ry="2.5" style="stroke:#181818;stroke-width:0.5;" width="175" x="204.5" y="333"/><ellipse cx="219.5" cy="353.1328" fill="#ADD1B2" rx="11" ry="11" style="stroke:#181818;stroke-width:1.0;"/><path d="M222.4688,358.7734 Q221.8906,359.0703 221.25,359.2109 Q220.6094,359.3672 219.9063,359.3672 Q217.4063,359.3672 216.0781,357.7266 Q214.7656,356.0703 214.7656,352.9453 Q214.7656,349.8203 216.0781,348.1641 Q217.4063,346.5078 219.9063,346.5078 Q220.6094,346.5078 221.25,346.6641 Q221.9063,346.8203 222.4688,347.1172 L222.4688,349.8359 Q221.8438,349.2578 221.25,348.9922 Q220.6563,348.7109 220.0313,348.7109 Q218.6875,348.7109 218,349.7891 Q217.3125,350.8516 217.3125,352.9453 Q217.3125,355.0391 218,356.1172 Q218.6875,357.1797 220.0313,357.1797 Q220.6563,357.1797 221.25,356.9141 Q221.8438,356.6328 222.4688,356.0547 L222.4688,358.7734 Z " fill="#000000"/><text fill="#000000" font-family="sans-serif" font-size="12" font-style="italic" lengthAdjust="spacing" textLength="96" x="257" y="349.1387">&#171;RequestBody&#187;</text><text fill="#000000" font-family="sans-serif" font-size="14" lengthAdjust="spacing" textLength="143" x="233.5" y="364.9639">POST /login Request</text><line style="stroke:#181818;stroke-width:0.5;" x1="205.5" x2="378.5" y1="373.2656" y2="373.2656"/><text fill="#000000" font-family="sans-serif" font-size="14" lengthAdjust="spacing" textLength="122" x="210.5" y="390.2607">username : string</text><text fill="#000000" font-family="sans-serif" font-size="14" lengthAdjust="spacing" textLength="119" x="210.5" y="406.5576">password : string</text></g><!--class GET /books--><g id="elem_GET /books"><rect codeLine="51" fill="#F1F1F1" height="97.1563" id="GET /books" rx="2.5" ry="2.5" style="stroke:#181818;stroke-width:0.5;" width="144" x="802" y="7"/><text fill="#000000" font-family="sans-serif" font-size="12" font-style="italic" lengthAdjust="spacing" textLength="42" x="853" y="23.1387">&#171;Path&#187;</text><text fill="#000000" font-family="sans-serif" font-size="14" lengthAdjust="spacing" textLength="81" x="833.5" y="38.9639">GET /books</text><line style="stroke:#181818;stroke-width:0.5;" x1="803" x2="945" y1="47.2656" y2="47.2656"/><text fill="#000000" font-family="sans-serif" font-size="14" lengthAdjust="spacing" textLength="101" x="808" y="64.2607">offset : integer</text><text fill="#000000" font-family="sans-serif" font-size="14" lengthAdjust="spacing" textLength="89" x="808" y="80.5576">limit : integer</text><text fill="#000000" font-family="sans-serif" font-size="14" lengthAdjust="spacing" textLength="132" x="808" y="96.8545">search : string {O}</text></g><!--class GET /books.genre--><g id="elem_GET /books.genre"><rect codeLine="57" fill="#F1F1F1" height="40.2656" id="GET /books.genre" rx="2.5" ry="2.5" style="stroke:#181818;stroke-width:0.5;" width="132" x="976" y="251"/><text fill="#000000" font-family="sans-serif" font-size="12" font-style="italic" lengthAdjust="spacing" textLength="79" x="1002.5" y="267.1387">&#171;Parameter&#187;</text><text fill="#000000" font-family="sans-serif" font-size="14" lengthAdjust="spacing" textLength="126" x="979" y="282.9639">GET /books.genre</text></g><!--class GET /books 200--><g id="elem_GET /books 200"><rect codeLine="60" fill="#F1F1F1" height="40.2656" id="GET /books 200" rx="2.5" ry="2.5" style="stroke:#181818;stroke-width:0.5;" width="118" x="553" y="181"/><text fill="#000000" font-family="sans-serif" font-size="12" font-style="italic" lengthAdjust="spacing" textLength="74" x="575" y="197.1387">&#171;Response&#187;</text><text fill="#000000" font-family="sans-serif" font-size="14" lengthAdjust="spacing" textLength="112" x="556" y="212.9639">GET /books 200</text></g><!--class POST /books--><g id="elem_POST /books"><rect codeLine="63" fill="#F1F1F1" height="40.2656" id="POST /books" rx="2.5" ry="2.5" style="stroke:#181818;stroke-width:0.5;" width="96" x="732" y="181"/><text fill="#000000" font-family="sans-serif" font-size="12" font-style="italic" lengthAdjust="spacing" textLength="42" x="759" y="197.1387">&#171;Path&#187;</text><text fill="#000000" font-family="sans-serif" font-size="14" lengthAdjust="spacing" textLength="90" x="735" y="212.9639">POST /books</text></g><!--link Book to BookGenre--><g id="link_Book_BookGenre"><path codeLine="66" d="M797.35,426.12 C834.09,455.14 874.752,487.2604 909.762,514.9204 " fill="none" id="Book-to-BookGenre" style="stroke:#181818;stroke-width:1.0;"/><polygon fill="#181818" points="914.47,518.64,909.8878,509.922,910.5467,515.5404,904.9284,516.1993,914.47,518.64" style="stroke:#181818;stroke-width:1.0;"/><text fill="#000000" font-family="sans-serif" font-size="13" lengthAdjust="spacing" textLength="37" x="852" y="469.0669">genre</text><text fill="#000000" font-family="sans-serif" font-size="13" lengthAdjust="spacing" textLength="24" x="882.6618" y="509.6324">0..1</text></g><!--link Book to Author--><g id="link_Book_Author"><path codeLine="68" d="M732,426.37 C732,452.67 732,478.52 732,504.8 " fill="none" id="Book-to-Author" style="stroke:#181818;stroke-width:1.0;"/><polygon fill="#181818" points="732,510.8,736,501.8,732,505.8,728,501.8,732,510.8" style="stroke:#181818;stroke-width:1.0;"/><text fill="#000000" font-family="sans-serif" font-size="13" lengthAdjust="spacing" textLength="42" x="733" y="469.0669">author</text><text fill="#000000" font-family="sans-serif" font-size="13" lengthAdjust="spacing" textLength="8" x="723.4625" y="499.7738">1</text></g><!--link POST /login to AccessToken--><g id="link_POST /login_AccessToken"><path codeLine="70" d="M269,221.23 C235.55,249.18 177.5042,297.7028 135.4142,332.8728 " fill="none" id="POST /login-to-AccessToken" style="stroke:#181818;stroke-width:1.0;stroke-dasharray:7.0,7.0;"/><polygon fill="#181818" points="130.81,336.72,140.2811,334.0186,134.6468,333.514,135.1515,327.8797,130.81,336.72" style="stroke:#181818;stroke-width:1.0;"/><text fill="#000000" font-family="sans-serif" font-size="13" lengthAdjust="spacing" textLength="24" x="233" y="275.5669">200</text><text fill="#000000" font-family="sans-serif" font-size="13" lengthAdjust="spacing" textLength="8" x="129.723" y="325.9475">1</text></g><!--link POST /login to Error--><g id="link_POST /login_Error"><path codeLine="72" d="M315,221.23 C348.45,249.18 406.4958,297.7028 448.5858,332.8728 " fill="none" id="POST /login-to-Error" style="stroke:#181818;stroke-width:1.0;stroke-dasharray:7.0,7.0;"/><polygon fill="#181818" points="453.19,336.72,448.8485,327.8797,449.3532,333.514,443.7189,334.0186,453.19,336.72" style="stroke:#181818;stroke-width:1.0;"/><text fill="#000000" font-family="sans-serif" font-size="13" lengthAdjust="spacing" textLength="24" x="395" y="275.5669">400</text><text fill="#000000" font-family="sans-serif" font-size="13" lengthAdjust="spacing" textLength="8" x="436.852" y="325.9475">1</text></g><!--link POST /login to POST /login Request--><g id="link_POST /login_POST /login Request"><path codeLine="74" d="M292,221.23 C292,248.14 292,291.66 292,326.71 " fill="none" id="POST /login-to-POST /login Request" style="stroke:#181818;stroke-width:1.0;"/><polygon fill="#181818" points="292,332.71,296,323.71,292,327.71,288,323.71,292,332.71" style="stroke:#181818;stroke-width:1.0;"/><text fill="#000000" font-family="sans-serif" font-size="13" lengthAdjust="spacing" textLength="8" x="283.3375" y="321.8015">1</text></g><!--link GET /books.genre to BookGenre--><g id="link_GET /books.genre_BookGenre"><path codeLine="76" d="M1037.94,291.03 C1031.66,320.17 1019.06,377.58 1007,426 C1000.71,451.25 994.8796,473.2144 988.3296,497.0544 " fill="none" id="GET /books.genre-to-BookGenre" style="stroke:#181818;stroke-width:1.0;"/><polygon fill="#181818" points="986.74,502.84,992.9814,495.2213,988.0647,498.0187,985.2673,493.1019,986.74,502.84" style="stroke:#181818;stroke-width:1.0;"/><text fill="#000000" font-family="sans-serif" font-size="13" lengthAdjust="spacing" textLength="8" x="980.2131" y="492.0056">1</text></g><!--link GET /books to GET /books.genre--><g id="link_GET /books_GET /books.genre"><path codeLine="78" d="M946.04,102.06 C957.99,111.65 969.55,122.41 979,134 C1008.61,170.29 1025.9405,217.0531 1034.6805,245.0231 " fill="none" id="GET /books-to-GET /books.genre" style="stroke:#181818;stroke-width:1.0;"/><polygon fill="#181818" points="1036.47,250.75,1037.6036,240.9666,1034.9787,245.9776,1029.9678,243.3526,1036.47,250.75" style="stroke:#181818;stroke-width:1.0;"/><text fill="#000000" font-family="sans-serif" font-size="13" lengthAdjust="spacing" textLength="37" x="991" y="147.0669">genre</text><text fill="#000000" font-family="sans-serif" font-size="13" lengthAdjust="spacing" textLength="24" x="1007.5397" y="239.9935">0..1</text></g><!--link GET /books 200 to Book--><g id="link_GET /books 200_Book"><path codeLine="80" d="M561.11,221.09 C548.39,228.43 536.3,238.21 529,251 C520.19,266.44 519.04,276.27 529,291 C532.6,296.33 583.6531,316.7139 636.2031,336.7339 " fill="none" id="GET /books 200-to-Book" style="stroke:#181818;stroke-width:1.0;"/><polygon fill="#181818" points="641.81,338.87,634.8237,331.928,637.1376,337.0899,631.9756,339.4038,641.81,338.87" style="stroke:#181818;stroke-width:1.0;"/><text fill="#000000" font-family="sans-serif" font-size="13" lengthAdjust="spacing" textLength="7" x="627.0513" y="332.4457">*</text></g><!--link GET /books to GET /books 200--><g id="link_GET /books_GET /books 200"><path codeLine="82" d="M801.71,96.09 C751.28,123.72 691.4622,156.4774 652.1222,178.0274 " fill="none" id="GET /books-to-GET /books 200" style="stroke:#181818;stroke-width:1.0;stroke-dasharray:7.0,7.0;"/><polygon fill="#181818" points="646.86,180.91,656.675,180.0943,651.2452,178.5079,652.8316,173.078,646.86,180.91" style="stroke:#181818;stroke-width:1.0;"/><text fill="#000000" font-family="sans-serif" font-size="13" lengthAdjust="spacing" textLength="24" x="728" y="147.0669">200</text><text fill="#000000" font-family="sans-serif" font-size="13" lengthAdjust="spacing" textLength="8" x="647.9251" y="169.8528">1</text></g><!--link GET /books to UnauthorizedError--><g id="link_GET /books_UnauthorizedError"><path codeLine="84" d="M881.39,104.15 C892.35,174.84 911.5204,298.4709 919.0904,347.2809 " fill="none" id="GET /books-to-UnauthorizedError" style="stroke:#181818;stroke-width:1.0;stroke-dasharray:7.0,7.0;"/><polygon fill="#181818" points="920.01,353.21,922.5834,343.7033,919.2437,348.2691,914.6779,344.9294,920.01,353.21" style="stroke:#181818;stroke-width:1.0;"/><text fill="#000000" font-family="sans-serif" font-size="13" lengthAdjust="spacing" textLength="24" x="900" y="205.5669">401</text><text fill="#000000" font-family="sans-serif" font-size="13" lengthAdjust="spacing" textLength="8" x="910.0441" y="342.4423">1</text></g><!--link GET /books to Error--><g id="link_GET /books_Error"><path codeLine="86" d="M801.95,58.62 C716.94,65.37 578.43,90.6 509,181 C474.7,225.66 478.9507,288.9061 486.5307,330.7561 " fill="none" id="GET /books-to-Error" style="stroke:#181818;stroke-width:1.0;stroke-dasharray:7.0,7.0;"/><polygon fill="#181818" points="487.6,336.66,489.932,327.0912,486.7089,331.74,482.06,328.517,487.6,336.66" style="stroke:#181818;stroke-width:1.0;"/><text fill="#000000" font-family="sans-serif" font-size="13" lengthAdjust="spacing" textLength="24" x="510" y="205.5669">400</text><text fill="#000000" font-family="sans-serif" font-size="13" lengthAdjust="spacing" textLength="8" x="477.3913" y="325.8768">1</text></g><!--link POST /books to Book--><g id="link_POST /books_Book"><path codeLine="88" d="M790.08,221.16 C798.32,239.46 807.37,267.65 799,291 C795.23,301.52 792.9161,306.7524 786.3061,316.0924 " fill="none" id="POST /books-to-Book" style="stroke:#181818;stroke-width:1.0;stroke-dasharray:7.0,7.0;"/><polygon fill="#181818" points="782.84,320.99,791.3042,315.9543,785.7284,316.9087,784.774,311.3329,782.84,320.99" style="stroke:#181818;stroke-width:1.0;"/><text fill="#000000" font-family="sans-serif" font-size="13" lengthAdjust="spacing" textLength="24" x="803" y="275.5669">201</text><text fill="#000000" font-family="sans-serif" font-size="13" lengthAdjust="spacing" textLength="8" x="781.1341" y="309.9894">1</text></g><!--link POST /books to Book--><g id="link_POST /books_Book"><path codeLine="90" d="M731.66,211.17 C692,219.79 640.45,233.91 628,251 C610.67,274.79 621.0726,295.6936 644.4226,316.7336 " fill="none" id="POST /books-to-Book-1" style="stroke:#181818;stroke-width:1.0;stroke-dasharray:7.0,7.0;"/><polygon fill="#181818" points="648.88,320.75,644.8715,311.7538,645.1655,317.403,639.5163,317.697,648.88,320.75" style="stroke:#181818;stroke-width:1.0;"/><text fill="#000000" font-family="sans-serif" font-size="13" lengthAdjust="spacing" textLength="124" x="629" y="275.5669">201 application/xml</text><text fill="#000000" font-family="sans-serif" font-size="13" lengthAdjust="spacing" textLength="8" x="629.7178" y="310.0939">1</text></g><!--link POST /books to Book--><g id="link_POST /books_Book"><path codeLine="96" d="M775.64,221.19 C771.45,239.28 764.76,267.11 758,291 C755.25,300.72 753.9229,305.2942 750.8229,315.1942 " fill="none" id="POST /books-to-Book-2" style="stroke:#181818;stroke-width:1.0;"/><polygon fill="#181818" points="749.03,320.92,755.5366,313.5265,750.5241,316.1485,747.9022,311.1359,749.03,320.92" style="stroke:#181818;stroke-width:1.0;"/><text fill="#000000" font-family="sans-serif" font-size="13" lengthAdjust="spacing" textLength="8" x="742.7809" y="309.91">1</text></g><!--link POST /books to Error--><g id="link_POST /books_Error"><path codeLine="92" d="M731.54,212.53 C678.42,224.36 599.08,242.94 587,251 C554.77,272.5 532.5148,304.1537 516.8848,331.6537 " fill="none" id="POST /books-to-Error" style="stroke:#181818;stroke-width:1.0;stroke-dasharray:7.0,7.0;"/><polygon fill="#181818" points="513.92,336.87,521.8447,331.022,516.3906,332.5231,514.8896,327.069,513.92,336.87" style="stroke:#181818;stroke-width:1.0;"/><text fill="#000000" font-family="sans-serif" font-size="13" lengthAdjust="spacing" textLength="24" x="588" y="275.5669">400</text><text fill="#000000" font-family="sans-serif" font-size="13" lengthAdjust="spacing" textLength="8" x="508.4865" y="325.8501">1</text></g><!--link POST /books to UnauthorizedError--><g id="link_POST /books_UnauthorizedError"><path codeLine="94" d="M804.27,221.13 C814.56,229.76 826.37,240.38 836,251 C866.33,284.44 892.4207,323.4741 908.0707,348.3041 " fill="none" id="POST /books-to-UnauthorizedError" style="stroke:#181818;stroke-width:1.0;stroke-dasharray:7.0,7.0;"/><polygon fill="#181818" points="911.27,353.38,909.855,343.6333,908.6039,349.1501,903.0872,347.899,911.27,353.38" style="stroke:#181818;stroke-width:1.0;"/><text fill="#000000" font-family="sans-serif" font-size="13" lengthAdjust="spacing" textLength="24" x="868" y="275.5669">401</text><text fill="#000000" font-family="sans-serif" font-size="13" lengthAdjust="spacing" textLength="8" x="898.6493" y="342.314">1</text></g><!--SRC=[ZLFBRjim4BphAmWT2qInWvwAm80Ik760jZPazv0ZBQqb8XIfaXGQL_2_T_M89KeKaXl1dHdEpYupbW2vlzzHawrM96Ogvk1bxMK4kf12mwImeuhcO42DAf0Nvaomaib43wzE33ZUQ31485CND8Oz52XZf2922l2yc5EjYH_6CMXzaAyWV59vX5GD-K9eNo3VY3QAYNHGXhU2AT2XmQ9X-8QXUU5ThhfhfQIo5ME91XrIIDOqXHcXiCJsHagdalEwCPTQB4jXrFbQ8jNsCYWVcJBP2r25W8GQ69LJ40aecunUG9GvyH-aV7q2eQ1ryptyTGZtBtZQRADe6-7XyKUutpy_DbS_cvljOREE1ktK6dOpBC7dc32GWXfS6sQuiq4Z3UKx34mxUKLvv4ndoDd8KWyKUW-_1Mr2PVyWwUPaRLyrmEws-mEvvJ9bmkyNTmP18lXJuWHRlURu89DpG-WTeYirDxq29VzAbRXiFwtndIFcfoqdFLcUJlNAkrBXB6VkYiPTYBF9n2Tl1caxUVixLauikLiiFinqsWaYklsukLaHVn44Iz_QEdH9_DQ73Qrnxn-b0RK3hb7M08FW7JpyzWsZjZmBxxQa0Nvr0AycNCk0u6cCLqRVdeMpCvZoxIZ6qJVSBvtwMFZQrPWrpC59S7oSBfBbB6SskZ6m7MVdOVbP7A55mLbC3PFYzYtdyxnF6_cWIujaZT7t_WC0]--></g></svg>