<?xml version="1.0" encoding="UTF-8" standalone="no"?><svg xmlns="http://www.w3.org/2000/svg" xmlns:xlink="http://www.w3.org/1999/xlink" contentScriptType="application/ecmascript" contentStyleType="text/css" height="596px" preserveAspectRatio="none" style="width:1263px;height:596px;" version="1.1" viewBox="0 0 1263 596" width="1263px" zoomAndPan="magnify"><defs><filter height="300%" id="f1usrlofc75bn6" width="300%" x="-1" y="-1"><feGaussianBlur result="blurOut" stdDeviation="2.0"/><feColorMatrix in="blurOut" result="blurOut2" type="matrix" values="0 0 0 0 0 0 0 0 0 0 0 0 0 0 0 0 0 0 .4 0"/><feOffset dx="4.0" dy="4.0" in="blurOut2" result="blurOut3"/><feBlend in="SourceGraphic" in2="blurOut3" mode="normal"/></filter></defs><g><!--MD5=[480b55fe24535af2551deb761fe5417e]
class AccessToken--><rect codeLine="3" fill="#FEFECE" filter="url(#f1usrlofc75bn6)" height="73.6094" id="AccessToken" style="stroke:#A80036;stroke-width:1.5;" width="138" x="200" y="319.5"/><ellipse cx="225.8" cy="335.5" fill="#ADD1B2" rx="11" ry="11" style="stroke:#A80036;stroke-width:1.0;"/><path d="M228.7688,341.1406 Q228.1906,341.4375 227.55,341.5859 Q226.9094,341.7344 226.2063,341.7344 Q223.7063,341.7344 222.3859,340.0859 Q221.0656,338.4375 221.0656,335.3125 Q221.0656,332.1875 222.3859,330.5313 Q223.7063,328.875 226.2063,328.875 Q226.9094,328.875 227.5578,329.0313 Q228.2063,329.1875 228.7688,329.4844 L228.7688,332.2031 Q228.1438,331.625 227.55,331.3516 Q226.9563,331.0781 226.3313,331.0781 Q224.9875,331.0781 224.3,332.1484 Q223.6125,333.2188 223.6125,335.3125 Q223.6125,337.4063 224.3,338.4766 Q224.9875,339.5469 226.3313,339.5469 Q226.9563,339.5469 227.55,339.2734 Q228.1438,339 228.7688,338.4219 L228.7688,341.1406 Z " fill="#000000"/><text fill="#000000" font-family="sans-serif" font-size="12" lengthAdjust="spacing" textLength="82" x="242.2" y="339.6543">AccessToken</text><line style="stroke:#A80036;stroke-width:1.5;" x1="201" x2="337" y1="351.5" y2="351.5"/><text fill="#000000" font-family="sans-serif" font-size="11" lengthAdjust="spacing" textLength="119" x="206" y="365.7104">accessToken : string</text><text fill="#000000" font-family="sans-serif" font-size="11" lengthAdjust="spacing" textLength="126" x="206" y="378.5151">expiresAt : timestamp</text><line style="stroke:#A80036;stroke-width:1.5;" x1="201" x2="337" y1="385.1094" y2="385.1094"/><!--MD5=[b8cfd8c4119a3b0a7a46bfc5fc780f85]
class Error--><rect codeLine="8" fill="#FEFECE" filter="url(#f1usrlofc75bn6)" height="73.6094" id="Error" style="stroke:#A80036;stroke-width:1.5;" width="138" x="373" y="319.5"/><ellipse cx="422.25" cy="335.5" fill="#ADD1B2" rx="11" ry="11" style="stroke:#A80036;stroke-width:1.0;"/><path d="M425.2188,341.1406 Q424.6406,341.4375 424,341.5859 Q423.3594,341.7344 422.6563,341.7344 Q420.1563,341.7344 418.8359,340.0859 Q417.5156,338.4375 417.5156,335.3125 Q417.5156,332.1875 418.8359,330.5313 Q420.1563,328.875 422.6563,328.875 Q423.3594,328.875 424.0078,329.0313 Q424.6563,329.1875 425.2188,329.4844 L425.2188,332.2031 Q424.5938,331.625 424,331.3516 Q423.4063,331.0781 422.7813,331.0781 Q421.4375,331.0781 420.75,332.1484 Q420.0625,333.2188 420.0625,335.3125 Q420.0625,337.4063 420.75,338.4766 Q421.4375,339.5469 422.7813,339.5469 Q423.4063,339.5469 424,339.2734 Q424.5938,339 425.2188,338.4219 L425.2188,341.1406 Z " fill="#000000"/><text fill="#000000" font-family="sans-serif" font-size="12" lengthAdjust="spacing" textLength="31" x="442.75" y="339.6543">Error</text><line style="stroke:#A80036;stroke-width:1.5;" x1="374" x2="510" y1="351.5" y2="351.5"/><text fill="#000000" font-family="sans-serif" font-size="11" lengthAdjust="spacing" textLength="72" x="379" y="365.7104">code : string</text><text fill="#000000" font-family="sans-serif" font-size="11" lengthAdjust="spacing" textLength="126" x="379" y="378.5151">message : timestamp</text><line style="stroke:#A80036;stroke-width:1.5;" x1="374" x2="510" y1="385.1094" y2="385.1094"/><!--MD5=[c3f280b58e8dd0683e81b8ec31306a35]
class Author--><rect codeLine="13" fill="#FEFECE" filter="url(#f1usrlofc75bn6)" height="99.2188" id="Author" style="stroke:#A80036;stroke-width:1.5;" width="128" x="786" y="483"/><ellipse cx="825.3" cy="499" fill="#ADD1B2" rx="11" ry="11" style="stroke:#A80036;stroke-width:1.0;"/><path d="M828.2688,504.6406 Q827.6906,504.9375 827.05,505.0859 Q826.4094,505.2344 825.7063,505.2344 Q823.2063,505.2344 821.8859,503.5859 Q820.5656,501.9375 820.5656,498.8125 Q820.5656,495.6875 821.8859,494.0313 Q823.2063,492.375 825.7063,492.375 Q826.4094,492.375 827.0578,492.5313 Q827.7063,492.6875 828.2688,492.9844 L828.2688,495.7031 Q827.6438,495.125 827.05,494.8516 Q826.4563,494.5781 825.8313,494.5781 Q824.4875,494.5781 823.8,495.6484 Q823.1125,496.7188 823.1125,498.8125 Q823.1125,500.9063 823.8,501.9766 Q824.4875,503.0469 825.8313,503.0469 Q826.4563,503.0469 827.05,502.7734 Q827.6438,502.5 828.2688,501.9219 L828.2688,504.6406 Z " fill="#000000"/><text fill="#000000" font-family="sans-serif" font-size="12" lengthAdjust="spacing" textLength="42" x="844.7" y="503.1543">Author</text><line style="stroke:#A80036;stroke-width:1.5;" x1="787" x2="913" y1="515" y2="515"/><text fill="#000000" font-family="sans-serif" font-size="11" lengthAdjust="spacing" textLength="94" x="792" y="529.2104">fullname : string</text><text fill="#000000" font-family="sans-serif" font-size="11" lengthAdjust="spacing" textLength="114" x="792" y="542.0151">country : string {O}</text><text fill="#000000" font-family="sans-serif" font-size="11" lengthAdjust="spacing" textLength="116" x="792" y="554.8198">birthYear : date {O}</text><text fill="#000000" font-family="sans-serif" font-size="11" lengthAdjust="spacing" textLength="112" x="792" y="567.6245">gender : string {O}</text><line style="stroke:#A80036;stroke-width:1.5;" x1="787" x2="913" y1="574.2188" y2="574.2188"/><!--MD5=[838cb3b9b512e84757c00d0249b7cc0a]
class BookGenre--><rect codeLine="20" fill="#FEFECE" filter="url(#f1usrlofc75bn6)" height="60.8047" id="BookGenre" style="stroke:#A80036;stroke-width:1.5;" width="101" x="949.5" y="502"/><ellipse cx="964.5" cy="518" fill="#ADD1B2" rx="11" ry="11" style="stroke:#A80036;stroke-width:1.0;"/><path d="M967.4688,523.6406 Q966.8906,523.9375 966.25,524.0859 Q965.6094,524.2344 964.9063,524.2344 Q962.4063,524.2344 961.0859,522.5859 Q959.7656,520.9375 959.7656,517.8125 Q959.7656,514.6875 961.0859,513.0313 Q962.4063,511.375 964.9063,511.375 Q965.6094,511.375 966.2578,511.5313 Q966.9063,511.6875 967.4688,511.9844 L967.4688,514.7031 Q966.8438,514.125 966.25,513.8516 Q965.6563,513.5781 965.0313,513.5781 Q963.6875,513.5781 963,514.6484 Q962.3125,515.7188 962.3125,517.8125 Q962.3125,519.9063 963,520.9766 Q963.6875,522.0469 965.0313,522.0469 Q965.6563,522.0469 966.25,521.7734 Q966.8438,521.5 967.4688,520.9219 L967.4688,523.6406 Z " fill="#000000"/><text fill="#000000" font-family="sans-serif" font-size="12" lengthAdjust="spacing" textLength="69" x="978.5" y="522.1543">BookGenre</text><line style="stroke:#A80036;stroke-width:1.5;" x1="950.5" x2="1049.5" y1="534" y2="534"/><text fill="#000000" font-family="sans-serif" font-size="11" lengthAdjust="spacing" textLength="75" x="955.5" y="548.2104">value : string</text><line style="stroke:#A80036;stroke-width:1.5;" x1="950.5" x2="1049.5" y1="554.8047" y2="554.8047"/><!--MD5=[84e3a5e42879fb3231104d3c8e592439]
class Book--><rect codeLine="24" fill="#FEFECE" filter="url(#f1usrlofc75bn6)" height="99.2188" id="Book" style="stroke:#A80036;stroke-width:1.5;" width="151" x="785.5" y="307"/><ellipse cx="841.25" cy="323" fill="#ADD1B2" rx="11" ry="11" style="stroke:#A80036;stroke-width:1.0;"/><path d="M844.2188,328.6406 Q843.6406,328.9375 843,329.0859 Q842.3594,329.2344 841.6563,329.2344 Q839.1563,329.2344 837.8359,327.5859 Q836.5156,325.9375 836.5156,322.8125 Q836.5156,319.6875 837.8359,318.0313 Q839.1563,316.375 841.6563,316.375 Q842.3594,316.375 843.0078,316.5313 Q843.6563,316.6875 844.2188,316.9844 L844.2188,319.7031 Q843.5938,319.125 843,318.8516 Q842.4063,318.5781 841.7813,318.5781 Q840.4375,318.5781 839.75,319.6484 Q839.0625,320.7188 839.0625,322.8125 Q839.0625,324.9063 839.75,325.9766 Q840.4375,327.0469 841.7813,327.0469 Q842.4063,327.0469 843,326.7734 Q843.5938,326.5 844.2188,325.9219 L844.2188,328.6406 Z " fill="#000000"/><text fill="#000000" font-family="sans-serif" font-size="12" lengthAdjust="spacing" textLength="31" x="861.75" y="327.1543">Book</text><line style="stroke:#A80036;stroke-width:1.5;" x1="786.5" x2="935.5" y1="339" y2="339"/><text fill="#000000" font-family="sans-serif" font-size="11" lengthAdjust="spacing" textLength="62" x="791.5" y="353.2104">id : integer</text><text fill="#000000" font-family="sans-serif" font-size="11" lengthAdjust="spacing" textLength="66" x="791.5" y="366.0151">title : string</text><text fill="#000000" font-family="sans-serif" font-size="11" lengthAdjust="spacing" textLength="112" x="791.5" y="378.8198">totalPages : integer</text><text fill="#000000" font-family="sans-serif" font-size="11" lengthAdjust="spacing" textLength="139" x="791.5" y="391.6245">publishingHouse : string</text><line style="stroke:#A80036;stroke-width:1.5;" x1="786.5" x2="935.5" y1="398.2188" y2="398.2188"/><!--MD5=[2b9df03c28d9cb9ddfcbffc750f34f92]
class POST /login--><rect codeLine="36" fill="#FEFECE" filter="url(#f1usrlofc75bn6)" height="53.9375" id="POST /login" style="stroke:#A80036;stroke-width:1.5;" width="76" x="231" y="176"/><text fill="#000000" font-family="sans-serif" font-size="12" font-style="italic" lengthAdjust="spacing" textLength="61" x="238.5" y="192.1387">«Method»</text><text fill="#000000" font-family="sans-serif" font-size="12" lengthAdjust="spacing" textLength="70" x="234" y="206.1074">POST /login</text><line style="stroke:#A80036;stroke-width:1.5;" x1="232" x2="306" y1="213.9375" y2="213.9375"/><line style="stroke:#A80036;stroke-width:1.5;" x1="232" x2="306" y1="221.9375" y2="221.9375"/><!--MD5=[7ed6c87dba96c2e22350af2d871c6ccf]
class POST /login Request--><rect codeLine="43" fill="#FEFECE" filter="url(#f1usrlofc75bn6)" height="79.5469" id="POST /login Request" style="stroke:#A80036;stroke-width:1.5;" width="158" x="7" y="316.5"/><ellipse cx="22" cy="335.4688" fill="#ADD1B2" rx="11" ry="11" style="stroke:#A80036;stroke-width:1.0;"/><path d="M24.9688,341.1094 Q24.3906,341.4063 23.75,341.5547 Q23.1094,341.7031 22.4063,341.7031 Q19.9063,341.7031 18.5859,340.0547 Q17.2656,338.4063 17.2656,335.2813 Q17.2656,332.1563 18.5859,330.5 Q19.9063,328.8438 22.4063,328.8438 Q23.1094,328.8438 23.7578,329 Q24.4063,329.1563 24.9688,329.4531 L24.9688,332.1719 Q24.3438,331.5938 23.75,331.3203 Q23.1563,331.0469 22.5313,331.0469 Q21.1875,331.0469 20.5,332.1172 Q19.8125,333.1875 19.8125,335.2813 Q19.8125,337.375 20.5,338.4453 Q21.1875,339.5156 22.5313,339.5156 Q23.1563,339.5156 23.75,339.2422 Q24.3438,338.9688 24.9688,338.3906 L24.9688,341.1094 Z " fill="#000000"/><text fill="#000000" font-family="sans-serif" font-size="12" font-style="italic" lengthAdjust="spacing" textLength="100" x="49" y="332.6387">«Request Body»</text><text fill="#000000" font-family="sans-serif" font-size="12" lengthAdjust="spacing" textLength="126" x="36" y="346.6074">POST /login Request</text><line style="stroke:#A80036;stroke-width:1.5;" x1="8" x2="164" y1="354.4375" y2="354.4375"/><text fill="#000000" font-family="sans-serif" font-size="11" lengthAdjust="spacing" textLength="103" x="13" y="368.6479">username : string</text><text fill="#000000" font-family="sans-serif" font-size="11" lengthAdjust="spacing" textLength="101" x="13" y="381.4526">password : string</text><line style="stroke:#A80036;stroke-width:1.5;" x1="8" x2="164" y1="388.0469" y2="388.0469"/><!--MD5=[5e99ce8bea90170f1a35f5d25331a19c]
class GET /books--><rect codeLine="50" fill="#FEFECE" filter="url(#f1usrlofc75bn6)" height="92.3516" id="GET /books" style="stroke:#A80036;stroke-width:1.5;" width="123" x="888.5" y="7"/><text fill="#000000" font-family="sans-serif" font-size="12" font-style="italic" lengthAdjust="spacing" textLength="61" x="919.5" y="23.1387">«Method»</text><text fill="#000000" font-family="sans-serif" font-size="12" lengthAdjust="spacing" textLength="70" x="915" y="37.1074">GET /books</text><line style="stroke:#A80036;stroke-width:1.5;" x1="889.5" x2="1010.5" y1="44.9375" y2="44.9375"/><text fill="#000000" font-family="sans-serif" font-size="11" lengthAdjust="spacing" textLength="85" x="894.5" y="59.1479">offset : integer</text><text fill="#000000" font-family="sans-serif" font-size="11" lengthAdjust="spacing" textLength="76" x="894.5" y="71.9526">limit : integer</text><text fill="#000000" font-family="sans-serif" font-size="11" lengthAdjust="spacing" textLength="111" x="894.5" y="84.7573">search : string {O}</text><line style="stroke:#A80036;stroke-width:1.5;" x1="889.5" x2="1010.5" y1="91.3516" y2="91.3516"/><!--MD5=[e1268eccee0ebb0811aa10f4cd8afac1]
class GET /books 200 Response--><rect codeLine="56" fill="#FEFECE" filter="url(#f1usrlofc75bn6)" height="53.9375" id="GET /books 200 Response" style="stroke:#A80036;stroke-width:1.5;" width="196" x="751" y="176"/><ellipse cx="766" cy="194.9688" fill="#ADD1B2" rx="11" ry="11" style="stroke:#A80036;stroke-width:1.0;"/><path d="M768.9688,200.6094 Q768.3906,200.9063 767.75,201.0547 Q767.1094,201.2031 766.4063,201.2031 Q763.9063,201.2031 762.5859,199.5547 Q761.2656,197.9063 761.2656,194.7813 Q761.2656,191.6563 762.5859,190 Q763.9063,188.3438 766.4063,188.3438 Q767.1094,188.3438 767.7578,188.5 Q768.4063,188.6563 768.9688,188.9531 L768.9688,191.6719 Q768.3438,191.0938 767.75,190.8203 Q767.1563,190.5469 766.5313,190.5469 Q765.1875,190.5469 764.5,191.6172 Q763.8125,192.6875 763.8125,194.7813 Q763.8125,196.875 764.5,197.9453 Q765.1875,199.0156 766.5313,199.0156 Q767.1563,199.0156 767.75,198.7422 Q768.3438,198.4688 768.9688,197.8906 L768.9688,200.6094 Z " fill="#000000"/><text fill="#000000" font-family="sans-serif" font-size="12" font-style="italic" lengthAdjust="spacing" textLength="76" x="824" y="192.1387">«Response»</text><text fill="#000000" font-family="sans-serif" font-size="12" lengthAdjust="spacing" textLength="164" x="780" y="206.1074">GET /books 200 Response</text><line style="stroke:#A80036;stroke-width:1.5;" x1="752" x2="946" y1="213.9375" y2="213.9375"/><line style="stroke:#A80036;stroke-width:1.5;" x1="752" x2="946" y1="221.9375" y2="221.9375"/><!--MD5=[a73bd099fed8b96be4ddc891e4e7aa0b]
class GET /books 401 Response--><rect codeLine="62" fill="#FEFECE" filter="url(#f1usrlofc75bn6)" height="48" id="GET /books 401 Response" style="stroke:#A80036;stroke-width:1.5;" width="196" x="1053" y="179"/><ellipse cx="1068" cy="195" fill="#ADD1B2" rx="11" ry="11" style="stroke:#A80036;stroke-width:1.0;"/><path d="M1070.9688,200.6406 Q1070.3906,200.9375 1069.75,201.0859 Q1069.1094,201.2344 1068.4063,201.2344 Q1065.9063,201.2344 1064.5859,199.5859 Q1063.2656,197.9375 1063.2656,194.8125 Q1063.2656,191.6875 1064.5859,190.0313 Q1065.9063,188.375 1068.4063,188.375 Q1069.1094,188.375 1069.7578,188.5313 Q1070.4063,188.6875 1070.9688,188.9844 L1070.9688,191.7031 Q1070.3438,191.125 1069.75,190.8516 Q1069.1563,190.5781 1068.5313,190.5781 Q1067.1875,190.5781 1066.5,191.6484 Q1065.8125,192.7188 1065.8125,194.8125 Q1065.8125,196.9063 1066.5,197.9766 Q1067.1875,199.0469 1068.5313,199.0469 Q1069.1563,199.0469 1069.75,198.7734 Q1070.3438,198.5 1070.9688,197.9219 L1070.9688,200.6406 Z " fill="#000000"/><text fill="#000000" font-family="sans-serif" font-size="12" lengthAdjust="spacing" textLength="164" x="1082" y="199.1543">GET /books 401 Response</text><line style="stroke:#A80036;stroke-width:1.5;" x1="1054" x2="1248" y1="211" y2="211"/><line style="stroke:#A80036;stroke-width:1.5;" x1="1054" x2="1248" y1="219" y2="219"/><!--MD5=[77bd6de3d50bbd86e1697f981634415e]
class POST /books--><rect codeLine="68" fill="#FEFECE" filter="url(#f1usrlofc75bn6)" height="53.9375" id="POST /books" style="stroke:#A80036;stroke-width:1.5;" width="84" x="614" y="176"/><text fill="#000000" font-family="sans-serif" font-size="12" font-style="italic" lengthAdjust="spacing" textLength="61" x="625.5" y="192.1387">«Method»</text><text fill="#000000" font-family="sans-serif" font-size="12" lengthAdjust="spacing" textLength="78" x="617" y="206.1074">POST /books</text><line style="stroke:#A80036;stroke-width:1.5;" x1="615" x2="697" y1="213.9375" y2="213.9375"/><line style="stroke:#A80036;stroke-width:1.5;" x1="615" x2="697" y1="221.9375" y2="221.9375"/><!--MD5=[2bb4b3def454d992a3eab52a8423eb19]
class POST /books 401 Response--><rect codeLine="74" fill="#FEFECE" filter="url(#f1usrlofc75bn6)" height="48" id="POST /books 401 Response" style="stroke:#A80036;stroke-width:1.5;" width="204" x="546" y="332.5"/><ellipse cx="561" cy="348.5" fill="#ADD1B2" rx="11" ry="11" style="stroke:#A80036;stroke-width:1.0;"/><path d="M563.9688,354.1406 Q563.3906,354.4375 562.75,354.5859 Q562.1094,354.7344 561.4063,354.7344 Q558.9063,354.7344 557.5859,353.0859 Q556.2656,351.4375 556.2656,348.3125 Q556.2656,345.1875 557.5859,343.5313 Q558.9063,341.875 561.4063,341.875 Q562.1094,341.875 562.7578,342.0313 Q563.4063,342.1875 563.9688,342.4844 L563.9688,345.2031 Q563.3438,344.625 562.75,344.3516 Q562.1563,344.0781 561.5313,344.0781 Q560.1875,344.0781 559.5,345.1484 Q558.8125,346.2188 558.8125,348.3125 Q558.8125,350.4063 559.5,351.4766 Q560.1875,352.5469 561.5313,352.5469 Q562.1563,352.5469 562.75,352.2734 Q563.3438,352 563.9688,351.4219 L563.9688,354.1406 Z " fill="#000000"/><text fill="#000000" font-family="sans-serif" font-size="12" lengthAdjust="spacing" textLength="172" x="575" y="352.6543">POST /books 401 Response</text><line style="stroke:#A80036;stroke-width:1.5;" x1="547" x2="749" y1="364.5" y2="364.5"/><line style="stroke:#A80036;stroke-width:1.5;" x1="547" x2="749" y1="372.5" y2="372.5"/><!--MD5=[7efc6e0f254cd69f1fdf08743ee3b607]
link Book to BookGenre--><path codeLine="31" d="M898.344,406.321 C909.985,421.37 922.935,437.94 935,453 C946.83,467.767 960.119,483.8951 971.583,497.6699 " fill="none" id="Book-to-BookGenre" style="stroke:#A80036;stroke-width:1.0;"/><polygon fill="#A80036" points="975.079,501.8652,972.3907,492.3903,971.8783,498.0239,966.2447,497.5115,975.079,501.8652" style="stroke:#A80036;stroke-width:1.0;"/><text fill="#000000" font-family="sans-serif" font-size="13" lengthAdjust="spacing" textLength="37" x="936" y="449.0669">genre</text><text fill="#000000" font-family="sans-serif" font-size="13" lengthAdjust="spacing" textLength="24" x="943.464" y="491.1006">0..1</text><!--MD5=[708ece48ef120737d1cb93104a627dff]
link Book to Author--><path codeLine="33" d="M852.359,406.362 C850.96,416.147 849.731,426.377 849,436 C847.98,449.428 847.707,463.948 847.811,477.516 " fill="none" id="Book-to-Author" style="stroke:#A80036;stroke-width:1.0;"/><polygon fill="#A80036" points="847.872,482.8638,851.7689,473.8187,847.8149,477.8641,843.7694,473.9101,847.872,482.8638" style="stroke:#A80036;stroke-width:1.0;"/><text fill="#000000" font-family="sans-serif" font-size="13" lengthAdjust="spacing" textLength="42" x="850" y="449.0669">author</text><text fill="#000000" font-family="sans-serif" font-size="13" lengthAdjust="spacing" textLength="8" x="839.0102" y="471.8901">1</text><!--MD5=[7ba95e1d098153b54f522cf8b99e6133]
link POST /login to AccessToken--><path codeLine="39" d="M269,230.044 C269,253.124 269,287.227 269,314.054 " fill="none" id="POST /login-to-AccessToken" style="stroke:#A80036;stroke-width:1.0;stroke-dasharray:7.0,7.0;"/><polygon fill="#A80036" points="269,319.317,273,310.317,269,314.317,265,310.317,269,319.317" style="stroke:#A80036;stroke-width:1.0;"/><text fill="#000000" font-family="sans-serif" font-size="13" lengthAdjust="spacing" textLength="24" x="270" y="273.0669">200</text><!--MD5=[57665c253550576375cc7673b1742735]
link POST /login to Error--><path codeLine="41" d="M298.74,230.044 C325.645,253.605 365.667,288.653 396.575,315.721 " fill="none" id="POST /login-to-Error" style="stroke:#A80036;stroke-width:1.0;stroke-dasharray:7.0,7.0;"/><polygon fill="#A80036" points="400.682,319.317,396.5469,310.3783,396.9206,316.0228,391.2761,316.3965,400.682,319.317" style="stroke:#A80036;stroke-width:1.0;"/><text fill="#000000" font-family="sans-serif" font-size="13" lengthAdjust="spacing" textLength="24" x="352" y="273.0669">400</text><!--MD5=[4c00e1ac54b502d4a11aaf95726f8a2a]
link POST /login to POST /login Request--><path codeLine="48" d="M230.861,217.262 C207.309,226.711 177.415,241.087 155,260 C137.85,274.471 122.727,294.076 111.044,311.759 " fill="none" id="POST /login-to-POST /login Request" style="stroke:#A80036;stroke-width:1.0;"/><polygon fill="#A80036" points="108.149,316.209,116.4101,310.8467,110.8758,312.018,109.7045,306.4838,108.149,316.209" style="stroke:#A80036;stroke-width:1.0;"/><text fill="#000000" font-family="sans-serif" font-size="13" lengthAdjust="spacing" textLength="104" x="156" y="273.0669">«Request Body»</text><!--MD5=[7ce4f6434dfa7bc1b0a9df6d13e53d6a]
link GET /books 200 Response to Book--><path codeLine="59" d="M871.495,230.211 C877.771,239.088 883.756,249.443 887,260 C891.135,273.459 889.96,288.085 886.45,301.753 " fill="none" id="GET /books 200 Response-to-Book" style="stroke:#A80036;stroke-width:1.0;"/><polygon fill="#A80036" points="885.056,306.742,891.3306,299.1506,886.4017,301.9265,883.6258,296.9975,885.056,306.742" style="stroke:#A80036;stroke-width:1.0;"/><text fill="#000000" font-family="sans-serif" font-size="13" lengthAdjust="spacing" textLength="7" x="880.8182" y="296.1091">*</text><!--MD5=[eeeef19b3a8e5525f9c68a55b1454b57]
link GET /books to GET /books 200 Response--><path codeLine="61" d="M919.148,99.209 C903.117,122.7 883.956,150.778 869.713,171.648 " fill="none" id="GET /books-to-GET /books 200 Response" style="stroke:#A80036;stroke-width:1.0;stroke-dasharray:7.0,7.0;"/><polygon fill="#A80036" points="866.752,175.987,875.1292,170.808,869.5705,171.8571,868.5214,166.2984,866.752,175.987" style="stroke:#A80036;stroke-width:1.0;"/><text fill="#000000" font-family="sans-serif" font-size="13" lengthAdjust="spacing" textLength="24" x="898" y="142.0669">200</text><!--MD5=[9e5ce4e22bba7d2582b2c765ce75efde]
link GET /books to GET /books 401 Response--><path codeLine="64" d="M1011.13,99.008 C1045.25,124.135 1086.57,154.561 1115.42,175.801 " fill="none" id="GET /books-to-GET /books 401 Response" style="stroke:#A80036;stroke-width:1.0;stroke-dasharray:7.0,7.0;"/><polygon fill="#A80036" points="1119.58,178.867,1114.6946,170.3152,1115.5503,175.907,1109.9586,176.7627,1119.58,178.867" style="stroke:#A80036;stroke-width:1.0;"/><text fill="#000000" font-family="sans-serif" font-size="13" lengthAdjust="spacing" textLength="24" x="1075" y="142.0669">401</text><!--MD5=[9d51a88ab644a29f9d5554ed47199a1e]
link GET /books to Error--><path codeLine="66" d="M888.321,61.587 C808.318,73.986 667.487,104.772 570,176 C520.405,212.236 482.69,273.578 461.45,314.31 " fill="none" id="GET /books-to-Error" style="stroke:#A80036;stroke-width:1.0;stroke-dasharray:7.0,7.0;"/><polygon fill="#A80036" points="458.941,319.172,466.623,313.0087,461.234,314.7288,459.5139,309.3398,458.941,319.172" style="stroke:#A80036;stroke-width:1.0;"/><text fill="#000000" font-family="sans-serif" font-size="13" lengthAdjust="spacing" textLength="24" x="571" y="207.5669">400</text><!--MD5=[712ae87b5092e0b79371a16ea00ccc41]
link POST /books to Book--><path codeLine="71" d="M671.654,230.294 C681.548,245.324 695.392,263.756 711,277 C712.682,278.428 745.804,295.795 780.494,313.831 " fill="none" id="POST /books-to-Book" style="stroke:#A80036;stroke-width:1.0;stroke-dasharray:7.0,7.0;"/><polygon fill="#A80036" points="785.173,316.263,779.0313,308.5637,780.7363,313.9575,775.3425,315.6625,785.173,316.263" style="stroke:#A80036;stroke-width:1.0;"/><text fill="#000000" font-family="sans-serif" font-size="13" lengthAdjust="spacing" textLength="24" x="712" y="273.0669">201</text><!--MD5=[712ae87b5092e0b79371a16ea00ccc41]
link POST /books to Book--><path codeLine="78" d="M697.146,230.046 C711.237,239.245 726.98,249.834 741,260 C759.837,273.659 779.798,289.121 797.919,303.564 " fill="none" id="POST /books-to-Book-1" style="stroke:#A80036;stroke-width:1.0;"/><polygon fill="#A80036" points="801.998,306.822,797.4612,298.0803,798.0909,303.702,792.4692,304.3317,801.998,306.822" style="stroke:#A80036;stroke-width:1.0;"/><text fill="#000000" font-family="sans-serif" font-size="13" lengthAdjust="spacing" textLength="104" x="763" y="273.0669">«Request Body»</text><!--MD5=[4356fb2a99c7e084864d271c21813bc7]
link POST /books to Error--><path codeLine="73" d="M619.212,230.044 C585.659,253.797 535.615,289.226 497.256,316.382 " fill="none" id="POST /books-to-Error" style="stroke:#A80036;stroke-width:1.0;stroke-dasharray:7.0,7.0;"/><polygon fill="#A80036" points="493.111,319.317,502.7676,317.3805,497.1916,316.4276,498.1445,310.8516,493.111,319.317" style="stroke:#A80036;stroke-width:1.0;"/><text fill="#000000" font-family="sans-serif" font-size="13" lengthAdjust="spacing" textLength="24" x="576" y="273.0669">400</text><!--MD5=[c98e1213f0b4bfbdf390fdbfb7606ba7]
link POST /books to POST /books 401 Response--><path codeLine="76" d="M649.793,230.055 C647.848,239.436 645.959,250.139 645,260 C642.812,282.486 643.802,308.076 645.207,327.104 " fill="none" id="POST /books-to-POST /books 401 Response" style="stroke:#A80036;stroke-width:1.0;stroke-dasharray:7.0,7.0;"/><polygon fill="#A80036" points="645.612,332.288,648.898,323.0035,645.2221,327.3032,640.9223,323.6274,645.612,332.288" style="stroke:#A80036;stroke-width:1.0;"/><text fill="#000000" font-family="sans-serif" font-size="13" lengthAdjust="spacing" textLength="24" x="646" y="273.0669">401</text><!--MD5=[ae0c4da99d5588654efc19478d8a93bf]
link GET /books to BookGenre--><path codeLine="80" d="M955.329,99.176 C958.005,122.168 961.253,150.564 964,176 C976.699,293.579 990.449,433.185 996.642,496.807 " fill="none" id="GET /books-to-BookGenre" style="stroke:#A80036;stroke-width:1.0;"/><polygon fill="#A80036" points="997.146,501.9904,1000.2559,492.6454,996.6619,497.0139,992.2934,493.4199,997.146,501.9904" style="stroke:#A80036;stroke-width:1.0;"/><text fill="#000000" font-family="sans-serif" font-size="13" lengthAdjust="spacing" textLength="37" x="976" y="273.0669">genre</text><text fill="#000000" font-family="sans-serif" font-size="13" lengthAdjust="spacing" textLength="8" x="987.6467" y="490.7786">1</text><!--MD5=[4924fd1a1e2a5bc5305acabac2f07cdc]
@startuml
set namespaceSeparator none

class "AccessToken" {
  accessToken : string
  expiresAt : timestamp
}

class "Error" {
  code : string
  message : timestamp
}

class "Author" {
  fullname : string
  country : string {O}
  birthYear : date {O}
  gender : string {O}
}

class "BookGenre" {
  value : string
}

class "Book" {
  id : integer
  title : string
  totalPages : integer
  publishingHouse : string
}

"Book" - -> "0..1" "BookGenre" : genre

"Book" - -> "1" "Author" : author
hide <<Method>> circle

class "POST /login" <<Method>> {
}

"POST /login" ..> "AccessToken": 200

"POST /login" ..> "Error": 400

class "POST /login Request" <<Request Body>> {
  username : string
  password : string
}

"POST /login" - -> "POST /login Request" : "<<Request Body>>"

class "GET /books" <<Method>> {
  offset : integer
  limit : integer
  search : string {O}
}

class "GET /books 200 Response" <<Response>> {
}

"GET /books 200 Response" - -> "*" "Book"

"GET /books" ..> "GET /books 200 Response": 200
class "GET /books 401 Response"{}

"GET /books" ..> "GET /books 401 Response": 401

"GET /books" ..> "Error": 400

class "POST /books" <<Method>> {
}

"POST /books" ..> "Book": 201

"POST /books" ..> "Error": 400
class "POST /books 401 Response"{}

"POST /books" ..> "POST /books 401 Response": 401

"POST /books" - -> "Book" : "<<Request Body>>"

"GET /books" - -> "1""BookGenre" : "genre"

@enduml

PlantUML version 1.2021.2(Sun Mar 07 22:10:27 AEDT 2021)
(GPL source distribution)
Java Runtime: Java(TM) SE Runtime Environment
JVM: Java HotSpot(TM) 64-Bit Server VM
Default Encoding: UTF-8
Language: en
Country: US
--></g></svg>