<?xml version="1.0" encoding="UTF-8" standalone="no"?><svg xmlns="http://www.w3.org/2000/svg" xmlns:xlink="http://www.w3.org/1999/xlink" contentScriptType="application/ecmascript" contentStyleType="text/css" height="568px" preserveAspectRatio="none" style="width:1115px;height:568px;" version="1.1" viewBox="0 0 1115 568" width="1115px" zoomAndPan="magnify"><defs><filter height="300%" id="f1lnt5tewcldxo" width="300%" x="-1" y="-1"><feGaussianBlur result="blurOut" stdDeviation="2.0"/><feColorMatrix in="blurOut" result="blurOut2" type="matrix" values="0 0 0 0 0 0 0 0 0 0 0 0 0 0 0 0 0 0 .4 0"/><feOffset dx="4.0" dy="4.0" in="blurOut2" result="blurOut3"/><feBlend in="SourceGraphic" in2="blurOut3" mode="normal"/></filter></defs><g><!--MD5=[480b55fe24535af2551deb761fe5417e]
class AccessToken--><rect codeLine="6" fill="#FEFECE" filter="url(#f1lnt5tewcldxo)" height="65.6094" id="AccessToken" style="stroke:#A80036;stroke-width:1.5;" width="138" x="7" y="168"/><ellipse cx="32.8" cy="184" fill="#ADD1B2" rx="11" ry="11" style="stroke:#A80036;stroke-width:1.0;"/><path d="M35.7688,189.6406 Q35.1906,189.9375 34.55,190.0781 Q33.9094,190.2344 33.2063,190.2344 Q30.7062,190.2344 29.3781,188.5938 Q28.0656,186.9375 28.0656,183.8125 Q28.0656,180.6875 29.3781,179.0313 Q30.7062,177.375 33.2063,177.375 Q33.9094,177.375 34.55,177.5313 Q35.2063,177.6875 35.7688,177.9844 L35.7688,180.7031 Q35.1438,180.125 34.55,179.8594 Q33.9563,179.5781 33.3313,179.5781 Q31.9875,179.5781 31.3,180.6563 Q30.6125,181.7188 30.6125,183.8125 Q30.6125,185.9063 31.3,186.9844 Q31.9875,188.0469 33.3313,188.0469 Q33.9563,188.0469 34.55,187.7813 Q35.1438,187.5 35.7688,186.9219 L35.7688,189.6406 Z " fill="#000000"/><text fill="#000000" font-family="sans-serif" font-size="12" lengthAdjust="spacing" textLength="82" x="49.2" y="188.1543">AccessToken</text><line style="stroke:#A80036;stroke-width:1.5;" x1="8" x2="144" y1="200" y2="200"/><text fill="#000000" font-family="sans-serif" font-size="11" lengthAdjust="spacing" textLength="119" x="13" y="214.2104">accessToken : string</text><text fill="#000000" font-family="sans-serif" font-size="11" lengthAdjust="spacing" textLength="126" x="13" y="227.0151">expiresAt : timestamp</text><!--MD5=[b8cfd8c4119a3b0a7a46bfc5fc780f85]
class Error--><rect codeLine="11" fill="#FEFECE" filter="url(#f1lnt5tewcldxo)" height="65.6094" id="Error" style="stroke:#A80036;stroke-width:1.5;" width="138" x="604" y="168"/><ellipse cx="653.25" cy="184" fill="#ADD1B2" rx="11" ry="11" style="stroke:#A80036;stroke-width:1.0;"/><path d="M656.2188,189.6406 Q655.6406,189.9375 655,190.0781 Q654.3594,190.2344 653.6563,190.2344 Q651.1563,190.2344 649.8281,188.5938 Q648.5156,186.9375 648.5156,183.8125 Q648.5156,180.6875 649.8281,179.0313 Q651.1563,177.375 653.6563,177.375 Q654.3594,177.375 655,177.5313 Q655.6563,177.6875 656.2188,177.9844 L656.2188,180.7031 Q655.5938,180.125 655,179.8594 Q654.4063,179.5781 653.7813,179.5781 Q652.4375,179.5781 651.75,180.6563 Q651.0625,181.7188 651.0625,183.8125 Q651.0625,185.9063 651.75,186.9844 Q652.4375,188.0469 653.7813,188.0469 Q654.4063,188.0469 655,187.7813 Q655.5938,187.5 656.2188,186.9219 L656.2188,189.6406 Z " fill="#000000"/><text fill="#000000" font-family="sans-serif" font-size="12" lengthAdjust="spacing" textLength="31" x="673.75" y="188.1543">Error</text><line style="stroke:#A80036;stroke-width:1.5;" x1="605" x2="741" y1="200" y2="200"/><text fill="#000000" font-family="sans-serif" font-size="11" lengthAdjust="spacing" textLength="72" x="610" y="214.2104">code : string</text><text fill="#000000" font-family="sans-serif" font-size="11" lengthAdjust="spacing" textLength="126" x="610" y="227.0151">message : timestamp</text><!--MD5=[c3f280b58e8dd0683e81b8ec31306a35]
class Author--><rect codeLine="16" fill="#FEFECE" filter="url(#f1lnt5tewcldxo)" height="91.2188" id="Author" style="stroke:#A80036;stroke-width:1.5;" width="128" x="837" y="463"/><ellipse cx="876.3" cy="479" fill="#ADD1B2" rx="11" ry="11" style="stroke:#A80036;stroke-width:1.0;"/><path d="M879.2688,484.6406 Q878.6906,484.9375 878.05,485.0781 Q877.4094,485.2344 876.7063,485.2344 Q874.2063,485.2344 872.8781,483.5938 Q871.5656,481.9375 871.5656,478.8125 Q871.5656,475.6875 872.8781,474.0313 Q874.2063,472.375 876.7063,472.375 Q877.4094,472.375 878.05,472.5313 Q878.7063,472.6875 879.2688,472.9844 L879.2688,475.7031 Q878.6438,475.125 878.05,474.8594 Q877.4563,474.5781 876.8313,474.5781 Q875.4875,474.5781 874.8,475.6563 Q874.1125,476.7188 874.1125,478.8125 Q874.1125,480.9063 874.8,481.9844 Q875.4875,483.0469 876.8313,483.0469 Q877.4563,483.0469 878.05,482.7813 Q878.6438,482.5 879.2688,481.9219 L879.2688,484.6406 Z " fill="#000000"/><text fill="#000000" font-family="sans-serif" font-size="12" lengthAdjust="spacing" textLength="42" x="895.7" y="483.1543">Author</text><line style="stroke:#A80036;stroke-width:1.5;" x1="838" x2="964" y1="495" y2="495"/><text fill="#000000" font-family="sans-serif" font-size="11" lengthAdjust="spacing" textLength="94" x="843" y="509.2104">fullname : string</text><text fill="#000000" font-family="sans-serif" font-size="11" lengthAdjust="spacing" textLength="114" x="843" y="522.0151">country : string {O}</text><text fill="#000000" font-family="sans-serif" font-size="11" lengthAdjust="spacing" textLength="116" x="843" y="534.8198">birthYear : date {O}</text><text fill="#000000" font-family="sans-serif" font-size="11" lengthAdjust="spacing" textLength="112" x="843" y="547.6245">gender : string {O}</text><!--MD5=[838cb3b9b512e84757c00d0249b7cc0a]
class BookGenre--><rect codeLine="23" fill="#FEFECE" filter="url(#f1lnt5tewcldxo)" height="52.8047" id="BookGenre" style="stroke:#A80036;stroke-width:1.5;" width="101" x="1000.5" y="482"/><ellipse cx="1015.5" cy="498" fill="#ADD1B2" rx="11" ry="11" style="stroke:#A80036;stroke-width:1.0;"/><path d="M1018.4688,503.6406 Q1017.8906,503.9375 1017.25,504.0781 Q1016.6094,504.2344 1015.9063,504.2344 Q1013.4063,504.2344 1012.0781,502.5938 Q1010.7656,500.9375 1010.7656,497.8125 Q1010.7656,494.6875 1012.0781,493.0313 Q1013.4063,491.375 1015.9063,491.375 Q1016.6094,491.375 1017.25,491.5313 Q1017.9063,491.6875 1018.4688,491.9844 L1018.4688,494.7031 Q1017.8438,494.125 1017.25,493.8594 Q1016.6563,493.5781 1016.0313,493.5781 Q1014.6875,493.5781 1014,494.6563 Q1013.3125,495.7188 1013.3125,497.8125 Q1013.3125,499.9063 1014,500.9844 Q1014.6875,502.0469 1016.0313,502.0469 Q1016.6563,502.0469 1017.25,501.7813 Q1017.8438,501.5 1018.4688,500.9219 L1018.4688,503.6406 Z " fill="#000000"/><text fill="#000000" font-family="sans-serif" font-size="12" lengthAdjust="spacing" textLength="69" x="1029.5" y="502.1543">BookGenre</text><line style="stroke:#A80036;stroke-width:1.5;" x1="1001.5" x2="1100.5" y1="514" y2="514"/><text fill="#000000" font-family="sans-serif" font-size="11" lengthAdjust="spacing" textLength="75" x="1006.5" y="528.2104">value : string</text><!--MD5=[84e3a5e42879fb3231104d3c8e592439]
class Book--><rect codeLine="27" fill="#FEFECE" filter="url(#f1lnt5tewcldxo)" height="91.2188" id="Book" style="stroke:#A80036;stroke-width:1.5;" width="151" x="900.5" y="295"/><ellipse cx="956.25" cy="311" fill="#ADD1B2" rx="11" ry="11" style="stroke:#A80036;stroke-width:1.0;"/><path d="M959.2188,316.6406 Q958.6406,316.9375 958,317.0781 Q957.3594,317.2344 956.6563,317.2344 Q954.1563,317.2344 952.8281,315.5938 Q951.5156,313.9375 951.5156,310.8125 Q951.5156,307.6875 952.8281,306.0313 Q954.1563,304.375 956.6563,304.375 Q957.3594,304.375 958,304.5313 Q958.6563,304.6875 959.2188,304.9844 L959.2188,307.7031 Q958.5938,307.125 958,306.8594 Q957.4063,306.5781 956.7813,306.5781 Q955.4375,306.5781 954.75,307.6563 Q954.0625,308.7188 954.0625,310.8125 Q954.0625,312.9063 954.75,313.9844 Q955.4375,315.0469 956.7813,315.0469 Q957.4063,315.0469 958,314.7813 Q958.5938,314.5 959.2188,313.9219 L959.2188,316.6406 Z " fill="#000000"/><text fill="#000000" font-family="sans-serif" font-size="12" lengthAdjust="spacing" textLength="31" x="976.75" y="315.1543">Book</text><line style="stroke:#A80036;stroke-width:1.5;" x1="901.5" x2="1050.5" y1="327" y2="327"/><text fill="#000000" font-family="sans-serif" font-size="11" lengthAdjust="spacing" textLength="62" x="906.5" y="341.2104">id : integer</text><text fill="#000000" font-family="sans-serif" font-size="11" lengthAdjust="spacing" textLength="66" x="906.5" y="354.0151">title : string</text><text fill="#000000" font-family="sans-serif" font-size="11" lengthAdjust="spacing" textLength="112" x="906.5" y="366.8198">totalPages : integer</text><text fill="#000000" font-family="sans-serif" font-size="11" lengthAdjust="spacing" textLength="139" x="906.5" y="379.6245">publishingHouse : string</text><!--MD5=[2b9df03c28d9cb9ddfcbffc750f34f92]
class POST /login--><rect codeLine="34" fill="#FEFECE" filter="url(#f1lnt5tewcldxo)" height="37.9375" id="POST /login" style="stroke:#A80036;stroke-width:1.5;" width="76" x="221" y="30"/><text fill="#000000" font-family="sans-serif" font-size="12" font-style="italic" lengthAdjust="spacing" textLength="61" x="228.5" y="46.1387">«Method»</text><text fill="#000000" font-family="sans-serif" font-size="12" lengthAdjust="spacing" textLength="70" x="224" y="60.1074">POST /login</text><!--MD5=[7ed6c87dba96c2e22350af2d871c6ccf]
class POST /login Request--><rect codeLine="37" fill="#FEFECE" filter="url(#f1lnt5tewcldxo)" height="65.6094" id="POST /login Request" style="stroke:#A80036;stroke-width:1.5;" width="158" x="180" y="168"/><ellipse cx="195" cy="184" fill="#ADD1B2" rx="11" ry="11" style="stroke:#A80036;stroke-width:1.0;"/><path d="M197.9688,189.6406 Q197.3906,189.9375 196.75,190.0781 Q196.1094,190.2344 195.4063,190.2344 Q192.9063,190.2344 191.5781,188.5938 Q190.2656,186.9375 190.2656,183.8125 Q190.2656,180.6875 191.5781,179.0313 Q192.9063,177.375 195.4063,177.375 Q196.1094,177.375 196.75,177.5313 Q197.4063,177.6875 197.9688,177.9844 L197.9688,180.7031 Q197.3438,180.125 196.75,179.8594 Q196.1563,179.5781 195.5313,179.5781 Q194.1875,179.5781 193.5,180.6563 Q192.8125,181.7188 192.8125,183.8125 Q192.8125,185.9063 193.5,186.9844 Q194.1875,188.0469 195.5313,188.0469 Q196.1563,188.0469 196.75,187.7813 Q197.3438,187.5 197.9688,186.9219 L197.9688,189.6406 Z " fill="#000000"/><text fill="#000000" font-family="sans-serif" font-size="12" lengthAdjust="spacing" textLength="126" x="209" y="188.1543">POST /login Request</text><line style="stroke:#A80036;stroke-width:1.5;" x1="181" x2="337" y1="200" y2="200"/><text fill="#000000" font-family="sans-serif" font-size="11" lengthAdjust="spacing" textLength="103" x="186" y="214.2104">username : string</text><text fill="#000000" font-family="sans-serif" font-size="11" lengthAdjust="spacing" textLength="101" x="186" y="227.0151">password : string</text><!--MD5=[5e99ce8bea90170f1a35f5d25331a19c]
class GET /books--><rect codeLine="42" fill="#FEFECE" filter="url(#f1lnt5tewcldxo)" height="84.3516" id="GET /books" style="stroke:#A80036;stroke-width:1.5;" width="123" x="611.5" y="7"/><text fill="#000000" font-family="sans-serif" font-size="12" font-style="italic" lengthAdjust="spacing" textLength="61" x="642.5" y="23.1387">«Method»</text><text fill="#000000" font-family="sans-serif" font-size="12" lengthAdjust="spacing" textLength="70" x="638" y="37.1074">GET /books</text><line style="stroke:#A80036;stroke-width:1.5;" x1="612.5" x2="733.5" y1="44.9375" y2="44.9375"/><text fill="#000000" font-family="sans-serif" font-size="11" lengthAdjust="spacing" textLength="85" x="617.5" y="59.1479">offset : integer</text><text fill="#000000" font-family="sans-serif" font-size="11" lengthAdjust="spacing" textLength="76" x="617.5" y="71.9526">limit : integer</text><text fill="#000000" font-family="sans-serif" font-size="11" lengthAdjust="spacing" textLength="111" x="617.5" y="84.7573">search : string {O}</text><!--MD5=[e1268eccee0ebb0811aa10f4cd8afac1]
class GET /books 200 Response--><rect codeLine="48" fill="#FEFECE" filter="url(#f1lnt5tewcldxo)" height="32" id="GET /books 200 Response" style="stroke:#A80036;stroke-width:1.5;" width="196" x="373" y="185"/><ellipse cx="388" cy="201" fill="#ADD1B2" rx="11" ry="11" style="stroke:#A80036;stroke-width:1.0;"/><path d="M390.9688,206.6406 Q390.3906,206.9375 389.75,207.0781 Q389.1094,207.2344 388.4063,207.2344 Q385.9063,207.2344 384.5781,205.5938 Q383.2656,203.9375 383.2656,200.8125 Q383.2656,197.6875 384.5781,196.0313 Q385.9063,194.375 388.4063,194.375 Q389.1094,194.375 389.75,194.5313 Q390.4063,194.6875 390.9688,194.9844 L390.9688,197.7031 Q390.3438,197.125 389.75,196.8594 Q389.1563,196.5781 388.5313,196.5781 Q387.1875,196.5781 386.5,197.6563 Q385.8125,198.7188 385.8125,200.8125 Q385.8125,202.9063 386.5,203.9844 Q387.1875,205.0469 388.5313,205.0469 Q389.1563,205.0469 389.75,204.7813 Q390.3438,204.5 390.9688,203.9219 L390.9688,206.6406 Z " fill="#000000"/><text fill="#000000" font-family="sans-serif" font-size="12" lengthAdjust="spacing" textLength="164" x="402" y="205.1543">GET /books 200 Response</text><!--MD5=[77bd6de3d50bbd86e1697f981634415e]
class POST /books--><rect codeLine="51" fill="#FEFECE" filter="url(#f1lnt5tewcldxo)" height="37.9375" id="POST /books" style="stroke:#A80036;stroke-width:1.5;" width="84" x="909" y="30"/><text fill="#000000" font-family="sans-serif" font-size="12" font-style="italic" lengthAdjust="spacing" textLength="61" x="920.5" y="46.1387">«Method»</text><text fill="#000000" font-family="sans-serif" font-size="12" lengthAdjust="spacing" textLength="78" x="912" y="60.1074">POST /books</text><!--MD5=[e2b95b101f0494a418d91c87d5c90f1d]
class UnauthorizedError--><rect fill="#FEFECE" filter="url(#f1lnt5tewcldxo)" height="32" id="UnauthorizedError" style="stroke:#A80036;stroke-width:1.5;" width="146" x="777" y="185"/><ellipse cx="792" cy="201" fill="#ADD1B2" rx="11" ry="11" style="stroke:#A80036;stroke-width:1.0;"/><path d="M794.9688,206.6406 Q794.3906,206.9375 793.75,207.0781 Q793.1094,207.2344 792.4063,207.2344 Q789.9063,207.2344 788.5781,205.5938 Q787.2656,203.9375 787.2656,200.8125 Q787.2656,197.6875 788.5781,196.0313 Q789.9063,194.375 792.4063,194.375 Q793.1094,194.375 793.75,194.5313 Q794.4063,194.6875 794.9688,194.9844 L794.9688,197.7031 Q794.3438,197.125 793.75,196.8594 Q793.1563,196.5781 792.5313,196.5781 Q791.1875,196.5781 790.5,197.6563 Q789.8125,198.7188 789.8125,200.8125 Q789.8125,202.9063 790.5,203.9844 Q791.1875,205.0469 792.5313,205.0469 Q793.1563,205.0469 793.75,204.7813 Q794.3438,204.5 794.9688,203.9219 L794.9688,206.6406 Z " fill="#000000"/><text fill="#000000" font-family="sans-serif" font-size="12" lengthAdjust="spacing" textLength="114" x="806" y="205.1543">UnauthorizedError</text><!--MD5=[7efc6e0f254cd69f1fdf08743ee3b607]
link Book to BookGenre--><path codeLine="54" d="M996.3,386.42 C1009.28,415.17 1025.79,451.69 1037.25,477.07 " fill="none" id="Book-to-BookGenre" style="stroke:#A80036;stroke-width:1.0;"/><polygon fill="#A80036" points="1039.33,481.67,1039.2729,471.8213,1037.2728,477.1128,1031.9813,475.1128,1039.33,481.67" style="stroke:#A80036;stroke-width:1.0;"/><text fill="#000000" font-family="sans-serif" font-size="13" lengthAdjust="spacing" textLength="37" x="1016" y="429.0669">genre</text><text fill="#000000" font-family="sans-serif" font-size="13" lengthAdjust="spacing" textLength="24" x="1009.8563" y="470.836">0..1</text><!--MD5=[708ece48ef120737d1cb93104a627dff]
link Book to Author--><path codeLine="56" d="M955.7,386.42 C945.7,408.56 933.61,435.32 923.34,458.05 " fill="none" id="Book-to-Author" style="stroke:#A80036;stroke-width:1.0;"/><polygon fill="#A80036" points="921.18,462.83,928.5287,456.2728,923.2372,458.2728,921.2371,452.9813,921.18,462.83" style="stroke:#A80036;stroke-width:1.0;"/><text fill="#000000" font-family="sans-serif" font-size="13" lengthAdjust="spacing" textLength="42" x="941" y="429.0669">author</text><text fill="#000000" font-family="sans-serif" font-size="13" lengthAdjust="spacing" textLength="8" x="915.5564" y="452.0812">1</text><!--MD5=[7ba95e1d098153b54f522cf8b99e6133]
link POST /login to AccessToken--><path codeLine="58" d="M236.93,68.09 C207.85,91.93 156.09,134.36 119.11,164.66 " fill="none" id="POST /login-to-AccessToken" style="stroke:#A80036;stroke-width:1.0;stroke-dasharray:7.0,7.0;"/><polygon fill="#A80036" points="115.13,167.92,124.627,165.311,118.9979,164.7515,119.5574,159.1224,115.13,167.92" style="stroke:#A80036;stroke-width:1.0;"/><text fill="#000000" font-family="sans-serif" font-size="13" lengthAdjust="spacing" textLength="24" x="169" y="134.0669">200</text><text fill="#000000" font-family="sans-serif" font-size="13" lengthAdjust="spacing" textLength="8" x="114.0462" y="157.0492">1</text><!--MD5=[57665c253550576375cc7673b1742735]
link POST /login to Error--><path codeLine="60" d="M297.29,63.73 C358.38,85.66 481.66,129.98 586,168 C590.22,169.54 594.55,171.12 598.93,172.72 " fill="none" id="POST /login-to-Error" style="stroke:#A80036;stroke-width:1.0;stroke-dasharray:7.0,7.0;"/><polygon fill="#A80036" points="603.68,174.46,596.6022,167.6113,598.9844,172.7421,593.8536,175.1243,603.68,174.46" style="stroke:#A80036;stroke-width:1.0;"/><text fill="#000000" font-family="sans-serif" font-size="13" lengthAdjust="spacing" textLength="24" x="498" y="134.0669">400</text><text fill="#000000" font-family="sans-serif" font-size="13" lengthAdjust="spacing" textLength="8" x="588.1189" y="168.0435">1</text><!--MD5=[4c00e1ac54b502d4a11aaf95726f8a2a]
link POST /login to POST /login Request--><path codeLine="62" d="M259,68.09 C259,91.44 259,132.65 259,162.8 " fill="none" id="POST /login-to-POST /login Request" style="stroke:#A80036;stroke-width:1.0;stroke-dasharray:7.0,7.0;"/><polygon fill="#A80036" points="259,167.92,263,158.92,259,162.92,255,158.92,259,167.92" style="stroke:#A80036;stroke-width:1.0;"/><text fill="#000000" font-family="sans-serif" font-size="13" lengthAdjust="spacing" textLength="8" x="250.2125" y="157.0492">1</text><!--MD5=[7ce4f6434dfa7bc1b0a9df6d13e53d6a]
link GET /books 200 Response to Book--><path codeLine="64" d="M524.8,217.06 C544.1,222.43 566.01,228.52 586,234 C692.89,263.33 816.43,296.65 895.33,317.86 " fill="none" id="GET /books 200 Response-to-Book" style="stroke:#A80036;stroke-width:1.0;"/><polygon fill="#A80036" points="900.46,319.24,892.8094,313.0378,895.6319,317.9401,890.7296,320.7627,900.46,319.24" style="stroke:#A80036;stroke-width:1.0;"/><text fill="#000000" font-family="sans-serif" font-size="13" lengthAdjust="spacing" textLength="7" x="885.309" y="313.3366">*</text><!--MD5=[eeeef19b3a8e5525f9c68a55b1454b57]
link GET /books to GET /books 200 Response--><path codeLine="66" d="M617.54,91.19 C577.68,120.78 525.87,159.26 495.73,181.63 " fill="none" id="GET /books-to-GET /books 200 Response" style="stroke:#A80036;stroke-width:1.0;stroke-dasharray:7.0,7.0;"/><polygon fill="#A80036" points="491.45,184.82,501.0587,182.6584,495.462,181.836,496.2843,176.2393,491.45,184.82" style="stroke:#A80036;stroke-width:1.0;"/><text fill="#000000" font-family="sans-serif" font-size="13" lengthAdjust="spacing" textLength="24" x="573" y="134.0669">200</text><text fill="#000000" font-family="sans-serif" font-size="13" lengthAdjust="spacing" textLength="8" x="488.8991" y="174.0649">1</text><!--MD5=[fb0fbcc8eb6e9636ff08105e103cd93c]
link GET /books to UnauthorizedError--><path codeLine="68" d="M721.83,91.39 C756.61,120.85 801.68,159.05 828.06,181.41 " fill="none" id="GET /books-to-UnauthorizedError" style="stroke:#A80036;stroke-width:1.0;stroke-dasharray:7.0,7.0;"/><polygon fill="#A80036" points="832.13,184.86,827.8448,175.9923,828.3136,181.6296,822.6762,182.0985,832.13,184.86" style="stroke:#A80036;stroke-width:1.0;"/><text fill="#000000" font-family="sans-serif" font-size="13" lengthAdjust="spacing" textLength="24" x="773" y="134.0669">401</text><text fill="#000000" font-family="sans-serif" font-size="13" lengthAdjust="spacing" textLength="8" x="816.6122" y="173.8235">1</text><!--MD5=[9d51a88ab644a29f9d5554ed47199a1e]
link GET /books to Error--><path codeLine="70" d="M673,91.39 C673,113.7 673,141.03 673,162.69 " fill="none" id="GET /books-to-Error" style="stroke:#A80036;stroke-width:1.0;stroke-dasharray:7.0,7.0;"/><polygon fill="#A80036" points="673,167.78,677,158.78,673,162.78,669,158.78,673,167.78" style="stroke:#A80036;stroke-width:1.0;"/><text fill="#000000" font-family="sans-serif" font-size="13" lengthAdjust="spacing" textLength="24" x="674" y="134.0669">400</text><text fill="#000000" font-family="sans-serif" font-size="13" lengthAdjust="spacing" textLength="8" x="664.2125" y="156.8817">1</text><!--MD5=[712ae87b5092e0b79371a16ea00ccc41]
link POST /books to Book--><path codeLine="72" d="M968.91,68.06 C980.85,81.44 995.49,100.77 1002,121 C1021.61,181.92 1012.69,201.9 1002,265 C1000.62,273.17 998.44,281.63 995.91,289.79 " fill="none" id="POST /books-to-Book" style="stroke:#A80036;stroke-width:1.0;stroke-dasharray:7.0,7.0;"/><polygon fill="#A80036" points="994.3,294.83,1000.8414,287.4673,995.8166,290.0656,993.2183,285.0407,994.3,294.83" style="stroke:#A80036;stroke-width:1.0;"/><text fill="#000000" font-family="sans-serif" font-size="13" lengthAdjust="spacing" textLength="24" x="1014" y="205.5669">201</text><text fill="#000000" font-family="sans-serif" font-size="13" lengthAdjust="spacing" textLength="8" x="988.4003" y="284.0812">1</text><!--MD5=[712ae87b5092e0b79371a16ea00ccc41]
link POST /books to Book--><path codeLine="78" d="M952.56,68.11 C956.34,111.78 966.04,224.13 971.71,289.77 " fill="none" id="POST /books-to-Book-1" style="stroke:#A80036;stroke-width:1.0;stroke-dasharray:7.0,7.0;"/><polygon fill="#A80036" points="972.14,294.81,975.3257,285.4906,971.6964,289.8297,967.3572,286.2004,972.14,294.81" style="stroke:#A80036;stroke-width:1.0;"/><text fill="#000000" font-family="sans-serif" font-size="13" lengthAdjust="spacing" textLength="8" x="962.9856" y="284.0583">1</text><!--MD5=[4356fb2a99c7e084864d271c21813bc7]
link POST /books to Error--><path codeLine="74" d="M923.19,68.13 C894.38,86.61 847.81,115.65 806,138 C787.15,148.07 766.37,158.2 746.96,167.27 " fill="none" id="POST /books-to-Error" style="stroke:#A80036;stroke-width:1.0;stroke-dasharray:7.0,7.0;"/><polygon fill="#A80036" points="742.05,169.55,751.8976,169.3926,746.586,167.4465,748.5321,162.135,742.05,169.55" style="stroke:#A80036;stroke-width:1.0;"/><text fill="#000000" font-family="sans-serif" font-size="13" lengthAdjust="spacing" textLength="24" x="835" y="134.0669">400</text><text fill="#000000" font-family="sans-serif" font-size="13" lengthAdjust="spacing" textLength="8" x="750.0398" y="162.3854">1</text><!--MD5=[c906920510fbe9ac7ebf7399e2a9341d]
link POST /books to UnauthorizedError--><path codeLine="76" d="M938.82,68.09 C919.69,96.5 882.78,151.31 863.11,180.54 " fill="none" id="POST /books-to-UnauthorizedError" style="stroke:#A80036;stroke-width:1.0;stroke-dasharray:7.0,7.0;"/><polygon fill="#A80036" points="860.1,185,868.4413,179.7634,862.89,180.8508,861.8026,175.2994,860.1,185" style="stroke:#A80036;stroke-width:1.0;"/><text fill="#000000" font-family="sans-serif" font-size="13" lengthAdjust="spacing" textLength="24" x="901" y="134.0669">401</text><text fill="#000000" font-family="sans-serif" font-size="13" lengthAdjust="spacing" textLength="8" x="854.1969" y="174.0116">1</text><!--MD5=[d8b3137e84db5be7113ef44984f5f9e8]
@startuml
hide <<Method>> circle
hide empty methods
hide empty fields
set namespaceSeparator none

class "AccessToken" {
  accessToken : string
  expiresAt : timestamp
}

class "Error" {
  code : string
  message : timestamp
}

class "Author" {
  fullname : string
  country : string {O}
  birthYear : date {O}
  gender : string {O}
}

class "BookGenre" {
  value : string
}

class "Book" {
  id : integer
  title : string
  totalPages : integer
  publishingHouse : string
}

class "POST /login" <<Method>> {
}

class "POST /login Request" {
  username : string
  password : string
}

class "GET /books" <<Method>> {
  offset : integer
  limit : integer
  search : string {O}
}

class "GET /books 200 Response" {
}

class "POST /books" <<Method>> {
}

"Book" - -> "0..1" "BookGenre" : "genre"

"Book" - -> "1" "Author" : "author"

"POST /login" ..> "1" "AccessToken" : "200"

"POST /login" ..> "1" "Error" : "400"

"POST /login" ..> "1" "POST /login Request"

"GET /books 200 Response" - -> "*" "Book"

"GET /books" ..> "1" "GET /books 200 Response" : "200"

"GET /books" ..> "1" "UnauthorizedError" : "401"

"GET /books" ..> "1" "Error" : "400"

"POST /books" ..> "1" "Book" : "201"

"POST /books" ..> "1" "Error" : "400"

"POST /books" ..> "1" "UnauthorizedError" : "401"

"POST /books" ..> "1" "Book"

@enduml

PlantUML version 1.2021.2(Sun Mar 07 22:10:27 AEDT 2021)
(GPL source distribution)
Java Runtime: OpenJDK Runtime Environment
JVM: OpenJDK 64-Bit Server VM
Default Encoding: UTF-8
Language: en
Country: AU
--></g></svg>