<?xml version="1.0" encoding="UTF-8" standalone="no"?><svg xmlns="http://www.w3.org/2000/svg" xmlns:xlink="http://www.w3.org/1999/xlink" contentScriptType="application/ecmascript" contentStyleType="text/css" height="577px" preserveAspectRatio="none" style="width:1045px;height:577px;" version="1.1" viewBox="0 0 1045 577" width="1045px" zoomAndPan="magnify"><defs><filter height="300%" id="fegucqe7bgw8l" width="300%" x="-1" y="-1"><feGaussianBlur result="blurOut" stdDeviation="2.0"/><feColorMatrix in="blurOut" result="blurOut2" type="matrix" values="0 0 0 0 0 0 0 0 0 0 0 0 0 0 0 0 0 0 .4 0"/><feOffset dx="4.0" dy="4.0" in="blurOut2" result="blurOut3"/><feBlend in="SourceGraphic" in2="blurOut3" mode="normal"/></filter></defs><g><!--MD5=[480b55fe24535af2551deb761fe5417e]
class AccessToken--><rect codeLine="8" fill="#FEFECE" filter="url(#fegucqe7bgw8l)" height="65.6094" id="AccessToken" style="stroke:#A80036;stroke-width:1.5;" width="138" x="7" y="316.5"/><ellipse cx="32.8" cy="332.5" fill="#ADD1B2" rx="11" ry="11" style="stroke:#A80036;stroke-width:1.0;"/><path d="M35.7688,338.1406 Q35.1906,338.4375 34.55,338.5781 Q33.9094,338.7344 33.2063,338.7344 Q30.7062,338.7344 29.3781,337.0938 Q28.0656,335.4375 28.0656,332.3125 Q28.0656,329.1875 29.3781,327.5313 Q30.7062,325.875 33.2063,325.875 Q33.9094,325.875 34.55,326.0313 Q35.2063,326.1875 35.7688,326.4844 L35.7688,329.2031 Q35.1438,328.625 34.55,328.3594 Q33.9563,328.0781 33.3313,328.0781 Q31.9875,328.0781 31.3,329.1563 Q30.6125,330.2188 30.6125,332.3125 Q30.6125,334.4063 31.3,335.4844 Q31.9875,336.5469 33.3313,336.5469 Q33.9563,336.5469 34.55,336.2813 Q35.1438,336 35.7688,335.4219 L35.7688,338.1406 Z " fill="#000000"/><text fill="#000000" font-family="sans-serif" font-size="12" lengthAdjust="spacing" textLength="82" x="49.2" y="336.6543">AccessToken</text><line style="stroke:#A80036;stroke-width:1.5;" x1="8" x2="144" y1="348.5" y2="348.5"/><text fill="#000000" font-family="sans-serif" font-size="11" lengthAdjust="spacing" textLength="119" x="13" y="362.7104">accessToken : string</text><text fill="#000000" font-family="sans-serif" font-size="11" lengthAdjust="spacing" textLength="126" x="13" y="375.5151">expiresAt : timestamp</text><!--MD5=[b8cfd8c4119a3b0a7a46bfc5fc780f85]
class Error--><rect codeLine="13" fill="#FEFECE" filter="url(#fegucqe7bgw8l)" height="65.6094" id="Error" style="stroke:#A80036;stroke-width:1.5;" width="138" x="373" y="316.5"/><ellipse cx="422.25" cy="332.5" fill="#ADD1B2" rx="11" ry="11" style="stroke:#A80036;stroke-width:1.0;"/><path d="M425.2188,338.1406 Q424.6406,338.4375 424,338.5781 Q423.3594,338.7344 422.6563,338.7344 Q420.1563,338.7344 418.8281,337.0938 Q417.5156,335.4375 417.5156,332.3125 Q417.5156,329.1875 418.8281,327.5313 Q420.1563,325.875 422.6563,325.875 Q423.3594,325.875 424,326.0313 Q424.6563,326.1875 425.2188,326.4844 L425.2188,329.2031 Q424.5938,328.625 424,328.3594 Q423.4063,328.0781 422.7813,328.0781 Q421.4375,328.0781 420.75,329.1563 Q420.0625,330.2188 420.0625,332.3125 Q420.0625,334.4063 420.75,335.4844 Q421.4375,336.5469 422.7813,336.5469 Q423.4063,336.5469 424,336.2813 Q424.5938,336 425.2188,335.4219 L425.2188,338.1406 Z " fill="#000000"/><text fill="#000000" font-family="sans-serif" font-size="12" lengthAdjust="spacing" textLength="31" x="442.75" y="336.6543">Error</text><line style="stroke:#A80036;stroke-width:1.5;" x1="374" x2="510" y1="348.5" y2="348.5"/><text fill="#000000" font-family="sans-serif" font-size="11" lengthAdjust="spacing" textLength="72" x="379" y="362.7104">code : string</text><text fill="#000000" font-family="sans-serif" font-size="11" lengthAdjust="spacing" textLength="126" x="379" y="375.5151">message : timestamp</text><!--MD5=[c3f280b58e8dd0683e81b8ec31306a35]
class Author--><rect codeLine="18" fill="#FEFECE" filter="url(#fegucqe7bgw8l)" height="91.2188" id="Author" style="stroke:#A80036;stroke-width:1.5;" width="128" x="625" y="472"/><ellipse cx="664.3" cy="488" fill="#ADD1B2" rx="11" ry="11" style="stroke:#A80036;stroke-width:1.0;"/><path d="M667.2688,493.6406 Q666.6906,493.9375 666.05,494.0781 Q665.4094,494.2344 664.7063,494.2344 Q662.2063,494.2344 660.8781,492.5938 Q659.5656,490.9375 659.5656,487.8125 Q659.5656,484.6875 660.8781,483.0313 Q662.2063,481.375 664.7063,481.375 Q665.4094,481.375 666.05,481.5313 Q666.7063,481.6875 667.2688,481.9844 L667.2688,484.7031 Q666.6438,484.125 666.05,483.8594 Q665.4563,483.5781 664.8313,483.5781 Q663.4875,483.5781 662.8,484.6563 Q662.1125,485.7188 662.1125,487.8125 Q662.1125,489.9063 662.8,490.9844 Q663.4875,492.0469 664.8313,492.0469 Q665.4563,492.0469 666.05,491.7813 Q666.6438,491.5 667.2688,490.9219 L667.2688,493.6406 Z " fill="#000000"/><text fill="#000000" font-family="sans-serif" font-size="12" lengthAdjust="spacing" textLength="42" x="683.7" y="492.1543">Author</text><line style="stroke:#A80036;stroke-width:1.5;" x1="626" x2="752" y1="504" y2="504"/><text fill="#000000" font-family="sans-serif" font-size="11" lengthAdjust="spacing" textLength="94" x="631" y="518.2104">fullname : string</text><text fill="#000000" font-family="sans-serif" font-size="11" lengthAdjust="spacing" textLength="114" x="631" y="531.0151">country : string {O}</text><text fill="#000000" font-family="sans-serif" font-size="11" lengthAdjust="spacing" textLength="116" x="631" y="543.8198">birthYear : date {O}</text><text fill="#000000" font-family="sans-serif" font-size="11" lengthAdjust="spacing" textLength="112" x="631" y="556.6245">gender : string {O}</text><!--MD5=[838cb3b9b512e84757c00d0249b7cc0a]
class BookGenre--><rect codeLine="25" fill="#FEFECE" filter="url(#fegucqe7bgw8l)" height="52.8047" id="BookGenre" style="stroke:#A80036;stroke-width:1.5;" width="101" x="857.5" y="491"/><ellipse cx="872.5" cy="507" fill="#ADD1B2" rx="11" ry="11" style="stroke:#A80036;stroke-width:1.0;"/><path d="M875.4688,512.6406 Q874.8906,512.9375 874.25,513.0781 Q873.6094,513.2344 872.9063,513.2344 Q870.4063,513.2344 869.0781,511.5938 Q867.7656,509.9375 867.7656,506.8125 Q867.7656,503.6875 869.0781,502.0313 Q870.4063,500.375 872.9063,500.375 Q873.6094,500.375 874.25,500.5313 Q874.9063,500.6875 875.4688,500.9844 L875.4688,503.7031 Q874.8438,503.125 874.25,502.8594 Q873.6563,502.5781 873.0313,502.5781 Q871.6875,502.5781 871,503.6563 Q870.3125,504.7188 870.3125,506.8125 Q870.3125,508.9063 871,509.9844 Q871.6875,511.0469 873.0313,511.0469 Q873.6563,511.0469 874.25,510.7813 Q874.8438,510.5 875.4688,509.9219 L875.4688,512.6406 Z " fill="#000000"/><text fill="#000000" font-family="sans-serif" font-size="12" lengthAdjust="spacing" textLength="69" x="886.5" y="511.1543">BookGenre</text><line style="stroke:#A80036;stroke-width:1.5;" x1="858.5" x2="957.5" y1="523" y2="523"/><text fill="#000000" font-family="sans-serif" font-size="11" lengthAdjust="spacing" textLength="75" x="863.5" y="537.2104">value : string</text><!--MD5=[84e3a5e42879fb3231104d3c8e592439]
class Book--><rect codeLine="29" fill="#FEFECE" filter="url(#fegucqe7bgw8l)" height="91.2188" id="Book" style="stroke:#A80036;stroke-width:1.5;" width="151" x="613.5" y="304"/><ellipse cx="669.25" cy="320" fill="#ADD1B2" rx="11" ry="11" style="stroke:#A80036;stroke-width:1.0;"/><path d="M672.2188,325.6406 Q671.6406,325.9375 671,326.0781 Q670.3594,326.2344 669.6563,326.2344 Q667.1563,326.2344 665.8281,324.5938 Q664.5156,322.9375 664.5156,319.8125 Q664.5156,316.6875 665.8281,315.0313 Q667.1563,313.375 669.6563,313.375 Q670.3594,313.375 671,313.5313 Q671.6563,313.6875 672.2188,313.9844 L672.2188,316.7031 Q671.5938,316.125 671,315.8594 Q670.4063,315.5781 669.7813,315.5781 Q668.4375,315.5781 667.75,316.6563 Q667.0625,317.7188 667.0625,319.8125 Q667.0625,321.9063 667.75,322.9844 Q668.4375,324.0469 669.7813,324.0469 Q670.4063,324.0469 671,323.7813 Q671.5938,323.5 672.2188,322.9219 L672.2188,325.6406 Z " fill="#000000"/><text fill="#000000" font-family="sans-serif" font-size="12" lengthAdjust="spacing" textLength="31" x="689.75" y="324.1543">Book</text><line style="stroke:#A80036;stroke-width:1.5;" x1="614.5" x2="763.5" y1="336" y2="336"/><text fill="#000000" font-family="sans-serif" font-size="11" lengthAdjust="spacing" textLength="62" x="619.5" y="350.2104">id : integer</text><text fill="#000000" font-family="sans-serif" font-size="11" lengthAdjust="spacing" textLength="66" x="619.5" y="363.0151">title : string</text><text fill="#000000" font-family="sans-serif" font-size="11" lengthAdjust="spacing" textLength="112" x="619.5" y="375.8198">totalPages : integer</text><text fill="#000000" font-family="sans-serif" font-size="11" lengthAdjust="spacing" textLength="139" x="619.5" y="388.6245">publishingHouse : string</text><!--MD5=[e2b95b101f0494a418d91c87d5c90f1d]
class UnauthorizedError--><rect codeLine="36" fill="#FEFECE" filter="url(#fegucqe7bgw8l)" height="37.9375" id="UnauthorizedError" style="stroke:#A80036;stroke-width:1.5;" width="120" x="800" y="330.5"/><text fill="#000000" font-family="sans-serif" font-size="12" font-style="italic" lengthAdjust="spacing" textLength="74" x="823" y="346.6387">«Response»</text><text fill="#000000" font-family="sans-serif" font-size="12" lengthAdjust="spacing" textLength="114" x="803" y="360.6074">UnauthorizedError</text><!--MD5=[2b9df03c28d9cb9ddfcbffc750f34f92]
class POST /login--><rect codeLine="39" fill="#FEFECE" filter="url(#fegucqe7bgw8l)" height="37.9375" id="POST /login" style="stroke:#A80036;stroke-width:1.5;" width="76" x="221" y="168"/><text fill="#000000" font-family="sans-serif" font-size="12" font-style="italic" lengthAdjust="spacing" textLength="42" x="238" y="184.1387">«Path»</text><text fill="#000000" font-family="sans-serif" font-size="12" lengthAdjust="spacing" textLength="70" x="224" y="198.1074">POST /login</text><!--MD5=[7ed6c87dba96c2e22350af2d871c6ccf]
class POST /login Request--><rect codeLine="42" fill="#FEFECE" filter="url(#fegucqe7bgw8l)" height="71.5469" id="POST /login Request" style="stroke:#A80036;stroke-width:1.5;" width="158" x="180" y="313.5"/><ellipse cx="195" cy="332.4688" fill="#ADD1B2" rx="11" ry="11" style="stroke:#A80036;stroke-width:1.0;"/><path d="M197.9688,338.1094 Q197.3906,338.4063 196.75,338.5469 Q196.1094,338.7031 195.4063,338.7031 Q192.9063,338.7031 191.5781,337.0625 Q190.2656,335.4063 190.2656,332.2813 Q190.2656,329.1563 191.5781,327.5 Q192.9063,325.8438 195.4063,325.8438 Q196.1094,325.8438 196.75,326 Q197.4063,326.1563 197.9688,326.4531 L197.9688,329.1719 Q197.3438,328.5938 196.75,328.3281 Q196.1563,328.0469 195.5313,328.0469 Q194.1875,328.0469 193.5,329.125 Q192.8125,330.1875 192.8125,332.2813 Q192.8125,334.375 193.5,335.4531 Q194.1875,336.5156 195.5313,336.5156 Q196.1563,336.5156 196.75,336.25 Q197.3438,335.9688 197.9688,335.3906 L197.9688,338.1094 Z " fill="#000000"/><text fill="#000000" font-family="sans-serif" font-size="12" font-style="italic" lengthAdjust="spacing" textLength="96" x="224" y="329.6387">«RequestBody»</text><text fill="#000000" font-family="sans-serif" font-size="12" lengthAdjust="spacing" textLength="126" x="209" y="343.6074">POST /login Request</text><line style="stroke:#A80036;stroke-width:1.5;" x1="181" x2="337" y1="351.4375" y2="351.4375"/><text fill="#000000" font-family="sans-serif" font-size="11" lengthAdjust="spacing" textLength="103" x="186" y="365.6479">username : string</text><text fill="#000000" font-family="sans-serif" font-size="11" lengthAdjust="spacing" textLength="101" x="186" y="378.4526">password : string</text><!--MD5=[5e99ce8bea90170f1a35f5d25331a19c]
class GET /books--><rect codeLine="47" fill="#FEFECE" filter="url(#fegucqe7bgw8l)" height="84.3516" id="GET /books" style="stroke:#A80036;stroke-width:1.5;" width="123" x="753.5" y="7"/><text fill="#000000" font-family="sans-serif" font-size="12" font-style="italic" lengthAdjust="spacing" textLength="42" x="794" y="23.1387">«Path»</text><text fill="#000000" font-family="sans-serif" font-size="12" lengthAdjust="spacing" textLength="70" x="780" y="37.1074">GET /books</text><line style="stroke:#A80036;stroke-width:1.5;" x1="754.5" x2="875.5" y1="44.9375" y2="44.9375"/><text fill="#000000" font-family="sans-serif" font-size="11" lengthAdjust="spacing" textLength="85" x="759.5" y="59.1479">offset : integer</text><text fill="#000000" font-family="sans-serif" font-size="11" lengthAdjust="spacing" textLength="76" x="759.5" y="71.9526">limit : integer</text><text fill="#000000" font-family="sans-serif" font-size="11" lengthAdjust="spacing" textLength="111" x="759.5" y="84.7573">search : string {O}</text><!--MD5=[147bda4e0db56c9860fdabfb5ee90c77]
class GET /books.genre--><rect codeLine="53" fill="#FEFECE" filter="url(#fegucqe7bgw8l)" height="37.9375" id="GET /books.genre" style="stroke:#A80036;stroke-width:1.5;" width="117" x="914.5" y="236"/><text fill="#000000" font-family="sans-serif" font-size="12" font-style="italic" lengthAdjust="spacing" textLength="79" x="933.5" y="252.1387">«Parameter»</text><text fill="#000000" font-family="sans-serif" font-size="12" lengthAdjust="spacing" textLength="111" x="917.5" y="266.1074">GET /books.genre</text><!--MD5=[00a71cf55a124dccaa88db7c56f6c340]
class GET /books 200--><rect codeLine="56" fill="#FEFECE" filter="url(#fegucqe7bgw8l)" height="37.9375" id="GET /books 200" style="stroke:#A80036;stroke-width:1.5;" width="104" x="501" y="168"/><text fill="#000000" font-family="sans-serif" font-size="12" font-style="italic" lengthAdjust="spacing" textLength="74" x="516" y="184.1387">«Response»</text><text fill="#000000" font-family="sans-serif" font-size="12" lengthAdjust="spacing" textLength="98" x="504" y="198.1074">GET /books 200</text><!--MD5=[77bd6de3d50bbd86e1697f981634415e]
class POST /books--><rect codeLine="59" fill="#FEFECE" filter="url(#fegucqe7bgw8l)" height="37.9375" id="POST /books" style="stroke:#A80036;stroke-width:1.5;" width="84" x="676" y="168"/><text fill="#000000" font-family="sans-serif" font-size="12" font-style="italic" lengthAdjust="spacing" textLength="42" x="697" y="184.1387">«Path»</text><text fill="#000000" font-family="sans-serif" font-size="12" lengthAdjust="spacing" textLength="78" x="679" y="198.1074">POST /books</text><!--MD5=[7efc6e0f254cd69f1fdf08743ee3b607]
link Book to BookGenre--><path codeLine="62" d="M747.98,395.2 C786.81,424.64 836.51,462.31 870.14,487.8 " fill="none" id="Book-to-BookGenre" style="stroke:#A80036;stroke-width:1.0;"/><polygon fill="#A80036" points="874.16,490.85,869.4141,482.22,870.1789,487.8249,864.574,488.5898,874.16,490.85" style="stroke:#A80036;stroke-width:1.0;"/><text fill="#000000" font-family="sans-serif" font-size="13" lengthAdjust="spacing" textLength="37" x="806" y="438.0669">genre</text><text fill="#000000" font-family="sans-serif" font-size="13" lengthAdjust="spacing" textLength="24" x="839.5595" y="480.0576">0..1</text><!--MD5=[708ece48ef120737d1cb93104a627dff]
link Book to Author--><path codeLine="64" d="M689,395.42 C689,417.47 689,444.1 689,466.76 " fill="none" id="Book-to-Author" style="stroke:#A80036;stroke-width:1.0;"/><polygon fill="#A80036" points="689,471.83,693,462.83,689,466.83,685,462.83,689,471.83" style="stroke:#A80036;stroke-width:1.0;"/><text fill="#000000" font-family="sans-serif" font-size="13" lengthAdjust="spacing" textLength="42" x="690" y="438.0669">author</text><text fill="#000000" font-family="sans-serif" font-size="13" lengthAdjust="spacing" textLength="8" x="680.4125" y="461.0812">1</text><!--MD5=[7ba95e1d098153b54f522cf8b99e6133]
link POST /login to AccessToken--><path codeLine="66" d="M238.36,206.1 C208.96,231.89 154.41,279.73 116.7,312.8 " fill="none" id="POST /login-to-AccessToken" style="stroke:#A80036;stroke-width:1.0;stroke-dasharray:7.0,7.0;"/><polygon fill="#A80036" points="112.65,316.36,122.0572,313.4438,116.4129,313.0675,116.7892,307.4232,112.65,316.36" style="stroke:#A80036;stroke-width:1.0;"/><text fill="#000000" font-family="sans-serif" font-size="13" lengthAdjust="spacing" textLength="24" x="201" y="259.5669">200</text><text fill="#000000" font-family="sans-serif" font-size="13" lengthAdjust="spacing" textLength="8" x="111.078" y="305.4774">1</text><!--MD5=[57665c253550576375cc7673b1742735]
link POST /login to Error--><path codeLine="68" d="M277.96,206.1 C296.55,223.72 325.85,251.12 352,274 C366.79,286.94 383.28,300.76 398.06,312.94 " fill="none" id="POST /login-to-Error" style="stroke:#A80036;stroke-width:1.0;stroke-dasharray:7.0,7.0;"/><polygon fill="#A80036" points="402.18,316.32,397.788,307.5046,398.3249,313.136,392.6936,313.6728,402.18,316.32" style="stroke:#A80036;stroke-width:1.0;"/><text fill="#000000" font-family="sans-serif" font-size="13" lengthAdjust="spacing" textLength="24" x="353" y="259.5669">400</text><text fill="#000000" font-family="sans-serif" font-size="13" lengthAdjust="spacing" textLength="8" x="385.5529" y="305.4295">1</text><!--MD5=[4c00e1ac54b502d4a11aaf95726f8a2a]
link POST /login to POST /login Request--><path codeLine="70" d="M259,206.1 C259,230.69 259,275.34 259,308.11 " fill="none" id="POST /login-to-POST /login Request" style="stroke:#A80036;stroke-width:1.0;"/><polygon fill="#A80036" points="259,313.26,263,304.26,259,308.26,255,304.26,259,313.26" style="stroke:#A80036;stroke-width:1.0;"/><text fill="#000000" font-family="sans-serif" font-size="13" lengthAdjust="spacing" textLength="8" x="250.2625" y="302.3163">1</text><!--MD5=[31fd47019a808f0a2720cd763b03d802]
link GET /books.genre to BookGenre--><path codeLine="72" d="M968.43,274.32 C957.43,318.41 929.37,430.84 915.71,485.59 " fill="none" id="GET /books.genre-to-BookGenre" style="stroke:#A80036;stroke-width:1.0;"/><polygon fill="#A80036" points="914.44,490.71,920.5088,482.9531,915.656,485.8601,912.749,481.0074,914.44,490.71" style="stroke:#A80036;stroke-width:1.0;"/><text fill="#000000" font-family="sans-serif" font-size="13" lengthAdjust="spacing" textLength="8" x="907.0043" y="479.8853">1</text><!--MD5=[2565d57ae4bf422b61495a5a173ea889]
link GET /books to GET /books.genre--><path codeLine="74" d="M876.61,84.57 C891.22,94.87 905.8,107.17 917,121 C944.01,154.36 959.95,202.64 967.54,230.93 " fill="none" id="GET /books-to-GET /books.genre" style="stroke:#A80036;stroke-width:1.0;"/><polygon fill="#A80036" points="968.86,235.97,970.4435,226.2493,967.5903,231.1339,962.7057,228.2807,968.86,235.97" style="stroke:#A80036;stroke-width:1.0;"/><text fill="#000000" font-family="sans-serif" font-size="13" lengthAdjust="spacing" textLength="37" x="929" y="134.0669">genre</text><text fill="#000000" font-family="sans-serif" font-size="13" lengthAdjust="spacing" textLength="24" x="939.9171" y="224.942">0..1</text><!--MD5=[6f734e1596127690a7c17e2e7f6a7baa]
link GET /books 200 to Book--><path codeLine="76" d="M500.79,205.88 C487.45,213.08 474.7,222.88 467,236 C458.45,250.56 457.14,260.29 467,274 C475.77,286.2 548.46,309.16 608.3,326.38 " fill="none" id="GET /books 200-to-Book" style="stroke:#A80036;stroke-width:1.0;"/><polygon fill="#A80036" points="613.32,327.81,605.7776,321.4766,608.5151,326.427,603.5647,329.1645,613.32,327.81" style="stroke:#A80036;stroke-width:1.0;"/><text fill="#000000" font-family="sans-serif" font-size="13" lengthAdjust="spacing" textLength="7" x="598.5257" y="338.4758">*</text><!--MD5=[4795758fff4ab267321dc22ebe7e8c1b]
link GET /books to GET /books 200--><path codeLine="78" d="M753.24,82.06 C703.47,107.9 634.98,143.45 592.38,165.56 " fill="none" id="GET /books-to-GET /books 200" style="stroke:#A80036;stroke-width:1.0;stroke-dasharray:7.0,7.0;"/><polygon fill="#A80036" points="587.82,167.92,597.6507,167.3217,592.2573,165.6155,593.9635,160.2221,587.82,167.92" style="stroke:#A80036;stroke-width:1.0;"/><text fill="#000000" font-family="sans-serif" font-size="13" lengthAdjust="spacing" textLength="24" x="678" y="134.0669">200</text><text fill="#000000" font-family="sans-serif" font-size="13" lengthAdjust="spacing" textLength="8" x="589.2586" y="156.8767">1</text><!--MD5=[fb0fbcc8eb6e9636ff08105e103cd93c]
link GET /books to UnauthorizedError--><path codeLine="80" d="M821.21,91.19 C830.79,154.77 848.88,274.73 856.49,325.19 " fill="none" id="GET /books-to-UnauthorizedError" style="stroke:#A80036;stroke-width:1.0;stroke-dasharray:7.0,7.0;"/><polygon fill="#A80036" points="857.28,330.43,859.8712,320.9281,856.5229,325.4876,851.9634,322.1394,857.28,330.43" style="stroke:#A80036;stroke-width:1.0;"/><text fill="#000000" font-family="sans-serif" font-size="13" lengthAdjust="spacing" textLength="24" x="839" y="191.5669">401</text><text fill="#000000" font-family="sans-serif" font-size="13" lengthAdjust="spacing" textLength="8" x="847.222" y="319.3897">1</text><!--MD5=[9d51a88ab644a29f9d5554ed47199a1e]
link GET /books to Error--><path codeLine="82" d="M753.21,50.85 C671.19,55.64 528.41,77.43 457,168 C425.05,208.53 427.9,271.28 434.06,311.11 " fill="none" id="GET /books-to-Error" style="stroke:#A80036;stroke-width:1.0;stroke-dasharray:7.0,7.0;"/><polygon fill="#A80036" points="434.91,316.33,437.4207,306.8065,434.1111,311.3942,429.5234,308.0847,434.91,316.33" style="stroke:#A80036;stroke-width:1.0;"/><text fill="#000000" font-family="sans-serif" font-size="13" lengthAdjust="spacing" textLength="24" x="458" y="191.5669">400</text><text fill="#000000" font-family="sans-serif" font-size="13" lengthAdjust="spacing" textLength="8" x="424.7267" y="305.4415">1</text><!--MD5=[712ae87b5092e0b79371a16ea00ccc41]
link POST /books to Book--><path codeLine="84" d="M727.37,206.3 C735.1,223.84 743.78,250.97 737,274 C734.47,282.59 730.61,291.13 726.15,299.19 " fill="none" id="POST /books-to-Book" style="stroke:#A80036;stroke-width:1.0;stroke-dasharray:7.0,7.0;"/><polygon fill="#A80036" points="723.62,303.62,731.5623,297.796,726.1038,299.2805,724.6192,293.822,723.62,303.62" style="stroke:#A80036;stroke-width:1.0;"/><text fill="#000000" font-family="sans-serif" font-size="13" lengthAdjust="spacing" textLength="24" x="740" y="259.5669">201</text><text fill="#000000" font-family="sans-serif" font-size="13" lengthAdjust="spacing" textLength="8" x="720.1173" y="292.8404">1</text><!--MD5=[712ae87b5092e0b79371a16ea00ccc41]
link POST /books to Book--><path codeLine="86" d="M675.8,195.58 C635.54,203.77 579.13,218.09 566,236 C544.63,265.15 573.39,292.64 608.45,313.14 " fill="none" id="POST /books-to-Book-1" style="stroke:#A80036;stroke-width:1.0;stroke-dasharray:7.0,7.0;"/><polygon fill="#A80036" points="613.21,315.86,607.3663,307.9321,608.8644,313.387,603.4095,314.8851,613.21,315.86" style="stroke:#A80036;stroke-width:1.0;"/><text fill="#000000" font-family="sans-serif" font-size="13" lengthAdjust="spacing" textLength="124" x="567" y="259.5669">201 application/xml</text><text fill="#000000" font-family="sans-serif" font-size="13" lengthAdjust="spacing" textLength="8" x="597.605" y="309.0016">1</text><!--MD5=[712ae87b5092e0b79371a16ea00ccc41]
link POST /books to Book--><path codeLine="92" d="M714.73,206.1 C710.69,228.43 703.67,267.32 697.98,298.81 " fill="none" id="POST /books-to-Book-2" style="stroke:#A80036;stroke-width:1.0;"/><polygon fill="#A80036" points="697.08,303.8,702.6088,295.6494,697.9644,298.8788,694.735,294.2344,697.08,303.8" style="stroke:#A80036;stroke-width:1.0;"/><text fill="#000000" font-family="sans-serif" font-size="13" lengthAdjust="spacing" textLength="8" x="689.6793" y="293.0468">1</text><!--MD5=[4356fb2a99c7e084864d271c21813bc7]
link POST /books to Error--><path codeLine="88" d="M675.58,196.95 C622.65,208.37 537.52,227.63 525,236 C496.79,254.86 474.64,286.67 460.34,311.66 " fill="none" id="POST /books-to-Error" style="stroke:#A80036;stroke-width:1.0;stroke-dasharray:7.0,7.0;"/><polygon fill="#A80036" points="457.77,316.25,465.6751,310.3755,460.2261,311.8948,458.7067,306.4458,457.77,316.25" style="stroke:#A80036;stroke-width:1.0;"/><text fill="#000000" font-family="sans-serif" font-size="13" lengthAdjust="spacing" textLength="24" x="526" y="259.5669">400</text><text fill="#000000" font-family="sans-serif" font-size="13" lengthAdjust="spacing" textLength="8" x="452.0872" y="305.3458">1</text><!--MD5=[c906920510fbe9ac7ebf7399e2a9341d]
link POST /books to UnauthorizedError--><path codeLine="90" d="M740.85,206.22 C751.1,214.82 763.09,225.49 773,236 C800.58,265.26 828.28,302.83 844.78,326.28 " fill="none" id="POST /books-to-UnauthorizedError" style="stroke:#A80036;stroke-width:1.0;stroke-dasharray:7.0,7.0;"/><polygon fill="#A80036" points="847.73,330.49,845.8435,320.8235,844.8617,326.3945,839.2907,325.4127,847.73,330.49" style="stroke:#A80036;stroke-width:1.0;"/><text fill="#000000" font-family="sans-serif" font-size="13" lengthAdjust="spacing" textLength="24" x="804" y="259.5669">401</text><text fill="#000000" font-family="sans-serif" font-size="13" lengthAdjust="spacing" textLength="8" x="834.7473" y="319.4681">1</text><!--MD5=[ea03df4aea288cd3f3fdcccb034f793e]
@startuml
hide <<Path>> circle
hide <<Response>> circle
hide <<Parameter>> circle
hide empty methods
hide empty fields
set namespaceSeparator none

class "AccessToken" {
  accessToken : string
  expiresAt : timestamp
}

class "Error" {
  code : string
  message : timestamp
}

class "Author" {
  fullname : string
  country : string {O}
  birthYear : date {O}
  gender : string {O}
}

class "BookGenre" {
  value : string
}

class "Book" {
  id : integer
  title : string
  totalPages : integer
  publishingHouse : string
}

class "UnauthorizedError" <<Response>> {
}

class "POST /login" <<Path>> {
}

class "POST /login Request" <<RequestBody>> {
  username : string
  password : string
}

class "GET /books" <<Path>> {
  offset : integer
  limit : integer
  search : string {O}
}

class "GET /books.genre" <<Parameter>> {
}

class "GET /books 200" <<Response>> {
}

class "POST /books" <<Path>> {
}

"Book" - -> "0..1" "BookGenre"  :  "genre"

"Book" - -> "1" "Author"  :  "author"

"POST /login" ..> "1" "AccessToken"  :  "200"

"POST /login" ..> "1" "Error"  :  "400"

"POST /login" - -> "1" "POST /login Request"

"GET /books.genre" - -> "1" "BookGenre"

"GET /books" - -> "0..1" "GET /books.genre"  :  "genre"

"GET /books 200" - -> "*" "Book"

"GET /books" ..> "1" "GET /books 200"  :  "200"

"GET /books" ..> "1" "UnauthorizedError"  :  "401"

"GET /books" ..> "1" "Error"  :  "400"

"POST /books" ..> "1" "Book"  :  "201"

"POST /books" ..> "1" "Book"  :  "201 application/xml"

"POST /books" ..> "1" "Error"  :  "400"

"POST /books" ..> "1" "UnauthorizedError"  :  "401"

"POST /books" - -> "1" "Book"

@enduml

PlantUML version 1.2021.2(Sun Mar 07 22:10:27 AEDT 2021)
(GPL source distribution)
Java Runtime: OpenJDK Runtime Environment
JVM: OpenJDK 64-Bit Server VM
Default Encoding: UTF-8
Language: en
Country: AU
--></g></svg>