<?xml version="1.0" encoding="UTF-8" standalone="no"?><svg xmlns="http://www.w3.org/2000/svg" xmlns:xlink="http://www.w3.org/1999/xlink" contentScriptType="application/ecmascript" contentStyleType="text/css" height="555px" preserveAspectRatio="none" style="width:1148px;height:555px;" version="1.1" viewBox="0 0 1148 555" width="1148px" zoomAndPan="magnify"><defs><filter height="300%" id="f1wfif6u8nr8bm" width="300%" x="-1" y="-1"><feGaussianBlur result="blurOut" stdDeviation="2.0"/><feColorMatrix in="blurOut" result="blurOut2" type="matrix" values="0 0 0 0 0 0 0 0 0 0 0 0 0 0 0 0 0 0 .4 0"/><feOffset dx="4.0" dy="4.0" in="blurOut2" result="blurOut3"/><feBlend in="SourceGraphic" in2="blurOut3" mode="normal"/></filter></defs><g><!--MD5=[480b55fe24535af2551deb761fe5417e]
class AccessToken--><rect codeLine="6" fill="#FEFECE" filter="url(#f1wfif6u8nr8bm)" height="65.6094" id="AccessToken" style="stroke:#A80036;stroke-width:1.5;" width="138" x="7" y="294.5"/><ellipse cx="32.8" cy="310.5" fill="#ADD1B2" rx="11" ry="11" style="stroke:#A80036;stroke-width:1.0;"/><path d="M35.7688,316.1406 Q35.1906,316.4375 34.55,316.5781 Q33.9094,316.7344 33.2063,316.7344 Q30.7062,316.7344 29.3781,315.0938 Q28.0656,313.4375 28.0656,310.3125 Q28.0656,307.1875 29.3781,305.5313 Q30.7062,303.875 33.2063,303.875 Q33.9094,303.875 34.55,304.0313 Q35.2063,304.1875 35.7688,304.4844 L35.7688,307.2031 Q35.1438,306.625 34.55,306.3594 Q33.9563,306.0781 33.3313,306.0781 Q31.9875,306.0781 31.3,307.1563 Q30.6125,308.2188 30.6125,310.3125 Q30.6125,312.4063 31.3,313.4844 Q31.9875,314.5469 33.3313,314.5469 Q33.9563,314.5469 34.55,314.2813 Q35.1438,314 35.7688,313.4219 L35.7688,316.1406 Z " fill="#000000"/><text fill="#000000" font-family="sans-serif" font-size="12" lengthAdjust="spacing" textLength="82" x="49.2" y="314.6543">AccessToken</text><line style="stroke:#A80036;stroke-width:1.5;" x1="8" x2="144" y1="326.5" y2="326.5"/><text fill="#000000" font-family="sans-serif" font-size="11" lengthAdjust="spacing" textLength="119" x="13" y="340.7104">accessToken : string</text><text fill="#000000" font-family="sans-serif" font-size="11" lengthAdjust="spacing" textLength="126" x="13" y="353.5151">expiresAt : timestamp</text><!--MD5=[b8cfd8c4119a3b0a7a46bfc5fc780f85]
class Error--><rect codeLine="11" fill="#FEFECE" filter="url(#f1wfif6u8nr8bm)" height="65.6094" id="Error" style="stroke:#A80036;stroke-width:1.5;" width="138" x="373" y="294.5"/><ellipse cx="422.25" cy="310.5" fill="#ADD1B2" rx="11" ry="11" style="stroke:#A80036;stroke-width:1.0;"/><path d="M425.2188,316.1406 Q424.6406,316.4375 424,316.5781 Q423.3594,316.7344 422.6563,316.7344 Q420.1563,316.7344 418.8281,315.0938 Q417.5156,313.4375 417.5156,310.3125 Q417.5156,307.1875 418.8281,305.5313 Q420.1563,303.875 422.6563,303.875 Q423.3594,303.875 424,304.0313 Q424.6563,304.1875 425.2188,304.4844 L425.2188,307.2031 Q424.5938,306.625 424,306.3594 Q423.4063,306.0781 422.7813,306.0781 Q421.4375,306.0781 420.75,307.1563 Q420.0625,308.2188 420.0625,310.3125 Q420.0625,312.4063 420.75,313.4844 Q421.4375,314.5469 422.7813,314.5469 Q423.4063,314.5469 424,314.2813 Q424.5938,314 425.2188,313.4219 L425.2188,316.1406 Z " fill="#000000"/><text fill="#000000" font-family="sans-serif" font-size="12" lengthAdjust="spacing" textLength="31" x="442.75" y="314.6543">Error</text><line style="stroke:#A80036;stroke-width:1.5;" x1="374" x2="510" y1="326.5" y2="326.5"/><text fill="#000000" font-family="sans-serif" font-size="11" lengthAdjust="spacing" textLength="72" x="379" y="340.7104">code : string</text><text fill="#000000" font-family="sans-serif" font-size="11" lengthAdjust="spacing" textLength="126" x="379" y="353.5151">message : timestamp</text><!--MD5=[c3f280b58e8dd0683e81b8ec31306a35]
class Author--><rect codeLine="16" fill="#FEFECE" filter="url(#f1wfif6u8nr8bm)" height="91.2188" id="Author" style="stroke:#A80036;stroke-width:1.5;" width="128" x="558" y="450"/><ellipse cx="597.3" cy="466" fill="#ADD1B2" rx="11" ry="11" style="stroke:#A80036;stroke-width:1.0;"/><path d="M600.2688,471.6406 Q599.6906,471.9375 599.05,472.0781 Q598.4094,472.2344 597.7063,472.2344 Q595.2063,472.2344 593.8781,470.5938 Q592.5656,468.9375 592.5656,465.8125 Q592.5656,462.6875 593.8781,461.0313 Q595.2063,459.375 597.7063,459.375 Q598.4094,459.375 599.05,459.5313 Q599.7063,459.6875 600.2688,459.9844 L600.2688,462.7031 Q599.6438,462.125 599.05,461.8594 Q598.4563,461.5781 597.8313,461.5781 Q596.4875,461.5781 595.8,462.6563 Q595.1125,463.7188 595.1125,465.8125 Q595.1125,467.9063 595.8,468.9844 Q596.4875,470.0469 597.8313,470.0469 Q598.4563,470.0469 599.05,469.7813 Q599.6438,469.5 600.2688,468.9219 L600.2688,471.6406 Z " fill="#000000"/><text fill="#000000" font-family="sans-serif" font-size="12" lengthAdjust="spacing" textLength="42" x="616.7" y="470.1543">Author</text><line style="stroke:#A80036;stroke-width:1.5;" x1="559" x2="685" y1="482" y2="482"/><text fill="#000000" font-family="sans-serif" font-size="11" lengthAdjust="spacing" textLength="94" x="564" y="496.2104">fullname : string</text><text fill="#000000" font-family="sans-serif" font-size="11" lengthAdjust="spacing" textLength="114" x="564" y="509.0151">country : string {O}</text><text fill="#000000" font-family="sans-serif" font-size="11" lengthAdjust="spacing" textLength="116" x="564" y="521.8198">birthYear : date {O}</text><text fill="#000000" font-family="sans-serif" font-size="11" lengthAdjust="spacing" textLength="112" x="564" y="534.6245">gender : string {O}</text><!--MD5=[838cb3b9b512e84757c00d0249b7cc0a]
class BookGenre--><rect codeLine="23" fill="#FEFECE" filter="url(#f1wfif6u8nr8bm)" height="52.8047" id="BookGenre" style="stroke:#A80036;stroke-width:1.5;" width="101" x="753.5" y="469"/><ellipse cx="768.5" cy="485" fill="#ADD1B2" rx="11" ry="11" style="stroke:#A80036;stroke-width:1.0;"/><path d="M771.4688,490.6406 Q770.8906,490.9375 770.25,491.0781 Q769.6094,491.2344 768.9063,491.2344 Q766.4063,491.2344 765.0781,489.5938 Q763.7656,487.9375 763.7656,484.8125 Q763.7656,481.6875 765.0781,480.0313 Q766.4063,478.375 768.9063,478.375 Q769.6094,478.375 770.25,478.5313 Q770.9063,478.6875 771.4688,478.9844 L771.4688,481.7031 Q770.8438,481.125 770.25,480.8594 Q769.6563,480.5781 769.0313,480.5781 Q767.6875,480.5781 767,481.6563 Q766.3125,482.7188 766.3125,484.8125 Q766.3125,486.9063 767,487.9844 Q767.6875,489.0469 769.0313,489.0469 Q769.6563,489.0469 770.25,488.7813 Q770.8438,488.5 771.4688,487.9219 L771.4688,490.6406 Z " fill="#000000"/><text fill="#000000" font-family="sans-serif" font-size="12" lengthAdjust="spacing" textLength="69" x="782.5" y="489.1543">BookGenre</text><line style="stroke:#A80036;stroke-width:1.5;" x1="754.5" x2="853.5" y1="501" y2="501"/><text fill="#000000" font-family="sans-serif" font-size="11" lengthAdjust="spacing" textLength="75" x="759.5" y="515.2104">value : string</text><!--MD5=[84e3a5e42879fb3231104d3c8e592439]
class Book--><rect codeLine="27" fill="#FEFECE" filter="url(#f1wfif6u8nr8bm)" height="91.2188" id="Book" style="stroke:#A80036;stroke-width:1.5;" width="151" x="546.5" y="282"/><ellipse cx="602.25" cy="298" fill="#ADD1B2" rx="11" ry="11" style="stroke:#A80036;stroke-width:1.0;"/><path d="M605.2188,303.6406 Q604.6406,303.9375 604,304.0781 Q603.3594,304.2344 602.6563,304.2344 Q600.1563,304.2344 598.8281,302.5938 Q597.5156,300.9375 597.5156,297.8125 Q597.5156,294.6875 598.8281,293.0313 Q600.1563,291.375 602.6563,291.375 Q603.3594,291.375 604,291.5313 Q604.6563,291.6875 605.2188,291.9844 L605.2188,294.7031 Q604.5938,294.125 604,293.8594 Q603.4063,293.5781 602.7813,293.5781 Q601.4375,293.5781 600.75,294.6563 Q600.0625,295.7188 600.0625,297.8125 Q600.0625,299.9063 600.75,300.9844 Q601.4375,302.0469 602.7813,302.0469 Q603.4063,302.0469 604,301.7813 Q604.5938,301.5 605.2188,300.9219 L605.2188,303.6406 Z " fill="#000000"/><text fill="#000000" font-family="sans-serif" font-size="12" lengthAdjust="spacing" textLength="31" x="622.75" y="302.1543">Book</text><line style="stroke:#A80036;stroke-width:1.5;" x1="547.5" x2="696.5" y1="314" y2="314"/><text fill="#000000" font-family="sans-serif" font-size="11" lengthAdjust="spacing" textLength="62" x="552.5" y="328.2104">id : integer</text><text fill="#000000" font-family="sans-serif" font-size="11" lengthAdjust="spacing" textLength="66" x="552.5" y="341.0151">title : string</text><text fill="#000000" font-family="sans-serif" font-size="11" lengthAdjust="spacing" textLength="112" x="552.5" y="353.8198">totalPages : integer</text><text fill="#000000" font-family="sans-serif" font-size="11" lengthAdjust="spacing" textLength="139" x="552.5" y="366.6245">publishingHouse : string</text><!--MD5=[2b9df03c28d9cb9ddfcbffc750f34f92]
class POST /login--><rect codeLine="34" fill="#FEFECE" filter="url(#f1wfif6u8nr8bm)" height="37.9375" id="POST /login" style="stroke:#A80036;stroke-width:1.5;" width="76" x="221" y="159.5"/><text fill="#000000" font-family="sans-serif" font-size="12" font-style="italic" lengthAdjust="spacing" textLength="61" x="228.5" y="175.6387">«Method»</text><text fill="#000000" font-family="sans-serif" font-size="12" lengthAdjust="spacing" textLength="70" x="224" y="189.6074">POST /login</text><!--MD5=[7ed6c87dba96c2e22350af2d871c6ccf]
class POST /login Request--><rect codeLine="37" fill="#FEFECE" filter="url(#f1wfif6u8nr8bm)" height="65.6094" id="POST /login Request" style="stroke:#A80036;stroke-width:1.5;" width="158" x="180" y="294.5"/><ellipse cx="195" cy="310.5" fill="#ADD1B2" rx="11" ry="11" style="stroke:#A80036;stroke-width:1.0;"/><path d="M197.9688,316.1406 Q197.3906,316.4375 196.75,316.5781 Q196.1094,316.7344 195.4063,316.7344 Q192.9063,316.7344 191.5781,315.0938 Q190.2656,313.4375 190.2656,310.3125 Q190.2656,307.1875 191.5781,305.5313 Q192.9063,303.875 195.4063,303.875 Q196.1094,303.875 196.75,304.0313 Q197.4063,304.1875 197.9688,304.4844 L197.9688,307.2031 Q197.3438,306.625 196.75,306.3594 Q196.1563,306.0781 195.5313,306.0781 Q194.1875,306.0781 193.5,307.1563 Q192.8125,308.2188 192.8125,310.3125 Q192.8125,312.4063 193.5,313.4844 Q194.1875,314.5469 195.5313,314.5469 Q196.1563,314.5469 196.75,314.2813 Q197.3438,314 197.9688,313.4219 L197.9688,316.1406 Z " fill="#000000"/><text fill="#000000" font-family="sans-serif" font-size="12" lengthAdjust="spacing" textLength="126" x="209" y="314.6543">POST /login Request</text><line style="stroke:#A80036;stroke-width:1.5;" x1="181" x2="337" y1="326.5" y2="326.5"/><text fill="#000000" font-family="sans-serif" font-size="11" lengthAdjust="spacing" textLength="103" x="186" y="340.7104">username : string</text><text fill="#000000" font-family="sans-serif" font-size="11" lengthAdjust="spacing" textLength="101" x="186" y="353.5151">password : string</text><!--MD5=[5e99ce8bea90170f1a35f5d25331a19c]
class GET /books--><rect codeLine="42" fill="#FEFECE" filter="url(#f1wfif6u8nr8bm)" height="84.3516" id="GET /books" style="stroke:#A80036;stroke-width:1.5;" width="123" x="797.5" y="7"/><text fill="#000000" font-family="sans-serif" font-size="12" font-style="italic" lengthAdjust="spacing" textLength="61" x="828.5" y="23.1387">«Method»</text><text fill="#000000" font-family="sans-serif" font-size="12" lengthAdjust="spacing" textLength="70" x="824" y="37.1074">GET /books</text><line style="stroke:#A80036;stroke-width:1.5;" x1="798.5" x2="919.5" y1="44.9375" y2="44.9375"/><text fill="#000000" font-family="sans-serif" font-size="11" lengthAdjust="spacing" textLength="85" x="803.5" y="59.1479">offset : integer</text><text fill="#000000" font-family="sans-serif" font-size="11" lengthAdjust="spacing" textLength="76" x="803.5" y="71.9526">limit : integer</text><text fill="#000000" font-family="sans-serif" font-size="11" lengthAdjust="spacing" textLength="111" x="803.5" y="84.7573">search : string {O}</text><!--MD5=[58a2a027698b22c6e215713a852d63f5]
class GET /books.offset--><rect codeLine="48" fill="#FEFECE" filter="url(#f1wfif6u8nr8bm)" height="52.8047" id="GET /books.offset" style="stroke:#A80036;stroke-width:1.5;" width="142" x="40" y="22.5"/><ellipse cx="55" cy="38.5" fill="#ADD1B2" rx="11" ry="11" style="stroke:#A80036;stroke-width:1.0;"/><path d="M57.9688,44.1406 Q57.3906,44.4375 56.75,44.5781 Q56.1094,44.7344 55.4063,44.7344 Q52.9063,44.7344 51.5781,43.0938 Q50.2656,41.4375 50.2656,38.3125 Q50.2656,35.1875 51.5781,33.5313 Q52.9063,31.875 55.4063,31.875 Q56.1094,31.875 56.75,32.0313 Q57.4063,32.1875 57.9688,32.4844 L57.9688,35.2031 Q57.3438,34.625 56.75,34.3594 Q56.1563,34.0781 55.5313,34.0781 Q54.1875,34.0781 53.5,35.1563 Q52.8125,36.2188 52.8125,38.3125 Q52.8125,40.4063 53.5,41.4844 Q54.1875,42.5469 55.5313,42.5469 Q56.1563,42.5469 56.75,42.2813 Q57.3438,42 57.9688,41.4219 L57.9688,44.1406 Z " fill="#000000"/><text fill="#000000" font-family="sans-serif" font-size="12" lengthAdjust="spacing" textLength="110" x="69" y="42.6543">GET /books.offset</text><line style="stroke:#A80036;stroke-width:1.5;" x1="41" x2="181" y1="54.5" y2="54.5"/><text fill="#000000" font-family="sans-serif" font-size="11" lengthAdjust="spacing" textLength="82" x="46" y="68.7104">value : integer</text><!--MD5=[dc9a3b6d884bdef2e7c3e489f9c90ae5]
class GET /books.limit--><rect codeLine="52" fill="#FEFECE" filter="url(#f1wfif6u8nr8bm)" height="52.8047" id="GET /books.limit" style="stroke:#A80036;stroke-width:1.5;" width="131" x="217.5" y="22.5"/><ellipse cx="232.5" cy="38.5" fill="#ADD1B2" rx="11" ry="11" style="stroke:#A80036;stroke-width:1.0;"/><path d="M235.4688,44.1406 Q234.8906,44.4375 234.25,44.5781 Q233.6094,44.7344 232.9063,44.7344 Q230.4063,44.7344 229.0781,43.0938 Q227.7656,41.4375 227.7656,38.3125 Q227.7656,35.1875 229.0781,33.5313 Q230.4063,31.875 232.9063,31.875 Q233.6094,31.875 234.25,32.0313 Q234.9063,32.1875 235.4688,32.4844 L235.4688,35.2031 Q234.8438,34.625 234.25,34.3594 Q233.6563,34.0781 233.0313,34.0781 Q231.6875,34.0781 231,35.1563 Q230.3125,36.2188 230.3125,38.3125 Q230.3125,40.4063 231,41.4844 Q231.6875,42.5469 233.0313,42.5469 Q233.6563,42.5469 234.25,42.2813 Q234.8438,42 235.4688,41.4219 L235.4688,44.1406 Z " fill="#000000"/><text fill="#000000" font-family="sans-serif" font-size="12" lengthAdjust="spacing" textLength="99" x="246.5" y="42.6543">GET /books.limit</text><line style="stroke:#A80036;stroke-width:1.5;" x1="218.5" x2="347.5" y1="54.5" y2="54.5"/><text fill="#000000" font-family="sans-serif" font-size="11" lengthAdjust="spacing" textLength="82" x="223.5" y="68.7104">value : integer</text><!--MD5=[147bda4e0db56c9860fdabfb5ee90c77]
class GET /books.genre--><rect codeLine="56" fill="#FEFECE" filter="url(#f1wfif6u8nr8bm)" height="32" id="GET /books.genre" style="stroke:#A80036;stroke-width:1.5;" width="143" x="732.5" y="311.5"/><ellipse cx="747.5" cy="327.5" fill="#ADD1B2" rx="11" ry="11" style="stroke:#A80036;stroke-width:1.0;"/><path d="M750.4688,333.1406 Q749.8906,333.4375 749.25,333.5781 Q748.6094,333.7344 747.9063,333.7344 Q745.4063,333.7344 744.0781,332.0938 Q742.7656,330.4375 742.7656,327.3125 Q742.7656,324.1875 744.0781,322.5313 Q745.4063,320.875 747.9063,320.875 Q748.6094,320.875 749.25,321.0313 Q749.9063,321.1875 750.4688,321.4844 L750.4688,324.2031 Q749.8438,323.625 749.25,323.3594 Q748.6563,323.0781 748.0313,323.0781 Q746.6875,323.0781 746,324.1563 Q745.3125,325.2188 745.3125,327.3125 Q745.3125,329.4063 746,330.4844 Q746.6875,331.5469 748.0313,331.5469 Q748.6563,331.5469 749.25,331.2813 Q749.8438,331 750.4688,330.4219 L750.4688,333.1406 Z " fill="#000000"/><text fill="#000000" font-family="sans-serif" font-size="12" lengthAdjust="spacing" textLength="111" x="761.5" y="331.6543">GET /books.genre</text><!--MD5=[33185d3b0250acbac67ebe0b5930480d]
class GET /books.search--><rect codeLine="59" fill="#FEFECE" filter="url(#f1wfif6u8nr8bm)" height="52.8047" id="GET /books.search" style="stroke:#A80036;stroke-width:1.5;" width="149" x="36.5" y="152"/><ellipse cx="51.5" cy="168" fill="#ADD1B2" rx="11" ry="11" style="stroke:#A80036;stroke-width:1.0;"/><path d="M54.4688,173.6406 Q53.8906,173.9375 53.25,174.0781 Q52.6094,174.2344 51.9063,174.2344 Q49.4063,174.2344 48.0781,172.5938 Q46.7656,170.9375 46.7656,167.8125 Q46.7656,164.6875 48.0781,163.0313 Q49.4063,161.375 51.9063,161.375 Q52.6094,161.375 53.25,161.5313 Q53.9063,161.6875 54.4688,161.9844 L54.4688,164.7031 Q53.8438,164.125 53.25,163.8594 Q52.6563,163.5781 52.0313,163.5781 Q50.6875,163.5781 50,164.6563 Q49.3125,165.7188 49.3125,167.8125 Q49.3125,169.9063 50,170.9844 Q50.6875,172.0469 52.0313,172.0469 Q52.6563,172.0469 53.25,171.7813 Q53.8438,171.5 54.4688,170.9219 L54.4688,173.6406 Z " fill="#000000"/><text fill="#000000" font-family="sans-serif" font-size="12" lengthAdjust="spacing" textLength="117" x="65.5" y="172.1543">GET /books.search</text><line style="stroke:#A80036;stroke-width:1.5;" x1="37.5" x2="184.5" y1="184" y2="184"/><text fill="#000000" font-family="sans-serif" font-size="11" lengthAdjust="spacing" textLength="75" x="42.5" y="198.2104">value : string</text><!--MD5=[d30a264e70cd6c0e9a05b521f067f6ab]
class GET /books 200 application/json--><rect codeLine="63" fill="#FEFECE" filter="url(#f1wfif6u8nr8bm)" height="32" id="GET /books 200 application/json" style="stroke:#A80036;stroke-width:1.5;" width="233" x="495.5" y="162.5"/><ellipse cx="510.5" cy="178.5" fill="#ADD1B2" rx="11" ry="11" style="stroke:#A80036;stroke-width:1.0;"/><path d="M513.4688,184.1406 Q512.8906,184.4375 512.25,184.5781 Q511.6094,184.7344 510.9063,184.7344 Q508.4063,184.7344 507.0781,183.0938 Q505.7656,181.4375 505.7656,178.3125 Q505.7656,175.1875 507.0781,173.5313 Q508.4063,171.875 510.9063,171.875 Q511.6094,171.875 512.25,172.0313 Q512.9063,172.1875 513.4688,172.4844 L513.4688,175.2031 Q512.8438,174.625 512.25,174.3594 Q511.6563,174.0781 511.0313,174.0781 Q509.6875,174.0781 509,175.1563 Q508.3125,176.2188 508.3125,178.3125 Q508.3125,180.4063 509,181.4844 Q509.6875,182.5469 511.0313,182.5469 Q511.6563,182.5469 512.25,182.2813 Q512.8438,182 513.4688,181.4219 L513.4688,184.1406 Z " fill="#000000"/><text fill="#000000" font-family="sans-serif" font-size="12" lengthAdjust="spacing" textLength="201" x="524.5" y="182.6543">GET /books 200 application/json</text><!--MD5=[77bd6de3d50bbd86e1697f981634415e]
class POST /books--><rect codeLine="66" fill="#FEFECE" filter="url(#f1wfif6u8nr8bm)" height="37.9375" id="POST /books" style="stroke:#A80036;stroke-width:1.5;" width="84" x="764" y="159.5"/><text fill="#000000" font-family="sans-serif" font-size="12" font-style="italic" lengthAdjust="spacing" textLength="61" x="775.5" y="175.6387">«Method»</text><text fill="#000000" font-family="sans-serif" font-size="12" lengthAdjust="spacing" textLength="78" x="767" y="189.6074">POST /books</text><!--MD5=[e2b95b101f0494a418d91c87d5c90f1d]
class UnauthorizedError--><rect fill="#FEFECE" filter="url(#f1wfif6u8nr8bm)" height="32" id="UnauthorizedError" style="stroke:#A80036;stroke-width:1.5;" width="146" x="911" y="311.5"/><ellipse cx="926" cy="327.5" fill="#ADD1B2" rx="11" ry="11" style="stroke:#A80036;stroke-width:1.0;"/><path d="M928.9688,333.1406 Q928.3906,333.4375 927.75,333.5781 Q927.1094,333.7344 926.4063,333.7344 Q923.9063,333.7344 922.5781,332.0938 Q921.2656,330.4375 921.2656,327.3125 Q921.2656,324.1875 922.5781,322.5313 Q923.9063,320.875 926.4063,320.875 Q927.1094,320.875 927.75,321.0313 Q928.4063,321.1875 928.9688,321.4844 L928.9688,324.2031 Q928.3438,323.625 927.75,323.3594 Q927.1563,323.0781 926.5313,323.0781 Q925.1875,323.0781 924.5,324.1563 Q923.8125,325.2188 923.8125,327.3125 Q923.8125,329.4063 924.5,330.4844 Q925.1875,331.5469 926.5313,331.5469 Q927.1563,331.5469 927.75,331.2813 Q928.3438,331 928.9688,330.4219 L928.9688,333.1406 Z " fill="#000000"/><text fill="#000000" font-family="sans-serif" font-size="12" lengthAdjust="spacing" textLength="114" x="940" y="331.6543">UnauthorizedError</text><!--MD5=[7efc6e0f254cd69f1fdf08743ee3b607]
link Book to BookGenre--><path codeLine="69" d="M671.25,373.42 C703.26,402.62 744.07,439.83 771.93,465.25 " fill="none" id="Book-to-BookGenre" style="stroke:#A80036;stroke-width:1.0;"/><polygon fill="#A80036" points="775.95,468.91,771.9916,459.8916,772.2542,465.5424,766.6034,465.8049,775.95,468.91" style="stroke:#A80036;stroke-width:1.0;"/><text fill="#000000" font-family="sans-serif" font-size="13" lengthAdjust="spacing" textLength="37" x="720" y="416.0669">genre</text><text fill="#000000" font-family="sans-serif" font-size="13" lengthAdjust="spacing" textLength="24" x="742.6884" y="458.1315">0..1</text><!--MD5=[708ece48ef120737d1cb93104a627dff]
link Book to Author--><path codeLine="71" d="M622,373.42 C622,395.47 622,422.1 622,444.76 " fill="none" id="Book-to-Author" style="stroke:#A80036;stroke-width:1.0;"/><polygon fill="#A80036" points="622,449.83,626,440.83,622,444.83,618,440.83,622,449.83" style="stroke:#A80036;stroke-width:1.0;"/><text fill="#000000" font-family="sans-serif" font-size="13" lengthAdjust="spacing" textLength="42" x="623" y="416.0669">author</text><text fill="#000000" font-family="sans-serif" font-size="13" lengthAdjust="spacing" textLength="8" x="613.4125" y="439.0812">1</text><!--MD5=[7ba95e1d098153b54f522cf8b99e6133]
link POST /login to AccessToken--><path codeLine="73" d="M236.56,197.53 C207.65,220.75 156.73,261.65 119.98,291.17 " fill="none" id="POST /login-to-AccessToken" style="stroke:#A80036;stroke-width:1.0;stroke-dasharray:7.0,7.0;"/><polygon fill="#A80036" points="116.02,294.35,125.5432,291.8385,119.9202,291.2213,120.5373,285.5982,116.02,294.35" style="stroke:#A80036;stroke-width:1.0;"/><text fill="#000000" font-family="sans-serif" font-size="13" lengthAdjust="spacing" textLength="8" x="115.1114" y="283.4655">1</text><!--MD5=[57665c253550576375cc7673b1742735]
link POST /login to Error--><path codeLine="75" d="M281.44,197.53 C310.35,220.75 361.27,261.65 398.02,291.17 " fill="none" id="POST /login-to-Error" style="stroke:#A80036;stroke-width:1.0;stroke-dasharray:7.0,7.0;"/><polygon fill="#A80036" points="401.98,294.35,397.4627,285.5982,398.0798,291.2213,392.4568,291.8385,401.98,294.35" style="stroke:#A80036;stroke-width:1.0;"/><text fill="#000000" font-family="sans-serif" font-size="13" lengthAdjust="spacing" textLength="8" x="385.3136" y="283.4655">1</text><!--MD5=[4c00e1ac54b502d4a11aaf95726f8a2a]
link POST /login to POST /login Request--><path codeLine="77" d="M259,197.53 C259,220.19 259,259.67 259,289 " fill="none" id="POST /login-to-POST /login Request" style="stroke:#A80036;stroke-width:1.0;stroke-dasharray:7.0,7.0;"/><polygon fill="#A80036" points="259,294.35,263,285.35,259,289.35,255,285.35,259,294.35" style="stroke:#A80036;stroke-width:1.0;"/><text fill="#000000" font-family="sans-serif" font-size="13" lengthAdjust="spacing" textLength="8" x="250.2125" y="283.4655">1</text><!--MD5=[31fd47019a808f0a2720cd763b03d802]
link GET /books.genre to BookGenre--><path codeLine="79" d="M804,343.52 C804,370.6 804,428.1 804,463.8 " fill="none" id="GET /books.genre-to-BookGenre" style="stroke:#A80036;stroke-width:1.0;"/><polygon fill="#A80036" points="804,468.91,808,459.91,804,463.91,800,459.91,804,468.91" style="stroke:#A80036;stroke-width:1.0;"/><text fill="#000000" font-family="sans-serif" font-size="13" lengthAdjust="spacing" textLength="8" x="795.075" y="458.1315">1</text><!--MD5=[ae0c4da99d5588654efc19478d8a93bf]
link GET /books to BookGenre--><path codeLine="81" d="M920.84,90.54 C1005.91,151.48 1141.37,270.51 1075,373 C1027.47,446.39 923.99,475.87 859.55,487.4 " fill="none" id="GET /books-to-BookGenre" style="stroke:#A80036;stroke-width:1.0;stroke-dasharray:7.0,7.0;"/><polygon fill="#A80036" points="854.59,488.27,864.1423,490.6688,859.5161,487.4133,862.7715,482.7871,854.59,488.27" style="stroke:#A80036;stroke-width:1.0;"/><text fill="#000000" font-family="sans-serif" font-size="13" lengthAdjust="spacing" textLength="37" x="1076" y="248.0669">genre</text><text fill="#000000" font-family="sans-serif" font-size="13" lengthAdjust="spacing" textLength="8" x="862.6079" y="483.1975">1</text><!--MD5=[e19569a84dc6831f45c1bc466877521a]
link GET /books 200 application/json to Book--><path codeLine="83" d="M613.03,194.68 C614.34,213.88 616.65,247.89 618.6,276.56 " fill="none" id="GET /books 200 application/json-to-Book" style="stroke:#A80036;stroke-width:1.0;"/><polygon fill="#A80036" points="618.96,281.84,622.3595,272.5964,618.6312,276.8508,614.3768,273.1225,618.96,281.84" style="stroke:#A80036;stroke-width:1.0;"/><text fill="#000000" font-family="sans-serif" font-size="13" lengthAdjust="spacing" textLength="7" x="610.9994" y="271.0927">*</text><!--MD5=[5a509397f2dc6cbe8ca11df6fab9c1a0]
link GET /books to GET /books 200 application/json--><path codeLine="85" d="M797.31,81.84 C749.39,106.58 684.74,139.95 645.84,160.03 " fill="none" id="GET /books-to-GET /books 200 application/json" style="stroke:#A80036;stroke-width:1.0;stroke-dasharray:7.0,7.0;"/><polygon fill="#A80036" points="641.22,162.42,651.0514,161.8346,645.6603,160.1213,647.3736,154.7302,641.22,162.42" style="stroke:#A80036;stroke-width:1.0;"/><text fill="#000000" font-family="sans-serif" font-size="13" lengthAdjust="spacing" textLength="8" x="641.8894" y="151.4041">1</text><!--MD5=[fb0fbcc8eb6e9636ff08105e103cd93c]
link GET /books to UnauthorizedError--><path codeLine="87" d="M877.58,91.1 C904.88,151.48 954.78,261.86 975.07,306.74 " fill="none" id="GET /books-to-UnauthorizedError" style="stroke:#A80036;stroke-width:1.0;stroke-dasharray:7.0,7.0;"/><polygon fill="#A80036" points="977.16,311.38,977.1029,301.5313,975.1028,306.8228,969.8113,304.8228,977.16,311.38" style="stroke:#A80036;stroke-width:1.0;"/><text fill="#000000" font-family="sans-serif" font-size="13" lengthAdjust="spacing" textLength="8" x="965.4337" y="300.3503">1</text><!--MD5=[9d51a88ab644a29f9d5554ed47199a1e]
link GET /books to Error--><path codeLine="89" d="M797.37,58.55 C701.08,73.18 521.47,105.93 478,152 C443.26,188.82 438.22,249.88 439.11,289.13 " fill="none" id="GET /books-to-Error" style="stroke:#A80036;stroke-width:1.0;stroke-dasharray:7.0,7.0;"/><polygon fill="#A80036" points="439.27,294.29,443.0113,285.1794,439.1272,289.292,435.0146,285.4079,439.27,294.29" style="stroke:#A80036;stroke-width:1.0;"/><text fill="#000000" font-family="sans-serif" font-size="13" lengthAdjust="spacing" textLength="8" x="429.945" y="283.3936">1</text><!--MD5=[712ae87b5092e0b79371a16ea00ccc41]
link POST /books to Book--><path codeLine="91" d="M765.49,197.53 C732.56,217.56 688.73,250.75 657.35,278.45 " fill="none" id="POST /books-to-Book" style="stroke:#A80036;stroke-width:1.0;stroke-dasharray:7.0,7.0;"/><polygon fill="#A80036" points="653.58,281.8,662.9641,278.8104,657.317,278.4782,657.6492,272.8311,653.58,281.8" style="stroke:#A80036;stroke-width:1.0;"/><text fill="#000000" font-family="sans-serif" font-size="13" lengthAdjust="spacing" textLength="8" x="649.6308" y="271.0468">1</text><!--MD5=[712ae87b5092e0b79371a16ea00ccc41]
link POST /books to Book--><path codeLine="93" d="M783.44,197.53 C758.36,217.56 716.81,250.75 682.15,278.45 " fill="none" id="POST /books-to-Book-1" style="stroke:#A80036;stroke-width:1.0;stroke-dasharray:7.0,7.0;"/><polygon fill="#A80036" points="677.96,281.8,687.4888,279.3097,681.8671,278.68,682.4969,273.0583,677.96,281.8" style="stroke:#A80036;stroke-width:1.0;"/><text fill="#000000" font-family="sans-serif" font-size="13" lengthAdjust="spacing" textLength="8" x="677.5916" y="271.0468">1</text><!--MD5=[712ae87b5092e0b79371a16ea00ccc41]
link POST /books to Book--><path codeLine="99" d="M801.38,197.53 C783.38,218.46 741.34,253.75 701.87,282.12 " fill="none" id="POST /books-to-Book-2" style="stroke:#A80036;stroke-width:1.0;stroke-dasharray:7.0,7.0;"/><polygon fill="#A80036" points="697.57,285.2,707.2212,283.2366,701.6425,282.2992,702.5799,276.7206,697.57,285.2" style="stroke:#A80036;stroke-width:1.0;"/><text fill="#000000" font-family="sans-serif" font-size="13" lengthAdjust="spacing" textLength="8" x="705.4027" y="277.3605">1</text><!--MD5=[4356fb2a99c7e084864d271c21813bc7]
link POST /books to Error--><path codeLine="95" d="M764.5,197.53 C758.32,200.1 752.01,202.66 746,205 C650.64,242.14 622.98,241.5 529,282 C521.77,285.11 514.31,288.56 506.94,292.12 " fill="none" id="POST /books-to-Error" style="stroke:#A80036;stroke-width:1.0;stroke-dasharray:7.0,7.0;"/><polygon fill="#A80036" points="502.36,294.34,512.2032,294.0059,506.8575,292.1555,508.708,286.8098,502.36,294.34" style="stroke:#A80036;stroke-width:1.0;"/><text fill="#000000" font-family="sans-serif" font-size="13" lengthAdjust="spacing" textLength="8" x="505.4559" y="283.4535">1</text><!--MD5=[c906920510fbe9ac7ebf7399e2a9341d]
link POST /books to UnauthorizedError--><path codeLine="97" d="M827.83,197.53 C861.9,225.67 927.39,279.75 961.74,308.11 " fill="none" id="POST /books-to-UnauthorizedError" style="stroke:#A80036;stroke-width:1.0;stroke-dasharray:7.0,7.0;"/><polygon fill="#A80036" points="965.77,311.44,961.378,302.6246,961.9149,308.256,956.2836,308.7928,965.77,311.44" style="stroke:#A80036;stroke-width:1.0;"/><text fill="#000000" font-family="sans-serif" font-size="13" lengthAdjust="spacing" textLength="8" x="950.1284" y="300.431">1</text><!--MD5=[1757d3e0f083fdc8fef31e338b0f2150]
link GET /books.offset to GET /books.limit--><!--MD5=[33648455d6f697f95244b269df62fcf9]
link GET /books.offset to GET /books.search--><!--MD5=[5c95773605b5bb8a3daa9f08c333604f]
@startuml
hide <<Method>> circle
hide empty methods
hide empty fields
set namespaceSeparator none

class "AccessToken" {
  accessToken : string
  expiresAt : timestamp
}

class "Error" {
  code : string
  message : timestamp
}

class "Author" {
  fullname : string
  country : string {O}
  birthYear : date {O}
  gender : string {O}
}

class "BookGenre" {
  value : string
}

class "Book" {
  id : integer
  title : string
  totalPages : integer
  publishingHouse : string
}

class "POST /login" <<Method>> {
}

class "POST /login Request" {
  username : string
  password : string
}

class "GET /books" <<Method>> {
  offset : integer
  limit : integer
  search : string {O}
}

class "GET /books.offset" {
  value : integer
}

class "GET /books.limit" {
  value : integer
}

class "GET /books.genre" {
}

class "GET /books.search" {
  value : string
}

class "GET /books 200 application/json" {
}

class "POST /books" <<Method>> {
}

"Book" - -> "0..1" "BookGenre" : "genre"

"Book" - -> "1" "Author" : "author"

"POST /login" ..> "1" "AccessToken"

"POST /login" ..> "1" "Error"

"POST /login" ..> "1" "POST /login Request"

"GET /books.genre" - -> "1" "BookGenre"

"GET /books" ..> "1" "BookGenre" : "genre"

"GET /books 200 application/json" - -> "*" "Book"

"GET /books" ..> "1" "GET /books 200 application/json"

"GET /books" ..> "1" "UnauthorizedError"

"GET /books" ..> "1" "Error"

"POST /books" ..> "1" "Book"

"POST /books" ..> "1" "Book"

"POST /books" ..> "1" "Error"

"POST /books" ..> "1" "UnauthorizedError"

"POST /books" ..> "1" "Book"

@enduml

PlantUML version 1.2021.2(Sun Mar 07 22:10:27 AEDT 2021)
(GPL source distribution)
Java Runtime: OpenJDK Runtime Environment
JVM: OpenJDK 64-Bit Server VM
Default Encoding: UTF-8
Language: en
Country: AU
--></g></svg>