<?xml version="1.0" encoding="UTF-8" standalone="no"?><svg xmlns="http://www.w3.org/2000/svg" xmlns:xlink="http://www.w3.org/1999/xlink" contentScriptType="application/ecmascript" contentStyleType="text/css" height="524px" preserveAspectRatio="none" style="width:962px;height:524px;" version="1.1" viewBox="0 0 962 524" width="962px" zoomAndPan="magnify"><defs><filter height="300%" id="f1mwqebsys7y8i" width="300%" x="-1" y="-1"><feGaussianBlur result="blurOut" stdDeviation="2.0"/><feColorMatrix in="blurOut" result="blurOut2" type="matrix" values="0 0 0 0 0 0 0 0 0 0 0 0 0 0 0 0 0 0 .4 0"/><feOffset dx="4.0" dy="4.0" in="blurOut2" result="blurOut3"/><feBlend in="SourceGraphic" in2="blurOut3" mode="normal"/></filter></defs><g><!--MD5=[480b55fe24535af2551deb761fe5417e]
class AccessToken--><rect codeLine="6" fill="#FEFECE" filter="url(#f1mwqebsys7y8i)" height="65.6094" id="AccessToken" style="stroke:#A80036;stroke-width:1.5;" width="138" x="7" y="263.5"/><ellipse cx="32.8" cy="279.5" fill="#ADD1B2" rx="11" ry="11" style="stroke:#A80036;stroke-width:1.0;"/><path d="M35.7688,285.1406 Q35.1906,285.4375 34.55,285.5781 Q33.9094,285.7344 33.2063,285.7344 Q30.7062,285.7344 29.3781,284.0938 Q28.0656,282.4375 28.0656,279.3125 Q28.0656,276.1875 29.3781,274.5313 Q30.7062,272.875 33.2063,272.875 Q33.9094,272.875 34.55,273.0313 Q35.2063,273.1875 35.7688,273.4844 L35.7688,276.2031 Q35.1438,275.625 34.55,275.3594 Q33.9563,275.0781 33.3313,275.0781 Q31.9875,275.0781 31.3,276.1563 Q30.6125,277.2188 30.6125,279.3125 Q30.6125,281.4063 31.3,282.4844 Q31.9875,283.5469 33.3313,283.5469 Q33.9563,283.5469 34.55,283.2813 Q35.1438,283 35.7688,282.4219 L35.7688,285.1406 Z " fill="#000000"/><text fill="#000000" font-family="sans-serif" font-size="12" lengthAdjust="spacing" textLength="82" x="49.2" y="283.6543">AccessToken</text><line style="stroke:#A80036;stroke-width:1.5;" x1="8" x2="144" y1="295.5" y2="295.5"/><text fill="#000000" font-family="sans-serif" font-size="11" lengthAdjust="spacing" textLength="119" x="13" y="309.7104">accessToken : string</text><text fill="#000000" font-family="sans-serif" font-size="11" lengthAdjust="spacing" textLength="126" x="13" y="322.5151">expiresAt : timestamp</text><!--MD5=[b8cfd8c4119a3b0a7a46bfc5fc780f85]
class Error--><rect codeLine="11" fill="#FEFECE" filter="url(#f1mwqebsys7y8i)" height="65.6094" id="Error" style="stroke:#A80036;stroke-width:1.5;" width="138" x="373" y="263.5"/><ellipse cx="422.25" cy="279.5" fill="#ADD1B2" rx="11" ry="11" style="stroke:#A80036;stroke-width:1.0;"/><path d="M425.2188,285.1406 Q424.6406,285.4375 424,285.5781 Q423.3594,285.7344 422.6563,285.7344 Q420.1563,285.7344 418.8281,284.0938 Q417.5156,282.4375 417.5156,279.3125 Q417.5156,276.1875 418.8281,274.5313 Q420.1563,272.875 422.6563,272.875 Q423.3594,272.875 424,273.0313 Q424.6563,273.1875 425.2188,273.4844 L425.2188,276.2031 Q424.5938,275.625 424,275.3594 Q423.4063,275.0781 422.7813,275.0781 Q421.4375,275.0781 420.75,276.1563 Q420.0625,277.2188 420.0625,279.3125 Q420.0625,281.4063 420.75,282.4844 Q421.4375,283.5469 422.7813,283.5469 Q423.4063,283.5469 424,283.2813 Q424.5938,283 425.2188,282.4219 L425.2188,285.1406 Z " fill="#000000"/><text fill="#000000" font-family="sans-serif" font-size="12" lengthAdjust="spacing" textLength="31" x="442.75" y="283.6543">Error</text><line style="stroke:#A80036;stroke-width:1.5;" x1="374" x2="510" y1="295.5" y2="295.5"/><text fill="#000000" font-family="sans-serif" font-size="11" lengthAdjust="spacing" textLength="72" x="379" y="309.7104">code : string</text><text fill="#000000" font-family="sans-serif" font-size="11" lengthAdjust="spacing" textLength="126" x="379" y="322.5151">message : timestamp</text><!--MD5=[c3f280b58e8dd0683e81b8ec31306a35]
class Author--><rect codeLine="16" fill="#FEFECE" filter="url(#f1mwqebsys7y8i)" height="91.2188" id="Author" style="stroke:#A80036;stroke-width:1.5;" width="128" x="483" y="419"/><ellipse cx="522.3" cy="435" fill="#ADD1B2" rx="11" ry="11" style="stroke:#A80036;stroke-width:1.0;"/><path d="M525.2688,440.6406 Q524.6906,440.9375 524.05,441.0781 Q523.4094,441.2344 522.7063,441.2344 Q520.2063,441.2344 518.8781,439.5938 Q517.5656,437.9375 517.5656,434.8125 Q517.5656,431.6875 518.8781,430.0313 Q520.2063,428.375 522.7063,428.375 Q523.4094,428.375 524.05,428.5313 Q524.7063,428.6875 525.2688,428.9844 L525.2688,431.7031 Q524.6438,431.125 524.05,430.8594 Q523.4563,430.5781 522.8313,430.5781 Q521.4875,430.5781 520.8,431.6563 Q520.1125,432.7188 520.1125,434.8125 Q520.1125,436.9063 520.8,437.9844 Q521.4875,439.0469 522.8313,439.0469 Q523.4563,439.0469 524.05,438.7813 Q524.6438,438.5 525.2688,437.9219 L525.2688,440.6406 Z " fill="#000000"/><text fill="#000000" font-family="sans-serif" font-size="12" lengthAdjust="spacing" textLength="42" x="541.7" y="439.1543">Author</text><line style="stroke:#A80036;stroke-width:1.5;" x1="484" x2="610" y1="451" y2="451"/><text fill="#000000" font-family="sans-serif" font-size="11" lengthAdjust="spacing" textLength="94" x="489" y="465.2104">fullname : string</text><text fill="#000000" font-family="sans-serif" font-size="11" lengthAdjust="spacing" textLength="114" x="489" y="478.0151">country : string {O}</text><text fill="#000000" font-family="sans-serif" font-size="11" lengthAdjust="spacing" textLength="116" x="489" y="490.8198">birthYear : date {O}</text><text fill="#000000" font-family="sans-serif" font-size="11" lengthAdjust="spacing" textLength="112" x="489" y="503.6245">gender : string {O}</text><!--MD5=[838cb3b9b512e84757c00d0249b7cc0a]
class BookGenre--><rect codeLine="23" fill="#FEFECE" filter="url(#f1mwqebsys7y8i)" height="52.8047" id="BookGenre" style="stroke:#A80036;stroke-width:1.5;" width="101" x="646.5" y="438"/><ellipse cx="661.5" cy="454" fill="#ADD1B2" rx="11" ry="11" style="stroke:#A80036;stroke-width:1.0;"/><path d="M664.4688,459.6406 Q663.8906,459.9375 663.25,460.0781 Q662.6094,460.2344 661.9063,460.2344 Q659.4063,460.2344 658.0781,458.5938 Q656.7656,456.9375 656.7656,453.8125 Q656.7656,450.6875 658.0781,449.0313 Q659.4063,447.375 661.9063,447.375 Q662.6094,447.375 663.25,447.5313 Q663.9063,447.6875 664.4688,447.9844 L664.4688,450.7031 Q663.8438,450.125 663.25,449.8594 Q662.6563,449.5781 662.0313,449.5781 Q660.6875,449.5781 660,450.6563 Q659.3125,451.7188 659.3125,453.8125 Q659.3125,455.9063 660,456.9844 Q660.6875,458.0469 662.0313,458.0469 Q662.6563,458.0469 663.25,457.7813 Q663.8438,457.5 664.4688,456.9219 L664.4688,459.6406 Z " fill="#000000"/><text fill="#000000" font-family="sans-serif" font-size="12" lengthAdjust="spacing" textLength="69" x="675.5" y="458.1543">BookGenre</text><line style="stroke:#A80036;stroke-width:1.5;" x1="647.5" x2="746.5" y1="470" y2="470"/><text fill="#000000" font-family="sans-serif" font-size="11" lengthAdjust="spacing" textLength="75" x="652.5" y="484.2104">value : string</text><!--MD5=[84e3a5e42879fb3231104d3c8e592439]
class Book--><rect codeLine="27" fill="#FEFECE" filter="url(#f1mwqebsys7y8i)" height="91.2188" id="Book" style="stroke:#A80036;stroke-width:1.5;" width="151" x="546.5" y="251"/><ellipse cx="602.25" cy="267" fill="#ADD1B2" rx="11" ry="11" style="stroke:#A80036;stroke-width:1.0;"/><path d="M605.2188,272.6406 Q604.6406,272.9375 604,273.0781 Q603.3594,273.2344 602.6563,273.2344 Q600.1563,273.2344 598.8281,271.5938 Q597.5156,269.9375 597.5156,266.8125 Q597.5156,263.6875 598.8281,262.0313 Q600.1563,260.375 602.6563,260.375 Q603.3594,260.375 604,260.5313 Q604.6563,260.6875 605.2188,260.9844 L605.2188,263.7031 Q604.5938,263.125 604,262.8594 Q603.4063,262.5781 602.7813,262.5781 Q601.4375,262.5781 600.75,263.6563 Q600.0625,264.7188 600.0625,266.8125 Q600.0625,268.9063 600.75,269.9844 Q601.4375,271.0469 602.7813,271.0469 Q603.4063,271.0469 604,270.7813 Q604.5938,270.5 605.2188,269.9219 L605.2188,272.6406 Z " fill="#000000"/><text fill="#000000" font-family="sans-serif" font-size="12" lengthAdjust="spacing" textLength="31" x="622.75" y="271.1543">Book</text><line style="stroke:#A80036;stroke-width:1.5;" x1="547.5" x2="696.5" y1="283" y2="283"/><text fill="#000000" font-family="sans-serif" font-size="11" lengthAdjust="spacing" textLength="62" x="552.5" y="297.2104">id : integer</text><text fill="#000000" font-family="sans-serif" font-size="11" lengthAdjust="spacing" textLength="66" x="552.5" y="310.0151">title : string</text><text fill="#000000" font-family="sans-serif" font-size="11" lengthAdjust="spacing" textLength="112" x="552.5" y="322.8198">totalPages : integer</text><text fill="#000000" font-family="sans-serif" font-size="11" lengthAdjust="spacing" textLength="139" x="552.5" y="335.6245">publishingHouse : string</text><!--MD5=[2b9df03c28d9cb9ddfcbffc750f34f92]
class POST /login--><rect codeLine="34" fill="#FEFECE" filter="url(#f1mwqebsys7y8i)" height="37.9375" id="POST /login" style="stroke:#A80036;stroke-width:1.5;" width="76" x="221" y="152"/><text fill="#000000" font-family="sans-serif" font-size="12" font-style="italic" lengthAdjust="spacing" textLength="61" x="228.5" y="168.1387">«Method»</text><text fill="#000000" font-family="sans-serif" font-size="12" lengthAdjust="spacing" textLength="70" x="224" y="182.1074">POST /login</text><!--MD5=[7ed6c87dba96c2e22350af2d871c6ccf]
class POST /login Request--><rect codeLine="37" fill="#FEFECE" filter="url(#f1mwqebsys7y8i)" height="65.6094" id="POST /login Request" style="stroke:#A80036;stroke-width:1.5;" width="158" x="180" y="263.5"/><ellipse cx="195" cy="279.5" fill="#ADD1B2" rx="11" ry="11" style="stroke:#A80036;stroke-width:1.0;"/><path d="M197.9688,285.1406 Q197.3906,285.4375 196.75,285.5781 Q196.1094,285.7344 195.4063,285.7344 Q192.9063,285.7344 191.5781,284.0938 Q190.2656,282.4375 190.2656,279.3125 Q190.2656,276.1875 191.5781,274.5313 Q192.9063,272.875 195.4063,272.875 Q196.1094,272.875 196.75,273.0313 Q197.4063,273.1875 197.9688,273.4844 L197.9688,276.2031 Q197.3438,275.625 196.75,275.3594 Q196.1563,275.0781 195.5313,275.0781 Q194.1875,275.0781 193.5,276.1563 Q192.8125,277.2188 192.8125,279.3125 Q192.8125,281.4063 193.5,282.4844 Q194.1875,283.5469 195.5313,283.5469 Q196.1563,283.5469 196.75,283.2813 Q197.3438,283 197.9688,282.4219 L197.9688,285.1406 Z " fill="#000000"/><text fill="#000000" font-family="sans-serif" font-size="12" lengthAdjust="spacing" textLength="126" x="209" y="283.6543">POST /login Request</text><line style="stroke:#A80036;stroke-width:1.5;" x1="181" x2="337" y1="295.5" y2="295.5"/><text fill="#000000" font-family="sans-serif" font-size="11" lengthAdjust="spacing" textLength="103" x="186" y="309.7104">username : string</text><text fill="#000000" font-family="sans-serif" font-size="11" lengthAdjust="spacing" textLength="101" x="186" y="322.5151">password : string</text><!--MD5=[5e99ce8bea90170f1a35f5d25331a19c]
class GET /books--><rect codeLine="42" fill="#FEFECE" filter="url(#f1mwqebsys7y8i)" height="84.3516" id="GET /books" style="stroke:#A80036;stroke-width:1.5;" width="123" x="711.5" y="7"/><text fill="#000000" font-family="sans-serif" font-size="12" font-style="italic" lengthAdjust="spacing" textLength="61" x="742.5" y="23.1387">«Method»</text><text fill="#000000" font-family="sans-serif" font-size="12" lengthAdjust="spacing" textLength="70" x="738" y="37.1074">GET /books</text><line style="stroke:#A80036;stroke-width:1.5;" x1="712.5" x2="833.5" y1="44.9375" y2="44.9375"/><text fill="#000000" font-family="sans-serif" font-size="11" lengthAdjust="spacing" textLength="85" x="717.5" y="59.1479">offset : integer</text><text fill="#000000" font-family="sans-serif" font-size="11" lengthAdjust="spacing" textLength="76" x="717.5" y="71.9526">limit : integer</text><text fill="#000000" font-family="sans-serif" font-size="11" lengthAdjust="spacing" textLength="111" x="717.5" y="84.7573">search : string {O}</text><!--MD5=[d30a264e70cd6c0e9a05b521f067f6ab]
class GET /books 200 application/json--><rect codeLine="48" fill="#FEFECE" filter="url(#f1mwqebsys7y8i)" height="32" id="GET /books 200 application/json" style="stroke:#A80036;stroke-width:1.5;" width="233" x="656.5" y="155"/><ellipse cx="671.5" cy="171" fill="#ADD1B2" rx="11" ry="11" style="stroke:#A80036;stroke-width:1.0;"/><path d="M674.4688,176.6406 Q673.8906,176.9375 673.25,177.0781 Q672.6094,177.2344 671.9063,177.2344 Q669.4063,177.2344 668.0781,175.5938 Q666.7656,173.9375 666.7656,170.8125 Q666.7656,167.6875 668.0781,166.0313 Q669.4063,164.375 671.9063,164.375 Q672.6094,164.375 673.25,164.5313 Q673.9063,164.6875 674.4688,164.9844 L674.4688,167.7031 Q673.8438,167.125 673.25,166.8594 Q672.6563,166.5781 672.0313,166.5781 Q670.6875,166.5781 670,167.6563 Q669.3125,168.7188 669.3125,170.8125 Q669.3125,172.9063 670,173.9844 Q670.6875,175.0469 672.0313,175.0469 Q672.6563,175.0469 673.25,174.7813 Q673.8438,174.5 674.4688,173.9219 L674.4688,176.6406 Z " fill="#000000"/><text fill="#000000" font-family="sans-serif" font-size="12" lengthAdjust="spacing" textLength="201" x="685.5" y="175.1543">GET /books 200 application/json</text><!--MD5=[77bd6de3d50bbd86e1697f981634415e]
class POST /books--><rect codeLine="51" fill="#FEFECE" filter="url(#f1mwqebsys7y8i)" height="37.9375" id="POST /books" style="stroke:#A80036;stroke-width:1.5;" width="84" x="537" y="152"/><text fill="#000000" font-family="sans-serif" font-size="12" font-style="italic" lengthAdjust="spacing" textLength="61" x="548.5" y="168.1387">«Method»</text><text fill="#000000" font-family="sans-serif" font-size="12" lengthAdjust="spacing" textLength="78" x="540" y="182.1074">POST /books</text><!--MD5=[e2b95b101f0494a418d91c87d5c90f1d]
class UnauthorizedError--><rect fill="#FEFECE" filter="url(#f1mwqebsys7y8i)" height="32" id="UnauthorizedError" style="stroke:#A80036;stroke-width:1.5;" width="146" x="802" y="280.5"/><ellipse cx="817" cy="296.5" fill="#ADD1B2" rx="11" ry="11" style="stroke:#A80036;stroke-width:1.0;"/><path d="M819.9688,302.1406 Q819.3906,302.4375 818.75,302.5781 Q818.1094,302.7344 817.4063,302.7344 Q814.9063,302.7344 813.5781,301.0938 Q812.2656,299.4375 812.2656,296.3125 Q812.2656,293.1875 813.5781,291.5313 Q814.9063,289.875 817.4063,289.875 Q818.1094,289.875 818.75,290.0313 Q819.4063,290.1875 819.9688,290.4844 L819.9688,293.2031 Q819.3438,292.625 818.75,292.3594 Q818.1563,292.0781 817.5313,292.0781 Q816.1875,292.0781 815.5,293.1563 Q814.8125,294.2188 814.8125,296.3125 Q814.8125,298.4063 815.5,299.4844 Q816.1875,300.5469 817.5313,300.5469 Q818.1563,300.5469 818.75,300.2813 Q819.3438,300 819.9688,299.4219 L819.9688,302.1406 Z " fill="#000000"/><text fill="#000000" font-family="sans-serif" font-size="12" lengthAdjust="spacing" textLength="114" x="831" y="300.6543">UnauthorizedError</text><!--MD5=[7efc6e0f254cd69f1fdf08743ee3b607]
link Book to BookGenre--><path codeLine="54" d="M642.3,342.42 C655.28,371.17 671.79,407.69 683.25,433.07 " fill="none" id="Book-to-BookGenre" style="stroke:#A80036;stroke-width:1.0;"/><polygon fill="#A80036" points="685.33,437.67,685.2729,427.8213,683.2728,433.1128,677.9813,431.1128,685.33,437.67" style="stroke:#A80036;stroke-width:1.0;"/><text fill="#000000" font-family="sans-serif" font-size="13" lengthAdjust="spacing" textLength="37" x="662" y="385.0669">genre</text><text fill="#000000" font-family="sans-serif" font-size="13" lengthAdjust="spacing" textLength="24" x="655.8563" y="426.836">0..1</text><!--MD5=[708ece48ef120737d1cb93104a627dff]
link Book to Author--><path codeLine="56" d="M601.7,342.42 C591.7,364.56 579.61,391.32 569.34,414.05 " fill="none" id="Book-to-Author" style="stroke:#A80036;stroke-width:1.0;"/><polygon fill="#A80036" points="567.18,418.83,574.5287,412.2728,569.2372,414.2728,567.2371,408.9813,567.18,418.83" style="stroke:#A80036;stroke-width:1.0;"/><text fill="#000000" font-family="sans-serif" font-size="13" lengthAdjust="spacing" textLength="42" x="587" y="385.0669">author</text><text fill="#000000" font-family="sans-serif" font-size="13" lengthAdjust="spacing" textLength="8" x="561.5564" y="408.0812">1</text><!--MD5=[7ba95e1d098153b54f522cf8b99e6133]
link POST /login to AccessToken--><path codeLine="58" d="M232,190.22 C204.78,208.59 162.08,237.4 128.23,260.25 " fill="none" id="POST /login-to-AccessToken" style="stroke:#A80036;stroke-width:1.0;stroke-dasharray:7.0,7.0;"/><polygon fill="#A80036" points="123.73,263.29,133.4306,261.5874,127.8792,260.5,128.9666,254.9487,123.73,263.29" style="stroke:#A80036;stroke-width:1.0;"/><text fill="#000000" font-family="sans-serif" font-size="13" lengthAdjust="spacing" textLength="8" x="124.3393" y="252.3936">1</text><!--MD5=[57665c253550576375cc7673b1742735]
link POST /login to Error--><path codeLine="60" d="M286,190.22 C313.22,208.59 355.92,237.4 389.77,260.25 " fill="none" id="POST /login-to-Error" style="stroke:#A80036;stroke-width:1.0;stroke-dasharray:7.0,7.0;"/><polygon fill="#A80036" points="394.27,263.29,389.0334,254.9487,390.1208,260.5,384.5694,261.5874,394.27,263.29" style="stroke:#A80036;stroke-width:1.0;"/><text fill="#000000" font-family="sans-serif" font-size="13" lengthAdjust="spacing" textLength="8" x="376.0857" y="252.3936">1</text><!--MD5=[4c00e1ac54b502d4a11aaf95726f8a2a]
link POST /login to POST /login Request--><path codeLine="62" d="M259,190.22 C259,208.06 259,235.77 259,258.28 " fill="none" id="POST /login-to-POST /login Request" style="stroke:#A80036;stroke-width:1.0;stroke-dasharray:7.0,7.0;"/><polygon fill="#A80036" points="259,263.29,263,254.29,259,258.29,255,254.29,259,263.29" style="stroke:#A80036;stroke-width:1.0;"/><text fill="#000000" font-family="sans-serif" font-size="13" lengthAdjust="spacing" textLength="8" x="250.2125" y="252.3936">1</text><!--MD5=[e19569a84dc6831f45c1bc466877521a]
link GET /books 200 application/json to Book--><path codeLine="64" d="M754.48,187.14 C736.1,202.18 706.92,226.04 680.63,247.55 " fill="none" id="GET /books 200 application/json-to-Book" style="stroke:#A80036;stroke-width:1.0;"/><polygon fill="#A80036" points="676.43,250.98,685.9327,248.392,680.3049,247.82,680.8768,242.1922,676.43,250.98" style="stroke:#A80036;stroke-width:1.0;"/><text fill="#000000" font-family="sans-serif" font-size="13" lengthAdjust="spacing" textLength="7" x="677.2287" y="239.9216">*</text><!--MD5=[5a509397f2dc6cbe8ca11df6fab9c1a0]
link GET /books to GET /books 200 application/json--><path codeLine="66" d="M773,91.3 C773,111.03 773,133.77 773,149.71 " fill="none" id="GET /books-to-GET /books 200 application/json" style="stroke:#A80036;stroke-width:1.0;stroke-dasharray:7.0,7.0;"/><polygon fill="#A80036" points="773,154.84,777,145.84,773,149.84,769,145.84,773,154.84" style="stroke:#A80036;stroke-width:1.0;"/><text fill="#000000" font-family="sans-serif" font-size="13" lengthAdjust="spacing" textLength="8" x="763.625" y="143.7966">1</text><!--MD5=[fb0fbcc8eb6e9636ff08105e103cd93c]
link GET /books to UnauthorizedError--><path codeLine="68" d="M834.83,80.23 C862.27,97.21 891.75,121.22 907,152 C927.44,193.25 903.2,247.6 887.09,276.12 " fill="none" id="GET /books-to-UnauthorizedError" style="stroke:#A80036;stroke-width:1.0;stroke-dasharray:7.0,7.0;"/><polygon fill="#A80036" points="884.58,280.47,892.545,274.677,887.0807,276.1403,885.6174,270.6759,884.58,280.47" style="stroke:#A80036;stroke-width:1.0;"/><text fill="#000000" font-family="sans-serif" font-size="13" lengthAdjust="spacing" textLength="8" x="878.4981" y="269.4713">1</text><!--MD5=[9d51a88ab644a29f9d5554ed47199a1e]
link GET /books to Error--><path codeLine="70" d="M711.25,62.36 C655.72,76.15 574.71,103.23 520,152 C487.65,180.84 466.13,226.38 454.03,258.41 " fill="none" id="GET /books-to-Error" style="stroke:#A80036;stroke-width:1.0;stroke-dasharray:7.0,7.0;"/><polygon fill="#A80036" points="452.17,263.43,459.0377,256.3706,453.9005,258.739,451.5321,253.6018,452.17,263.43" style="stroke:#A80036;stroke-width:1.0;"/><text fill="#000000" font-family="sans-serif" font-size="13" lengthAdjust="spacing" textLength="8" x="445.4426" y="252.1833">1</text><!--MD5=[712ae87b5092e0b79371a16ea00ccc41]
link POST /books to Book--><path codeLine="72" d="M566.07,190.22 C565.34,204.88 570.59,226.2 578.91,245.83 " fill="none" id="POST /books-to-Book" style="stroke:#A80036;stroke-width:1.0;stroke-dasharray:7.0,7.0;"/><polygon fill="#A80036" points="581.09,250.77,581.1215,240.9212,579.0739,246.1945,573.8006,244.1469,581.09,250.77" style="stroke:#A80036;stroke-width:1.0;"/><text fill="#000000" font-family="sans-serif" font-size="13" lengthAdjust="spacing" textLength="8" x="566.4938" y="240.0124">1</text><!--MD5=[712ae87b5092e0b79371a16ea00ccc41]
link POST /books to Book--><path codeLine="74" d="M585.34,190.22 C590.45,204.88 597.87,226.2 604.7,245.83 " fill="none" id="POST /books-to-Book-1" style="stroke:#A80036;stroke-width:1.0;stroke-dasharray:7.0,7.0;"/><polygon fill="#A80036" points="606.43,250.77,607.2548,240.9557,604.7891,246.0469,599.6979,243.5812,606.43,250.77" style="stroke:#A80036;stroke-width:1.0;"/><text fill="#000000" font-family="sans-serif" font-size="13" lengthAdjust="spacing" textLength="8" x="595.5557" y="240.0124">1</text><!--MD5=[712ae87b5092e0b79371a16ea00ccc41]
link POST /books to Book--><path codeLine="80" d="M604.62,190.22 C615.56,204.88 625.15,226.2 630.5,245.83 " fill="none" id="POST /books-to-Book-2" style="stroke:#A80036;stroke-width:1.0;stroke-dasharray:7.0,7.0;"/><polygon fill="#A80036" points="631.77,250.77,633.4409,241.0639,630.5439,245.9227,625.6852,243.0257,631.77,250.77" style="stroke:#A80036;stroke-width:1.0;"/><text fill="#000000" font-family="sans-serif" font-size="13" lengthAdjust="spacing" textLength="8" x="624.6175" y="240.0124">1</text><!--MD5=[4356fb2a99c7e084864d271c21813bc7]
link POST /books to Error--><path codeLine="76" d="M558.79,190.22 C538.58,208.44 506.97,236.93 481.73,259.69 " fill="none" id="POST /books-to-Error" style="stroke:#A80036;stroke-width:1.0;stroke-dasharray:7.0,7.0;"/><polygon fill="#A80036" points="477.73,263.29,487.089,260.2226,481.4394,259.9373,481.7247,254.2876,477.73,263.29" style="stroke:#A80036;stroke-width:1.0;"/><text fill="#000000" font-family="sans-serif" font-size="13" lengthAdjust="spacing" textLength="8" x="475.9768" y="252.3936">1</text><!--MD5=[c906920510fbe9ac7ebf7399e2a9341d]
link POST /books to UnauthorizedError--><path codeLine="78" d="M621.1,189.56 C677.76,213.21 777.92,255 834.01,278.4 " fill="none" id="POST /books-to-UnauthorizedError" style="stroke:#A80036;stroke-width:1.0;stroke-dasharray:7.0,7.0;"/><polygon fill="#A80036" points="838.64,280.33,831.8786,273.1687,834.0267,278.4019,828.7936,280.55,838.64,280.33" style="stroke:#A80036;stroke-width:1.0;"/><text fill="#000000" font-family="sans-serif" font-size="13" lengthAdjust="spacing" textLength="8" x="817.2708" y="269.5782">1</text><!--MD5=[59001cf0f3530bace5ebf0cc613aac71]
@startuml
hide <<Method>> circle
hide empty methods
hide empty fields
set namespaceSeparator none

class "AccessToken" {
  accessToken : string
  expiresAt : timestamp
}

class "Error" {
  code : string
  message : timestamp
}

class "Author" {
  fullname : string
  country : string {O}
  birthYear : date {O}
  gender : string {O}
}

class "BookGenre" {
  value : string
}

class "Book" {
  id : integer
  title : string
  totalPages : integer
  publishingHouse : string
}

class "POST /login" <<Method>> {
}

class "POST /login Request" {
  username : string
  password : string
}

class "GET /books" <<Method>> {
  offset : integer
  limit : integer
  search : string {O}
}

class "GET /books 200 application/json" {
}

class "POST /books" <<Method>> {
}

"Book" - -> "0..1" "BookGenre" : "genre"

"Book" - -> "1" "Author" : "author"

"POST /login" ..> "1" "AccessToken"

"POST /login" ..> "1" "Error"

"POST /login" ..> "1" "POST /login Request"

"GET /books 200 application/json" - -> "*" "Book"

"GET /books" ..> "1" "GET /books 200 application/json"

"GET /books" ..> "1" "UnauthorizedError"

"GET /books" ..> "1" "Error"

"POST /books" ..> "1" "Book"

"POST /books" ..> "1" "Book"

"POST /books" ..> "1" "Error"

"POST /books" ..> "1" "UnauthorizedError"

"POST /books" ..> "1" "Book"

@enduml

PlantUML version 1.2021.2(Sun Mar 07 22:10:27 AEDT 2021)
(GPL source distribution)
Java Runtime: OpenJDK Runtime Environment
JVM: OpenJDK 64-Bit Server VM
Default Encoding: UTF-8
Language: en
Country: AU
--></g></svg>