<?xml version="1.0" encoding="us-ascii" standalone="no"?><svg xmlns="http://www.w3.org/2000/svg" xmlns:xlink="http://www.w3.org/1999/xlink" contentStyleType="text/css" height="659px" preserveAspectRatio="none" style="width:1064px;height:659px;background:#FFFFFF;" version="1.1" viewBox="0 0 1064 659" width="1064px" zoomAndPan="magnify"><defs/><g><!--class AccessToken--><g id="elem_AccessToken"><rect codeLine="11" fill="#F1F1F1" height="72.5938" id="AccessToken" rx="2.5" ry="2.5" style="stroke:#181818;stroke-width:0.5;" width="162" x="7" y="365"/><ellipse cx="38.2" cy="381" fill="#ADD1B2" rx="11" ry="11" style="stroke:#181818;stroke-width:1.0;"/><path d="M41.1688,386.6406 Q40.5906,386.9375 39.95,387.0781 Q39.3094,387.2344 38.6063,387.2344 Q36.1063,387.2344 34.7781,385.5938 Q33.4656,383.9375 33.4656,380.8125 Q33.4656,377.6875 34.7781,376.0313 Q36.1063,374.375 38.6063,374.375 Q39.3094,374.375 39.95,374.5313 Q40.6063,374.6875 41.1688,374.9844 L41.1688,377.7031 Q40.5438,377.125 39.95,376.8594 Q39.3563,376.5781 38.7313,376.5781 Q37.3875,376.5781 36.7,377.6563 Q36.0125,378.7188 36.0125,380.8125 Q36.0125,382.9063 36.7,383.9844 Q37.3875,385.0469 38.7313,385.0469 Q39.3563,385.0469 39.95,384.7813 Q40.5438,384.5 41.1688,383.9219 L41.1688,386.6406 Z " fill="#000000"/><text fill="#000000" font-family="sans-serif" font-size="14" lengthAdjust="spacing" textLength="94" x="55.8" y="385.8467">AccessToken</text><line style="stroke:#181818;stroke-width:0.5;" x1="8" x2="168" y1="397" y2="397"/><text fill="#000000" font-family="sans-serif" font-size="14" lengthAdjust="spacing" textLength="145" x="13" y="413.9951">accessToken : string</text><text fill="#000000" font-family="sans-serif" font-size="14" lengthAdjust="spacing" textLength="150" x="13" y="430.292">expiresAt : timestamp</text></g><!--class Error--><g id="elem_Error"><rect codeLine="16" fill="#F1F1F1" height="72.5938" id="Error" rx="2.5" ry="2.5" style="stroke:#181818;stroke-width:0.5;" width="162" x="373" y="365"/><ellipse cx="433.25" cy="381" fill="#ADD1B2" rx="11" ry="11" style="stroke:#181818;stroke-width:1.0;"/><path d="M436.2188,386.6406 Q435.6406,386.9375 435,387.0781 Q434.3594,387.2344 433.6563,387.2344 Q431.1563,387.2344 429.8281,385.5938 Q428.5156,383.9375 428.5156,380.8125 Q428.5156,377.6875 429.8281,376.0313 Q431.1563,374.375 433.6563,374.375 Q434.3594,374.375 435,374.5313 Q435.6563,374.6875 436.2188,374.9844 L436.2188,377.7031 Q435.5938,377.125 435,376.8594 Q434.4063,376.5781 433.7813,376.5781 Q432.4375,376.5781 431.75,377.6563 Q431.0625,378.7188 431.0625,380.8125 Q431.0625,382.9063 431.75,383.9844 Q432.4375,385.0469 433.7813,385.0469 Q434.4063,385.0469 435,384.7813 Q435.5938,384.5 436.2188,383.9219 L436.2188,386.6406 Z " fill="#000000"/><text fill="#000000" font-family="sans-serif" font-size="14" lengthAdjust="spacing" textLength="33" x="453.75" y="385.8467">Error</text><line style="stroke:#181818;stroke-width:0.5;" x1="374" x2="534" y1="397" y2="397"/><text fill="#000000" font-family="sans-serif" font-size="14" lengthAdjust="spacing" textLength="87" x="379" y="413.9951">code : string</text><text fill="#000000" font-family="sans-serif" font-size="14" lengthAdjust="spacing" textLength="150" x="379" y="430.292">message : timestamp</text></g><!--class Author--><g id="elem_Author"><rect codeLine="21" fill="#F1F1F1" height="105.1875" id="Author" rx="2.5" ry="2.5" style="stroke:#181818;stroke-width:0.5;" width="151" x="611.5" y="539"/><ellipse cx="659.75" cy="555" fill="#ADD1B2" rx="11" ry="11" style="stroke:#181818;stroke-width:1.0;"/><path d="M662.7188,560.6406 Q662.1406,560.9375 661.5,561.0781 Q660.8594,561.2344 660.1563,561.2344 Q657.6563,561.2344 656.3281,559.5938 Q655.0156,557.9375 655.0156,554.8125 Q655.0156,551.6875 656.3281,550.0313 Q657.6563,548.375 660.1563,548.375 Q660.8594,548.375 661.5,548.5313 Q662.1563,548.6875 662.7188,548.9844 L662.7188,551.7031 Q662.0938,551.125 661.5,550.8594 Q660.9063,550.5781 660.2813,550.5781 Q658.9375,550.5781 658.25,551.6563 Q657.5625,552.7188 657.5625,554.8125 Q657.5625,556.9063 658.25,557.9844 Q658.9375,559.0469 660.2813,559.0469 Q660.9063,559.0469 661.5,558.7813 Q662.0938,558.5 662.7188,557.9219 L662.7188,560.6406 Z " fill="#000000"/><text fill="#000000" font-family="sans-serif" font-size="14" lengthAdjust="spacing" textLength="46" x="680.25" y="559.8467">Author</text><line style="stroke:#181818;stroke-width:0.5;" x1="612.5" x2="761.5" y1="571" y2="571"/><text fill="#000000" font-family="sans-serif" font-size="14" lengthAdjust="spacing" textLength="110" x="617.5" y="587.9951">fullname : string</text><text fill="#000000" font-family="sans-serif" font-size="14" lengthAdjust="spacing" textLength="137" x="617.5" y="604.292">country : string {O}</text><text fill="#000000" font-family="sans-serif" font-size="14" lengthAdjust="spacing" textLength="139" x="617.5" y="620.5889">birthYear : date {O}</text><text fill="#000000" font-family="sans-serif" font-size="14" lengthAdjust="spacing" textLength="135" x="617.5" y="636.8857">gender : string {O}</text></g><!--class BookGenre--><g id="elem_BookGenre"><rect codeLine="28" fill="#F1F1F1" height="121.4844" id="BookGenre" rx="2.5" ry="2.5" style="stroke:#181818;stroke-width:0.5;" width="111" x="869.5" y="531"/><ellipse cx="884.5" cy="547" fill="#EB937F" rx="11" ry="11" style="stroke:#181818;stroke-width:1.0;"/><path d="M888.6094,553 L880.8906,553 L880.8906,540.6094 L888.6094,540.6094 L888.6094,542.7656 L883.3438,542.7656 L883.3438,545.4375 L888.1094,545.4375 L888.1094,547.5938 L883.3438,547.5938 L883.3438,550.8438 L888.6094,550.8438 L888.6094,553 Z " fill="#000000"/><text fill="#000000" font-family="sans-serif" font-size="14" lengthAdjust="spacing" textLength="79" x="898.5" y="551.8467">BookGenre</text><line style="stroke:#181818;stroke-width:0.5;" x1="870.5" x2="979.5" y1="563" y2="563"/><text fill="#000000" font-family="sans-serif" font-size="14" lengthAdjust="spacing" textLength="63" x="875.5" y="579.9951">FANTASY</text><text fill="#000000" font-family="sans-serif" font-size="14" lengthAdjust="spacing" textLength="62" x="875.5" y="596.292">HORROR</text><text fill="#000000" font-family="sans-serif" font-size="14" lengthAdjust="spacing" textLength="57" x="875.5" y="612.5889">CLASSIC</text><text fill="#000000" font-family="sans-serif" font-size="14" lengthAdjust="spacing" textLength="54" x="875.5" y="628.8857">HOMOR</text><text fill="#000000" font-family="sans-serif" font-size="14" lengthAdjust="spacing" textLength="49" x="875.5" y="645.1826">OTHER</text></g><!--class Book--><g id="elem_Book"><rect codeLine="36" fill="#F1F1F1" height="105.1875" id="Book" rx="2.5" ry="2.5" style="stroke:#181818;stroke-width:0.5;" width="180" x="597" y="349"/><ellipse cx="664.75" cy="365" fill="#ADD1B2" rx="11" ry="11" style="stroke:#181818;stroke-width:1.0;"/><path d="M667.7188,370.6406 Q667.1406,370.9375 666.5,371.0781 Q665.8594,371.2344 665.1563,371.2344 Q662.6563,371.2344 661.3281,369.5938 Q660.0156,367.9375 660.0156,364.8125 Q660.0156,361.6875 661.3281,360.0313 Q662.6563,358.375 665.1563,358.375 Q665.8594,358.375 666.5,358.5313 Q667.1563,358.6875 667.7188,358.9844 L667.7188,361.7031 Q667.0938,361.125 666.5,360.8594 Q665.9063,360.5781 665.2813,360.5781 Q663.9375,360.5781 663.25,361.6563 Q662.5625,362.7188 662.5625,364.8125 Q662.5625,366.9063 663.25,367.9844 Q663.9375,369.0469 665.2813,369.0469 Q665.9063,369.0469 666.5,368.7813 Q667.0938,368.5 667.7188,367.9219 L667.7188,370.6406 Z " fill="#000000"/><text fill="#000000" font-family="sans-serif" font-size="14" lengthAdjust="spacing" textLength="36" x="685.25" y="369.8467">Book</text><line style="stroke:#181818;stroke-width:0.5;" x1="598" x2="776" y1="381" y2="381"/><text fill="#000000" font-family="sans-serif" font-size="14" lengthAdjust="spacing" textLength="74" x="603" y="397.9951">id : integer</text><text fill="#000000" font-family="sans-serif" font-size="14" lengthAdjust="spacing" textLength="77" x="603" y="414.292">title : string</text><text fill="#000000" font-family="sans-serif" font-size="14" lengthAdjust="spacing" textLength="135" x="603" y="430.5889">totalPages : integer</text><text fill="#000000" font-family="sans-serif" font-size="14" lengthAdjust="spacing" textLength="168" x="603" y="446.8857">publishingHouse : string</text></g><!--class UnauthorizedError--><g id="elem_UnauthorizedError"><rect codeLine="43" fill="#F1F1F1" height="40.2656" id="UnauthorizedError" rx="2.5" ry="2.5" style="stroke:#181818;stroke-width:0.5;" width="132" x="812" y="381.5"/><text fill="#000000" font-family="sans-serif" font-size="12" font-style="italic" lengthAdjust="spacing" textLength="74" x="841" y="397.6387">&#171;Response&#187;</text><text fill="#000000" font-family="sans-serif" font-size="14" lengthAdjust="spacing" textLength="126" x="815" y="413.4639">UnauthorizedError</text></g><!--class login--><g id="elem_login"><rect codeLine="46" fill="#F5DEB3" height="54.2344" id="login" rx="2.5" ry="2.5" style="stroke:#181818;stroke-width:0.5;" width="110" x="216" y="195"/><ellipse cx="231" cy="222.1172" fill="#ADD1B2" rx="11" ry="11" style="stroke:#181818;stroke-width:1.0;"/><path d="M233.9688,227.7578 Q233.3906,228.0547 232.75,228.1953 Q232.1094,228.3516 231.4063,228.3516 Q228.9063,228.3516 227.5781,226.7109 Q226.2656,225.0547 226.2656,221.9297 Q226.2656,218.8047 227.5781,217.1484 Q228.9063,215.4922 231.4063,215.4922 Q232.1094,215.4922 232.75,215.6484 Q233.4063,215.8047 233.9688,216.1016 L233.9688,218.8203 Q233.3438,218.2422 232.75,217.9766 Q232.1563,217.6953 231.5313,217.6953 Q230.1875,217.6953 229.5,218.7734 Q228.8125,219.8359 228.8125,221.9297 Q228.8125,224.0234 229.5,225.1016 Q230.1875,226.1641 231.5313,226.1641 Q232.1563,226.1641 232.75,225.8984 Q233.3438,225.6172 233.9688,225.0391 L233.9688,227.7578 Z " fill="#000000"/><text fill="#000000" font-family="sans-serif" font-size="12" font-style="italic" lengthAdjust="spacing" textLength="42" x="263" y="211.1387">&#171;Path&#187;</text><text fill="#000000" font-family="sans-serif" font-size="12" font-style="italic" lengthAdjust="spacing" textLength="82" x="243" y="225.1074">&#171;POST /login&#187;</text><text fill="#000000" font-family="sans-serif" font-size="14" lengthAdjust="spacing" textLength="33" x="267.5" y="240.9326">login</text></g><!--class login Request--><g id="elem_login Request"><rect codeLine="49" fill="#F1F1F1" height="80.8594" id="login Request" rx="2.5" ry="2.5" style="stroke:#181818;stroke-width:0.5;" width="134" x="204" y="361"/><ellipse cx="221.7" cy="381.1328" fill="#ADD1B2" rx="11" ry="11" style="stroke:#181818;stroke-width:1.0;"/><path d="M224.6688,386.7734 Q224.0906,387.0703 223.45,387.2109 Q222.8094,387.3672 222.1063,387.3672 Q219.6063,387.3672 218.2781,385.7266 Q216.9656,384.0703 216.9656,380.9453 Q216.9656,377.8203 218.2781,376.1641 Q219.6063,374.5078 222.1063,374.5078 Q222.8094,374.5078 223.45,374.6641 Q224.1063,374.8203 224.6688,375.1172 L224.6688,377.8359 Q224.0438,377.2578 223.45,376.9922 Q222.8563,376.7109 222.2313,376.7109 Q220.8875,376.7109 220.2,377.7891 Q219.5125,378.8516 219.5125,380.9453 Q219.5125,383.0391 220.2,384.1172 Q220.8875,385.1797 222.2313,385.1797 Q222.8563,385.1797 223.45,384.9141 Q224.0438,384.6328 224.6688,384.0547 L224.6688,386.7734 Z " fill="#000000"/><text fill="#000000" font-family="sans-serif" font-size="12" font-style="italic" lengthAdjust="spacing" textLength="96" x="236.3" y="377.1387">&#171;RequestBody&#187;</text><text fill="#000000" font-family="sans-serif" font-size="14" lengthAdjust="spacing" textLength="96" x="236.3" y="392.9639">login Request</text><line style="stroke:#181818;stroke-width:0.5;" x1="205" x2="337" y1="401.2656" y2="401.2656"/><text fill="#000000" font-family="sans-serif" font-size="14" lengthAdjust="spacing" textLength="122" x="210" y="418.2607">username : string</text><text fill="#000000" font-family="sans-serif" font-size="14" lengthAdjust="spacing" textLength="119" x="210" y="434.5576">password : string</text></g><!--class findBooks--><g id="elem_findBooks"><rect codeLine="54" fill="#F5DEB3" height="111.125" id="findBooks" rx="2.5" ry="2.5" style="stroke:#181818;stroke-width:0.5;" width="144" x="761" y="7"/><ellipse cx="790.85" cy="34.1172" fill="#ADD1B2" rx="11" ry="11" style="stroke:#181818;stroke-width:1.0;"/><path d="M793.8188,39.7578 Q793.2406,40.0547 792.6,40.1953 Q791.9594,40.3516 791.2563,40.3516 Q788.7563,40.3516 787.4281,38.7109 Q786.1156,37.0547 786.1156,33.9297 Q786.1156,30.8047 787.4281,29.1484 Q788.7563,27.4922 791.2563,27.4922 Q791.9594,27.4922 792.6,27.6484 Q793.2563,27.8047 793.8188,28.1016 L793.8188,30.8203 Q793.1938,30.2422 792.6,29.9766 Q792.0063,29.6953 791.3813,29.6953 Q790.0375,29.6953 789.35,30.7734 Q788.6625,31.8359 788.6625,33.9297 Q788.6625,36.0234 789.35,37.1016 Q790.0375,38.1641 791.3813,38.1641 Q792.0063,38.1641 792.6,37.8984 Q793.1938,37.6172 793.8188,37.0391 L793.8188,39.7578 Z " fill="#000000"/><text fill="#000000" font-family="sans-serif" font-size="12" font-style="italic" lengthAdjust="spacing" textLength="42" x="826.65" y="23.1387">&#171;Path&#187;</text><text fill="#000000" font-family="sans-serif" font-size="12" font-style="italic" lengthAdjust="spacing" textLength="83" x="806.15" y="37.1074">&#171;GET /books&#187;</text><text fill="#000000" font-family="sans-serif" font-size="14" lengthAdjust="spacing" textLength="69" x="813.15" y="52.9326">findBooks</text><line style="stroke:#181818;stroke-width:0.5;" x1="762" x2="904" y1="61.2344" y2="61.2344"/><text fill="#000000" font-family="sans-serif" font-size="14" lengthAdjust="spacing" textLength="101" x="767" y="78.2295">offset : integer</text><text fill="#000000" font-family="sans-serif" font-size="14" lengthAdjust="spacing" textLength="89" x="767" y="94.5264">limit : integer</text><text fill="#000000" font-family="sans-serif" font-size="14" lengthAdjust="spacing" textLength="132" x="767" y="110.8232">search : string {O}</text></g><!--class findBooks.genre--><g id="elem_findBooks.genre"><rect codeLine="60" fill="#F1F1F1" height="40.2656" id="findBooks.genre" rx="2.5" ry="2.5" style="stroke:#181818;stroke-width:0.5;" width="120" x="937" y="279"/><text fill="#000000" font-family="sans-serif" font-size="12" font-style="italic" lengthAdjust="spacing" textLength="79" x="957.5" y="295.1387">&#171;Parameter&#187;</text><text fill="#000000" font-family="sans-serif" font-size="14" lengthAdjust="spacing" textLength="114" x="940" y="310.9639">findBooks.genre</text></g><!--class findBooks 200--><g id="elem_findBooks 200"><rect codeLine="63" fill="#F1F1F1" height="40.2656" id="findBooks 200" rx="2.5" ry="2.5" style="stroke:#181818;stroke-width:0.5;" width="106" x="514" y="202"/><text fill="#000000" font-family="sans-serif" font-size="12" font-style="italic" lengthAdjust="spacing" textLength="74" x="530" y="218.1387">&#171;Response&#187;</text><text fill="#000000" font-family="sans-serif" font-size="14" lengthAdjust="spacing" textLength="100" x="517" y="233.9639">findBooks 200</text></g><!--class addBook--><g id="elem_addBook"><rect codeLine="66" fill="#F5DEB3" height="54.2344" id="addBook" rx="2.5" ry="2.5" style="stroke:#181818;stroke-width:0.5;" width="117" x="682.5" y="195"/><ellipse cx="697.5" cy="222.1172" fill="#ADD1B2" rx="11" ry="11" style="stroke:#181818;stroke-width:1.0;"/><path d="M700.4688,227.7578 Q699.8906,228.0547 699.25,228.1953 Q698.6094,228.3516 697.9063,228.3516 Q695.4063,228.3516 694.0781,226.7109 Q692.7656,225.0547 692.7656,221.9297 Q692.7656,218.8047 694.0781,217.1484 Q695.4063,215.4922 697.9063,215.4922 Q698.6094,215.4922 699.25,215.6484 Q699.9063,215.8047 700.4688,216.1016 L700.4688,218.8203 Q699.8438,218.2422 699.25,217.9766 Q698.6563,217.6953 698.0313,217.6953 Q696.6875,217.6953 696,218.7734 Q695.3125,219.8359 695.3125,221.9297 Q695.3125,224.0234 696,225.1016 Q696.6875,226.1641 698.0313,226.1641 Q698.6563,226.1641 699.25,225.8984 Q699.8438,225.6172 700.4688,225.0391 L700.4688,227.7578 Z " fill="#000000"/><text fill="#000000" font-family="sans-serif" font-size="12" font-style="italic" lengthAdjust="spacing" textLength="42" x="733" y="211.1387">&#171;Path&#187;</text><text fill="#000000" font-family="sans-serif" font-size="12" font-style="italic" lengthAdjust="spacing" textLength="89" x="709.5" y="225.1074">&#171;POST /books&#187;</text><text fill="#000000" font-family="sans-serif" font-size="14" lengthAdjust="spacing" textLength="62" x="723" y="240.9326">addBook</text></g><!--link Book to BookGenre--><g id="link_Book_BookGenre"><path codeLine="69" d="M752.35,454.12 C789.09,483.14 829.752,515.2604 864.762,542.9204 " fill="none" id="Book-to-BookGenre" style="stroke:#181818;stroke-width:1.0;"/><polygon fill="#181818" points="869.47,546.64,864.8878,537.922,865.5467,543.5404,859.9284,544.1993,869.47,546.64" style="stroke:#181818;stroke-width:1.0;"/><text fill="#000000" font-family="sans-serif" font-size="13" lengthAdjust="spacing" textLength="37" x="807" y="497.0669">genre</text><text fill="#000000" font-family="sans-serif" font-size="13" lengthAdjust="spacing" textLength="24" x="837.6618" y="537.6324">0..1</text></g><!--link Book to Author--><g id="link_Book_Author"><path codeLine="71" d="M687,454.37 C687,480.67 687,506.52 687,532.8 " fill="none" id="Book-to-Author" style="stroke:#181818;stroke-width:1.0;"/><polygon fill="#181818" points="687,538.8,691,529.8,687,533.8,683,529.8,687,538.8" style="stroke:#181818;stroke-width:1.0;"/><text fill="#000000" font-family="sans-serif" font-size="13" lengthAdjust="spacing" textLength="8" x="678.4625" y="527.7738">1</text></g><!--link login to AccessToken--><g id="link_login_AccessToken"><path codeLine="73" d="M244,249.19 C212.48,279.76 164.4969,326.3026 129.2369,360.5026 " fill="none" id="login-to-AccessToken" style="stroke:#181818;stroke-width:1.0;stroke-dasharray:7.0,7.0;"/><polygon fill="#181818" points="124.93,364.68,134.1753,361.2851,128.5191,361.1988,128.6054,355.5426,124.93,364.68" style="stroke:#181818;stroke-width:1.0;"/><text fill="#000000" font-family="sans-serif" font-size="13" lengthAdjust="spacing" textLength="24" x="213" y="303.5669">200</text><text fill="#000000" font-family="sans-serif" font-size="13" lengthAdjust="spacing" textLength="8" x="122.7957" y="353.9004">1</text></g><!--link login to Error--><g id="link_login_Error"><path codeLine="75" d="M298,249.19 C329.52,279.76 377.5031,326.3026 412.7631,360.5026 " fill="none" id="login-to-Error" style="stroke:#181818;stroke-width:1.0;stroke-dasharray:7.0,7.0;"/><polygon fill="#181818" points="417.07,364.68,413.3946,355.5426,413.4809,361.1988,407.8247,361.2851,417.07,364.68" style="stroke:#181818;stroke-width:1.0;"/><text fill="#000000" font-family="sans-serif" font-size="13" lengthAdjust="spacing" textLength="24" x="369" y="303.5669">400</text><text fill="#000000" font-family="sans-serif" font-size="13" lengthAdjust="spacing" textLength="8" x="401.7793" y="353.9004">1</text></g><!--link login to login Request--><g id="link_login_login Request"><path codeLine="77" d="M271,249.19 C271,278.6 271,320.67 271,354.72 " fill="none" id="login-to-login Request" style="stroke:#181818;stroke-width:1.0;"/><polygon fill="#181818" points="271,360.72,275,351.72,271,355.72,267,351.72,271,360.72" style="stroke:#181818;stroke-width:1.0;"/><text fill="#000000" font-family="sans-serif" font-size="13" lengthAdjust="spacing" textLength="8" x="262.3375" y="349.8132">1</text></g><!--link findBooks.genre to BookGenre--><g id="link_findBooks.genre_BookGenre"><path codeLine="79" d="M992.94,319.03 C986.66,348.17 974.06,405.58 962,454 C955.71,479.25 949.8796,501.2144 943.3296,525.0544 " fill="none" id="findBooks.genre-to-BookGenre" style="stroke:#181818;stroke-width:1.0;"/><polygon fill="#181818" points="941.74,530.84,947.9814,523.2213,943.0647,526.0187,940.2673,521.1019,941.74,530.84" style="stroke:#181818;stroke-width:1.0;"/><text fill="#000000" font-family="sans-serif" font-size="13" lengthAdjust="spacing" textLength="8" x="935.2131" y="520.0056">1</text></g><!--link findBooks to findBooks.genre--><g id="link_findBooks_findBooks.genre"><path codeLine="81" d="M905.13,111.58 C917.94,122.44 930.27,134.73 940,148 C970.31,189.34 985.1984,242.8829 991.8984,273.0329 " fill="none" id="findBooks-to-findBooks.genre" style="stroke:#181818;stroke-width:1.0;"/><polygon fill="#181818" points="993.2,278.89,995.1524,269.2366,992.1153,274.0091,987.3429,270.972,993.2,278.89" style="stroke:#181818;stroke-width:1.0;"/><text fill="#000000" font-family="sans-serif" font-size="13" lengthAdjust="spacing" textLength="37" x="951" y="161.0669">genre</text><text fill="#000000" font-family="sans-serif" font-size="13" lengthAdjust="spacing" textLength="24" x="964.5588" y="267.827">0..1</text></g><!--link findBooks 200 to Book--><g id="link_findBooks 200_Book"><path codeLine="83" d="M526.86,242.07 C512.52,251.1 497.95,263.39 490,279 C481.93,294.84 480.12,304.22 490,319 C493.43,324.13 541.0772,343.8018 591.3372,363.5918 " fill="none" id="findBooks 200-to-Book" style="stroke:#181818;stroke-width:1.0;"/><polygon fill="#181818" points="596.92,365.79,590.0113,358.7708,592.2677,363.9581,587.0803,366.2145,596.92,365.79" style="stroke:#181818;stroke-width:1.0;"/><text fill="#000000" font-family="sans-serif" font-size="13" lengthAdjust="spacing" textLength="7" x="581.878" y="359.1412">*</text></g><!--link findBooks to findBooks 200--><g id="link_findBooks_findBooks 200"><path codeLine="85" d="M760.67,106.33 C707.9,137.57 644.0728,175.363 604.2828,198.923 " fill="none" id="findBooks-to-findBooks 200" style="stroke:#181818;stroke-width:1.0;stroke-dasharray:7.0,7.0;"/><polygon fill="#181818" points="599.12,201.98,608.9022,200.8364,603.4224,199.4325,604.8263,193.9527,599.12,201.98" style="stroke:#181818;stroke-width:1.0;"/><text fill="#000000" font-family="sans-serif" font-size="13" lengthAdjust="spacing" textLength="24" x="686" y="161.0669">200</text><text fill="#000000" font-family="sans-serif" font-size="13" lengthAdjust="spacing" textLength="8" x="599.3803" y="190.9434">1</text></g><!--link findBooks to UnauthorizedError--><g id="link_findBooks_UnauthorizedError"><path codeLine="87" d="M840.28,118.02 C850.53,194.77 867.916,324.9628 874.626,375.2228 " fill="none" id="findBooks-to-UnauthorizedError" style="stroke:#181818;stroke-width:1.0;stroke-dasharray:7.0,7.0;"/><polygon fill="#181818" points="875.42,381.17,878.1938,371.7198,874.7583,376.214,870.2642,372.7785,875.42,381.17" style="stroke:#181818;stroke-width:1.0;"/><text fill="#000000" font-family="sans-serif" font-size="13" lengthAdjust="spacing" textLength="24" x="858" y="226.5669">401</text><text fill="#000000" font-family="sans-serif" font-size="13" lengthAdjust="spacing" textLength="8" x="865.5694" y="370.391">1</text></g><!--link findBooks to Error--><g id="link_findBooks_Error"><path codeLine="89" d="M760.99,67.35 C676.44,76.09 539,104.32 470,195 C432.62,244.12 437.3244,314.4383 445.0444,358.9383 " fill="none" id="findBooks-to-Error" style="stroke:#181818;stroke-width:1.0;stroke-dasharray:7.0,7.0;"/><polygon fill="#181818" points="446.07,364.85,448.4728,355.2987,445.2153,359.9236,440.5905,356.6662,446.07,364.85" style="stroke:#181818;stroke-width:1.0;"/><text fill="#000000" font-family="sans-serif" font-size="13" lengthAdjust="spacing" textLength="24" x="471" y="226.5669">400</text><text fill="#000000" font-family="sans-serif" font-size="13" lengthAdjust="spacing" textLength="8" x="435.8704" y="353.8264">1</text></g><!--link addBook to Book--><g id="link_addBook_Book"><path codeLine="91" d="M753.91,249.34 C761.73,269.01 768.68,296.31 760,319 C756,329.47 753.5792,334.6545 746.6592,343.8045 " fill="none" id="addBook-to-Book" style="stroke:#181818;stroke-width:1.0;stroke-dasharray:7.0,7.0;"/><polygon fill="#181818" points="743.04,348.59,751.6592,343.8245,746.056,344.6021,745.2785,338.9989,743.04,348.59" style="stroke:#181818;stroke-width:1.0;"/><text fill="#000000" font-family="sans-serif" font-size="13" lengthAdjust="spacing" textLength="24" x="765" y="303.5669">201</text><text fill="#000000" font-family="sans-serif" font-size="13" lengthAdjust="spacing" textLength="8" x="741.7076" y="337.9134">1</text></g><!--link addBook to Book--><g id="link_addBook_Book"><path codeLine="93" d="M682.19,237.24 C644.35,247.73 600.22,262.91 589,279 C572.49,302.67 582.3339,323.5434 604.5339,344.6734 " fill="none" id="addBook-to-Book-1" style="stroke:#181818;stroke-width:1.0;stroke-dasharray:7.0,7.0;"/><polygon fill="#181818" points="608.88,348.81,605.1186,339.7077,605.2583,345.3628,599.6031,345.5025,608.88,348.81" style="stroke:#181818;stroke-width:1.0;"/><text fill="#000000" font-family="sans-serif" font-size="13" lengthAdjust="spacing" textLength="124" x="590" y="303.5669">201 application/xml</text><text fill="#000000" font-family="sans-serif" font-size="13" lengthAdjust="spacing" textLength="8" x="589.8451" y="337.7852">1</text></g><!--link addBook to Book--><g id="link_addBook_Book"><path codeLine="99" d="M736.06,249.36 C732.15,268.8 726.17,295.8 719,319 C715.99,328.73 714.5012,333.3413 710.7812,343.1313 " fill="none" id="addBook-to-Book-2" style="stroke:#181818;stroke-width:1.0;"/><polygon fill="#181818" points="708.65,348.74,715.586,341.7477,710.426,344.0661,708.1076,338.9061,708.65,348.74" style="stroke:#181818;stroke-width:1.0;"/><text fill="#000000" font-family="sans-serif" font-size="13" lengthAdjust="spacing" textLength="8" x="702.9114" y="338.0826">1</text></g><!--link addBook to Error--><g id="link_addBook_Error"><path codeLine="95" d="M682.31,238.06 C629.79,251.86 559.36,271.27 548,279 C515.7,300.98 492.6739,332.4492 476.2439,359.7492 " fill="none" id="addBook-to-Error" style="stroke:#181818;stroke-width:1.0;stroke-dasharray:7.0,7.0;"/><polygon fill="#181818" points="473.15,364.89,481.218,359.2414,475.7282,360.606,474.3636,355.1162,473.15,364.89" style="stroke:#181818;stroke-width:1.0;"/><text fill="#000000" font-family="sans-serif" font-size="13" lengthAdjust="spacing" textLength="24" x="549" y="303.5669">400</text><text fill="#000000" font-family="sans-serif" font-size="13" lengthAdjust="spacing" textLength="8" x="467.9433" y="353.8738">1</text></g><!--link addBook to UnauthorizedError--><g id="link_addBook_UnauthorizedError"><path codeLine="97" d="M770.05,249.23 C779.41,258.27 789.54,268.71 798,279 C825.75,312.75 849.5039,351.189 863.9539,375.929 " fill="none" id="addBook-to-UnauthorizedError" style="stroke:#181818;stroke-width:1.0;stroke-dasharray:7.0,7.0;"/><polygon fill="#181818" points="866.98,381.11,865.8949,371.3211,864.4583,376.7925,858.9869,375.3559,866.98,381.11" style="stroke:#181818;stroke-width:1.0;"/><text fill="#000000" font-family="sans-serif" font-size="13" lengthAdjust="spacing" textLength="24" x="827" y="303.5669">401</text><text fill="#000000" font-family="sans-serif" font-size="13" lengthAdjust="spacing" textLength="8" x="854.7556" y="370.3142">1</text></g><!--SRC=[ZLHDZzem4BtdLrWvLbeMgfwg5L90TAdK5XIeLdiqyP1OE7PgE-fIn7_lv6EJE7ZRlJdpthnvCnudump8myEMscm-9mdNYO0WQu8nc4990pV0bcgQWmKzGY0lx9aWaYbcXg4Z1u4HS-Aog7998gWnv18iQ79AjIebMogXT6VaAGDgWsjWm1A9jKn14zX1bMoL9b99289698oI18pPgnF842K9kTJbheJs0FbCZDLSfWCONWgkmKGMGSknXgLvWJLVTLTQA-qg9WfRyaXXig4fl24KbJYGaTAn5A9gpAUMu3oiFdSGkMok0_Z0jSsUWMeaC6fX1ASW6MWt6Rs0B7CIBfGwFOBKqBZv4ltOHxjdFAqtSRo9yR3y5krsNvTrw7iTsUpNgtZGJgNXDiCPbkFIGWfw4BRS2c-3LbagjZWmuyqhoeFW9iESjIhDGA7ty5FIUgZy3x3sdfnzHNizMQYKox3VykgqsUt9VGrusII6NoLUP2DR7nUAdHjkxnJTwRTkiK2rtqepd_qZbwmQet5TFQxGrA6AZmkfux5w2hvf2PvpFs9mHvBiPXF67YPfin3kktPcqd79n-dqNwEcZ3NhSJliGL_8RxVexcvEmkbaCWkTtKJF96nikTIArpud1DgBdKnUaU6VeDQex7g8xShKb4yEfQlYhW4IRkRLKNlZGvhRt4sss-9em7NcXrPwfDerCSePzkkZUvvCs__ihHJFcBeBxaZDPrjzzXuEeKKXU48jL_B-9HV-d7SL_qzJNO9pLs7m5m00]--></g></svg>